<?xml version="1.0" encoding="UTF-8" standalone="no"?>
<!-- Created with Inkscape (http://www.inkscape.org/) -->

<svg
   width="177.9545mm"
   height="10.344372mm"
   viewBox="0 0 177.9545 10.344371"
   version="1.1"
   id="svg1"
   inkscape:version="1.4 (e7c3feb100, 2024-10-09)"
   sodipodi:docname="bidi-expected.svg"
   xmlns:inkscape="http://www.inkscape.org/namespaces/inkscape"
   xmlns:sodipodi="http://sodipodi.sourceforge.net/DTD/sodipodi-0.dtd"
   xmlns="http://www.w3.org/2000/svg"
   xmlns:svg="http://www.w3.org/2000/svg">
  <sodipodi:namedview
     id="namedview1"
     pagecolor="#ffffff"
     bordercolor="#666666"
     borderopacity="1.0"
     inkscape:showpageshadow="2"
     inkscape:pageopacity="0.0"
     inkscape:pagecheckerboard="0"
     inkscape:deskcolor="#d1d1d1"
     inkscape:document-units="mm"
     inkscape:zoom="4.5580023"
     inkscape:cx="339.62247"
     inkscape:cy="14.589725"
     inkscape:window-width="1916"
     inkscape:window-height="964"
     inkscape:window-x="0"
     inkscape:window-y="94"
     inkscape:window-maximized="1"
     inkscape:current-layer="layer1" />
  <defs
     id="defs1" />
  <g
     inkscape:label="Calque 1"
     inkscape:groupmode="layer"
     id="layer1"
     transform="translate(-120.12083,-392.90624)">
    <path
       d="m 297.30021,400.58033 q 0.0406,-0.23537 0.0406,-0.52756 0,-0.51133 -0.21508,-1.06324 h 0.7467 q 0.20291,0.47886 0.20291,1.01454 0,0.33277 -0.0325,0.58438 -0.16638,1.34325 -1.50964,2.04532 -1.10788,0.58032 -3.10044,0.61684 v -0.7467 q 1.80183,0 2.69462,-0.51945 1.03484,-0.59249 1.17282,-1.40413 z m -6.23337,-1.55428 q 0.16639,-0.1745 0.16639,-0.48698 0,-0.23943 -0.26784,-0.4464 -0.12581,-0.10145 -0.30437,-0.0974 -0.21102,0.004 -0.37335,0.1745 -0.16232,0.16638 -0.16638,0.37335 0,0.32465 0.2232,0.47886 0.16232,0.10146 0.33277,0.10146 0.29219,0 0.38958,-0.0974 z m -2.50795,1.43254 h 0.97802 q 0.34089,0 0.95367,-0.0933 0.3206,-0.0487 0.56409,-0.42611 0.1258,-0.19479 0.18667,-0.3977 -0.25566,0.2232 -0.6493,0.23132 -0.52757,0.008 -0.8441,-0.2719 -0.39771,-0.35306 -0.39771,-0.87657 0,-0.21102 0.0325,-0.38958 0.0933,-0.60061 0.70206,-0.88063 0.31654,-0.14609 0.62496,-0.14609 0.36524,0 0.63308,0.20291 0.38958,0.29219 0.57626,0.70612 0.0933,0.20697 0.0933,0.77511 0,0.8441 -0.31654,1.42442 -0.30031,0.55191 -0.80352,0.73047 -0.44234,0.15827 -1.03078,0.15827 h -1.30267 z m 2.31316,-4.52892 h 0.60873 v 0.60872 h -0.60873 z m -1.01454,0 h 0.60872 v 0.60872 h -0.60872 z m -4.0947,4.59385 q 0.4951,0.17044 0.80352,0.17044 0.17856,0 0.26378,-0.0893 0.21509,-0.23131 0.21509,-0.46669 0,-0.0974 -0.0244,-0.17856 -0.0852,-0.35712 -0.32466,-0.42611 -0.16232,-0.0487 -0.349,-0.0487 -0.23943,0 -0.349,0.10957 -0.27596,0.27595 -0.27596,0.55191 0,0.16233 0.0406,0.37741 z m 1.77748,0.47075 q -0.0609,0.0568 -0.11362,0.0893 -0.53974,0.32465 -0.8441,0.32465 -0.85222,0 -1.30674,-0.31654 -0.14203,-0.10145 -0.43828,0.20291 -0.10145,0.10551 -0.10145,0.42611 v 1.48123 h -0.81164 v -1.48123 q 0,-0.70206 0.48698,-1.116 0.26378,-0.2232 0.56003,-0.2232 -0.008,-0.17044 -0.008,-0.33277 0,-0.60061 0.65743,-1.13629 0.31248,-0.25566 0.68583,-0.25566 0.29219,0 0.63307,0.14609 0.68989,0.28813 0.85222,1.01455 0.0568,0.25972 0.2232,0.45045 0.16639,0.19074 0.58032,0.19074 h 0.1258 v 0.7467 h -0.349 q -0.70206,0 -0.83193,-0.21102 z m -12.49502,-1.29456 q 0,0.72235 -0.35306,1.13223 -0.32465,0.37335 -1.42848,0.37335 h -2.36185 v -0.7467 h 2.1346 q 0.88468,0 1.06324,-0.17856 0.19885,-0.19885 0.19885,-0.62902 v -4.76024 h 0.7467 z m -5.70578,0.75888 q 0,-0.30842 -0.0649,-0.53974 -0.0974,-0.32465 -0.28408,-0.4464 -0.24349,-0.16638 -0.48698,-0.0609 -0.2719,0.11769 -0.32465,0.34494 -0.069,0.30437 0.19073,0.52351 0.19074,0.16233 0.96991,0.17856 z m 0.72641,0 h 0.99831 v 0.7467 h -0.78729 l -0.28407,-0.004 q -0.10145,0.63308 -0.62496,1.15658 -0.33683,0.33683 -0.76293,0.52757 -0.77917,0.349 -2.26041,0.349 v -0.74671 q 1.465,0 2.00068,-0.30842 0.68178,-0.38552 0.93338,-0.98613 -0.47886,-0.0122 -0.66148,-0.0406 -0.56409,-0.0974 -0.77105,-0.2719 -0.43017,-0.36118 -0.47075,-0.90903 -0.008,-0.12581 0.0325,-0.35712 0.10957,-0.62902 0.8238,-0.93338 0.23944,-0.10146 0.50322,-0.0974 0.35306,0.008 0.63307,0.20697 0.53974,0.37335 0.62902,0.94555 0.0528,0.33683 0.069,0.72236 z m -5.6368,-1.44877 q -0.33683,-0.0933 -0.75482,-0.18668 -0.34494,-0.0771 -1.07542,-0.14203 -0.33277,-0.0284 -0.98613,-0.004 v -0.7467 q 0.29219,-0.0284 0.59655,-0.0325 0.65742,0 1.35543,0.14204 1.04701,0.21102 1.93981,0.60872 v 0.62496 q -0.30842,0.0974 -0.66554,0.30842 -0.67366,0.3977 -0.97397,0.66554 -0.58843,0.52351 -0.89279,0.63308 -0.89686,0.32465 -1.55834,0.32465 h -0.51945 v -0.7467 h 0.40582 q 0.9212,0 1.44471,-0.29219 0.42205,-0.23537 0.8928,-0.66554 0.38147,-0.349 0.79134,-0.49104 z m -5.60029,-2.06561 h 0.60873 v 0.60873 h -0.60873 z m -1.01454,0 h 0.60872 v 0.60873 h -0.60872 z m 1.29455,3.11668 q -0.0609,-0.17045 -0.11362,-0.3693 -0.0528,-0.20291 -0.10146,-0.61278 -0.48698,0.0487 -0.81975,0.32059 -0.45046,0.36118 -0.44234,0.61279 0.004,0.16638 0.36929,0.26784 0.36524,0.10145 1.10788,-0.21914 z m -0.27189,-1.56646 q -0.0162,-0.15827 -0.0284,-0.33277 h 0.7467 q 0.004,0.68177 0.15016,1.3879 0.0852,0.40987 0.31248,0.73047 0.1258,0.17856 0.58031,0.17856 h 0.45858 v 0.7467 h -0.68177 q -0.36524,0 -0.66149,-0.20697 -0.18262,-0.1258 -0.33683,-0.36523 -0.56002,0.29625 -1.1931,0.29625 -0.22726,0 -0.46263,-0.0609 -0.767,-0.19479 -0.767,-0.81975 0,-0.70206 0.82787,-1.21745 0.44234,-0.27596 1.05513,-0.33683 z m -13.39187,-3.60366 h 0.7467 v 6.31452 h -0.7467 z m -3.06799,4.80894 q 0,0.72235 -0.35306,1.13223 -0.32466,0.37335 -1.42848,0.37335 h -2.36186 v -0.7467 h 2.1346 q 0.88468,0 1.06324,-0.17856 0.19885,-0.19885 0.19885,-0.62902 v -4.76024 h 0.74671 z m -6.41597,-2.55259 h 0.60873 v 0.60872 h -0.60873 z m -1.01454,0 h 0.60872 v 0.60872 h -0.60872 z m 0.82381,3.70917 q -0.30843,0.349 -1.18093,0.349 h -1.35949 v -0.7467 h 1.13629 q 0.65742,0 0.83598,-0.17856 0.19479,-0.19885 0.19479,-0.62902 v -0.88062 h 0.74671 v 0.88062 q 0,0.43017 0.20291,0.62902 0.17856,0.17856 0.84004,0.17856 h 1.20933 v 0.7467 h -1.43253 q -0.86845,0 -1.1931,-0.349 z m -4.41936,-1.88299 h 0.74671 q 0.12174,0.45451 0.13392,0.57626 0.0406,0.41799 0.33682,0.73047 0.17045,0.17856 0.58032,0.17856 h 0.24349 v 0.7467 h -0.46669 q -0.52756,0 -0.73047,-0.25161 -0.23131,1.02672 -1.43659,1.66791 -1.15252,0.61279 -3.10045,0.61279 v -0.74671 q 1.80589,0 2.69463,-0.51944 1.03484,-0.60467 1.17281,-1.40413 0.0406,-0.23537 0.0406,-0.52756 0,-0.51133 -0.21509,-1.06324 z m -5.91682,-2.232 h 0.60873 v 0.60873 h -0.60873 z m 1.32297,2.26852 q -0.33683,-0.0933 -0.75482,-0.18668 -0.34495,-0.0771 -1.07542,-0.14203 -0.33277,-0.0284 -0.98614,-0.004 v -0.7467 q 0.29219,-0.0284 0.59656,-0.0325 0.65742,0 1.35543,0.14204 1.047,0.21102 1.9398,0.60872 v 0.62496 q -0.30842,0.0974 -0.66554,0.30842 -0.67365,0.3977 -0.97396,0.66554 -0.58843,0.52351 -0.8928,0.63308 -0.89685,0.32465 -1.55834,0.32465 h -0.51944 v -0.7467 h 0.40582 q 0.9212,0 1.4447,-0.29219 0.42206,-0.23537 0.8928,-0.66554 0.38147,-0.349 0.79135,-0.49104 z m -5.80724,2.8042 h 0.60872 v 0.60872 h -0.60872 z m -1.01455,0 h 0.60873 v 0.60872 h -0.60873 z m 0.82381,-0.95773 q -0.30842,0.349 -1.18093,0.349 h -1.35949 v -0.7467 h 1.13629 q 0.65743,0 0.83599,-0.17856 0.19479,-0.19885 0.19479,-0.62902 v -0.88062 h 0.7467 v 0.88062 q 0,0.43017 0.20291,0.62902 0.17856,0.17856 0.84004,0.17856 h 1.20934 v 0.7467 h -1.43254 q -0.86844,0 -1.1931,-0.349 z m -5.39737,-0.3977 h 0.5235 q 0.56815,0 0.86439,-0.18668 0.43017,-0.27595 0.43017,-0.56003 0,-0.18261 -0.16233,-0.33277 -0.14609,-0.13392 -0.40176,-0.13392 -0.28813,0 -0.71018,0.44234 -0.30436,0.31654 -0.54379,0.77106 z m 2.56476,-0.77106 q 0,0.21103 -0.1258,0.49916 0.0649,0.0406 0.12175,0.0933 0.18667,0.17856 0.3003,0.17856 h 0.15827 v 0.7467 h -0.23943 q -0.21103,0 -0.62496,-0.38147 l -0.11363,-0.10551 q -0.69801,0.48698 -1.24992,0.48698 h -0.88468 q -0.15421,0 -0.36524,-0.12174 -0.18261,-0.10552 -0.18261,-0.17045 0,0.71018 -0.19074,1.2418 -0.19073,0.52351 -0.3977,0.69801 -0.41393,0.349 -0.71424,0.349 -0.52756,0 -0.8928,-0.36523 -0.50727,-0.50727 -0.50727,-1.3392 0,-0.76294 0.40988,-1.46094 h 0.698 q -0.42205,0.82787 -0.42205,1.46094 0,0.58844 0.24349,0.79134 0.20291,0.16639 0.4464,0.15421 0.2719,-0.0162 0.42205,-0.25566 0.25973,-0.41799 0.25973,-0.98208 0,-0.42205 -0.0365,-0.67366 -0.13392,-0.86033 -0.18667,-1.15252 h 0.69394 q -0.004,0.0609 0.0528,0.28408 0.0406,0.16232 0.20291,0.36523 0.30842,-0.51944 0.50727,-0.76294 0.59249,-0.71829 1.20122,-0.71829 0.69395,0 1.06324,0.33277 0.35306,0.31654 0.35306,0.80757 z m -15.48995,0.42611 q 0.14609,-0.10957 0.28407,-0.36929 0.15827,-0.29219 0.15827,-0.53974 0,-0.18667 -0.0609,-0.33683 -0.0893,-0.21102 -0.32466,-0.21102 -0.26378,0 -0.35711,0.18262 -0.0893,0.1745 -0.0893,0.31653 0,0.12175 0.0284,0.2719 0.0852,0.47887 0.36118,0.68583 z m -1.28644,0.34495 q 0.21102,0 0.52756,-0.0446 -0.18262,-0.42611 -0.24349,-0.70612 -0.073,-0.31654 -0.073,-0.57627 0,-0.34088 0.18262,-0.67771 0.19479,-0.36524 0.50727,-0.32871 -0.17856,-0.15827 -0.50727,-0.21509 v -0.75076 q 0.88874,0.2719 1.78154,1.00237 1.05918,0.86845 1.29862,1.74907 0.0568,0.21103 0.0568,0.44235 0,0.41799 -0.16233,0.66554 -0.3003,0.45857 -1.01048,0.45857 -0.53162,0 -1.15658,-0.43828 -0.48698,0.16638 -1.07948,0.16638 h -0.71018 v -0.7467 z m 2.33751,-1.31485 q 0.0244,0.15015 0.0244,0.30842 0,0.56003 -0.3977,1.02266 -0.0487,0.0568 -0.11769,0.13392 0.21102,0.18668 0.40987,0.18668 0.51133,0 0.57626,-0.2719 0.0284,-0.12175 0.0284,-0.25567 0,-0.24349 -0.13392,-0.56002 -0.11769,-0.28002 -0.38958,-0.56409 z m -4.48834,1.31485 q 0,-0.30842 -0.0649,-0.53974 -0.0974,-0.32465 -0.28407,-0.4464 -0.24349,-0.16638 -0.48698,-0.0609 -0.2719,0.11769 -0.32466,0.34494 -0.069,0.30437 0.19074,0.52351 0.19073,0.16233 0.9699,0.17856 z m 0.72642,0 h 0.99831 v 0.7467 h -0.78729 l -0.28407,-0.004 q -0.10146,0.63308 -0.62496,1.15658 -0.33683,0.33683 -0.76294,0.52757 -0.77917,0.349 -2.2604,0.349 v -0.74671 q 1.465,0 2.00068,-0.30842 0.68177,-0.38552 0.93338,-0.98613 -0.47886,-0.0122 -0.66148,-0.0406 -0.56409,-0.0974 -0.77106,-0.2719 -0.43016,-0.36118 -0.47074,-0.90903 -0.008,-0.12581 0.0325,-0.35712 0.10957,-0.62902 0.82381,-0.93338 0.23943,-0.10146 0.50321,-0.0974 0.35307,0.008 0.63308,0.20697 0.53974,0.37335 0.62902,0.94555 0.0528,0.33683 0.069,0.72236 z m -55.67399,0.0568 h 1.27426 v -4.63037 l -1.37166,0.30842 v -0.74671 l 1.36355,-0.3003 h 0.81975 v 5.36896 h 1.25803 v 0.68989 h -3.34393 z m 5.42172,0 h 2.7839 v 0.68989 h -3.68076 v -0.68989 q 0.75888,-0.79946 1.32702,-1.41224 0.56815,-0.61279 0.78323,-0.86439 0.40582,-0.4951 0.54785,-0.79946 0.14204,-0.30842 0.14204,-0.62902 0,-0.50727 -0.3003,-0.7954 -0.29625,-0.28813 -0.8157,-0.28813 -0.36929,0 -0.77511,0.13392 -0.40582,0.13392 -0.86033,0.40581 v -0.82786 q 0.41799,-0.19885 0.81975,-0.30031 0.40582,-0.10145 0.79946,-0.10145 0.88874,0 1.42848,0.4748 0.54379,0.47075 0.54379,1.23775 0,0.38958 -0.18262,0.77917 -0.17855,0.38958 -0.58437,0.86033 -0.22726,0.26378 -0.66148,0.73047 -0.43017,0.46669 -1.31485,1.39601 z m 6.63917,-2.55259 q 0.59655,0.15827 0.91309,0.56409 0.31654,0.40176 0.31654,1.00642 0,0.83599 -0.56409,1.31485 -0.56003,0.47481 -1.55428,0.47481 -0.41799,0 -0.85221,-0.0771 -0.43423,-0.0771 -0.85222,-0.2232 v -0.81569 q 0.41393,0.21508 0.81569,0.3206 0.40176,0.10551 0.79946,0.10551 0.67366,0 1.03484,-0.30436 0.36117,-0.30437 0.36117,-0.87657 0,-0.52756 -0.36117,-0.83598 -0.36118,-0.31248 -0.97802,-0.31248 h -0.62496 v -0.67366 h 0.62496 q 0.56408,0 0.88062,-0.24755 0.31654,-0.24755 0.31654,-0.68989 0,-0.46669 -0.29625,-0.71424 -0.29219,-0.2516 -0.83598,-0.2516 -0.36118,0 -0.74671,0.0812 -0.38552,0.0812 -0.80757,0.24349 v -0.75482 q 0.49104,-0.12986 0.8725,-0.19479 0.38553,-0.0649 0.68178,-0.0649 0.88468,0 1.41224,0.4464 0.53162,0.44234 0.53162,1.17687 0,0.49915 -0.28001,0.83192 -0.27596,0.33277 -0.80758,0.47075 z m 4.83734,-2.06967 -1.9114,3.2019 h 1.9114 z m -0.13392,-0.7467 h 0.94962 v 3.9486 h 0.80757 v 0.66554 h -0.80757 v 1.44471 h -0.8157 v -1.44471 h -2.56882 v -0.77511 z m 2.99493,0 h 3.06798 v 0.68989 h -2.32127 v 1.48935 q 0.1745,-0.0649 0.349,-0.0933 0.17856,-0.0325 0.35712,-0.0325 0.9415,0 1.49341,0.55597 0.55191,0.55597 0.55191,1.50559 0,0.95773 -0.58032,1.50964 -0.57626,0.55191 -1.57863,0.55191 -0.48292,0 -0.88468,-0.0649 -0.3977,-0.0649 -0.71424,-0.19479 v -0.83193 q 0.37335,0.20291 0.75076,0.30436 0.37741,0.0974 0.77106,0.0974 0.67771,0 1.04295,-0.35712 0.36929,-0.35712 0.36929,-1.01454 0,-0.64931 -0.38147,-1.01049 -0.37741,-0.36118 -1.05512,-0.36118 -0.32871,0 -0.64119,0.0771 -0.31248,0.0731 -0.59656,0.2232 z m 7.01253,-0.29219 v 8.31114 h -0.698 v -8.31114 z m 4.65473,1.01454 -0.8644,3.10045 h 1.72879 z m -0.4951,-0.72235 h 0.99425 l 1.85459,6.05885 h -0.84816 l -0.4464,-1.57863 h -2.12243 l -0.43828,1.57863 h -0.84816 z m 5.84783,-0.29219 v 8.31114 H 180.133 v -8.31114 z m 6.17654,0.42611 v 0.75482 q -0.25567,-0.15015 -0.5438,-0.22726 -0.28813,-0.0812 -0.60061,-0.0812 -0.77917,0 -1.18093,0.58843 -0.40175,0.58438 -0.40175,1.72473 0.19479,-0.40582 0.53973,-0.6209 0.34495,-0.21915 0.79135,-0.21915 0.87656,0 1.35543,0.53974 0.48292,0.53568 0.48292,1.52182 0,0.98207 -0.4951,1.52181 -0.49509,0.53974 -1.39195,0.53974 -1.05513,0 -1.54617,-0.75482 -0.49103,-0.75888 -0.49103,-2.38621 0,-1.53399 0.58843,-2.33751 0.59249,-0.80757 1.71255,-0.80757 0.3003,0 0.60061,0.0649 0.3003,0.0609 0.58032,0.17856 z m -1.46094,2.56071 q -0.52351,0 -0.82381,0.37741 -0.30031,0.37741 -0.30031,1.04295 0,0.66554 0.30031,1.04295 0.3003,0.37741 0.82381,0.37741 0.54379,0 0.81975,-0.35712 0.27595,-0.36118 0.27595,-1.06324 0,-0.70613 -0.27595,-1.06325 -0.27596,-0.35711 -0.81975,-0.35711 z m -53.11734,-2.9503 h 0.7467 v 6.31452 h -0.7467 z m -0.3206,-0.60466 0.31654,-0.0731 q -0.17856,-0.0812 -0.24349,-0.22726 -0.069,-0.15015 -0.0649,-0.33277 0.008,-0.38553 0.22726,-0.56409 0.22725,-0.18667 0.60872,-0.18261 0.24755,0.004 0.46263,0.13392 v 0.40581 q -0.20696,-0.13392 -0.46263,-0.13392 -0.26784,0 -0.33683,0.0731 -0.11768,0.12986 -0.11768,0.23537 0,0.31248 0.38146,0.42205 0.13392,0.0406 0.62091,-0.0771 v 0.41393 l -1.39196,0.31248 z m -5.41766,3.32364 h 0.60872 v 0.60873 h -0.60872 z m 0.98208,2.84884 h 0.5235 q 0.56815,0 0.86439,-0.18668 0.43017,-0.27595 0.43017,-0.56003 0,-0.18261 -0.16233,-0.33277 -0.14609,-0.13392 -0.40176,-0.13392 -0.28813,0 -0.71018,0.44234 -0.30436,0.31654 -0.54379,0.77106 z m -0.0933,0.7467 q -0.30031,0 -0.61684,-0.17044 -0.26379,-0.14204 -0.42205,-0.38959 -0.41394,0.56003 -0.79541,0.56003 h -0.52756 v -0.7467 h 0.30436 q 0.17451,0 0.32466,-0.17856 0.26378,-0.32466 0.26378,-0.73047 v -0.46264 h 0.7467 v 0.31654 q 0,0.0974 0.0365,0.25973 0.0365,0.16232 0.21914,0.36523 0.30842,-0.51944 0.50727,-0.76294 0.59249,-0.71829 1.20122,-0.71829 0.69395,0 1.06324,0.33277 0.35306,0.31654 0.35306,0.80757 0,0.77106 -0.7467,1.2134 -0.51133,0.30436 -1.02672,0.30436 z m -5.76261,-2.78796 h 0.60873 v 0.60872 h -0.60873 z m 2.4065,3.86338 q -0.28813,0.47075 -0.86439,0.71424 -0.56815,0.23943 -1.09165,0.23943 -0.69801,0 -1.19716,-0.25567 -0.94961,-0.48698 -0.94961,-1.59892 0,-0.70612 0.21508,-1.28238 h 0.7467 q -0.2232,0.70612 -0.2232,1.28238 0,0.73047 0.65337,1.00237 0.23132,0.0974 0.75482,0.0974 0.34089,0 0.59655,-0.0812 0.63713,-0.20696 0.87251,-0.88468 0.13392,-0.38147 0.13392,-0.86439 0,-0.7467 -0.40988,-1.57051 h 0.74671 q 0.069,0.20697 0.21102,0.55191 0.13798,0.34089 0.26378,0.56814 0.14204,0.25973 0.49104,0.25973 h 0.21103 v 0.7467 h -0.38147 q -0.35306,0 -0.40988,-0.19479 -0.0243,0.70206 -0.36929,1.27021 z"
       id="text10"
       style="font-size:8.31114px;line-height:1.25;font-family:'DejaVu Sans Mono';-inkscape-font-specification:'DejaVu Sans Mono';text-align:center;letter-spacing:0px;word-spacing:2.64583px;direction:rtl;text-anchor:middle;fill:#ffffff;stroke-width:0.0577162"
       aria-label="رقم لوحة الترخيص هو ⁦12345|A|6⁩ أضن&#10;" />
  </g>
</svg>
