<?xml version="1.0" encoding="UTF-8" standalone="no"?>
<!-- Created with Inkscape (http://www.inkscape.org/) -->

<svg
   width="179.22823mm"
   height="14.757433mm"
   viewBox="0 0 179.22823 14.757433"
   version="1.1"
   id="svg1"
   sodipodi:docname="bidi-solution.svg"
   inkscape:version="1.4 (e7c3feb100, 2024-10-09)"
   xmlns:inkscape="http://www.inkscape.org/namespaces/inkscape"
   xmlns:sodipodi="http://sodipodi.sourceforge.net/DTD/sodipodi-0.dtd"
   xmlns="http://www.w3.org/2000/svg"
   xmlns:svg="http://www.w3.org/2000/svg">
  <sodipodi:namedview
     id="namedview1"
     pagecolor="#ffffff"
     bordercolor="#666666"
     borderopacity="1.0"
     inkscape:showpageshadow="2"
     inkscape:pageopacity="0.0"
     inkscape:pagecheckerboard="0"
     inkscape:deskcolor="#d1d1d1"
     inkscape:document-units="mm"
     inkscape:zoom="0.80389227"
     inkscape:cx="417.96645"
     inkscape:cy="168.55492"
     inkscape:window-width="1920"
     inkscape:window-height="1080"
     inkscape:window-x="0"
     inkscape:window-y="0"
     inkscape:window-maximized="1"
     inkscape:current-layer="layer1" />
  <defs
     id="defs1" />
  <g
     inkscape:label="Calque 1"
     inkscape:groupmode="layer"
     id="layer1"
     transform="translate(256.64583,33.072915)">
    <g
       id="text3"
       style="font-size:8.31114px;line-height:1.25;font-family:'DejaVu Sans Mono';-inkscape-font-specification:'DejaVu Sans Mono';text-align:center;letter-spacing:0px;word-spacing:2.64583px;direction:rtl;text-anchor:middle;fill:#ffffff;stroke-width:0.0577162"
       aria-label="رقم لوحة الترخيص هو ⁦12345|A|6⁩ أضن&#10;">
      <path
         d="m -78.959131,-25.398822 q 0.04058,-0.235374 0.04058,-0.527562 0,-0.51133 -0.215083,-1.063242 h 0.746704 q 0.202909,0.478865 0.202909,1.014544 0,0.33277 -0.03247,0.584377 -0.166386,1.343255 -1.509641,2.045319 -1.107882,0.580319 -3.100445,0.616843 v -0.746704 q 1.801829,0 2.694627,-0.519446 1.034835,-0.592494 1.172813,-1.404129 z m -6.233365,-1.55428 q 0.166385,-0.174502 0.166385,-0.486981 0,-0.239432 -0.26784,-0.446399 -0.125803,-0.101455 -0.304363,-0.0974 -0.211025,0.0041 -0.373352,0.174501 -0.162327,0.166385 -0.166385,0.373352 0,0.324654 0.2232,0.478865 0.162327,0.101454 0.33277,0.101454 0.292188,0 0.389585,-0.0974 z m -2.507952,1.432535 h 0.97802 q 0.340887,0 0.953671,-0.09334 0.320596,-0.0487 0.564086,-0.426108 0.125803,-0.194792 0.186676,-0.397701 -0.255665,0.223199 -0.649308,0.231316 -0.527562,0.0081 -0.8441,-0.271898 -0.397701,-0.353061 -0.397701,-0.876565 0,-0.211025 0.03247,-0.389585 0.09334,-0.60061 0.702065,-0.880624 0.316537,-0.146094 0.624958,-0.146094 0.365236,0 0.633075,0.202909 0.389585,0.292188 0.576261,0.706122 0.09334,0.206967 0.09334,0.775111 0,0.8441 -0.316537,1.424419 -0.300305,0.551912 -0.803519,0.730471 -0.442341,0.158269 -1.030776,0.158269 h -1.302674 z m 2.313159,-4.528922 h 0.608726 v 0.608726 h -0.608726 z m -1.014543,0 h 0.608726 v 0.608726 h -0.608726 z m -4.094692,4.593853 q 0.495097,0.170443 0.803518,0.170443 0.17856,0 0.263781,-0.08928 0.215084,-0.231315 0.215084,-0.46669 0,-0.0974 -0.02435,-0.178559 -0.08522,-0.35712 -0.324653,-0.426108 -0.162327,-0.0487 -0.349003,-0.0487 -0.239433,0 -0.349003,0.109571 -0.275956,0.275956 -0.275956,0.551912 0,0.162327 0.04058,0.37741 z m 1.77748,0.470748 q -0.06087,0.05682 -0.113629,0.08928 -0.539737,0.324654 -0.8441,0.324654 -0.852217,0 -1.306732,-0.316538 -0.142036,-0.101454 -0.438283,0.202909 -0.101454,0.105513 -0.101454,0.426108 v 1.481234 h -0.811635 v -1.481234 q 0,-0.702064 0.486981,-1.115998 0.263781,-0.223199 0.560028,-0.223199 -0.0081,-0.170443 -0.0081,-0.33277 0,-0.60061 0.657425,-1.136289 0.312479,-0.255665 0.685831,-0.255665 0.292188,0 0.633075,0.146094 0.68989,0.288131 0.852217,1.014544 0.05681,0.259723 0.223199,0.450457 0.166385,0.190734 0.580319,0.190734 h 0.125803 v 0.746704 h -0.349003 q -0.702064,0 -0.831925,-0.211025 z m -12.495026,-1.294557 q 0,0.722355 -0.35306,1.13223 -0.32465,0.373352 -1.42847,0.373352 h -2.36186 v -0.746704 h 2.1346 q 0.88468,0 1.06324,-0.178559 0.19885,-0.198851 0.19885,-0.629017 v -4.760238 h 0.7467 z m -5.70578,0.758878 q 0,-0.308421 -0.0649,-0.539737 -0.0974,-0.324654 -0.28408,-0.446399 -0.24349,-0.166385 -0.48698,-0.06087 -0.27189,0.117687 -0.32465,0.344945 -0.069,0.304363 0.19073,0.523505 0.19074,0.162326 0.96991,0.178559 z m 0.72641,0 h 0.99831 v 0.746704 h -0.78728 l -0.28408,-0.0041 q -0.10145,0.633075 -0.62496,1.15658 -0.33682,0.336828 -0.76293,0.527562 -0.77917,0.349003 -2.2604,0.349003 v -0.746704 q 1.465,0 2.00067,-0.308421 0.68178,-0.385527 0.93338,-0.986136 -0.47886,-0.01217 -0.66148,-0.04058 -0.56408,-0.0974 -0.77105,-0.271898 -0.43017,-0.361177 -0.47075,-0.909031 -0.008,-0.125803 0.0325,-0.357119 0.10957,-0.629017 0.82381,-0.93338 0.23943,-0.101454 0.50321,-0.0974 0.35306,0.0081 0.63307,0.206967 0.53974,0.373352 0.62902,0.945554 0.0528,0.336829 0.069,0.722355 z m -5.6368,-1.448768 q -0.33683,-0.09334 -0.75482,-0.186676 -0.34494,-0.0771 -1.07541,-0.142036 -0.33277,-0.02841 -0.98614,-0.0041 v -0.746704 q 0.29219,-0.02841 0.59655,-0.03247 0.65743,0 1.35543,0.142037 1.04701,0.211025 1.93981,0.608726 v 0.624958 q -0.30842,0.0974 -0.66554,0.308422 -0.67366,0.397701 -0.97396,0.66554 -0.58844,0.523505 -0.8928,0.633075 -0.89686,0.324654 -1.55834,0.324654 h -0.51945 v -0.746704 h 0.40582 q 0.92121,0 1.44471,-0.292188 0.42205,-0.235374 0.8928,-0.665541 0.38147,-0.349003 0.79134,-0.491039 z m -5.60029,-2.06561 h 0.60873 v 0.608726 h -0.60873 z m -1.01454,0 h 0.60873 v 0.608726 h -0.60873 z m 1.29456,3.116677 q -0.0609,-0.170443 -0.11363,-0.369294 -0.0528,-0.202908 -0.10146,-0.612784 -0.48698,0.0487 -0.81975,0.320596 -0.45046,0.361177 -0.44234,0.612784 0.004,0.166385 0.36929,0.26784 0.36524,0.101454 1.10789,-0.219142 z m -0.2719,-1.566455 q -0.0162,-0.158269 -0.0284,-0.33277 h 0.74671 q 0.004,0.681773 0.15015,1.387895 0.0852,0.409876 0.31248,0.730472 0.1258,0.178559 0.58032,0.178559 h 0.45857 v 0.746704 h -0.68177 q -0.36524,0 -0.66149,-0.206967 -0.18261,-0.125803 -0.33682,-0.365235 -0.56003,0.296246 -1.19311,0.296246 -0.22725,0 -0.46263,-0.06087 -0.76699,-0.194793 -0.76699,-0.819751 0,-0.702064 0.82786,-1.217453 0.44234,-0.275955 1.05513,-0.336828 z m -13.39187,-3.603658 h 0.7467 v 6.314518 h -0.7467 z m -3.06799,4.808936 q 0,0.722355 -0.35306,1.13223 -0.32466,0.373352 -1.42848,0.373352 h -2.36186 v -0.746704 h 2.1346 q 0.88469,0 1.06324,-0.178559 0.19886,-0.198851 0.19886,-0.629017 v -4.760238 h 0.7467 z m -6.41597,-2.552592 h 0.60873 v 0.608726 h -0.60873 z m -1.01454,0 h 0.60872 v 0.608726 h -0.60872 z m 0.82381,3.709171 q -0.30842,0.349003 -1.18093,0.349003 h -1.35949 v -0.746704 h 1.13629 q 0.65742,0 0.83598,-0.178559 0.1948,-0.198851 0.1948,-0.629017 v -0.880624 h 0.7467 v 0.880624 q 0,0.430166 0.20291,0.629017 0.17856,0.178559 0.84004,0.178559 h 1.20934 v 0.746704 h -1.43254 q -0.86845,0 -1.1931,-0.349003 z m -4.41936,-1.882992 h 0.74671 q 0.12174,0.454515 0.13392,0.57626 0.0406,0.417992 0.33683,0.730472 0.17044,0.178559 0.58031,0.178559 h 0.2435 v 0.746704 h -0.46669 q -0.52757,0 -0.73048,-0.251607 -0.23131,1.026718 -1.43659,1.66791 -1.15252,0.612784 -3.10044,0.612784 v -0.746704 q 1.80588,0 2.69462,-0.519446 1.03484,-0.604668 1.17282,-1.404128 0.0406,-0.235374 0.0406,-0.527563 0,-0.51133 -0.21509,-1.063241 z m -5.91682,-2.231996 h 0.60873 v 0.608726 h -0.60873 z m 1.32297,2.268519 q -0.33683,-0.09334 -0.75482,-0.186676 -0.34495,-0.0771 -1.07542,-0.142036 -0.33277,-0.02841 -0.98613,-0.0041 v -0.746704 q 0.29218,-0.02841 0.59655,-0.03247 0.65742,0 1.35543,0.142037 1.04701,0.211025 1.9398,0.608726 v 0.624958 q -0.30842,0.0974 -0.66554,0.308422 -0.67365,0.397701 -0.97396,0.66554 -0.58843,0.523505 -0.8928,0.633075 -0.89685,0.324654 -1.55833,0.324654 h -0.51945 v -0.746704 h 0.40582 q 0.9212,0 1.44471,-0.292188 0.42205,-0.235374 0.89279,-0.665541 0.38147,-0.349003 0.79135,-0.491039 z m -5.80724,2.804198 h 0.60872 v 0.608726 h -0.60872 z m -1.01455,0 h 0.60873 v 0.608726 h -0.60873 z m 0.82381,-0.957729 q -0.30842,0.349003 -1.18093,0.349003 h -1.35948 v -0.746704 h 1.13628 q 0.65743,0 0.83599,-0.178559 0.19479,-0.198851 0.19479,-0.629017 v -0.880624 h 0.7467 v 0.880624 q 0,0.430166 0.20291,0.629017 0.17856,0.178559 0.84005,0.178559 h 1.20933 v 0.746704 h -1.43253 q -0.86845,0 -1.19311,-0.349003 z m -5.39737,-0.397701 h 0.5235 q 0.56815,0 0.86439,-0.186676 0.43017,-0.275956 0.43017,-0.560028 0,-0.182618 -0.16233,-0.33277 -0.14609,-0.13392 -0.40175,-0.13392 -0.28814,0 -0.71019,0.442341 -0.30436,0.316538 -0.54379,0.771053 z m 2.56477,-0.771053 q 0,0.211025 -0.12581,0.499156 0.0649,0.04058 0.12175,0.09334 0.18667,0.178559 0.3003,0.178559 h 0.15827 v 0.746704 h -0.23943 q -0.21103,0 -0.62496,-0.381468 l -0.11363,-0.105513 q -0.69801,0.486981 -1.24992,0.486981 h -0.88468 q -0.15421,0 -0.36523,-0.121745 -0.18262,-0.105513 -0.18262,-0.170443 0,0.71018 -0.19074,1.241801 -0.19073,0.523504 -0.3977,0.698006 -0.41393,0.349003 -0.71424,0.349003 -0.52756,0 -0.89279,-0.365236 -0.50728,-0.507272 -0.50728,-1.339197 0,-0.762937 0.40988,-1.460943 h 0.69801 q -0.42205,0.827868 -0.42205,1.460943 0,0.588435 0.24349,0.791344 0.2029,0.166385 0.44639,0.15421 0.2719,-0.01623 0.42206,-0.255665 0.25972,-0.417992 0.25972,-0.982078 0,-0.42205 -0.0365,-0.673657 -0.13392,-0.860333 -0.18667,-1.152521 h 0.69395 q -0.004,0.06087 0.0528,0.284072 0.0406,0.162327 0.20291,0.365236 0.30842,-0.519447 0.50727,-0.762937 0.5925,-0.718297 1.20122,-0.718297 0.69395,0 1.06324,0.332771 0.35307,0.316537 0.35307,0.807576 z m -15.48996,0.426108 q 0.1461,-0.10957 0.28407,-0.369293 0.15827,-0.292189 0.15827,-0.539738 0,-0.186676 -0.0609,-0.336828 -0.0893,-0.211025 -0.32465,-0.211025 -0.26378,0 -0.35712,0.182618 -0.0893,0.174501 -0.0893,0.316537 0,0.121746 0.0284,0.271898 0.0852,0.478865 0.36118,0.685831 z m -1.28644,0.344945 q 0.21103,0 0.52756,-0.04464 -0.18261,-0.426108 -0.24349,-0.706122 -0.073,-0.316538 -0.073,-0.576261 0,-0.340886 0.18261,-0.677715 0.1948,-0.365235 0.50728,-0.328712 -0.17856,-0.158269 -0.50728,-0.215083 v -0.750762 q 0.88874,0.271897 1.78154,1.002369 1.05919,0.868449 1.29862,1.749073 0.0568,0.211025 0.0568,0.442341 0,0.417992 -0.16232,0.66554 -0.30031,0.458574 -1.01049,0.458574 -0.53162,0 -1.15658,-0.438283 -0.48698,0.166385 -1.07947,0.166385 h -0.71018 v -0.746704 z m 2.33751,-1.314848 q 0.0243,0.150152 0.0243,0.308421 0,0.560028 -0.3977,1.02266 -0.0487,0.05681 -0.11769,0.13392 0.21102,0.186676 0.40988,0.186676 0.51133,0 0.57626,-0.271898 0.0284,-0.121745 0.0284,-0.255665 0,-0.24349 -0.13392,-0.560028 -0.11768,-0.280014 -0.38958,-0.564086 z m -4.48834,1.314848 q 0,-0.308421 -0.0649,-0.539737 -0.0974,-0.324654 -0.28407,-0.446399 -0.24349,-0.166385 -0.48698,-0.06087 -0.2719,0.117687 -0.32465,0.344945 -0.069,0.304363 0.19073,0.523505 0.19073,0.162326 0.9699,0.178559 z m 0.72642,0 h 0.99831 v 0.746704 h -0.78729 l -0.28407,-0.0041 q -0.10145,0.633075 -0.62496,1.15658 -0.33683,0.336828 -0.76294,0.527562 -0.77917,0.349003 -2.2604,0.349003 v -0.746704 q 1.465,0 2.00068,-0.308421 0.68177,-0.385527 0.93338,-0.986136 -0.47886,-0.01217 -0.66148,-0.04058 -0.56409,-0.0974 -0.77105,-0.271898 -0.43017,-0.361177 -0.47075,-0.909031 -0.008,-0.125803 0.0325,-0.357119 0.10957,-0.629017 0.82381,-0.93338 0.23943,-0.101454 0.50322,-0.0974 0.35306,0.0081 0.63307,0.206967 0.53974,0.373352 0.62902,0.945554 0.0528,0.336829 0.069,0.722355 z"
         id="path1" />
      <path
         style="fill:#84f801"
         d="m -232.20756,-25.463752 h 1.27427 v -4.630377 l -1.37167,0.308421 v -0.746704 l 1.36355,-0.300304 h 0.81975 v 5.368964 h 1.25803 v 0.689889 h -3.34393 z m 5.42172,0 h 2.78391 v 0.689889 h -3.68077 v -0.689889 q 0.75888,-0.799461 1.32703,-1.412245 0.56814,-0.612784 0.78322,-0.864391 0.40582,-0.495097 0.54786,-0.79946 0.14203,-0.308421 0.14203,-0.629017 0,-0.507272 -0.3003,-0.795402 -0.29625,-0.288131 -0.8157,-0.288131 -0.36929,0 -0.77511,0.13392 -0.40581,0.13392 -0.86033,0.405818 v -0.827868 q 0.41799,-0.19885 0.81975,-0.300305 0.40582,-0.101454 0.79946,-0.101454 0.88874,0 1.42848,0.474806 0.54379,0.470748 0.54379,1.237743 0,0.389585 -0.18261,0.77917 -0.17856,0.389584 -0.58438,0.860333 -0.22726,0.263781 -0.66148,0.730471 -0.43017,0.46669 -1.31485,1.396012 z m 6.63917,-2.552592 q 0.59655,0.158269 0.91309,0.564086 0.31654,0.40176 0.31654,1.006428 0,0.835983 -0.56409,1.314848 -0.56002,0.474806 -1.55428,0.474806 -0.41799,0 -0.85221,-0.07711 -0.43423,-0.0771 -0.85222,-0.2232 v -0.815693 q 0.41393,0.215084 0.81569,0.320596 0.40176,0.105513 0.79946,0.105513 0.67366,0 1.03484,-0.304363 0.36118,-0.304363 0.36118,-0.876566 0,-0.527563 -0.36118,-0.835984 -0.36118,-0.312479 -0.97802,-0.312479 h -0.62496 v -0.673657 h 0.62496 q 0.56408,0 0.88062,-0.247549 0.31654,-0.247548 0.31654,-0.689889 0,-0.46669 -0.29625,-0.714239 -0.29219,-0.251607 -0.83598,-0.251607 -0.36118,0 -0.74671,0.08116 -0.38552,0.08116 -0.80757,0.24349 v -0.75482 q 0.49104,-0.129862 0.87251,-0.194792 0.38552,-0.06493 0.68177,-0.06493 0.88468,0 1.41224,0.446399 0.53162,0.442341 0.53162,1.17687 0,0.499156 -0.28001,0.831926 -0.27596,0.33277 -0.80758,0.470748 z m 4.83735,-2.069668 -1.9114,3.201899 h 1.9114 z m -0.13392,-0.746704 h 0.94961 v 3.948603 h 0.80757 v 0.66554 h -0.80757 v 1.44471 h -0.81569 v -1.44471 h -2.56883 v -0.775111 z m 2.99493,0 h 3.06798 v 0.689889 h -2.32128 v 1.48935 q 0.1745,-0.06493 0.349,-0.09334 0.17856,-0.03246 0.35712,-0.03246 0.9415,0 1.49341,0.555969 0.55191,0.55597 0.55191,1.505583 0,0.957729 -0.58032,1.509641 -0.57626,0.551911 -1.57863,0.551911 -0.48292,0 -0.88468,-0.06493 -0.3977,-0.06493 -0.71424,-0.194792 v -0.831926 q 0.37336,0.202909 0.75077,0.304363 0.37741,0.0974 0.77105,0.0974 0.67771,0 1.04295,-0.35712 0.36929,-0.357119 0.36929,-1.014543 0,-0.649308 -0.38147,-1.010485 -0.37741,-0.361178 -1.05512,-0.361178 -0.32871,0 -0.64119,0.0771 -0.31248,0.07305 -0.59655,0.2232 z m 7.01252,-0.292189 v 8.31114 h -0.698 v -8.31114 z m 4.65473,1.014544 -0.86439,3.100444 h 1.72878 z m -0.4951,-0.722355 h 0.99425 l 1.85459,6.058853 h -0.84816 l -0.4464,-1.578629 h -2.12242 l -0.43829,1.578629 h -0.84816 z m 5.84783,-0.292189 v 8.31114 h -0.69801 v -8.31114 z m 6.17654,0.426108 v 0.754821 q -0.25566,-0.150153 -0.5438,-0.227258 -0.28813,-0.08116 -0.6006,-0.08116 -0.77917,0 -1.18093,0.588436 -0.40176,0.584377 -0.40176,1.724724 0.19479,-0.405818 0.53973,-0.620901 0.34495,-0.219141 0.79135,-0.219141 0.87656,0 1.35543,0.539737 0.48292,0.535679 0.48292,1.521815 0,0.982078 -0.4951,1.521815 -0.49509,0.539737 -1.39195,0.539737 -1.05512,0 -1.54616,-0.75482 -0.49104,-0.758879 -0.49104,-2.386206 0,-1.53399 0.58843,-2.337509 0.5925,-0.807576 1.71255,-0.807576 0.30031,0 0.60061,0.06493 0.30031,0.06087 0.58032,0.178559 z m -1.46094,2.560708 q -0.52351,0 -0.82381,0.37741 -0.30031,0.37741 -0.30031,1.042951 0,0.66554 0.30031,1.042951 0.3003,0.37741 0.82381,0.37741 0.54379,0 0.81975,-0.35712 0.27595,-0.361177 0.27595,-1.063241 0,-0.706122 -0.27595,-1.063242 -0.27596,-0.357119 -0.81975,-0.357119 z"
         id="path2" />
      <path
         d="m -243.83007,-31.088381 h 0.7467 v 6.314518 h -0.7467 z m -0.3206,-0.604668 0.31654,-0.07305 q -0.17856,-0.08116 -0.24349,-0.227258 -0.069,-0.150153 -0.0649,-0.33277 0.008,-0.385527 0.22726,-0.564087 0.22726,-0.186676 0.60872,-0.182617 0.24755,0.0041 0.46264,0.133919 v 0.405818 q -0.20697,-0.13392 -0.46264,-0.13392 -0.26784,0 -0.33683,0.07305 -0.11768,0.129862 -0.11768,0.235374 0,0.31248 0.38147,0.42205 0.13392,0.04058 0.6209,-0.0771 v 0.413934 l -1.39196,0.312479 z m -5.41766,3.323644 h 0.60873 v 0.608726 h -0.60873 z m 0.98208,2.848838 h 0.5235 q 0.56815,0 0.86439,-0.186676 0.43017,-0.275956 0.43017,-0.560028 0,-0.182618 -0.16233,-0.33277 -0.14609,-0.13392 -0.40176,-0.13392 -0.28813,0 -0.71018,0.442341 -0.30436,0.316538 -0.54379,0.771053 z m -0.0933,0.746704 q -0.3003,0 -0.61684,-0.170443 -0.26378,-0.142036 -0.42205,-0.389585 -0.41394,0.560028 -0.7954,0.560028 h -0.52757 v -0.746704 h 0.30437 q 0.1745,0 0.32465,-0.178559 0.26378,-0.324654 0.26378,-0.730472 v -0.462632 h 0.74671 v 0.316538 q 0,0.0974 0.0365,0.259723 0.0365,0.162327 0.21914,0.365236 0.30842,-0.519447 0.50727,-0.762937 0.5925,-0.718297 1.20122,-0.718297 0.69395,0 1.06324,0.332771 0.35306,0.316537 0.35306,0.807576 0,0.771053 -0.7467,1.213394 -0.51133,0.304363 -1.02672,0.304363 z m -5.76261,-2.787965 h 0.60873 v 0.608726 h -0.60873 z m 2.4065,3.863381 q -0.28813,0.470748 -0.86439,0.714239 -0.56814,0.239432 -1.09165,0.239432 -0.698,0 -1.19716,-0.255665 -0.94961,-0.486981 -0.94961,-1.59892 0,-0.706123 0.21508,-1.282383 h 0.7467 q -0.2232,0.706122 -0.2232,1.282383 0,0.730471 0.65337,1.002369 0.23132,0.0974 0.75482,0.0974 0.34089,0 0.59655,-0.08116 0.63714,-0.206967 0.87251,-0.884682 0.13392,-0.381468 0.13392,-0.864391 0,-0.746704 -0.40988,-1.570513 h 0.74671 q 0.069,0.206967 0.21102,0.551912 0.13798,0.340886 0.26378,0.568144 0.14204,0.259723 0.49104,0.259723 h 0.21103 v 0.746704 h -0.38147 q -0.35306,0 -0.40988,-0.194792 -0.0243,0.702064 -0.36929,1.270208 z"
         id="path3" />
    </g>
    <path
       d="m -185.66758,-26.627127 h -1.37317 v -2.148662 h 0.34082 v 1.842416 h 1.03235 z m 1.95108,0 h -0.43138 l -0.55651,-0.869343 h -0.15477 v 0.869343 h -0.34082 v -2.148662 h 0.70799 q 0.35399,0 0.54992,0.163002 0.19593,0.161356 0.19593,0.479127 0,0.141598 -0.0445,0.250266 -0.0428,0.107021 -0.12349,0.184406 -0.079,0.07738 -0.18605,0.123486 -0.10538,0.04445 -0.22886,0.06092 z m -0.37046,-1.511472 q 0,-0.164649 -0.10867,-0.246973 -0.10702,-0.08232 -0.29636,-0.08232 h -0.36717 v 0.663533 h 0.36717 q 0.18934,0 0.29636,-0.08232 0.10867,-0.08232 0.10867,-0.251912 z m 1.93462,1.511472 h -1.0307 v -0.306246 h 0.33918 v -1.534523 h -0.33918 v -0.307893 h 1.0307 v 0.307893 h -0.3507 v 1.534523 h 0.3507 z"
       id="text6"
       style="font-weight:bold;font-size:3.372px;line-height:1.25;font-family:'Anonymous Pro';-inkscape-font-specification:'Anonymous Pro Bold';text-align:center;letter-spacing:0px;word-spacing:0px;direction:rtl;text-anchor:middle;fill:#007edf;stroke-width:0.0234166"
       aria-label="LRI" />
    <path
       d="m -237.53725,-28.255745 q 0,0.32271 -0.19594,0.480773 -0.19593,0.156416 -0.54663,0.156416 h -0.37046 v 0.869344 h -0.34082 v -2.148662 h 0.70799 q 0.35399,0 0.54992,0.163002 0.19594,0.161355 0.19594,0.479127 z m -0.34083,-0.0049 q 0,-0.164648 -0.10866,-0.246973 -0.10703,-0.08232 -0.29308,-0.08232 h -0.37046 v 0.663533 h 0.37046 q 0.18605,0 0.29308,-0.08232 0.10866,-0.08232 0.10866,-0.251912 z m 2.25239,0.436318 q 0,0.21569 -0.0461,0.411622 -0.0445,0.194285 -0.14489,0.342468 -0.0988,0.146537 -0.25685,0.233801 -0.15642,0.08726 -0.37869,0.08726 h -0.69811 v -2.148662 h 0.69811 q 0.21898,0 0.3754,0.08891 0.15806,0.08726 0.25685,0.233801 0.10043,0.146537 0.14654,0.340822 0.0477,0.194285 0.0477,0.409974 z m -0.34082,0 q 0,-0.372105 -0.12678,-0.568037 -0.12678,-0.197578 -0.35893,-0.197578 h -0.35729 v 1.534524 h 0.35729 q 0.23215,0 0.35893,-0.200871 0.12678,-0.200872 0.12678,-0.568038 z m 1.86382,1.075155 h -1.0307 v -0.306246 h 0.33918 v -1.534524 h -0.33918 v -0.307892 h 1.0307 v 0.307892 h -0.3507 v 1.534524 h 0.3507 z"
       id="text7"
       style="font-weight:bold;font-size:3.372px;line-height:1.25;font-family:'Anonymous Pro Minus';-inkscape-font-specification:'Anonymous Pro Minus Bold';text-align:center;letter-spacing:0px;word-spacing:0px;direction:rtl;text-anchor:middle;fill:#007edf;stroke-width:0.0234166"
       aria-label="PDI" />
    <g
       id="g16"
       transform="matrix(-1,0,0,1,-111.14038,-109.6578)">
      <path
         d="m 145.50545,90.576234 v -0.175439 l -0.76608,-0.766083 -0.23392,0.233918 0.45419,0.454192 v 0.331385 l -0.45419,0.454193 0.23392,0.233918 z"
         id="path15"
         style="font-size:3.99221px;line-height:1.25;font-family:'Anonymous Pro';-inkscape-font-specification:'Anonymous Pro';text-align:center;letter-spacing:0px;word-spacing:0px;direction:rtl;text-anchor:middle;fill:#9999ff;fill-opacity:1;stroke-width:0.0277236"
         aria-label="←"
         sodipodi:nodetypes="ccccccccc" />
      <path
         style="fill:none;stroke:#9999ff;stroke-width:0.331;stroke-linecap:butt;stroke-linejoin:miter;stroke-dasharray:none;stroke-dashoffset:0;stroke-opacity:1"
         d="M -33.72278,90.488515 H 144.65278"
         id="path16"
         sodipodi:nodetypes="cc" />
    </g>
    <g
       id="g14"
       transform="translate(-282.12945,-111.88423)">
      <path
         d="m 93.647066,90.576234 v -0.175439 l -0.76608,-0.766083 -0.23392,0.233918 0.45419,0.454192 v 0.331385 l -0.45419,0.454193 0.23392,0.233918 z"
         id="text12"
         style="font-size:3.99221px;line-height:1.25;font-family:'Anonymous Pro';-inkscape-font-specification:'Anonymous Pro';text-align:center;letter-spacing:0px;word-spacing:0px;direction:rtl;text-anchor:middle;fill:#84f801;fill-opacity:1;stroke-width:0.0277236"
         aria-label="←"
         sodipodi:nodetypes="ccccccccc" />
      <path
         style="fill:none;stroke:#84f801;stroke-width:0.331258;stroke-linecap:butt;stroke-linejoin:miter;stroke-dasharray:0.662517, 0.662517;stroke-dashoffset:0;stroke-opacity:1"
         d="M 50.403704,90.488515 H 93.218955"
         id="path14"
         sodipodi:nodetypes="cc" />
    </g>
  </g>
</svg>
