<?xml version="1.0" encoding="UTF-8" standalone="no"?>
<!-- Created with Inkscape (http://www.inkscape.org/) -->

<svg
   width="140.02393mm"
   height="13.971652mm"
   viewBox="0 0 140.02393 13.971652"
   version="1.1"
   id="svg1"
   sodipodi:docname="bidi-solution.svg"
   inkscape:version="1.4 (e7c3feb100, 2024-10-09)"
   xmlns:inkscape="http://www.inkscape.org/namespaces/inkscape"
   xmlns:sodipodi="http://sodipodi.sourceforge.net/DTD/sodipodi-0.dtd"
   xmlns="http://www.w3.org/2000/svg"
   xmlns:svg="http://www.w3.org/2000/svg">
  <sodipodi:namedview
     id="namedview1"
     pagecolor="#ffffff"
     bordercolor="#666666"
     borderopacity="1.0"
     inkscape:showpageshadow="2"
     inkscape:pageopacity="0.0"
     inkscape:pagecheckerboard="0"
     inkscape:deskcolor="#d1d1d1"
     inkscape:document-units="mm"
     inkscape:zoom="2.1219784"
     inkscape:cx="264.61155"
     inkscape:cy="9.1895375"
     inkscape:window-width="1920"
     inkscape:window-height="1080"
     inkscape:window-x="0"
     inkscape:window-y="0"
     inkscape:window-maximized="1"
     inkscape:current-layer="layer1" />
  <defs
     id="defs1" />
  <g
     inkscape:label="Calque 1"
     inkscape:groupmode="layer"
     id="layer1"
     transform="translate(216.16458,-9.5249984)">
    <path
       d="m -78.509335,18.318185 h 0.307512 c 0.304742,0 0.554076,-0.04433 0.748003,-0.132979 0.193927,-0.08865 0.346298,-0.207778 0.457113,-0.357379 0.110815,-0.144059 0.188386,-0.315823 0.232712,-0.51529 0.04433,-0.193927 0.06649,-0.398935 0.06649,-0.615025 0,-0.160682 -0.0083,-0.326905 -0.02493,-0.498668 -0.01662,-0.177305 -0.03878,-0.346298 -0.06649,-0.50698 l -0.174534,-0.939158 0.58178,-0.116356 0.108045,0.631646 c 0.08865,0.50975 0.132978,0.991796 0.132978,1.446139 0,0.304741 -0.03324,0.595631 -0.09973,0.872669 -0.06649,0.282579 -0.180072,0.529143 -0.340757,0.739692 -0.155141,0.216089 -0.36569,0.387853 -0.631647,0.51529 -0.260415,0.127438 -0.590091,0.191157 -0.989026,0.191157 h -0.307512 z m -3.415876,-1.828451 0.166223,-0.166223 h 1.570806 c 0.227171,0 0.418327,-0.01939 0.573468,-0.05818 0.155141,-0.03879 0.279809,-0.102505 0.374002,-0.191156 0.09973,-0.08865 0.168993,-0.202238 0.207778,-0.340757 0.04433,-0.14406 0.06649,-0.318594 0.06649,-0.523602 V 14.943862 H -79.008 c -0.07757,0.182845 -0.207779,0.326904 -0.390624,0.432179 -0.177305,0.105275 -0.387854,0.157912 -0.631647,0.157912 -0.443261,0 -0.786788,-0.113586 -1.030581,-0.340757 -0.243793,-0.227171 -0.36569,-0.548535 -0.36569,-0.964092 0,-0.243793 0.03601,-0.473735 0.108045,-0.689825 0.07757,-0.216089 0.182845,-0.404475 0.315823,-0.565157 0.132978,-0.160683 0.29089,-0.28812 0.473735,-0.382313 0.188386,-0.09419 0.393394,-0.141289 0.615024,-0.141289 0.476505,0 0.850507,0.205008 1.122004,0.615024 0.271497,0.410016 0.407246,0.986255 0.407246,1.728717 0,0.415557 -0.03047,0.767396 -0.09142,1.055515 -0.06095,0.288119 -0.163451,0.520831 -0.307512,0.698136 -0.138519,0.171763 -0.324134,0.29643 -0.556846,0.374001 -0.227171,0.07757 -0.50975,0.116356 -0.847736,0.116356 h -1.737029 z m 2.061163,-1.687162 c 0.238253,0 0.426639,-0.01939 0.565158,-0.05818 0.144059,-0.04433 0.254874,-0.110816 0.332445,-0.199467 -0.01108,-0.421098 -0.105273,-0.756314 -0.282579,-1.005648 -0.177304,-0.249334 -0.415557,-0.374001 -0.714758,-0.374001 -0.282579,0 -0.501439,0.09142 -0.65658,0.274267 -0.1496,0.177305 -0.2244,0.412787 -0.2244,0.706447 0,0.232712 0.06372,0.401705 0.191156,0.50698 0.132978,0.09973 0.340756,0.1496 0.623335,0.1496 z m 0.415557,-3.349389 c -0.110815,0 -0.199467,-0.03047 -0.265956,-0.09142 -0.06649,-0.06649 -0.09973,-0.171761 -0.09973,-0.315823 0,-0.14406 0.03324,-0.246564 0.09973,-0.307512 0.06649,-0.06649 0.155139,-0.09973 0.265956,-0.09973 h 0.09142 c 0.110815,0 0.199467,0.03324 0.265956,0.09973 0.06649,0.06095 0.09973,0.163451 0.09973,0.307512 0,0.14406 -0.03324,0.249334 -0.09973,0.315823 -0.06649,0.06095 -0.155139,0.09142 -0.265956,0.09142 z m -1.072137,0 c -0.110815,0 -0.199467,-0.03047 -0.265956,-0.09142 -0.06649,-0.06649 -0.09973,-0.171761 -0.09973,-0.315823 0,-0.14406 0.03324,-0.246564 0.09973,-0.307512 0.06649,-0.06649 0.155139,-0.09973 0.265956,-0.09973 h 0.09142 c 0.110815,0 0.199467,0.03324 0.265956,0.09973 0.06649,0.06095 0.09973,0.163451 0.09973,0.307512 0,0.14406 -0.03324,0.249334 -0.09973,0.315823 -0.06649,0.06095 -0.155139,0.09142 -0.265956,0.09142 z m -6.108695,5.46873 c 0,-0.321364 0.02216,-0.598402 0.06649,-0.831114 0.04433,-0.232712 0.124668,-0.43772 0.241023,-0.615024 0.116356,-0.177305 0.271497,-0.337987 0.465424,-0.482046 0.199467,-0.14406 0.454342,-0.29089 0.764625,-0.440491 l 1.188493,-0.58178 H -83.255 l 0.590091,1.60405 c 0.05541,0.149601 0.105274,0.274268 0.149601,0.374002 0.04987,0.09419 0.102504,0.168993 0.157911,0.2244 0.05541,0.05541 0.116355,0.09419 0.182845,0.116356 0.07203,0.02217 0.155142,0.03325 0.249335,0.03325 h 0.166222 v 0.548535 l -0.166222,0.166223 c -0.260416,0 -0.468195,-0.03602 -0.623336,-0.108045 -0.155141,-0.07757 -0.29366,-0.227171 -0.415557,-0.448801 l -0.04987,0.01662 v 0.540224 h -0.989025 c -0.454343,0 -0.808951,-0.08865 -1.063826,-0.265956 -0.254875,-0.177305 -0.382313,-0.423869 -0.382313,-0.739692 0,-0.29366 0.113586,-0.529142 0.340757,-0.706447 l -0.03324,-0.03324 -0.257645,0.1496 c -0.121897,0.07757 -0.224401,0.155141 -0.307512,0.232712 -0.07757,0.07757 -0.138519,0.171764 -0.182845,0.282579 -0.04433,0.110815 -0.07757,0.243794 -0.09973,0.398935 -0.01662,0.155141 -0.02493,0.343526 -0.02493,0.565157 v 2.659565 h -0.615025 z m 1.678851,-1.180182 c 0,0.199467 0.08034,0.346298 0.241023,0.440491 0.160682,0.09419 0.412786,0.141289 0.756313,0.141289 h 0.905915 c -0.06095,-0.127437 -0.127436,-0.29089 -0.199468,-0.490357 l -0.44049,-1.180182 -0.340757,0.157912 c -0.182845,0.08311 -0.332446,0.163452 -0.448801,0.241023 -0.116356,0.07203 -0.210549,0.144059 -0.282579,0.216089 -0.07203,0.07203 -0.121897,0.14683 -0.149601,0.224401 -0.02771,0.07757 -0.04156,0.160682 -0.04156,0.249334 z m -9.186676,0.748003 0.166223,-0.166223 h 0.241023 c 0.265957,0 0.457113,-0.06095 0.573469,-0.182845 0.121897,-0.121897 0.182845,-0.315823 0.182845,-0.58178 v -4.670861 h 0.615024 v 4.670861 c 0,0.50975 -0.110815,0.883751 -0.332445,1.122004 -0.21609,0.238253 -0.562388,0.357379 -1.038893,0.357379 h -0.407246 z m -3.291226,1.828451 h 0.44049 c 0.603943,0 1.069367,-0.113586 1.396272,-0.340757 0.332445,-0.221631 0.537453,-0.534684 0.615024,-0.939159 h -0.972403 c -0.443261,0 -0.786789,-0.116356 -1.030582,-0.349068 -0.243793,-0.232712 -0.36569,-0.559617 -0.36569,-0.980714 0,-0.249335 0.03602,-0.484817 0.108045,-0.706447 0.07757,-0.221631 0.182845,-0.412787 0.315823,-0.573469 0.132978,-0.166223 0.29089,-0.296431 0.473735,-0.390624 0.188386,-0.09973 0.393394,-0.1496 0.615024,-0.1496 0.459883,0 0.820033,0.205008 1.080449,0.615024 0.265956,0.410017 0.398934,0.986256 0.398934,1.728717 v 0.09142 h 0.382313 v 0.548535 l -0.166223,0.166223 h -0.29089 c -0.121897,0.637187 -0.396164,1.127545 -0.822803,1.471072 -0.421097,0.349068 -1.000107,0.523602 -1.737028,0.523602 h -0.44049 z m 0.664891,-2.69281 c 0,0.243793 0.06372,0.421098 0.191156,0.531913 0.132978,0.110815 0.340757,0.166223 0.623336,0.166223 h 1.013959 v -0.257645 c 0,-0.448802 -0.08588,-0.803411 -0.257646,-1.063826 -0.166223,-0.265957 -0.396164,-0.398935 -0.689824,-0.398935 -0.282579,0 -0.501439,0.09419 -0.65658,0.282579 -0.149601,0.188386 -0.224401,0.43495 -0.224401,0.739691 z m -6.382957,0.864359 0.16622,-0.166223 h 0.28258 c 0.24379,0 0.46819,-0.0083 0.6732,-0.02493 0.21055,-0.01662 0.42387,-0.04709 0.63996,-0.09142 0.21609,-0.04987 0.44326,-0.119126 0.68151,-0.207778 0.2438,-0.08865 0.51807,-0.205009 0.822808,-0.349068 l 0.764625,-0.365691 v -0.03324 l -1.230053,-0.274268 -1.7204,-0.423868 v 0.714758 h -0.58178 v -0.639958 c 0,-0.232711 0.0637,-0.407245 0.19115,-0.523601 0.13298,-0.121897 0.2992,-0.182845 0.49867,-0.182845 0.0609,0 0.13296,0.0083 0.21609,0.02493 0.0887,0.01108 0.2244,0.03878 0.40725,0.08311 l 2.027917,0.523602 c 0.304741,0.07757 0.559616,0.132978 0.764624,0.166223 0.205009,0.02771 0.382313,0.04156 0.531913,0.04156 h 0.132979 v 0.714758 h -0.648269 l -1.130315,0.681513 c -0.343526,0.205008 -0.648269,0.36846 -0.914229,0.490357 -0.26595,0.116356 -0.51529,0.205008 -0.748,0.265957 -0.23271,0.05541 -0.45988,0.09142 -0.68151,0.108045 -0.21609,0.01108 -0.44881,0.01662 -0.69814,0.01662 h -0.4488 z m 0,0.548535 c -0.25487,0 -0.47096,-0.01939 -0.64827,-0.05818 -0.17176,-0.04433 -0.31305,-0.113586 -0.42387,-0.207778 -0.10527,-0.09973 -0.18284,-0.224401 -0.23271,-0.374002 -0.0499,-0.155141 -0.0748,-0.346297 -0.0748,-0.573468 v -0.14129 h -0.0416 c -0.0776,0.249335 -0.21055,0.437721 -0.39894,0.565158 -0.18285,0.121897 -0.40448,0.182845 -0.66489,0.182845 -0.37123,0 -0.66212,-0.09973 -0.87267,-0.299201 -0.20501,-0.199467 -0.30751,-0.482046 -0.30751,-0.847737 0,-0.155141 0.0249,-0.2992 0.0748,-0.432179 0.0499,-0.138519 0.13021,-0.271497 0.24102,-0.398935 0.11636,-0.132978 0.26319,-0.263186 0.44049,-0.390623 0.17731,-0.132978 0.3934,-0.271497 0.64827,-0.415557 l 0.83943,-0.482046 v -0.415557 h 0.58178 v 2.99201 c 0,0.227171 0.0582,0.382313 0.17453,0.465424 0.11635,0.07757 0.29643,0.116356 0.54022,0.116356 h 0.29089 v 0.548535 z m -2.36036,-1.321471 c 0.33799,0 0.57901,-0.0471 0.72307,-0.14129 0.14406,-0.09973 0.21609,-0.274267 0.21609,-0.523601 V 13.83848 l -0.83943,0.448802 c -0.29366,0.160682 -0.50421,0.310282 -0.63164,0.448801 -0.12744,0.132979 -0.19116,0.28812 -0.19116,0.465424 0,0.177305 0.0526,0.307513 0.15791,0.390624 0.11081,0.08311 0.2992,0.124667 0.56516,0.124667 z m 1.20511,-3.656902 c -0.11081,0 -0.19946,-0.03047 -0.26595,-0.09142 -0.0665,-0.06649 -0.0997,-0.171761 -0.0997,-0.315824 0,-0.144059 0.0332,-0.246563 0.0997,-0.307512 0.0665,-0.06649 0.15512,-0.09973 0.26595,-0.09973 h 0.0914 c 0.11081,0 0.19946,0.03324 0.26595,0.09973 0.0665,0.06095 0.0997,0.163451 0.0997,0.307512 0,0.14406 -0.0332,0.249335 -0.0997,0.315824 -0.0665,0.06095 -0.15512,0.09142 -0.26595,0.09142 z m -1.07213,0 c -0.11082,0 -0.19947,-0.03047 -0.26596,-0.09142 -0.0665,-0.06649 -0.0997,-0.171761 -0.0997,-0.315824 0,-0.144059 0.0332,-0.246563 0.0997,-0.307512 0.0665,-0.06649 0.15512,-0.09973 0.26596,-0.09973 h 0.0914 c 0.11081,0 0.19947,0.03324 0.26596,0.09973 0.0665,0.06095 0.0997,0.163451 0.0997,0.307512 0,0.14406 -0.0332,0.249335 -0.0997,0.315824 -0.0665,0.06095 -0.15512,0.09142 -0.26596,0.09142 z m -7.40813,-1.171871 h 0.61503 v 6.150244 h -0.61503 z m -3.02524,5.601709 0.16622,-0.166223 h 0.24102 c 0.26596,0 0.45712,-0.06095 0.57347,-0.182845 0.1219,-0.121897 0.18285,-0.315823 0.18285,-0.58178 v -4.670861 h 0.61502 v 4.670861 c 0,0.50975 -0.11081,0.883751 -0.33244,1.122004 -0.21609,0.238253 -0.56239,0.357379 -1.0389,0.357379 h -0.40724 z m -5.11135,1.828451 h 0.30751 c 0.30474,0 0.55407,-0.04433 0.748,-0.132979 0.19393,-0.08865 0.3463,-0.207778 0.45711,-0.357379 0.11082,-0.144059 0.18839,-0.315823 0.23271,-0.51529 0.0443,-0.193927 0.0665,-0.398935 0.0665,-0.615025 0,-0.160682 -0.008,-0.326905 -0.0249,-0.498668 -0.0166,-0.177305 -0.0388,-0.346298 -0.0665,-0.50698 l -0.17453,-0.939158 0.58178,-0.116356 0.0997,0.598402 1.46276,-0.249335 v -0.681513 h 0.58178 v 1.437827 c 0,0.210549 0.0582,0.36015 0.17454,0.448802 0.11635,0.08865 0.29643,0.132978 0.54022,0.132978 h 0.29089 v 0.548535 l -0.16622,0.166223 h -0.0166 c -0.25487,0 -0.47096,-0.02216 -0.64826,-0.06649 -0.17731,-0.04987 -0.32414,-0.124667 -0.4405,-0.224401 -0.11081,-0.105275 -0.19115,-0.241023 -0.24102,-0.407246 -0.0499,-0.166223 -0.0748,-0.36569 -0.0748,-0.598402 v -0.06649 l -1.36303,0.232712 c 0.0111,0.138519 0.0194,0.274267 0.0249,0.407246 0.0111,0.132978 0.0166,0.265956 0.0166,0.398935 0,0.304741 -0.0332,0.595631 -0.0997,0.872669 -0.0665,0.282579 -0.18005,0.529143 -0.34076,0.739692 -0.15514,0.216089 -0.36569,0.387853 -0.63165,0.51529 -0.26041,0.127438 -0.59009,0.191157 -0.98902,0.191157 h -0.30751 z m 4.44646,-5.011618 c -0.11082,0 -0.19947,-0.03047 -0.26596,-0.09142 -0.0665,-0.06649 -0.0997,-0.171761 -0.0997,-0.315824 0,-0.144059 0.0332,-0.246563 0.0997,-0.307512 0.0665,-0.06649 0.15512,-0.09973 0.26596,-0.09973 h 0.0914 c 0.11081,0 0.19946,0.03324 0.26595,0.09973 0.0665,0.06095 0.0997,0.163451 0.0997,0.307512 0,0.14406 -0.0332,0.249335 -0.0997,0.315824 -0.0665,0.06095 -0.15512,0.09142 -0.26595,0.09142 z m -1.07214,0 c -0.11081,0 -0.19947,-0.03047 -0.26596,-0.09142 -0.0665,-0.06649 -0.0997,-0.171761 -0.0997,-0.315824 0,-0.144059 0.0332,-0.246563 0.0997,-0.307512 0.0665,-0.06649 0.15512,-0.09973 0.26596,-0.09973 h 0.0914 c 0.11081,0 0.19947,0.03324 0.26596,0.09973 0.0665,0.06095 0.0997,0.163451 0.0997,0.307512 0,0.14406 -0.0332,0.249335 -0.0997,0.315824 -0.0665,0.06095 -0.15512,0.09142 -0.26596,0.09142 z m -7.97871,3.183167 0.16622,-0.166223 h 0.28258 c 0.24379,0 0.4682,-0.0083 0.67321,-0.02493 0.21055,-0.01662 0.42386,-0.04709 0.63995,-0.09142 0.21609,-0.04987 0.44327,-0.119126 0.68152,-0.207778 0.24379,-0.08865 0.51806,-0.205009 0.8228,-0.349068 l 0.76463,-0.365691 v -0.03324 l -1.23005,-0.274268 -1.72041,-0.423868 v 0.714758 h -0.58178 v -0.639958 c 0,-0.232711 0.0637,-0.407245 0.19116,-0.523601 0.13297,-0.121897 0.2992,-0.182845 0.49867,-0.182845 0.0609,0 0.13296,0.0083 0.21608,0.02493 0.0887,0.01108 0.2244,0.03878 0.40725,0.08311 l 2.02792,0.523602 c 0.30474,0.07757 0.55961,0.132978 0.76462,0.166223 0.20501,0.02771 0.38232,0.04156 0.53192,0.04156 h 0.13297 v 0.714758 h -0.64826 l -1.13032,0.681513 c -0.34353,0.205008 -0.64827,0.36846 -0.91422,0.490357 -0.26596,0.116356 -0.5153,0.205008 -0.74801,0.265957 -0.23271,0.05541 -0.45988,0.09142 -0.68151,0.108045 -0.21609,0.01108 -0.44881,0.01662 -0.69814,0.01662 h -0.4488 z m 2.22739,-3.515612 c -0.11082,0 -0.19947,-0.03047 -0.26596,-0.09142 -0.0665,-0.06649 -0.0997,-0.171761 -0.0997,-0.315823 0,-0.14406 0.0332,-0.246564 0.0997,-0.307512 0.0665,-0.06649 0.15512,-0.09973 0.26596,-0.09973 h 0.0914 c 0.11081,0 0.19947,0.03324 0.26596,0.09973 0.0665,0.06095 0.0997,0.163451 0.0997,0.307512 0,0.144059 -0.0332,0.249334 -0.0997,0.315823 -0.0665,0.06095 -0.15512,0.09142 -0.26596,0.09142 z m -4.80383,3.515612 0.16623,-0.166223 h 0.29089 c 0.47096,0 0.70644,-0.235482 0.70644,-0.706447 v -1.31316 h 0.58178 v 1.31316 c 0,0.470965 0.23548,0.706447 0.70645,0.706447 h 0.29089 v 0.548535 l -0.16622,0.166223 c -0.76463,0 -1.21343,-0.271497 -1.34641,-0.814492 h -0.0416 c -0.0609,0.304742 -0.18006,0.518061 -0.35738,0.639958 -0.17731,0.116356 -0.45435,0.174534 -0.83112,0.174534 z m 1.94481,2.210763 c -0.11081,0 -0.19947,-0.03324 -0.26596,-0.09973 -0.0665,-0.06095 -0.0997,-0.163451 -0.0997,-0.307512 0,-0.144059 0.0332,-0.249334 0.0997,-0.315823 0.0665,-0.06095 0.15512,-0.09142 0.26596,-0.09142 h 0.0914 c 0.11082,0 0.19947,0.03047 0.26596,0.09142 0.0665,0.06649 0.0997,0.171761 0.0997,0.315823 0,0.14406 -0.0332,0.246564 -0.0997,0.307512 -0.0665,0.06649 -0.15512,0.09973 -0.26596,0.09973 z m -1.07214,0 c -0.11081,0 -0.19946,-0.03324 -0.26595,-0.09973 -0.0665,-0.06095 -0.0997,-0.163451 -0.0997,-0.307512 0,-0.144059 0.0332,-0.249334 0.0997,-0.315823 0.0665,-0.06095 0.15512,-0.09142 0.26595,-0.09142 h 0.0914 c 0.11081,0 0.19946,0.03047 0.26595,0.09142 0.0665,0.06649 0.0997,0.171761 0.0997,0.315823 0,0.14406 -0.0332,0.246564 -0.0997,0.307512 -0.0665,0.06649 -0.15512,0.09973 -0.26595,0.09973 z m -8.50229,0.332446 c -0.72584,0 -1.291,-0.182845 -1.69548,-0.548536 -0.40447,-0.36569 -0.60671,-0.87544 -0.60671,-1.529249 0,-0.254875 0.0332,-0.523602 0.0997,-0.806181 0.072,-0.288119 0.169,-0.573468 0.29089,-0.856047 l 0.51529,0.157911 c -0.10527,0.21609 -0.19115,0.443261 -0.25764,0.681514 -0.0665,0.232712 -0.0997,0.454342 -0.0997,0.664891 0,0.470965 0.13298,0.836655 0.39893,1.09707 0.26596,0.260416 0.63442,0.390624 1.10538,0.390624 h 0.49867 c 0.58732,0 1.01673,-0.119126 1.28823,-0.357379 0.27703,-0.232712 0.41555,-0.601173 0.41555,-1.105382 0,-0.06649 -0.003,-0.135746 -0.008,-0.207778 0,-0.07203 -0.008,-0.157912 -0.0249,-0.257645 -0.0111,-0.105275 -0.0305,-0.229942 -0.0582,-0.374002 -0.0277,-0.144059 -0.0665,-0.321364 -0.11635,-0.531913 l -0.0831,-0.36569 0.58178,-0.116356 0.0748,0.36569 c 0.0443,0.232712 0.0804,0.429409 0.10805,0.590091 0.0277,0.155141 0.0471,0.28812 0.0582,0.398935 h 0.0166 l 0.47373,-0.806181 c 0.21055,-0.36569 0.42387,-0.667661 0.63996,-0.905914 0.21609,-0.243793 0.43495,-0.43772 0.65658,-0.58178 0.22163,-0.144059 0.44603,-0.246563 0.6732,-0.307512 0.23271,-0.06095 0.47374,-0.09142 0.72307,-0.09142 0.53745,0 0.95578,0.1496 1.25499,0.448801 0.2992,0.293661 0.4488,0.700907 0.4488,1.221738 0,0.387853 -0.0637,0.709217 -0.19116,0.964092 0.11636,0.03879 0.26596,0.05818 0.4488,0.05818 h 0.16623 v 0.548535 l -0.16623,0.166223 c -0.21055,0 -0.38785,-0.01662 -0.53191,-0.04987 -0.13852,-0.03879 -0.26596,-0.110816 -0.38231,-0.216089 -0.28812,0.177304 -0.6926,0.265956 -1.21343,0.265956 h -2.99201 c -0.0388,0.687054 -0.26043,1.191263 -0.66489,1.512628 -0.40447,0.321364 -1.0195,0.482046 -1.84507,0.482046 z m 5.50197,-2.709432 c 0.41556,0 0.73415,-0.06926 0.95578,-0.207779 0.22163,-0.138519 0.33245,-0.382312 0.33245,-0.73138 0,-0.343527 -0.0887,-0.601173 -0.26596,-0.772936 -0.17176,-0.177304 -0.41555,-0.265956 -0.73138,-0.265956 h -0.24933 c -0.22163,0 -0.42387,0.02216 -0.60672,0.06649 -0.1773,0.03879 -0.34906,0.110816 -0.51529,0.216089 -0.16068,0.09973 -0.32136,0.241024 -0.48204,0.423869 -0.15515,0.177304 -0.32137,0.401705 -0.49867,0.673202 l -0.35738,0.556846 0.0249,0.04156 z m -18.11285,0.166223 0.16622,-0.166223 h 1.20512 l 0.0166,-0.03325 c -0.27149,-0.210549 -0.48204,-0.448801 -0.63164,-0.714758 -0.14406,-0.265956 -0.21609,-0.540223 -0.21609,-0.822802 0,-0.205009 0.0332,-0.398935 0.0997,-0.58178 0.072,-0.188386 0.16622,-0.351839 0.28258,-0.490358 0.11635,-0.144059 0.2521,-0.263186 0.40724,-0.357379 0.16069,-0.09419 0.33245,-0.152371 0.51529,-0.174534 l 0.29921,-0.498668 1.25498,0.764625 c 0.28812,0.177304 0.53191,0.357379 0.73138,0.540224 0.20501,0.182845 0.37123,0.382313 0.49867,0.598402 0.12743,0.21609 0.21885,0.454343 0.27426,0.714758 0.0609,0.254875 0.0914,0.548536 0.0914,0.880981 V 16.3152 l -0.49036,0.723069 h -0.94747 c -0.28258,0 -0.55408,-0.03047 -0.81449,-0.09142 -0.26042,-0.06649 -0.50698,-0.16345 -0.73969,-0.29089 -0.23271,0.127437 -0.47928,0.224401 -0.73969,0.29089 -0.26042,0.06095 -0.53192,0.09142 -0.8145,0.09142 h -0.4488 z m 2.00299,-0.415557 c 0.26595,-0.155141 0.47927,-0.349068 0.63995,-0.58178 0.16069,-0.238253 0.24103,-0.484816 0.24103,-0.739691 0,-0.299201 -0.0776,-0.537454 -0.23271,-0.714759 -0.14961,-0.177304 -0.35185,-0.265956 -0.60672,-0.265956 h -0.0831 c -0.25487,0 -0.45988,0.08865 -0.61502,0.265956 -0.1496,0.177305 -0.2244,0.415558 -0.2244,0.714759 0,0.254875 0.0803,0.501438 0.24102,0.739691 0.16068,0.232712 0.374,0.426639 0.63996,0.58178 z m 1.36302,-1.878318 c 0.0665,0.177305 0.0997,0.36292 0.0997,0.556847 0,0.282579 -0.0748,0.556846 -0.2244,0.822802 -0.14406,0.265957 -0.35184,0.504209 -0.62334,0.714758 l 0.0166,0.03325 h 1.77859 v -0.09142 c 0,-0.249334 -0.0194,-0.473735 -0.0582,-0.673202 -0.0388,-0.199467 -0.0998,-0.382312 -0.18285,-0.548535 -0.0831,-0.166223 -0.19115,-0.315823 -0.32413,-0.448802 -0.12744,-0.138519 -0.27981,-0.268726 -0.45711,-0.390623 z m -6.65724,4.122326 h 0.4405 c 0.60394,0 1.06936,-0.113586 1.39627,-0.340757 0.33245,-0.221631 0.53745,-0.534684 0.61502,-0.939159 h -0.9724 c -0.44326,0 -0.78679,-0.116356 -1.03058,-0.349068 -0.24379,-0.232712 -0.36569,-0.559617 -0.36569,-0.980714 0,-0.249335 0.036,-0.484817 0.10804,-0.706447 0.0776,-0.221631 0.18285,-0.412787 0.31582,-0.573469 0.13298,-0.166223 0.29089,-0.296431 0.47374,-0.390624 0.18839,-0.09973 0.39339,-0.1496 0.61502,-0.1496 0.45989,0 0.82004,0.205008 1.08045,0.615024 0.26596,0.410017 0.39894,0.986256 0.39894,1.728717 v 0.09142 h 0.38231 v 0.548535 l -0.16622,0.166223 h -0.29089 c -0.1219,0.637187 -0.39617,1.127545 -0.82281,1.471072 -0.42109,0.349068 -1.0001,0.523602 -1.73702,0.523602 h -0.4405 z m 0.6649,-2.69281 c 0,0.243793 0.0637,0.421098 0.19115,0.531913 0.13298,0.110815 0.34076,0.166223 0.62334,0.166223 h 1.01396 v -0.257645 c 0,-0.448802 -0.0859,-0.803411 -0.25765,-1.063826 -0.16622,-0.265957 -0.39616,-0.398935 -0.68982,-0.398935 -0.28258,0 -0.50144,0.09419 -0.65658,0.282579 -0.1496,0.188386 -0.2244,0.43495 -0.2244,0.739691 z m -52.40722,-4.886939 h 0.2992 l 0.008,-0.03324 c -0.0443,-0.05541 -0.0804,-0.119125 -0.10805,-0.191156 -0.0277,-0.07757 -0.0416,-0.155141 -0.0416,-0.232712 0,-0.21609 0.072,-0.3961642 0.21609,-0.5402239 0.14406,-0.1440598 0.3269,-0.2160897 0.54853,-0.2160897 0.12744,0 0.25765,0.033245 0.39063,0.099734 0.13298,0.060949 0.23271,0.1440601 0.2992,0.2493342 l -0.30751,0.3740014 c -0.11082,-0.127438 -0.23826,-0.191157 -0.38232,-0.191157 -0.0997,0 -0.18284,0.0277 -0.24933,0.08311 -0.0665,0.04987 -0.0997,0.113586 -0.0997,0.191156 0,0.116356 0.0526,0.207779 0.15791,0.274268 0.10527,0.06649 0.2521,0.09973 0.44049,0.09973 h 0.53191 v 0.531913 h -1.70378 z m 0.54022,1.163559 h 0.61503 v 5.136285 h -0.61503 z m -6.15024,3.71508 c 0,0.332445 0.10805,0.545765 0.32414,0.639958 l 0.44049,-0.739692 c 0.21055,-0.36569 0.42386,-0.667661 0.63995,-0.905914 0.21609,-0.243793 0.43495,-0.43772 0.65658,-0.58178 0.22163,-0.144059 0.44604,-0.246563 0.67321,-0.307512 0.23271,-0.06095 0.47373,-0.09142 0.72307,-0.09142 0.53745,0 0.95578,0.1496 1.25498,0.448801 0.2992,0.293661 0.4488,0.700907 0.4488,1.221738 0,0.626106 -0.15791,1.072137 -0.47374,1.338093 -0.31582,0.265957 -0.78124,0.398935 -1.39627,0.398935 h -2.46009 c -0.76463,0 -1.21343,-0.271497 -1.34641,-0.814492 h -0.0416 c -0.0609,0.304742 -0.18006,0.518061 -0.35738,0.639958 -0.17731,0.116356 -0.45435,0.174534 -0.83112,0.174534 v -0.548535 l 0.16623,-0.166223 h 0.29089 c 0.47096,0 0.70644,-0.235482 0.70644,-0.706447 v -0.648269 h 0.58178 z m 3.29121,0.706447 c 0.41556,0 0.73415,-0.06926 0.95578,-0.207779 0.22163,-0.138519 0.33245,-0.382312 0.33245,-0.73138 0,-0.343527 -0.0887,-0.601173 -0.26596,-0.772936 -0.17176,-0.177304 -0.41555,-0.265956 -0.73138,-0.265956 h -0.24933 c -0.22163,0 -0.42387,0.02216 -0.60671,0.06649 -0.17731,0.03879 -0.34907,0.110816 -0.51529,0.216089 -0.16069,0.09973 -0.32137,0.241024 -0.48205,0.423869 -0.15514,0.177304 -0.32136,0.401705 -0.49867,0.673202 l -0.35738,0.556846 0.0249,0.04156 z m -0.13297,-3.690146 c -0.11082,0 -0.19947,-0.03047 -0.26596,-0.09142 -0.0665,-0.06649 -0.0997,-0.171761 -0.0997,-0.315823 0,-0.14406 0.0332,-0.246564 0.0997,-0.307512 0.0665,-0.06649 0.15512,-0.09973 0.26596,-0.09973 h 0.0914 c 0.11081,0 0.19946,0.03324 0.26595,0.09973 0.0665,0.06095 0.0997,0.163451 0.0997,0.307512 0,0.14406 -0.0332,0.249334 -0.0997,0.315823 -0.0665,0.06095 -0.15512,0.09142 -0.26595,0.09142 z m -8.03688,6.399578 c -0.72584,0 -1.291,-0.182845 -1.69548,-0.548536 -0.40447,-0.36569 -0.60671,-0.87544 -0.60671,-1.529249 0,-0.254875 0.0332,-0.523602 0.0997,-0.806181 0.072,-0.288119 0.169,-0.573468 0.29089,-0.856047 l 0.51529,0.157911 c -0.10527,0.21609 -0.19115,0.443261 -0.25764,0.681514 -0.0665,0.232712 -0.0997,0.454342 -0.0997,0.664891 0,0.470965 0.13298,0.836655 0.39893,1.09707 0.26596,0.260416 0.63442,0.390624 1.10538,0.390624 h 0.49867 c 0.58732,0 1.01673,-0.119126 1.28823,-0.357379 0.27703,-0.232712 0.41555,-0.601173 0.41555,-1.105382 0,-0.08865 -0.003,-0.177304 -0.008,-0.265956 -0.005,-0.08865 -0.0164,-0.185615 -0.0332,-0.29089 -0.0111,-0.110815 -0.0305,-0.232712 -0.0582,-0.36569 -0.0221,-0.132979 -0.0498,-0.282579 -0.0831,-0.448802 l -0.14129,-0.689824 0.58178,-0.116356 0.12467,0.689824 c 0.0388,0.21609 0.0693,0.404476 0.0914,0.565158 0.0277,0.155141 0.0471,0.296431 0.0582,0.423868 h 0.81449 v 0.548535 l -0.16622,0.166223 h -0.62334 c -0.0388,0.687054 -0.26043,1.191263 -0.66489,1.512628 -0.40447,0.321364 -1.0195,0.482046 -1.84507,0.482046 z m 0.11635,-4.58775 c -0.11081,0 -0.19946,-0.03047 -0.26595,-0.09142 -0.0665,-0.06649 -0.0997,-0.171761 -0.0997,-0.315824 0,-0.144059 0.0332,-0.246563 0.0997,-0.307512 0.0665,-0.06649 0.15512,-0.09973 0.26595,-0.09973 h 0.0914 c 0.11082,0 0.19947,0.03324 0.26596,0.09973 0.0665,0.06095 0.0997,0.163451 0.0997,0.307512 0,0.14406 -0.0332,0.249335 -0.0997,0.315824 -0.0665,0.06095 -0.15512,0.09142 -0.26596,0.09142 z"
       id="text3"
       style="font-size:8.31114px;line-height:1.25;font-family:'IBM Plex Sans Arabic';-inkscape-font-specification:'IBM Plex Sans Arabic';text-align:center;letter-spacing:0px;word-spacing:2.64583px;direction:rtl;text-anchor:middle;fill:#737373;fill-opacity:1;stroke-width:0.0577162"
       aria-label="رقم لوحة الترخيص هو ⁦12345|A|6⁩ أضن&#10;"
       sodipodi:nodetypes="cssccscccccscccsccccssccscccssscscssssccsccsccsscscssscscsscscssscscsscscsssssccccccscscccccccsssccccscsccsssscccccssssccscsccscscccsccssscccscsccccccsccscscscscsccsccccccccccscsccccscccccccsccccccscccscscccccccscscccscscccscsscscsscscssscscsscscsscccccccscsccscscccssccsccccccccssscccsccsscccscccsccscscsscscssscscsscscssccsccccccccccscsccccscccccccsccscscsscscssccssccssccccccccscscsscscssscscsscscsssssccccsssscsccscccccccccscscscscccccscsssssscssccccccscccccscccccccscsccscccsccccscsscsccccsccccsssccccsccssscccscsccccccsccscscscscsccccssscccscssscccccccccccccccscscssccccccsscccccscsscccccccscscsscscssscsccccscsscsscccccccccccccssscscsscscss" />
    <path
       d="m -155.42195,16.196617 h -1.37317 v -2.148662 h 0.34083 v 1.842416 h 1.03234 z m 1.95109,0 h -0.43138 l -0.55651,-0.869344 h -0.15477 v 0.869344 h -0.34083 v -2.148662 h 0.70799 q 0.354,0 0.54993,0.163002 0.19593,0.161355 0.19593,0.479127 0,0.141598 -0.0445,0.250266 -0.0428,0.107021 -0.12348,0.184406 -0.079,0.07738 -0.18605,0.123486 -0.10538,0.04446 -0.22887,0.06092 z m -0.37046,-1.511473 q 0,-0.164648 -0.10867,-0.246972 -0.10702,-0.08232 -0.29637,-0.08232 h -0.36716 v 0.663533 h 0.36716 q 0.18935,0 0.29637,-0.08232 0.10867,-0.08232 0.10867,-0.251913 z m 1.93462,1.511473 h -1.0307 v -0.306246 h 0.33917 v -1.534523 h -0.33917 v -0.307893 h 1.0307 v 0.307893 h -0.3507 v 1.534523 h 0.3507 z"
       id="text6"
       style="font-weight:bold;font-size:3.372px;line-height:1.25;font-family:'Anonymous Pro';-inkscape-font-specification:'Anonymous Pro Bold';text-align:center;letter-spacing:0px;word-spacing:0px;direction:rtl;text-anchor:middle;fill:#007edf;stroke-width:0.0234166;fill-opacity:1"
       aria-label="LRI" />
    <path
       d="m -200.21029,14.567998 q 0,0.322711 -0.19593,0.480774 -0.19593,0.156416 -0.54663,0.156416 h -0.37046 v 0.869344 h -0.34082 v -2.148663 h 0.70798 q 0.354,0 0.54993,0.163002 0.19593,0.161356 0.19593,0.479127 z m -0.34082,-0.0049 q 0,-0.164649 -0.10867,-0.246973 -0.10702,-0.08232 -0.29307,-0.08232 h -0.37046 v 0.663533 h 0.37046 q 0.18605,0 0.29307,-0.08232 0.10867,-0.08232 0.10867,-0.251912 z m 2.25239,0.436318 q 0,0.21569 -0.0461,0.411621 -0.0445,0.194286 -0.14489,0.342469 -0.0988,0.146537 -0.25685,0.233801 -0.15642,0.08726 -0.3787,0.08726 h -0.6981 v -2.148663 h 0.6981 q 0.21899,0 0.3754,0.08891 0.15807,0.08726 0.25685,0.2338 0.10044,0.146538 0.14654,0.340823 0.0478,0.194285 0.0478,0.409974 z m -0.34082,0 q 0,-0.372105 -0.12678,-0.568037 -0.12678,-0.197578 -0.35894,-0.197578 h -0.35728 v 1.534523 h 0.35728 q 0.23216,0 0.35894,-0.200871 0.12678,-0.200871 0.12678,-0.568037 z m 1.86382,1.075155 h -1.0307 v -0.306247 h 0.33917 v -1.534523 h -0.33917 v -0.307893 h 1.0307 v 0.307893 h -0.3507 v 1.534523 h 0.3507 z"
       id="text7"
       style="font-weight:bold;font-size:3.372px;line-height:1.25;font-family:'Anonymous Pro Minus';-inkscape-font-specification:'Anonymous Pro Minus Bold';text-align:center;letter-spacing:0px;word-spacing:0px;direction:rtl;text-anchor:middle;fill:#007edf;stroke-width:0.0234166;fill-opacity:1"
       aria-label="PDI" />
    <g
       id="g16"
       transform="matrix(-1,0,0,1,-110.73739,-67.845668)">
      <path
         d="m 104.2304,90.576234 v -0.175439 l -0.76608,-0.766083 -0.23392,0.233918 0.45419,0.454192 v 0.331385 l -0.45419,0.454193 0.23392,0.233918 z"
         id="path15"
         style="font-size:3.99221px;line-height:1.25;font-family:'Anonymous Pro';-inkscape-font-specification:'Anonymous Pro';text-align:center;letter-spacing:0px;word-spacing:0px;direction:rtl;text-anchor:middle;fill:#9999ff;fill-opacity:1;stroke-width:0.0277236"
         aria-label="←"
         sodipodi:nodetypes="ccccccccc" />
      <path
         style="fill:none;stroke:#9999ff;stroke-width:0.331;stroke-linecap:butt;stroke-linejoin:miter;stroke-dasharray:none;stroke-dashoffset:0;stroke-opacity:1"
         d="M -33.72278,90.488515 H 103.90695"
         id="path16"
         sodipodi:nodetypes="cc" />
    </g>
    <g
       id="g14"
       transform="translate(-261.49415,-70.072097)">
      <path
         d="m 104.2304,90.576234 v -0.175439 l -0.76608,-0.766083 -0.23392,0.233918 0.45419,0.454192 v 0.331385 l -0.45419,0.454193 0.23392,0.233918 z"
         id="text12"
         style="font-size:3.99221px;line-height:1.25;font-family:'Anonymous Pro';-inkscape-font-specification:'Anonymous Pro';text-align:center;letter-spacing:0px;word-spacing:0px;direction:rtl;text-anchor:middle;fill:#007edf;fill-opacity:1;stroke-width:0.0277236"
         aria-label="←"
         sodipodi:nodetypes="ccccccccc" />
      <path
         style="fill:none;stroke:#007edf;stroke-width:0.331258;stroke-linecap:butt;stroke-linejoin:miter;stroke-dasharray:0.662516, 0.662516;stroke-dashoffset:0;stroke-opacity:1"
         d="M 65.325032,90.488515 H 103.90695"
         id="path14"
         sodipodi:nodetypes="cc" />
    </g>
    <path
       d="m -196.07366,16.448178 h 1.55419 v -3.947791 h -0.0499 l -1.39627,1.230048 -0.40725,-0.407246 1.47108,-1.321471 h 1.07213 v 4.44646 h 1.42952 v 0.590091 h -3.67353 z m 4.78722,-0.0083 1.81183,-1.520939 c 0.61503,-0.526372 0.92254,-1.000107 0.92254,-1.421205 v -0.08311 c 0,-0.288119 -0.0914,-0.51252 -0.27427,-0.673202 -0.17731,-0.160682 -0.42664,-0.241023 -0.748,-0.241023 -0.59286,0 -0.97517,0.282579 -1.14694,0.847736 l -0.61502,-0.232712 c 0.13852,-0.398935 0.36015,-0.700906 0.66489,-0.905914 0.30474,-0.205009 0.68151,-0.307513 1.13031,-0.307513 0.26042,0 0.4959,0.03601 0.70645,0.108045 0.21609,0.06649 0.39893,0.16622 0.54854,0.299201 0.1496,0.127438 0.26318,0.282579 0.34075,0.465424 0.0831,0.182845 0.12467,0.387854 0.12467,0.615025 0,0.332445 -0.0997,0.65658 -0.2992,0.972403 -0.19947,0.315823 -0.51252,0.642728 -0.93916,0.980714 l -1.38796,1.105382 h 2.82579 v 0.590091 h -3.66522 z m 6.49932,-2.318808 c 0.34907,0 0.62333,-0.06926 0.8228,-0.207779 0.19947,-0.144059 0.2992,-0.340756 0.2992,-0.590091 v -0.08311 c 0,-0.232712 -0.0887,-0.412787 -0.26595,-0.540224 -0.17177,-0.132978 -0.41279,-0.199467 -0.72307,-0.199467 -0.51529,0 -0.89761,0.210549 -1.14694,0.631646 l -0.50698,-0.390623 c 0.38231,-0.559617 0.93916,-0.839426 1.67054,-0.839426 0.25487,0 0.48481,0.03047 0.68982,0.09142 0.21055,0.06095 0.39063,0.149599 0.54023,0.265957 0.1496,0.110815 0.26595,0.243793 0.34906,0.398934 0.0831,0.155141 0.12467,0.326905 0.12467,0.515291 0,0.299201 -0.0942,0.554076 -0.28258,0.764625 -0.18839,0.205008 -0.4488,0.346297 -0.78124,0.423868 v 0.03325 c 0.36015,0.06649 0.64549,0.216087 0.85604,0.448801 0.21055,0.227171 0.31583,0.504209 0.31583,0.831114 0,0.21609 -0.0471,0.415557 -0.14129,0.598402 -0.0887,0.177305 -0.21886,0.332446 -0.39063,0.465424 -0.16622,0.127437 -0.36569,0.227171 -0.5984,0.299201 -0.23271,0.06649 -0.49036,0.09973 -0.77293,0.09973 -0.38231,0 -0.72307,-0.07203 -1.02227,-0.21609 -0.29366,-0.14406 -0.55685,-0.368461 -0.78956,-0.673202 l 0.49867,-0.374002 c 0.17176,0.243794 0.35737,0.418328 0.55684,0.523602 0.19947,0.105275 0.44326,0.157912 0.73138,0.157912 0.38785,0 0.68428,-0.0748 0.88929,-0.224401 0.21055,-0.155141 0.31583,-0.376772 0.31583,-0.664891 v -0.08311 c 0,-0.28812 -0.10528,-0.50698 -0.31583,-0.656581 -0.20501,-0.155141 -0.50144,-0.232711 -0.88929,-0.232711 h -0.63164 V 14.12107 Z m 5.83442,1.911562 h -2.67619 V 15.44253 l 2.36037,-3.440812 h 0.9724 v 3.474057 h 0.80618 v 0.556846 h -0.80618 v 1.005648 h -0.65658 z m 0,-0.556846 v -2.908899 h -0.0416 l -1.99468,2.908899 z m 3.47406,-2.875655 -0.15791,1.836762 h 0.0582 c 0.1496,-0.210549 0.31305,-0.362919 0.49035,-0.457112 0.17731,-0.09419 0.3934,-0.14129 0.64827,-0.14129 0.24933,0 0.47651,0.03879 0.68152,0.116356 0.20501,0.07203 0.37954,0.177304 0.5236,0.315823 0.14406,0.138519 0.25487,0.307513 0.33244,0.50698 0.0831,0.193927 0.12467,0.410016 0.12467,0.648269 0,0.260415 -0.0443,0.495898 -0.13298,0.706447 -0.0887,0.210549 -0.21609,0.390623 -0.38231,0.540224 -0.16068,0.149601 -0.35738,0.265957 -0.59009,0.349068 -0.23271,0.07757 -0.49313,0.116356 -0.78125,0.116356 -0.7203,0 -1.30208,-0.296431 -1.74534,-0.889292 l 0.51529,-0.390624 c 0.17731,0.254875 0.35738,0.43218 0.54023,0.531913 0.18839,0.09973 0.4211,0.149601 0.69813,0.149601 0.36569,0 0.64827,-0.08588 0.84774,-0.257646 0.19947,-0.177304 0.2992,-0.432179 0.2992,-0.764625 v -0.08311 c 0,-0.332445 -0.0997,-0.58455 -0.2992,-0.756314 -0.19947,-0.177304 -0.48205,-0.265956 -0.84774,-0.265956 -0.20501,0 -0.38231,0.03324 -0.53191,0.09973 -0.1496,0.06095 -0.30474,0.168992 -0.46542,0.324135 l -0.58178,-0.08311 0.19946,-2.750988 h 3.00033 v 0.598402 z m 4.44647,5.585086 v -7.463403 h 0.56515 v 7.463403 z m 5.99232,-1.146937 -0.58178,-1.712095 h -2.34374 l -0.58178,1.712095 h -0.70645 l 2.02792,-5.801176 h 0.88929 l 2.02792,5.801176 z m -1.73703,-5.152907 h -0.0416 l -0.98071,2.825788 h 2.00298 z m 3.68184,6.299844 v -7.463403 h 0.56516 v 7.463403 z m 4.08908,-1.047203 c -0.2992,0 -0.5707,-0.04987 -0.81449,-0.149601 -0.23825,-0.105274 -0.44326,-0.252104 -0.61503,-0.44049 -0.16622,-0.193927 -0.29366,-0.429409 -0.38231,-0.706447 -0.0887,-0.277038 -0.13298,-0.587321 -0.13298,-0.930848 0,-0.432179 0.0637,-0.836655 0.19116,-1.213426 0.12743,-0.382313 0.29089,-0.72861 0.49036,-1.038893 0.20501,-0.315823 0.42941,-0.592861 0.6732,-0.831114 0.24379,-0.243793 0.48205,-0.44049 0.71476,-0.590091 h 0.8976 c -0.31029,0.227171 -0.58733,0.448802 -0.83112,0.664891 -0.24379,0.21609 -0.45711,0.443261 -0.63995,0.681514 -0.18285,0.232712 -0.33799,0.484817 -0.46543,0.756314 -0.12743,0.265956 -0.22994,0.567927 -0.30751,0.905914 l 0.0416,0.01662 c 0.13852,-0.238253 0.31582,-0.43495 0.53191,-0.590091 0.22163,-0.160682 0.50975,-0.241023 0.86436,-0.241023 0.24933,0 0.47927,0.04156 0.68982,0.124667 0.21055,0.08311 0.39063,0.202238 0.54023,0.357379 0.1496,0.155141 0.26595,0.343527 0.34906,0.565158 0.0887,0.221631 0.13298,0.468194 0.13298,0.739691 0,0.282579 -0.0471,0.542995 -0.14129,0.781248 -0.0887,0.232711 -0.21885,0.434949 -0.39062,0.606713 -0.16622,0.166223 -0.36846,0.29643 -0.60671,0.390623 -0.23825,0.09419 -0.50144,0.14129 -0.78956,0.14129 z m -0.008,-0.606714 c 0.38231,0 0.67874,-0.105274 0.88929,-0.315823 0.21609,-0.210549 0.32413,-0.51252 0.32413,-0.905914 v -0.06649 c 0,-0.393394 -0.10804,-0.695365 -0.32413,-0.905914 -0.21055,-0.210549 -0.50698,-0.315824 -0.88929,-0.315824 -0.38231,0 -0.68152,0.105275 -0.89761,0.315824 -0.21055,0.210549 -0.31582,0.51252 -0.31582,0.905914 v 0.06649 c 0,0.393394 0.10527,0.695365 0.31582,0.905914 0.21609,0.210549 0.5153,0.315823 0.89761,0.315823 z"
       id="path1"
       style="font-size:8.31114px;line-height:1.25;font-family:'IBM Plex Sans Arabic';-inkscape-font-specification:'IBM Plex Sans Arabic';text-align:center;letter-spacing:0px;word-spacing:2.64583px;direction:rtl;text-anchor:middle;fill:#84f801;fill-opacity:1;stroke-width:0.0577162"
       aria-label="رقم لوحة الترخيص هو ⁦12345|A|6⁩ أضن&#10;"
       sodipodi:nodetypes="cccccccccccccccsscsccsscccssccccccscsscsccsccssccccscccscccsscsscsccsccccccccccccccccccccsscscssccscccscsscscccccccccccccccccccccccccccccccsccsscccccscccccssscscssssscsscscsscs" />
  </g>
</svg>
