<?xml version="1.0" encoding="UTF-8" standalone="no"?>
<!-- Created with Inkscape (http://www.inkscape.org/) -->

<svg
   width="140.02393mm"
   height="10.056479mm"
   viewBox="0 0 140.02393 10.056479"
   version="1.1"
   id="svg1"
   inkscape:version="1.4 (e7c3feb100, 2024-10-09)"
   sodipodi:docname="bidi-expected.svg"
   xmlns:inkscape="http://www.inkscape.org/namespaces/inkscape"
   xmlns:sodipodi="http://sodipodi.sourceforge.net/DTD/sodipodi-0.dtd"
   xmlns="http://www.w3.org/2000/svg"
   xmlns:svg="http://www.w3.org/2000/svg">
  <sodipodi:namedview
     id="namedview1"
     pagecolor="#ffffff"
     bordercolor="#666666"
     borderopacity="1.0"
     inkscape:showpageshadow="2"
     inkscape:pageopacity="0.0"
     inkscape:pagecheckerboard="0"
     inkscape:deskcolor="#d1d1d1"
     inkscape:document-units="mm"
     inkscape:zoom="2.1219738"
     inkscape:cx="264.61213"
     inkscape:cy="18.143485"
     inkscape:window-width="1920"
     inkscape:window-height="1080"
     inkscape:window-x="0"
     inkscape:window-y="0"
     inkscape:window-maximized="1"
     inkscape:current-layer="layer1" />
  <defs
     id="defs1" />
  <g
     inkscape:label="Calque 1"
     inkscape:groupmode="layer"
     id="layer1"
     transform="translate(-139.7,-391.05417)">
    <path
       d="m 277.35524,399.84736 h 0.30752 q 0.45711,0 0.748,-0.13298 0.29089,-0.13298 0.45711,-0.35738 0.16622,-0.21609 0.23271,-0.51529 0.0665,-0.29089 0.0665,-0.61502 0,-0.24103 -0.0249,-0.49867 -0.0249,-0.26596 -0.0665,-0.50698 l -0.17453,-0.93916 0.58178,-0.11636 0.10804,0.63165 q 0.13298,0.76463 0.13298,1.44614 0,0.45711 -0.0997,0.87267 -0.0997,0.42387 -0.34075,0.73969 -0.23271,0.32414 -0.63165,0.51529 -0.39062,0.19116 -0.98902,0.19116 h -0.30752 z m -3.41587,-1.82845 0.16622,-0.16622 h 1.57081 q 0.34075,0 0.57346,-0.0582 0.23272,-0.0582 0.37401,-0.19116 0.1496,-0.13298 0.20777,-0.34076 0.0665,-0.21608 0.0665,-0.5236 v -0.26595 h -0.0415 q -0.11636,0.27426 -0.39063,0.43218 -0.26595,0.15791 -0.63164,0.15791 -0.66489,0 -1.03058,-0.34076 -0.36569,-0.34076 -0.36569,-0.96409 0,-0.36569 0.10804,-0.68983 0.11636,-0.32413 0.31582,-0.56515 0.19947,-0.24103 0.47374,-0.38232 0.28258,-0.14129 0.61502,-0.14129 0.71476,0 1.12201,0.61503 0.40724,0.61502 0.40724,1.72872 0,0.62333 -0.0914,1.05551 -0.0914,0.43218 -0.30751,0.69814 -0.20778,0.25764 -0.55685,0.374 -0.34075,0.11635 -0.84773,0.11635 h -1.73703 z m 2.06116,-1.68716 q 0.35738,0 0.56516,-0.0582 0.21609,-0.0665 0.33244,-0.19947 -0.0166,-0.63164 -0.28258,-1.00565 -0.26595,-0.374 -0.71475,-0.374 -0.42387,0 -0.65658,0.27427 -0.2244,0.26596 -0.2244,0.70645 0,0.34906 0.19115,0.50698 0.19947,0.1496 0.62334,0.1496 z m 0.41556,-3.34939 q -0.16623,0 -0.26596,-0.0914 -0.0997,-0.0997 -0.0997,-0.31583 0,-0.21609 0.0997,-0.30751 0.0997,-0.0997 0.26596,-0.0997 h 0.0914 q 0.16622,0 0.26596,0.0997 0.0997,0.0914 0.0997,0.30751 0,0.21609 -0.0997,0.31583 -0.0997,0.0914 -0.26596,0.0914 z m -1.07214,0 q -0.16622,0 -0.26596,-0.0914 -0.0997,-0.0997 -0.0997,-0.31583 0,-0.21609 0.0997,-0.30751 0.0997,-0.0997 0.26596,-0.0997 h 0.0914 q 0.16623,0 0.26596,0.0997 0.0997,0.0914 0.0997,0.30751 0,0.21609 -0.0997,0.31583 -0.0997,0.0914 -0.26596,0.0914 z m -6.10869,5.46873 q 0,-0.48205 0.0665,-0.83112 0.0665,-0.34906 0.24103,-0.61502 0.17453,-0.26596 0.46542,-0.48205 0.2992,-0.21609 0.76463,-0.44049 l 1.18849,-0.58178 h 0.64827 l 0.59009,1.60405 q 0.0831,0.2244 0.1496,0.374 0.0748,0.14129 0.15791,0.22441 0.0831,0.0831 0.18285,0.11635 0.10804,0.0333 0.24933,0.0333 h 0.16622 v 0.54853 l -0.16622,0.16622 q -0.39062,0 -0.62333,-0.10804 -0.23272,-0.11636 -0.41556,-0.4488 l -0.0499,0.0166 v 0.54022 h -0.98902 q -0.68152,0 -1.06383,-0.26595 -0.38231,-0.26596 -0.38231,-0.73969 0,-0.44049 0.34075,-0.70645 l -0.0332,-0.0333 -0.25765,0.1496 q -0.18284,0.11636 -0.30751,0.23272 -0.11635,0.11635 -0.18284,0.28258 -0.0665,0.16622 -0.0997,0.39893 -0.0249,0.23271 -0.0249,0.56516 v 2.65956 h -0.61502 z m 1.67885,-1.18018 q 0,0.2992 0.24102,0.44049 0.24102,0.14129 0.75631,0.14129 h 0.90592 q -0.0914,-0.19116 -0.19947,-0.49036 l -0.44049,-1.18018 -0.34076,0.15791 q -0.27427,0.12467 -0.4488,0.24102 -0.17453,0.10805 -0.28258,0.21609 -0.10804,0.10805 -0.1496,0.2244 -0.0416,0.11636 -0.0416,0.24934 z m -9.18668,0.748 0.16622,-0.16622 h 0.24103 q 0.39893,0 0.57347,-0.18285 0.18284,-0.18284 0.18284,-0.58178 v -4.67086 h 0.61502 v 4.67086 q 0,0.76463 -0.33244,1.122 -0.32414,0.35738 -1.03889,0.35738 h -0.40725 z m -3.29123,1.82845 h 0.44049 q 0.90592,0 1.39628,-0.34076 0.49866,-0.33244 0.61502,-0.93916 h -0.9724 q -0.66489,0 -1.03058,-0.34906 -0.36569,-0.34907 -0.36569,-0.98072 0,-0.374 0.10804,-0.70645 0.11636,-0.33244 0.31582,-0.57346 0.19947,-0.24934 0.47374,-0.39063 0.28258,-0.1496 0.61502,-0.1496 0.68983,0 1.08045,0.61503 0.39894,0.61502 0.39894,1.72871 v 0.0914 h 0.38231 v 0.54853 l -0.16622,0.16622 h -0.29089 q -0.18285,0.95578 -0.82281,1.47108 -0.63164,0.5236 -1.73703,0.5236 h -0.44049 z m 0.6649,-2.69281 q 0,0.36569 0.19115,0.53191 0.19947,0.16623 0.62334,0.16623 h 1.01396 v -0.25765 q 0,-0.6732 -0.25765,-1.06383 -0.24933,-0.39893 -0.68982,-0.39893 -0.42387,0 -0.65658,0.28258 -0.2244,0.28258 -0.2244,0.73969 z m -6.38296,0.86436 0.16622,-0.16622 h 0.28258 q 0.36569,0 0.6732,-0.0249 0.31583,-0.0249 0.63996,-0.0914 0.32413,-0.0748 0.68151,-0.20778 0.36569,-0.13298 0.82281,-0.34907 l 0.76462,-0.36569 v -0.0332 l -1.23005,-0.27427 -1.7204,-0.42387 v 0.71476 h -0.58178 v -0.63996 q 0,-0.34906 0.19115,-0.5236 0.19947,-0.18284 0.49867,-0.18284 0.0914,0 0.21609,0.0249 0.13298,0.0166 0.40725,0.0831 l 2.02791,0.5236 q 0.45712,0.11636 0.76463,0.16623 0.30751,0.0415 0.53191,0.0415 h 0.13298 v 0.71476 h -0.64827 l -1.13031,0.68151 q -0.51529,0.30752 -0.91423,0.49036 -0.39893,0.17453 -0.748,0.26596 -0.34907,0.0831 -0.68151,0.10804 -0.32414,0.0166 -0.69814,0.0166 h -0.4488 z m 0,0.54853 q -0.38231,0 -0.64827,-0.0582 -0.25764,-0.0665 -0.42387,-0.20778 -0.15791,-0.1496 -0.23271,-0.374 -0.0748,-0.23272 -0.0748,-0.57347 v -0.14129 h -0.0416 q -0.11636,0.374 -0.39894,0.56516 -0.27427,0.18284 -0.66489,0.18284 -0.55685,0 -0.87267,-0.2992 -0.30751,-0.2992 -0.30751,-0.84774 0,-0.23271 0.0748,-0.43218 0.0748,-0.20777 0.24102,-0.39893 0.17453,-0.19947 0.44049,-0.39062 0.26596,-0.19947 0.64827,-0.41556 l 0.83943,-0.48205 v -0.41555 h 0.58178 v 2.99201 q 0,0.34075 0.17453,0.46542 0.17453,0.11636 0.54022,0.11636 h 0.29089 v 0.54853 z m -2.36036,-1.32147 q 0.50698,0 0.72307,-0.14129 0.21609,-0.1496 0.21609,-0.5236 v -1.21343 l -0.83943,0.44881 q -0.44049,0.24102 -0.63165,0.4488 -0.19115,0.19947 -0.19115,0.46542 0,0.26596 0.15791,0.39063 0.16622,0.12466 0.56516,0.12466 z m 1.20511,-3.6569 q -0.16622,0 -0.26595,-0.0914 -0.0997,-0.0997 -0.0997,-0.31582 0,-0.21609 0.0997,-0.30752 0.0997,-0.0997 0.26595,-0.0997 h 0.0914 q 0.16623,0 0.26596,0.0997 0.0997,0.0914 0.0997,0.30752 0,0.21608 -0.0997,0.31582 -0.0997,0.0914 -0.26596,0.0914 z m -1.07214,0 q -0.16622,0 -0.26595,-0.0914 -0.0997,-0.0997 -0.0997,-0.31582 0,-0.21609 0.0997,-0.30752 0.0997,-0.0997 0.26595,-0.0997 h 0.0914 q 0.16622,0 0.26595,0.0997 0.0997,0.0914 0.0997,0.30752 0,0.21608 -0.0997,0.31582 -0.0997,0.0914 -0.26595,0.0914 z m -7.40812,-1.17187 h 0.61503 v 6.15024 h -0.61503 z m -3.02524,5.60171 0.16622,-0.16622 h 0.24102 q 0.39894,0 0.57347,-0.18285 0.18285,-0.18284 0.18285,-0.58178 v -4.67086 h 0.61502 v 4.67086 q 0,0.76463 -0.33244,1.122 -0.32414,0.35738 -1.0389,0.35738 h -0.40724 z m -5.11136,1.82845 h 0.30752 q 0.45711,0 0.748,-0.13298 0.29089,-0.13298 0.45711,-0.35738 0.16622,-0.21609 0.23271,-0.51529 0.0665,-0.29089 0.0665,-0.61502 0,-0.24103 -0.0249,-0.49867 -0.0249,-0.26596 -0.0665,-0.50698 l -0.17453,-0.93916 0.58178,-0.11636 0.0997,0.59841 1.46276,-0.24934 v -0.68151 h 0.58178 v 1.43783 q 0,0.31582 0.17453,0.4488 0.17454,0.13298 0.54023,0.13298 h 0.29089 v 0.54853 l -0.16623,0.16622 h -0.0166 q -0.38231,0 -0.64827,-0.0665 -0.26595,-0.0748 -0.44049,-0.2244 -0.16622,-0.15791 -0.24102,-0.40724 -0.0748,-0.24934 -0.0748,-0.5984 v -0.0665 l -1.36303,0.23271 q 0.0166,0.20778 0.0249,0.40724 0.0166,0.19947 0.0166,0.39894 0,0.45711 -0.0997,0.87267 -0.0997,0.42387 -0.34075,0.73969 -0.23271,0.32414 -0.63165,0.51529 -0.39062,0.19116 -0.98902,0.19116 h -0.30752 z m 4.44646,-5.01162 q -0.16622,0 -0.26595,-0.0914 -0.0997,-0.0997 -0.0997,-0.31582 0,-0.21609 0.0997,-0.30752 0.0997,-0.0997 0.26595,-0.0997 h 0.0914 q 0.16622,0 0.26595,0.0997 0.0997,0.0914 0.0997,0.30752 0,0.21609 -0.0997,0.31582 -0.0997,0.0914 -0.26595,0.0914 z m -1.07213,0 q -0.16623,0 -0.26596,-0.0914 -0.0997,-0.0997 -0.0997,-0.31582 0,-0.21609 0.0997,-0.30752 0.0997,-0.0997 0.26596,-0.0997 h 0.0914 q 0.16622,0 0.26596,0.0997 0.0997,0.0914 0.0997,0.30752 0,0.21609 -0.0997,0.31582 -0.0997,0.0914 -0.26596,0.0914 z m -7.97871,3.18317 0.16622,-0.16622 h 0.28258 q 0.36569,0 0.6732,-0.0249 0.31583,-0.0249 0.63996,-0.0914 0.32414,-0.0748 0.68152,-0.20778 0.36569,-0.13298 0.8228,-0.34907 l 0.76462,-0.36569 v -0.0332 l -1.23005,-0.27427 -1.7204,-0.42387 v 0.71476 h -0.58178 v -0.63996 q 0,-0.34906 0.19115,-0.5236 0.19947,-0.18284 0.49867,-0.18284 0.0914,0 0.21609,0.0249 0.13298,0.0166 0.40725,0.0831 l 2.02792,0.5236 q 0.45711,0.11636 0.76462,0.16623 0.30751,0.0415 0.53191,0.0415 h 0.13298 v 0.71476 h -0.64827 l -1.13031,0.68151 q -0.51529,0.30752 -0.91423,0.49036 -0.39893,0.17453 -0.748,0.26596 -0.34907,0.0831 -0.68151,0.10804 -0.32414,0.0166 -0.69814,0.0166 h -0.4488 z m 2.22739,-3.51561 q -0.16623,0 -0.26596,-0.0914 -0.0997,-0.0997 -0.0997,-0.31582 0,-0.21609 0.0997,-0.30751 0.0997,-0.0997 0.26596,-0.0997 h 0.0914 q 0.16622,0 0.26595,0.0997 0.0997,0.0914 0.0997,0.30751 0,0.21609 -0.0997,0.31582 -0.0997,0.0914 -0.26595,0.0914 z m -4.80383,3.51561 0.16622,-0.16622 h 0.29089 q 0.70645,0 0.70645,-0.70645 v -1.31316 h 0.58178 v 1.31316 q 0,0.70645 0.70645,0.70645 h 0.29089 v 0.54853 l -0.16623,0.16622 q -1.14693,0 -1.3464,-0.81449 h -0.0416 q -0.0914,0.45711 -0.35737,0.63996 -0.26596,0.17453 -0.83112,0.17453 z m 1.94481,2.21076 q -0.16622,0 -0.26596,-0.0997 -0.0997,-0.0914 -0.0997,-0.30751 0,-0.21609 0.0997,-0.31583 0.0997,-0.0914 0.26596,-0.0914 h 0.0914 q 0.16622,0 0.26596,0.0914 0.0997,0.0997 0.0997,0.31583 0,0.21609 -0.0997,0.30751 -0.0997,0.0997 -0.26596,0.0997 z m -1.07214,0 q -0.16622,0 -0.26596,-0.0997 -0.0997,-0.0914 -0.0997,-0.30751 0,-0.21609 0.0997,-0.31583 0.0997,-0.0914 0.26596,-0.0914 h 0.0914 q 0.16623,0 0.26596,0.0914 0.0997,0.0997 0.0997,0.31583 0,0.21609 -0.0997,0.30751 -0.0997,0.0997 -0.26596,0.0997 z m -8.5023,0.33245 q -1.08875,0 -1.69547,-0.54854 -0.60671,-0.54853 -0.60671,-1.52925 0,-0.38231 0.0997,-0.80618 0.10805,-0.43218 0.29089,-0.85605 l 0.51529,0.15792 q -0.15791,0.32413 -0.25764,0.68151 -0.0997,0.34907 -0.0997,0.66489 0,0.70645 0.39894,1.09707 0.39893,0.39062 1.10538,0.39062 h 0.49867 q 0.88098,0 1.28823,-0.35737 0.41555,-0.34907 0.41555,-1.10539 0,-0.0997 -0.008,-0.20777 0,-0.10805 -0.0249,-0.25765 -0.0166,-0.15791 -0.0582,-0.374 -0.0416,-0.21609 -0.11636,-0.53191 l -0.0831,-0.36569 0.58178,-0.11636 0.0748,0.36569 q 0.0665,0.34907 0.10805,0.59009 0.0416,0.23271 0.0582,0.39894 h 0.0166 l 0.47373,-0.80618 q 0.31583,-0.54854 0.63996,-0.90592 0.32414,-0.36569 0.65658,-0.58178 0.33245,-0.21609 0.6732,-0.30751 0.34907,-0.0914 0.72307,-0.0914 0.80618,0 1.25498,0.4488 0.44881,0.44049 0.44881,1.22174 0,0.58178 -0.19116,0.96409 0.17453,0.0582 0.4488,0.0582 h 0.16622 v 0.54853 l -0.16622,0.16622 q -0.31582,0 -0.53191,-0.0499 -0.20778,-0.0582 -0.38231,-0.21609 -0.43218,0.26595 -1.21343,0.26595 h -2.99201 q -0.0582,1.03059 -0.66489,1.51263 -0.60672,0.48205 -1.84508,0.48205 z m 5.50198,-2.70943 q 0.62333,0 0.95578,-0.20778 0.33245,-0.20778 0.33245,-0.73138 0,-0.51529 -0.26596,-0.77294 -0.25765,-0.26596 -0.73138,-0.26596 h -0.24933 q -0.33245,0 -0.60672,0.0665 -0.26595,0.0582 -0.51529,0.21609 -0.24102,0.1496 -0.48204,0.42387 -0.23272,0.26596 -0.49867,0.6732 l -0.35738,0.55685 0.0249,0.0416 z m -18.11285,0.16622 0.16622,-0.16622 h 1.20512 l 0.0166,-0.0333 q -0.40725,-0.31582 -0.63165,-0.71476 -0.21609,-0.39893 -0.21609,-0.8228 0,-0.30751 0.0997,-0.58178 0.10804,-0.28258 0.28258,-0.49036 0.17453,-0.21609 0.40724,-0.35738 0.24103,-0.14129 0.51529,-0.17453 l 0.2992,-0.49867 1.25499,0.76463 q 0.43218,0.26595 0.73138,0.54022 0.30751,0.27427 0.49867,0.5984 0.19115,0.32414 0.27426,0.71476 0.0914,0.38231 0.0914,0.88098 v 0.16622 l -0.49036,0.72307 h -0.94747 q -0.42387,0 -0.81449,-0.0914 -0.39063,-0.0997 -0.7397,-0.29089 -0.34906,0.19116 -0.73969,0.29089 -0.39062,0.0914 -0.81449,0.0914 h -0.4488 z m 2.00298,-0.41556 q 0.39894,-0.23271 0.63996,-0.58178 0.24103,-0.35738 0.24103,-0.73969 0,-0.4488 -0.23272,-0.71476 -0.2244,-0.26595 -0.60671,-0.26595 h -0.0831 q -0.38231,0 -0.61503,0.26595 -0.2244,0.26596 -0.2244,0.71476 0,0.38231 0.24103,0.73969 0.24102,0.34907 0.63995,0.58178 z m 1.36303,-1.87832 q 0.0997,0.26596 0.0997,0.55685 0,0.42387 -0.22441,0.8228 -0.21609,0.39894 -0.62333,0.71476 l 0.0166,0.0333 h 1.77859 v -0.0914 q 0,-0.374 -0.0582,-0.6732 -0.0582,-0.2992 -0.18285,-0.54853 -0.12466,-0.24934 -0.32413,-0.44881 -0.19116,-0.20777 -0.45711,-0.39062 z m -6.65724,4.12233 h 0.44049 q 0.90592,0 1.39628,-0.34076 0.49866,-0.33244 0.61502,-0.93916 h -0.9724 q -0.6649,0 -1.03059,-0.34906 -0.36569,-0.34907 -0.36569,-0.98072 0,-0.374 0.10805,-0.70645 0.11636,-0.33244 0.31582,-0.57346 0.19947,-0.24934 0.47374,-0.39063 0.28258,-0.1496 0.61502,-0.1496 0.68983,0 1.08045,0.61503 0.39894,0.61502 0.39894,1.72871 v 0.0914 h 0.38231 v 0.54853 l -0.16623,0.16622 h -0.29089 q -0.18284,0.95578 -0.8228,1.47108 -0.63164,0.5236 -1.73703,0.5236 h -0.44049 z m 0.66489,-2.69281 q 0,0.36569 0.19116,0.53191 0.19947,0.16623 0.62334,0.16623 h 1.01396 v -0.25765 q 0,-0.6732 -0.25765,-1.06383 -0.24933,-0.39893 -0.68982,-0.39893 -0.42387,0 -0.65658,0.28258 -0.22441,0.28258 -0.22441,0.73969 z m -45.10745,0.8228 h 1.55419 v -3.94779 h -0.0499 l -1.39627,1.23005 -0.40725,-0.40725 1.47107,-1.32147 h 1.07214 v 4.44646 h 1.42952 v 0.59009 h -3.67353 z m 4.78722,-0.008 1.81183,-1.52094 q 0.92254,-0.78956 0.92254,-1.4212 v -0.0831 q 0,-0.43218 -0.27427,-0.67321 -0.26596,-0.24102 -0.748,-0.24102 -0.8893,0 -1.14694,0.84774 l -0.61502,-0.23271 q 0.20777,-0.59841 0.66489,-0.90592 0.45711,-0.30751 1.13031,-0.30751 0.39062,0 0.70645,0.10804 0.32413,0.0997 0.54853,0.29921 0.2244,0.19115 0.34076,0.46542 0.12467,0.27427 0.12467,0.61502 0,0.49867 -0.2992,0.97241 -0.2992,0.47373 -0.93916,0.98071 l -1.38796,1.10538 h 2.82578 v 0.59009 h -3.66521 z m 6.49932,-2.31881 q 0.5236,0 0.8228,-0.20777 0.2992,-0.21609 0.2992,-0.5901 v -0.0831 q 0,-0.34907 -0.26596,-0.54022 -0.25764,-0.19947 -0.72307,-0.19947 -0.77293,0 -1.14693,0.63165 l -0.50698,-0.39063 q 0.57347,-0.83942 1.67054,-0.83942 0.38231,0 0.68982,0.0914 0.31582,0.0914 0.54023,0.26596 0.2244,0.16622 0.34906,0.39893 0.12467,0.23271 0.12467,0.51529 0,0.44881 -0.28258,0.76463 -0.28258,0.30751 -0.78125,0.42387 v 0.0332 q 0.54023,0.0997 0.85605,0.4488 0.31583,0.34076 0.31583,0.83112 0,0.32413 -0.14129,0.5984 -0.13298,0.26596 -0.39063,0.46542 -0.24933,0.19116 -0.5984,0.2992 -0.34907,0.0997 -0.77294,0.0997 -0.57346,0 -1.02227,-0.21609 -0.44049,-0.21609 -0.78955,-0.6732 l 0.49866,-0.37401 q 0.25765,0.36569 0.55685,0.52361 0.2992,0.15791 0.73138,0.15791 0.58178,0 0.88929,-0.2244 0.31583,-0.23271 0.31583,-0.66489 v -0.0831 q 0,-0.43217 -0.31583,-0.65658 -0.30751,-0.23271 -0.88929,-0.23271 h -0.63165 v -0.57347 z m 5.83442,1.91157 h -2.67619 v -0.5901 l 2.36037,-3.44081 h 0.9724 v 3.47406 h 0.80618 v 0.55685 h -0.80618 v 1.00564 h -0.65658 z m 0,-0.55685 v -2.9089 h -0.0416 l -1.99467,2.9089 z m 3.47406,-2.87565 -0.15791,1.83676 h 0.0582 q 0.22441,-0.31583 0.49036,-0.45712 0.26596,-0.14129 0.64827,-0.14129 0.374,0 0.68151,0.11636 0.30752,0.10805 0.52361,0.31582 0.21609,0.20778 0.33244,0.50698 0.12467,0.29089 0.12467,0.64827 0,0.39063 -0.13298,0.70645 -0.13298,0.31582 -0.38231,0.54022 -0.24102,0.2244 -0.59009,0.34907 -0.34907,0.11636 -0.78125,0.11636 -1.08045,0 -1.74534,-0.88929 l 0.51529,-0.39063 q 0.26596,0.38231 0.54023,0.53191 0.28257,0.14961 0.69813,0.14961 0.54854,0 0.84774,-0.25765 0.2992,-0.26596 0.2992,-0.76462 v -0.0831 q 0,-0.49866 -0.2992,-0.75631 -0.2992,-0.26596 -0.84774,-0.26596 -0.30751,0 -0.53191,0.0997 -0.2244,0.0914 -0.46543,0.32413 l -0.58178,-0.0831 0.19947,-2.75099 h 3.00032 v 0.59841 z m 4.44646,5.58508 v -7.4634 h 0.56516 v 7.4634 z m 5.99233,-1.14694 -0.58178,-1.71209 h -2.34374 l -0.58178,1.71209 h -0.70645 l 2.02792,-5.80117 h 0.88929 l 2.02792,5.80117 z m -1.73703,-5.1529 h -0.0416 l -0.98071,2.82578 h 2.00298 z m 3.68184,6.29984 v -7.4634 h 0.56516 v 7.4634 z m 4.08908,-1.0472 q -0.4488,0 -0.81449,-0.1496 -0.35738,-0.15791 -0.61503,-0.44049 -0.24933,-0.29089 -0.38231,-0.70645 -0.13298,-0.41556 -0.13298,-0.93085 0,-0.64827 0.19116,-1.21342 0.19115,-0.57347 0.49035,-1.0389 0.30752,-0.47373 0.67321,-0.83111 0.36569,-0.36569 0.71475,-0.59009 h 0.89761 q -0.46543,0.34075 -0.83112,0.66489 -0.36569,0.32413 -0.63995,0.68151 -0.27427,0.34907 -0.46543,0.75632 -0.19115,0.39893 -0.30751,0.90591 l 0.0416,0.0166 q 0.20778,-0.35738 0.53192,-0.59009 0.33244,-0.24102 0.86436,-0.24102 0.374,0 0.68982,0.12467 0.31582,0.12466 0.54023,0.35738 0.2244,0.23271 0.34906,0.56515 0.13298,0.33245 0.13298,0.73969 0,0.42387 -0.14129,0.78125 -0.13298,0.34907 -0.39062,0.60671 -0.24934,0.24934 -0.60671,0.39063 -0.35738,0.14129 -0.78956,0.14129 z m -0.008,-0.60672 q 0.57346,0 0.88929,-0.31582 0.32413,-0.31582 0.32413,-0.90591 v -0.0665 q 0,-0.59009 -0.32413,-0.90592 -0.31583,-0.31582 -0.88929,-0.31582 -0.57347,0 -0.89761,0.31582 -0.31582,0.31583 -0.31582,0.90592 v 0.0665 q 0,0.59009 0.31582,0.90591 0.32414,0.31582 0.89761,0.31582 z m -44.35946,-5.79286 h 0.2992 l 0.008,-0.0332 q -0.0665,-0.0831 -0.10805,-0.19116 -0.0416,-0.11636 -0.0416,-0.23271 0,-0.32414 0.21609,-0.54023 0.21609,-0.21609 0.54853,-0.21609 0.19116,0 0.39063,0.0997 0.19946,0.0914 0.2992,0.24933 l -0.30752,0.374 q -0.16622,-0.19115 -0.38231,-0.19115 -0.1496,0 -0.24933,0.0831 -0.0997,0.0748 -0.0997,0.19115 0,0.17454 0.15792,0.27427 0.15791,0.0997 0.44049,0.0997 h 0.53191 v 0.53191 h -1.70378 z m 0.54022,1.16356 h 0.61502 v 5.13628 h -0.61502 z m -6.15024,3.71508 q 0,0.49867 0.32413,0.63996 l 0.4405,-0.73969 q 0.31582,-0.54854 0.63995,-0.90592 0.32414,-0.36569 0.65658,-0.58178 0.33245,-0.21609 0.67321,-0.30751 0.34906,-0.0914 0.72306,-0.0914 0.80618,0 1.25499,0.4488 0.4488,0.44049 0.4488,1.22174 0,0.93915 -0.47374,1.33809 -0.47373,0.39893 -1.39627,0.39893 h -2.4601 q -1.14693,0 -1.3464,-0.81449 h -0.0416 q -0.0914,0.45711 -0.35738,0.63996 -0.26595,0.17453 -0.83111,0.17453 v -0.54853 l 0.16622,-0.16622 h 0.29089 q 0.70645,0 0.70645,-0.70645 v -0.64827 h 0.58178 z m 3.29121,0.70645 q 0.62334,0 0.95578,-0.20778 0.33245,-0.20778 0.33245,-0.73138 0,-0.51529 -0.26596,-0.77294 -0.25764,-0.26596 -0.73138,-0.26596 h -0.24933 q -0.33245,0 -0.60672,0.0665 -0.26595,0.0582 -0.51529,0.21609 -0.24102,0.1496 -0.48204,0.42387 -0.23271,0.26596 -0.49867,0.6732 l -0.35738,0.55685 0.0249,0.0416 z m -0.13298,-3.69015 q -0.16622,0 -0.26595,-0.0914 -0.0997,-0.0997 -0.0997,-0.31583 0,-0.21609 0.0997,-0.30751 0.0997,-0.0997 0.26595,-0.0997 h 0.0914 q 0.16622,0 0.26595,0.0997 0.0997,0.0914 0.0997,0.30751 0,0.21609 -0.0997,0.31583 -0.0997,0.0914 -0.26595,0.0914 z m -8.03688,6.39958 q -1.08875,0 -1.69547,-0.54854 -0.60671,-0.54853 -0.60671,-1.52925 0,-0.38231 0.0997,-0.80618 0.10805,-0.43218 0.29089,-0.85605 l 0.51529,0.15792 q -0.15791,0.32413 -0.25764,0.68151 -0.0997,0.34907 -0.0997,0.66489 0,0.70645 0.39894,1.09707 0.39893,0.39062 1.10538,0.39062 h 0.49867 q 0.88098,0 1.28823,-0.35737 0.41555,-0.34907 0.41555,-1.10539 0,-0.13297 -0.008,-0.26595 -0.008,-0.13298 -0.0332,-0.29089 -0.0166,-0.16622 -0.0582,-0.36569 -0.0333,-0.19947 -0.0831,-0.4488 l -0.14129,-0.68983 0.58178,-0.11635 0.12466,0.68982 q 0.0582,0.32413 0.0914,0.56516 0.0416,0.23271 0.0582,0.42387 h 0.81449 v 0.54853 l -0.16623,0.16622 h -0.62333 q -0.0582,1.03059 -0.66489,1.51263 -0.60672,0.48205 -1.84508,0.48205 z m 0.11636,-4.58775 q -0.16622,0 -0.26596,-0.0914 -0.0997,-0.0997 -0.0997,-0.31583 0,-0.21609 0.0997,-0.30751 0.0997,-0.0997 0.26596,-0.0997 h 0.0914 q 0.16623,0 0.26596,0.0997 0.0997,0.0914 0.0997,0.30751 0,0.21609 -0.0997,0.31583 -0.0997,0.0914 -0.26596,0.0914 z"
       id="text10"
       style="font-size:8.31114px;line-height:1.25;font-family:'IBM Plex Sans Arabic';-inkscape-font-specification:'IBM Plex Sans Arabic';text-align:center;letter-spacing:0px;word-spacing:2.64583px;direction:rtl;text-anchor:middle;fill:#ffffff;stroke-width:0.0577162"
       aria-label="رقم لوحة الترخيص هو ⁦12345|A|6⁩ أضن&#10;" />
  </g>
</svg>
