<?xml version="1.0" encoding="UTF-8" standalone="no"?>
<!-- Created with Inkscape (http://www.inkscape.org/) -->

<svg
   width="140.02393mm"
   height="10.056479mm"
   viewBox="0 0 140.02393 10.056479"
   version="1.1"
   id="svg1"
   sodipodi:docname="bidi-obtain.svg"
   inkscape:version="1.4 (e7c3feb100, 2024-10-09)"
   xmlns:inkscape="http://www.inkscape.org/namespaces/inkscape"
   xmlns:sodipodi="http://sodipodi.sourceforge.net/DTD/sodipodi-0.dtd"
   xmlns="http://www.w3.org/2000/svg"
   xmlns:svg="http://www.w3.org/2000/svg">
  <sodipodi:namedview
     id="namedview1"
     pagecolor="#ffffff"
     bordercolor="#666666"
     borderopacity="1.0"
     inkscape:showpageshadow="2"
     inkscape:pageopacity="0.0"
     inkscape:pagecheckerboard="0"
     inkscape:deskcolor="#d1d1d1"
     inkscape:document-units="mm"
     inkscape:zoom="0.013693995"
     inkscape:cx="182.56178"
     inkscape:cy="73.024711"
     inkscape:window-width="636"
     inkscape:window-height="481"
     inkscape:window-x="640"
     inkscape:window-y="559"
     inkscape:window-maximized="0"
     inkscape:current-layer="layer1" />
  <defs
     id="defs1" />
  <g
     inkscape:label="Calque 1"
     inkscape:groupmode="layer"
     id="layer1"
     transform="translate(-29.368746,18.520834)">
    <path
       d="m 167.02399,-9.727648 h 0.30751 q 0.45712,0 0.74801,-0.1329783 0.29089,-0.1329782 0.45711,-0.3573787 0.16622,-0.21609 0.23271,-0.515291 0.0665,-0.29089 0.0665,-0.615024 0,-0.241023 -0.0249,-0.498669 -0.0249,-0.265956 -0.0665,-0.506979 l -0.17454,-0.939159 0.58178,-0.116356 0.10805,0.631647 q 0.13298,0.764624 0.13298,1.446138 0,0.457113 -0.0997,0.87267 -0.0997,0.423868 -0.34076,0.7396911 -0.23271,0.3241345 -0.63164,0.5152907 -0.39063,0.1911562 -0.98903,0.1911562 h -0.30751 z m -3.41588,-1.828451 0.16623,-0.166223 h 1.5708 q 0.34076,0 0.57347,-0.05818 0.23271,-0.05818 0.374,-0.191156 0.1496,-0.132978 0.20778,-0.340757 0.0665,-0.216089 0.0665,-0.523601 v -0.265957 h -0.0416 q -0.11635,0.274268 -0.39062,0.432179 -0.26596,0.157912 -0.63165,0.157912 -0.66489,0 -1.03058,-0.340757 -0.36569,-0.340756 -0.36569,-0.964092 0,-0.36569 0.10805,-0.689825 0.11635,-0.324134 0.31582,-0.565157 0.19947,-0.241023 0.47374,-0.382313 0.28257,-0.141289 0.61502,-0.141289 0.71476,0 1.122,0.615024 0.40725,0.615025 0.40725,1.728718 0,0.623335 -0.0914,1.055514 -0.0914,0.43218 -0.30751,0.698136 -0.20778,0.257645 -0.55685,0.374001 -0.34076,0.116356 -0.84774,0.116356 h -1.73703 z m 2.06117,-1.687161 q 0.35738,0 0.56515,-0.05818 0.21609,-0.06649 0.33245,-0.199468 -0.0166,-0.631646 -0.28258,-1.005648 -0.26595,-0.374001 -0.71476,-0.374001 -0.42386,0 -0.65658,0.274268 -0.2244,0.265956 -0.2244,0.706447 0,0.349068 0.19116,0.506979 0.19947,0.149601 0.62333,0.149601 z m 0.41555,-3.34939 q -0.16622,0 -0.26595,-0.09142 -0.0997,-0.09973 -0.0997,-0.315824 0,-0.216089 0.0997,-0.307512 0.0997,-0.09973 0.26595,-0.09973 h 0.0914 q 0.16622,0 0.26595,0.09973 0.0997,0.09142 0.0997,0.307512 0,0.21609 -0.0997,0.315824 -0.0997,0.09142 -0.26595,0.09142 z m -1.07213,0 q -0.16623,0 -0.26596,-0.09142 -0.0997,-0.09973 -0.0997,-0.315824 0,-0.216089 0.0997,-0.307512 0.0997,-0.09973 0.26596,-0.09973 h 0.0914 q 0.16622,0 0.26596,0.09973 0.0997,0.09142 0.0997,0.307512 0,0.21609 -0.0997,0.315824 -0.0997,0.09142 -0.26596,0.09142 z m -6.1087,5.46873 q 0,-0.482046 0.0665,-0.831114 0.0665,-0.349067 0.24102,-0.615024 0.17454,-0.265956 0.46543,-0.482046 0.2992,-0.21609 0.76462,-0.44049 l 1.1885,-0.58178 h 0.64827 l 0.59009,1.60405 q 0.0831,0.224401 0.1496,0.374001 0.0748,0.141289 0.15791,0.224401 0.0831,0.08311 0.18284,0.116356 0.10805,0.03324 0.24934,0.03324 h 0.16622 v 0.548536 l -0.16622,0.166222 q -0.39063,0 -0.62334,-0.108044 -0.23271,-0.116356 -0.41555,-0.448802 l -0.0499,0.01662 v 0.540224 h -0.98903 q -0.68151,0 -1.06382,-0.265956 -0.38232,-0.265957 -0.38232,-0.739692 0,-0.44049 0.34076,-0.706446 l -0.0332,-0.03324 -0.25765,0.149601 q -0.18284,0.116355 -0.30751,0.232711 -0.11636,0.116356 -0.18285,0.282579 -0.0665,0.166223 -0.0997,0.398935 -0.0249,0.232712 -0.0249,0.565157 v 2.6595653 H 158.904 Z m 1.67885,-1.180181 q 0,0.299201 0.24103,0.44049 0.24102,0.141289 0.75631,0.141289 h 0.90591 q -0.0914,-0.191156 -0.19946,-0.490357 l -0.44049,-1.180182 -0.34076,0.157912 q -0.27427,0.124667 -0.4488,0.241023 -0.17454,0.108045 -0.28258,0.21609 -0.10805,0.108044 -0.1496,0.2244 -0.0416,0.116356 -0.0416,0.249335 z m -9.18667,0.748002 0.16622,-0.166223 h 0.24102 q 0.39894,0 0.57347,-0.182845 0.18285,-0.182845 0.18285,-0.58178 v -4.67086 h 0.61502 v 4.67086 q 0,0.764625 -0.33244,1.122004 -0.32414,0.357379 -1.0389,0.357379 h -0.40724 z m -3.29123,1.828451 h 0.44049 q 0.90592,0 1.39627,-0.340757 0.49867,-0.332445 0.61503,-0.939159 h -0.97241 q -0.66489,0 -1.03058,-0.349067 -0.36569,-0.349068 -0.36569,-0.980715 0,-0.374001 0.10805,-0.706447 0.11635,-0.332446 0.31582,-0.573469 0.19947,-0.249334 0.47374,-0.390623 0.28257,-0.149601 0.61502,-0.149601 0.68982,0 1.08045,0.615025 0.39893,0.615024 0.39893,1.728717 v 0.09142 h 0.38232 v 0.548536 l -0.16623,0.166222 h -0.29089 q -0.18284,0.955782 -0.8228,1.4710722 -0.63165,0.5236018 -1.73703,0.5236018 h -0.44049 z m 0.66489,-2.692809 q 0,0.36569 0.19116,0.531913 0.19947,0.166222 0.62333,0.166222 h 1.01396 v -0.257645 q 0,-0.673202 -0.25764,-1.063826 -0.24934,-0.398935 -0.68983,-0.398935 -0.42387,0 -0.65658,0.282579 -0.2244,0.282579 -0.2244,0.739692 z m -6.38295,0.864358 0.16622,-0.166223 h 0.28258 q 0.36569,0 0.6732,-0.02493 0.31582,-0.02493 0.63996,-0.09142 0.32413,-0.0748 0.68151,-0.207778 0.36569,-0.132978 0.8228,-0.349068 l 0.76463,-0.36569 v -0.03324 l -1.23005,-0.274267 -1.72041,-0.423868 v 0.714758 h -0.58178 v -0.639958 q 0,-0.349068 0.19116,-0.523602 0.19947,-0.182845 0.49867,-0.182845 0.0914,0 0.21609,0.02493 0.13298,0.01662 0.40724,0.08311 l 2.02792,0.523602 q 0.45711,0.116355 0.76463,0.166222 0.30751,0.04156 0.53191,0.04156 h 0.13298 v 0.714758 h -0.64827 l -1.13032,0.681514 q -0.51529,0.307512 -0.91422,0.490357 -0.39894,0.174534 -0.748,0.265956 -0.34907,0.08311 -0.68152,0.108045 -0.32413,0.01662 -0.69813,0.01662 h -0.4488 z m 0,0.548535 q -0.38232,0 -0.64827,-0.05818 -0.25765,-0.06649 -0.42387,-0.207778 -0.15791,-0.149601 -0.23271,-0.374001 -0.0748,-0.232712 -0.0748,-0.573469 v -0.141289 h -0.0416 q -0.11635,0.374001 -0.39893,0.565157 -0.27427,0.182845 -0.66489,0.182845 -0.55685,0 -0.87267,-0.299201 -0.30752,-0.299201 -0.30752,-0.847736 0,-0.232712 0.0748,-0.432179 0.0748,-0.207779 0.24103,-0.398935 0.17453,-0.199468 0.44049,-0.390624 0.26595,-0.199467 0.64827,-0.415557 l 0.83942,-0.482046 v -0.415557 h 0.58178 v 2.992011 q 0,0.340756 0.17454,0.465423 0.17453,0.116356 0.54022,0.116356 h 0.29089 v 0.548536 z m -2.36037,-1.321471 q 0.50698,0 0.72307,-0.141289 0.21609,-0.149601 0.21609,-0.523602 v -1.213427 l -0.83942,0.448802 q -0.44049,0.241023 -0.63165,0.448802 -0.19116,0.199467 -0.19116,0.465423 0,0.265957 0.15792,0.390624 0.16622,0.124667 0.56515,0.124667 z m 1.20512,-3.656901 q -0.16622,0 -0.26596,-0.09142 -0.0997,-0.09973 -0.0997,-0.315823 0,-0.21609 0.0997,-0.307513 0.0997,-0.09973 0.26596,-0.09973 h 0.0914 q 0.16622,0 0.26596,0.09973 0.0997,0.09142 0.0997,0.307513 0,0.216089 -0.0997,0.315823 -0.0997,0.09142 -0.26596,0.09142 z m -1.07214,0 q -0.16622,0 -0.26595,-0.09142 -0.0997,-0.09973 -0.0997,-0.315823 0,-0.21609 0.0997,-0.307513 0.0997,-0.09973 0.26595,-0.09973 h 0.0914 q 0.16623,0 0.26596,0.09973 0.0997,0.09142 0.0997,0.307513 0,0.216089 -0.0997,0.315823 -0.0997,0.09142 -0.26596,0.09142 z m -7.40812,-1.171871 h 0.61502 v 6.150243 h -0.61502 z m -3.02525,5.601708 0.16623,-0.166223 h 0.24102 q 0.39893,0 0.57347,-0.182845 0.18284,-0.182845 0.18284,-0.58178 v -4.67086 h 0.61503 v 4.67086 q 0,0.764625 -0.33245,1.122004 -0.32413,0.357379 -1.03889,0.357379 h -0.40725 z m -5.11135,1.828451 h 0.30751 q 0.45712,0 0.74801,-0.1329783 0.29088,-0.1329782 0.45711,-0.3573787 0.16622,-0.21609 0.23271,-0.515291 0.0665,-0.29089 0.0665,-0.615024 0,-0.241023 -0.0249,-0.498669 -0.0249,-0.265956 -0.0665,-0.506979 l -0.17454,-0.939159 0.58178,-0.116356 0.0997,0.598402 1.46276,-0.249334 v -0.681514 h 0.58178 v 1.437828 q 0,0.315823 0.17453,0.448801 0.17453,0.132978 0.54022,0.132978 h 0.29089 v 0.548536 l -0.16622,0.166222 h -0.0166 q -0.38231,0 -0.64827,-0.06649 -0.26596,-0.0748 -0.44049,-0.2244 -0.16622,-0.157912 -0.24102,-0.407246 -0.0748,-0.249335 -0.0748,-0.598402 v -0.06649 l -1.36303,0.232712 q 0.0166,0.207779 0.0249,0.407246 0.0166,0.199468 0.0166,0.398935 0,0.457113 -0.0997,0.87267 -0.0997,0.423868 -0.34076,0.7396911 -0.23271,0.3241345 -0.63164,0.5152907 -0.39063,0.1911562 -0.98903,0.1911562 h -0.30751 z m 4.44646,-5.011617 q -0.16622,0 -0.26596,-0.09142 -0.0997,-0.09973 -0.0997,-0.315823 0,-0.21609 0.0997,-0.307513 0.0997,-0.09973 0.26596,-0.09973 h 0.0914 q 0.16623,0 0.26596,0.09973 0.0997,0.09142 0.0997,0.307513 0,0.216089 -0.0997,0.315823 -0.0997,0.09142 -0.26596,0.09142 z m -1.07214,0 q -0.16622,0 -0.26595,-0.09142 -0.0997,-0.09973 -0.0997,-0.315823 0,-0.21609 0.0997,-0.307513 0.0997,-0.09973 0.26595,-0.09973 h 0.0914 q 0.16622,0 0.26595,0.09973 0.0997,0.09142 0.0997,0.307513 0,0.216089 -0.0997,0.315823 -0.0997,0.09142 -0.26595,0.09142 z m -7.9787,3.183166 0.16622,-0.166223 h 0.28258 q 0.36569,0 0.6732,-0.02493 0.31582,-0.02493 0.63996,-0.09142 0.32413,-0.0748 0.68151,-0.207778 0.36569,-0.132978 0.82281,-0.349068 l 0.76462,-0.36569 v -0.03324 l -1.23005,-0.274267 -1.7204,-0.423868 v 0.714758 h -0.58178 v -0.639958 q 0,-0.349068 0.19115,-0.523602 0.19947,-0.182845 0.49867,-0.182845 0.0914,0 0.21609,0.02493 0.13298,0.01662 0.40725,0.08311 l 2.02791,0.523602 q 0.45712,0.116355 0.76463,0.166222 0.30751,0.04156 0.53191,0.04156 h 0.13298 v 0.714758 h -0.64827 l -1.13031,0.681514 q -0.51529,0.307512 -0.91423,0.490357 -0.39893,0.174534 -0.748,0.265956 -0.34907,0.08311 -0.68152,0.108045 -0.32413,0.01662 -0.69813,0.01662 h -0.4488 z m 2.22738,-3.515612 q -0.16622,0 -0.26595,-0.09142 -0.0997,-0.09973 -0.0997,-0.315823 0,-0.21609 0.0997,-0.307512 0.0997,-0.09973 0.26595,-0.09973 h 0.0914 q 0.16622,0 0.26595,0.09973 0.0997,0.09142 0.0997,0.307512 0,0.21609 -0.0997,0.315823 -0.0997,0.09142 -0.26595,0.09142 z m -4.80382,3.515612 0.16622,-0.166223 h 0.29089 q 0.70645,0 0.70645,-0.706447 v -1.31316 h 0.58178 v 1.31316 q 0,0.706447 0.70644,0.706447 h 0.29089 v 0.548536 l -0.16622,0.166222 q -1.14694,0 -1.3464,-0.814491 h -0.0416 q -0.0914,0.457112 -0.35738,0.639957 -0.26595,0.174534 -0.83111,0.174534 z m 1.94481,2.2107634 q -0.16623,0 -0.26596,-0.099734 -0.0997,-0.091423 -0.0997,-0.3075121 0,-0.2160897 0.0997,-0.3158236 0.0997,-0.09142 0.26596,-0.09142 h 0.0914 q 0.16622,0 0.26595,0.09142 0.0997,0.099734 0.0997,0.3158236 0,0.2160896 -0.0997,0.3075121 -0.0997,0.099734 -0.26595,0.099734 z m -1.07214,0 q -0.16622,0 -0.26596,-0.099734 -0.0997,-0.091423 -0.0997,-0.3075121 0,-0.2160897 0.0997,-0.3158236 0.0997,-0.09142 0.26596,-0.09142 h 0.0914 q 0.16622,0 0.26596,0.09142 0.0997,0.099734 0.0997,0.3158236 0,0.2160896 -0.0997,0.3075121 -0.0997,0.099734 -0.26596,0.099734 z m -8.5023,0.3324456 q -1.08876,0 -1.69547,-0.5485352 -0.60671,-0.5485348 -0.60671,-1.5292498 0,-0.382312 0.0997,-0.806181 0.10804,-0.432179 0.29089,-0.856047 l 0.51529,0.157912 q -0.15791,0.324134 -0.25765,0.681513 -0.0997,0.349068 -0.0997,0.664891 0,0.706447 0.39894,1.097071 0.39893,0.3906234 1.10538,0.3906234 h 0.49867 q 0.88098,0 1.28822,-0.3573794 0.41556,-0.349067 0.41556,-1.105381 0,-0.09973 -0.008,-0.207779 0,-0.108045 -0.0249,-0.257645 -0.0166,-0.157912 -0.0582,-0.374001 -0.0416,-0.21609 -0.11636,-0.531913 l -0.0831,-0.365691 0.58178,-0.116355 0.0748,0.36569 q 0.0665,0.349068 0.10804,0.590091 0.0416,0.232712 0.0582,0.398934 h 0.0166 l 0.47374,-0.80618 q 0.31582,-0.548535 0.63996,-0.905914 0.32413,-0.365691 0.65658,-0.58178 0.33244,-0.21609 0.6732,-0.307512 0.34907,-0.09142 0.72307,-0.09142 0.80618,0 1.25498,0.448802 0.4488,0.44049 0.4488,1.221737 0,0.58178 -0.19115,0.964092 0.17453,0.05818 0.4488,0.05818 h 0.16622 v 0.548536 l -0.16622,0.166222 q -0.31583,0 -0.53191,-0.04987 -0.20778,-0.05818 -0.38232,-0.21609 -0.43218,0.265956 -1.21342,0.265956 h -2.99201 q -0.0582,1.0305818 -0.6649,1.5126279 -0.60671,0.4820461 -1.84507,0.4820461 z m 5.50198,-2.709432 q 0.62333,0 0.95578,-0.207778 0.33244,-0.207779 0.33244,-0.73138 0,-0.515291 -0.26595,-0.772936 -0.25765,-0.265957 -0.73138,-0.265957 h -0.24934 q -0.33244,0 -0.60671,0.06649 -0.26596,0.05818 -0.51529,0.21609 -0.24102,0.1496 -0.48205,0.423868 -0.23271,0.265956 -0.49867,0.673202 l -0.35738,0.556847 0.0249,0.04156 z m -18.112853,0.166223 0.166223,-0.166223 h 1.205115 l 0.01662,-0.03324 q -0.407246,-0.315824 -0.631646,-0.714758 -0.21609,-0.398935 -0.21609,-0.822803 0,-0.307512 0.09973,-0.58178 0.108045,-0.282579 0.282579,-0.490357 0.174533,-0.21609 0.407245,-0.357379 0.241023,-0.14129 0.515291,-0.174534 l 0.299201,-0.498669 1.254979,0.764625 q 0.43218,0.265957 0.73138,0.540224 0.30752,0.274268 0.49867,0.598403 0.19116,0.324134 0.27427,0.714758 0.0914,0.382312 0.0914,0.88098 v 0.166223 l -0.49036,0.723069 h -0.94747 q -0.42386,0 -0.814487,-0.09142 -0.390623,-0.09973 -0.739691,-0.29089 -0.349068,0.191156 -0.739692,0.29089 -0.390623,0.09142 -0.814491,0.09142 h -0.448802 z m 2.002985,-0.415557 q 0.398934,-0.232712 0.639958,-0.58178 0.24102,-0.357379 0.24102,-0.739691 0,-0.448802 -0.232709,-0.714758 -0.224401,-0.265957 -0.606714,-0.265957 h -0.08311 q -0.382312,0 -0.615024,0.265957 -0.224401,0.265956 -0.224401,0.714758 0,0.382312 0.241023,0.739691 0.241023,0.349068 0.639958,0.58178 z m 1.363028,-1.878317 q 0.0997,0.265956 0.0997,0.556846 0,0.423868 -0.2244,0.822803 -0.21609,0.398934 -0.623334,0.714758 l 0.01662,0.03324 h 1.778582 v -0.09142 q 0,-0.374001 -0.0582,-0.673203 -0.0582,-0.299201 -0.18284,-0.548535 -0.12467,-0.249334 -0.32414,-0.448801 -0.19115,-0.207779 -0.45711,-0.390624 z m -6.65724,4.122325 h 0.440491 q 0.905914,0 1.396271,-0.340757 0.498669,-0.332445 0.615024,-0.939159 h -0.972403 q -0.664891,0 -1.030581,-0.349067 -0.36569,-0.349068 -0.36569,-0.980715 0,-0.374001 0.108044,-0.706447 0.116356,-0.332446 0.315824,-0.573469 0.199467,-0.249334 0.473735,-0.390623 0.282578,-0.149601 0.615024,-0.149601 0.689825,0 1.080448,0.615025 0.398935,0.615024 0.398935,1.728717 v 0.09142 h 0.382312 v 0.548536 l -0.166222,0.166222 h -0.29089 q -0.182845,0.955782 -0.822803,1.4710722 Q 95.448102,-9.01289 94.342721,-9.01289 H 93.90223 Z m 0.664891,-2.692809 q 0,0.36569 0.191157,0.531913 0.199467,0.166222 0.623335,0.166222 h 1.013959 v -0.257645 q 0,-0.673202 -0.257645,-1.063826 -0.249334,-0.398935 -0.689825,-0.398935 -0.423868,0 -0.65658,0.282579 -0.224401,0.282579 -0.224401,0.739692 z m -29.573936,0.822802 h 1.554184 v -3.947791 h -0.04987 l -1.396272,1.230049 -0.407246,-0.407246 1.471072,-1.321471 h 1.072137 v 4.446459 h 1.429516 v 0.590091 h -3.673524 z m 4.78722,-0.0083 1.811828,-1.520938 q 0.922537,-0.789559 0.922537,-1.421205 v -0.08311 q 0,-0.432179 -0.274268,-0.673202 -0.265956,-0.241023 -0.748002,-0.241023 -0.889292,0 -1.146938,0.847736 l -0.615024,-0.232712 q 0.207778,-0.598402 0.664891,-0.905914 0.457113,-0.307512 1.130315,-0.307512 0.390624,0 0.706447,0.108045 0.324135,0.09973 0.548535,0.299201 0.224401,0.191156 0.340757,0.465424 0.124667,0.274267 0.124667,0.615024 0,0.498668 -0.299201,0.972403 -0.299201,0.473735 -0.939159,0.980715 l -1.38796,1.105381 h 2.825788 v 0.590091 h -3.665213 z m 6.499314,-2.318808 q 0.523602,0 0.822803,-0.207778 0.299201,-0.21609 0.299201,-0.590091 v -0.08311 q 0,-0.349067 -0.265957,-0.540224 -0.257645,-0.199467 -0.723069,-0.199467 -0.772936,0 -1.146937,0.631647 l -0.50698,-0.390624 q 0.573469,-0.839425 1.670539,-0.839425 0.382313,0 0.689825,0.09142 0.315823,0.09142 0.540224,0.265957 0.224401,0.166223 0.349068,0.398935 0.124667,0.232712 0.124667,0.51529 0,0.448802 -0.282579,0.764625 -0.282578,0.307512 -0.781247,0.423868 v 0.03325 q 0.540224,0.09973 0.856048,0.448801 0.315823,0.340757 0.315823,0.831114 0,0.324135 -0.141289,0.598403 -0.132979,0.265956 -0.390624,0.465423 -0.249334,0.191157 -0.598402,0.299201 -0.349068,0.09973 -0.772936,0.09973 -0.573469,0 -1.02227,-0.21609 -0.440491,-0.216089 -0.789559,-0.673202 l 0.498669,-0.374001 q 0.257645,0.36569 0.556846,0.523602 0.299201,0.157911 0.731381,0.157911 0.581779,0 0.889292,-0.2244 0.315823,-0.232712 0.315823,-0.664892 v -0.08311 q 0,-0.432179 -0.315823,-0.65658 -0.307513,-0.232712 -0.889292,-0.232712 h -0.631647 v -0.573469 z m 5.834423,1.911562 h -2.676187 v -0.59009 l 2.360364,-3.440812 h 0.972403 v 3.474056 h 0.806181 v 0.556846 h -0.806181 v 1.005648 h -0.65658 z m 0,-0.556846 v -2.908899 h -0.04156 l -1.994673,2.908899 z m 3.474063,-2.875654 -0.157912,1.836762 h 0.05818 q 0.224401,-0.315824 0.490358,-0.457113 0.265956,-0.14129 0.648268,-0.14129 0.374002,0 0.681514,0.116356 0.307512,0.108045 0.523602,0.315824 0.216089,0.207778 0.332445,0.506979 0.124668,0.29089 0.124668,0.648269 0,0.390624 -0.132979,0.706447 -0.132978,0.315823 -0.382312,0.540224 -0.241023,0.224401 -0.590091,0.349068 -0.349068,0.116356 -0.781247,0.116356 -1.080449,0 -1.74534,-0.889292 l 0.515291,-0.390623 q 0.265956,0.382312 0.540224,0.531912 0.282579,0.149601 0.698136,0.149601 0.548535,0 0.847736,-0.257645 0.299201,-0.265957 0.299201,-0.764625 v -0.08311 q 0,-0.498668 -0.299201,-0.756313 -0.299201,-0.265957 -0.847736,-0.265957 -0.307512,0 -0.531913,0.09973 -0.224401,0.09142 -0.465424,0.324134 l -0.58178,-0.08311 0.199468,-2.750987 h 3.000321 v 0.598402 z M 62.491539,-9.8606263 V -17.32403 h 0.565157 v 7.4634037 z m -9.541191,-1.1469377 -0.581779,-1.712094 h -2.343742 l -0.58178,1.712094 H 48.7366 l 2.027918,-5.801175 h 0.889292 l 2.027919,5.801175 z M 51.21332,-16.16047 h -0.04156 l -0.980714,2.825787 h 2.002985 z m 3.68184,6.2998437 V -17.32403 h 0.565158 v 7.4634037 z m 4.089075,-1.0472037 q -0.448802,0 -0.814492,-0.1496 -0.357379,-0.157912 -0.615024,-0.440491 -0.249334,-0.29089 -0.382313,-0.706447 -0.132978,-0.415557 -0.132978,-0.930847 0,-0.648269 0.191156,-1.213427 0.191157,-0.573469 0.490358,-1.038892 0.307512,-0.473735 0.673202,-0.831114 0.36569,-0.365691 0.714758,-0.590091 h 0.897603 q -0.465424,0.340756 -0.831114,0.664891 -0.36569,0.324134 -0.639958,0.681513 -0.274267,0.349068 -0.465424,0.756314 -0.191156,0.398935 -0.307512,0.905914 l 0.04156,0.01662 q 0.207778,-0.357379 0.531913,-0.590091 0.332446,-0.241023 0.864358,-0.241023 0.374002,0 0.689825,0.124667 0.315823,0.124667 0.540224,0.357379 0.224401,0.232712 0.349068,0.565157 0.132978,0.332446 0.132978,0.739692 0,0.423868 -0.141289,0.781247 -0.132978,0.349068 -0.390624,0.606713 -0.249334,0.249334 -0.606713,0.390624 -0.357379,0.141289 -0.789558,0.141289 z m -0.0083,-0.606713 q 0.573468,0 0.889292,-0.315823 0.324134,-0.315824 0.324134,-0.905915 v -0.06649 q 0,-0.590091 -0.324134,-0.905914 -0.315824,-0.315823 -0.889292,-0.315823 -0.573469,0 -0.897603,0.315823 -0.315824,0.315823 -0.315824,0.905914 v 0.06649 q 0,0.590091 0.315824,0.905915 0.324134,0.315823 0.897603,0.315823 z m -16.816331,-5.792865 h 0.299201 l 0.0083,-0.03324 q -0.06649,-0.08311 -0.108045,-0.191157 -0.04156,-0.116355 -0.04156,-0.232711 0,-0.324135 0.21609,-0.540225 0.21609,-0.216089 0.548535,-0.216089 0.191157,0 0.390624,0.09973 0.199467,0.09142 0.299201,0.249335 l -0.307512,0.374001 q -0.166223,-0.191156 -0.382313,-0.191156 -0.1496,0 -0.249334,0.08311 -0.09973,0.0748 -0.09973,0.191156 0,0.174534 0.157912,0.274268 0.157912,0.09973 0.440491,0.09973 h 0.531913 v 0.531913 h -1.703784 z m 0.540224,1.16356 h 0.615024 v 5.136284 h -0.615024 z m -6.15024,3.715079 q 0,0.498669 0.324135,0.639958 l 0.44049,-0.739691 q 0.315823,-0.548535 0.639958,-0.905914 0.324134,-0.365691 0.65658,-0.58178 0.332445,-0.21609 0.673202,-0.307512 0.349068,-0.09142 0.723069,-0.09142 0.806181,0 1.254983,0.448802 0.448801,0.44049 0.448801,1.221737 0,0.939159 -0.473735,1.338094 -0.473735,0.398934 -1.396271,0.398934 h -2.460098 q -1.146937,0 -1.346405,-0.814491 h -0.04156 q -0.09142,0.457112 -0.357379,0.639957 -0.265957,0.174534 -0.831114,0.174534 v -0.548535 l 0.166222,-0.166223 h 0.29089 q 0.706447,0 0.706447,-0.706447 v -0.648268 h 0.58178 z m 3.291212,0.706447 q 0.623335,0 0.955781,-0.207778 0.332445,-0.207779 0.332445,-0.73138 0,-0.515291 -0.265956,-0.772936 -0.257646,-0.265957 -0.731381,-0.265957 h -0.249334 q -0.332445,0 -0.606713,0.06649 -0.265956,0.05818 -0.515291,0.21609 -0.241023,0.1496 -0.482046,0.423868 -0.232712,0.265956 -0.498668,0.673202 l -0.357379,0.556847 0.02493,0.04156 z m -0.132979,-3.690146 q -0.166222,0 -0.265956,-0.09142 -0.09973,-0.09973 -0.09973,-0.315824 0,-0.216089 0.09973,-0.307512 0.09973,-0.09973 0.265956,-0.09973 h 0.09142 q 0.166223,0 0.265956,0.09973 0.09973,0.09142 0.09973,0.307512 0,0.21609 -0.09973,0.315824 -0.09973,0.09142 -0.265956,0.09142 z m -8.036878,6.399578 q -1.08876,0 -1.695473,-0.5485352 -0.606713,-0.5485348 -0.606713,-1.5292498 0,-0.382312 0.09973,-0.806181 0.108045,-0.432179 0.29089,-0.856047 l 0.515291,0.157912 q -0.157912,0.324134 -0.257645,0.681513 -0.09973,0.349068 -0.09973,0.664891 0,0.706447 0.398935,1.097071 0.398934,0.3906234 1.105381,0.3906234 h 0.498669 q 0.880981,0 1.288226,-0.3573794 0.415557,-0.349067 0.415557,-1.105381 0,-0.132978 -0.0083,-0.265957 -0.0083,-0.132978 -0.03324,-0.29089 -0.01662,-0.166222 -0.05818,-0.36569 -0.03325,-0.199467 -0.08311,-0.448801 l -0.141289,-0.689825 0.58178,-0.116356 0.124667,0.689825 q 0.05818,0.324134 0.09142,0.565157 0.04156,0.232712 0.05818,0.423868 h 0.814492 v 0.548536 l -0.166223,0.166222 h -0.623335 q -0.05818,1.0305818 -0.664891,1.5126279 -0.606714,0.4820461 -1.845073,0.4820461 z m 0.116356,-4.587749 q -0.166223,0 -0.265957,-0.09142 -0.09973,-0.09973 -0.09973,-0.315823 0,-0.21609 0.09973,-0.307512 0.09973,-0.09973 0.265957,-0.09973 h 0.09142 q 0.166223,0 0.265957,0.09973 0.09973,0.09142 0.09973,0.307512 0,0.216089 -0.09973,0.315823 -0.09973,0.09142 -0.265957,0.09142 z"
       id="text2"
       style="font-size:8.31114px;line-height:1.25;font-family:'IBM Plex Sans Arabic';-inkscape-font-specification:'IBM Plex Sans Arabic';text-align:center;letter-spacing:0px;word-spacing:2.64583px;direction:rtl;text-anchor:middle;fill:#ffffff;stroke-width:0.0577162"
       aria-label="رقم لوحة الترخيص هو 12345|A|6 أضن" />
  </g>
</svg>
