<?xml version="1.0" encoding="UTF-8" standalone="no"?>
<!-- Created with Inkscape (http://www.inkscape.org/) -->

<svg
   width="140.02393mm"
   height="13.971652mm"
   viewBox="0 0 140.02393 13.971652"
   version="1.1"
   id="svg1"
   sodipodi:docname="bidi-solution.svg"
   inkscape:version="1.4 (e7c3feb100, 2024-10-09)"
   xmlns:inkscape="http://www.inkscape.org/namespaces/inkscape"
   xmlns:sodipodi="http://sodipodi.sourceforge.net/DTD/sodipodi-0.dtd"
   xmlns="http://www.w3.org/2000/svg"
   xmlns:svg="http://www.w3.org/2000/svg">
  <sodipodi:namedview
     id="namedview1"
     pagecolor="#ffffff"
     bordercolor="#666666"
     borderopacity="1.0"
     inkscape:showpageshadow="2"
     inkscape:pageopacity="0.0"
     inkscape:pagecheckerboard="0"
     inkscape:deskcolor="#d1d1d1"
     inkscape:document-units="mm"
     inkscape:zoom="0.53049344"
     inkscape:cx="998.12733"
     inkscape:cy="36.75823"
     inkscape:window-width="1920"
     inkscape:window-height="1080"
     inkscape:window-x="0"
     inkscape:window-y="0"
     inkscape:window-maximized="1"
     inkscape:current-layer="layer1" />
  <defs
     id="defs1" />
  <g
     inkscape:label="Calque 1"
     inkscape:groupmode="layer"
     id="layer1"
     transform="translate(216.16458,-9.5249984)">
    <path
       d="m -78.509335,18.318185 h 0.307512 q 0.457113,0 0.748003,-0.132979 0.29089,-0.132978 0.457113,-0.357379 0.166223,-0.216089 0.232712,-0.51529 0.06649,-0.29089 0.06649,-0.615025 0,-0.241023 -0.02493,-0.498668 -0.02493,-0.265957 -0.06649,-0.50698 l -0.174534,-0.939158 0.58178,-0.116356 0.108045,0.631646 q 0.132978,0.764625 0.132978,1.446139 0,0.457112 -0.09973,0.872669 -0.09973,0.423868 -0.340757,0.739692 -0.232712,0.324134 -0.631647,0.51529 -0.390623,0.191157 -0.989026,0.191157 h -0.307512 z m -3.415876,-1.828451 0.166223,-0.166223 h 1.570806 q 0.340756,0 0.573468,-0.05818 0.232712,-0.05818 0.374002,-0.191156 0.1496,-0.132978 0.207778,-0.340757 0.06649,-0.21609 0.06649,-0.523602 V 14.943862 H -79.008 q -0.116356,0.274267 -0.390624,0.432179 -0.265957,0.157912 -0.631647,0.157912 -0.664891,0 -1.030581,-0.340757 -0.36569,-0.340757 -0.36569,-0.964092 0,-0.36569 0.108045,-0.689825 0.116356,-0.324134 0.315823,-0.565157 0.199467,-0.241024 0.473735,-0.382313 0.282579,-0.141289 0.615024,-0.141289 0.714758,0 1.122004,0.615024 0.407246,0.615024 0.407246,1.728717 0,0.623336 -0.09142,1.055515 -0.09142,0.432179 -0.307512,0.698136 -0.207778,0.257645 -0.556846,0.374001 -0.340757,0.116356 -0.847736,0.116356 h -1.737029 z m 2.061163,-1.687162 q 0.357379,0 0.565158,-0.05818 0.216089,-0.06649 0.332445,-0.199467 -0.01662,-0.631647 -0.282579,-1.005648 -0.265956,-0.374001 -0.714758,-0.374001 -0.423868,0 -0.65658,0.274267 -0.2244,0.265957 -0.2244,0.706447 0,0.349068 0.191156,0.50698 0.199467,0.1496 0.623335,0.1496 z m 0.415557,-3.349389 q -0.166223,0 -0.265956,-0.09142 -0.09973,-0.09973 -0.09973,-0.315823 0,-0.21609 0.09973,-0.307512 0.09973,-0.09973 0.265956,-0.09973 h 0.09142 q 0.166222,0 0.265956,0.09973 0.09973,0.09142 0.09973,0.307512 0,0.21609 -0.09973,0.315823 -0.09973,0.09142 -0.265956,0.09142 z m -1.072137,0 q -0.166223,0 -0.265956,-0.09142 -0.09973,-0.09973 -0.09973,-0.315823 0,-0.21609 0.09973,-0.307512 0.09973,-0.09973 0.265956,-0.09973 h 0.09142 q 0.166222,0 0.265956,0.09973 0.09973,0.09142 0.09973,0.307512 0,0.21609 -0.09973,0.315823 -0.09973,0.09142 -0.265956,0.09142 z m -6.108695,5.46873 q 0,-0.482046 0.06649,-0.831114 0.06649,-0.349068 0.241023,-0.615024 0.174534,-0.265957 0.465424,-0.482046 0.299201,-0.21609 0.764625,-0.440491 l 1.188493,-0.58178 H -83.255 l 0.590091,1.60405 q 0.08311,0.224401 0.149601,0.374002 0.0748,0.141289 0.157911,0.2244 0.08311,0.08311 0.182845,0.116356 0.108045,0.03325 0.249335,0.03325 h 0.166222 v 0.548535 l -0.166222,0.166223 q -0.390624,0 -0.623336,-0.108045 -0.232712,-0.116356 -0.415557,-0.448801 l -0.04987,0.01662 v 0.540224 h -0.989025 q -0.681514,0 -1.063826,-0.265956 -0.382313,-0.265957 -0.382313,-0.739692 0,-0.44049 0.340757,-0.706447 l -0.03324,-0.03324 -0.257645,0.1496 q -0.182845,0.116356 -0.307512,0.232712 -0.116356,0.116356 -0.182845,0.282579 -0.06649,0.166223 -0.09973,0.398935 -0.02493,0.232711 -0.02493,0.565157 v 2.659565 h -0.615025 z m 1.678851,-1.180182 q 0,0.299201 0.241023,0.440491 0.241023,0.141289 0.756313,0.141289 h 0.905915 q -0.09142,-0.191156 -0.199468,-0.490357 l -0.44049,-1.180182 -0.340757,0.157912 q -0.274268,0.124667 -0.448801,0.241023 -0.174534,0.108044 -0.282579,0.216089 -0.108045,0.108045 -0.149601,0.224401 -0.04156,0.116356 -0.04156,0.249334 z m -9.186676,0.748003 0.166223,-0.166223 h 0.241023 q 0.398935,0 0.573469,-0.182845 0.182845,-0.182845 0.182845,-0.58178 v -4.670861 h 0.615024 v 4.670861 q 0,0.764625 -0.332445,1.122004 -0.324135,0.357379 -1.038893,0.357379 h -0.407246 z m -3.291226,1.828451 h 0.44049 q 0.905914,0 1.396272,-0.340757 0.498668,-0.332446 0.615024,-0.939159 h -0.972403 q -0.664892,0 -1.030582,-0.349068 -0.36569,-0.349068 -0.36569,-0.980714 0,-0.374002 0.108045,-0.706447 0.116356,-0.332446 0.315823,-0.573469 0.199467,-0.249334 0.473735,-0.390624 0.282579,-0.1496 0.615024,-0.1496 0.689825,0 1.080449,0.615024 0.398934,0.615025 0.398934,1.728717 v 0.09142 h 0.382313 v 0.548535 l -0.166223,0.166223 h -0.29089 q -0.182845,0.955781 -0.822803,1.471072 -0.631646,0.523602 -1.737028,0.523602 h -0.44049 z m 0.664891,-2.69281 q 0,0.36569 0.191156,0.531913 0.199467,0.166223 0.623336,0.166223 h 1.013959 v -0.257645 q 0,-0.673203 -0.257646,-1.063826 -0.249334,-0.398935 -0.689824,-0.398935 -0.423868,0 -0.65658,0.282579 -0.224401,0.282579 -0.224401,0.739691 z m -6.382957,0.864359 0.16622,-0.166223 h 0.28258 q 0.36569,0 0.6732,-0.02493 0.31583,-0.02493 0.63996,-0.09142 0.32414,-0.0748 0.68151,-0.207778 0.3657,-0.132979 0.822808,-0.349068 l 0.764625,-0.365691 v -0.03324 l -1.230053,-0.274268 -1.7204,-0.423868 v 0.714758 h -0.58178 v -0.639958 q 0,-0.349067 0.19115,-0.523601 0.19947,-0.182845 0.49867,-0.182845 0.0914,0 0.21609,0.02493 0.13298,0.01662 0.40725,0.08311 l 2.027917,0.523602 q 0.457112,0.116356 0.764624,0.166223 0.307513,0.04156 0.531913,0.04156 h 0.132979 v 0.714758 h -0.648269 l -1.130315,0.681513 q -0.515289,0.307512 -0.914229,0.490357 -0.39893,0.174534 -0.748,0.265957 -0.34907,0.08311 -0.68151,0.108045 -0.32414,0.01662 -0.69814,0.01662 h -0.4488 z m 0,0.548535 q -0.38231,0 -0.64827,-0.05818 -0.25764,-0.06649 -0.42387,-0.207778 -0.15791,-0.149601 -0.23271,-0.374002 -0.0748,-0.232712 -0.0748,-0.573468 v -0.14129 h -0.0416 q -0.11636,0.374002 -0.39894,0.565158 -0.27427,0.182845 -0.66489,0.182845 -0.55685,0 -0.87267,-0.299201 -0.30751,-0.299201 -0.30751,-0.847737 0,-0.232711 0.0748,-0.432179 0.0748,-0.207778 0.24102,-0.398935 0.17454,-0.199467 0.44049,-0.390623 0.26596,-0.199467 0.64827,-0.415557 l 0.83943,-0.482046 v -0.415557 h 0.58178 v 2.99201 q 0,0.340757 0.17453,0.465424 0.17453,0.116356 0.54022,0.116356 h 0.29089 v 0.548535 z m -2.36036,-1.321471 q 0.50698,0 0.72307,-0.14129 0.21609,-0.1496 0.21609,-0.523601 V 13.83848 l -0.83943,0.448802 q -0.44049,0.241023 -0.63164,0.448801 -0.19116,0.199468 -0.19116,0.465424 0,0.265957 0.15791,0.390624 0.16622,0.124667 0.56516,0.124667 z m 1.20511,-3.656902 q -0.16622,0 -0.26595,-0.09142 -0.0997,-0.09973 -0.0997,-0.315824 0,-0.216089 0.0997,-0.307512 0.0997,-0.09973 0.26595,-0.09973 h 0.0914 q 0.16622,0 0.26595,0.09973 0.0997,0.09142 0.0997,0.307512 0,0.21609 -0.0997,0.315824 -0.0997,0.09142 -0.26595,0.09142 z m -1.07213,0 q -0.16623,0 -0.26596,-0.09142 -0.0997,-0.09973 -0.0997,-0.315824 0,-0.216089 0.0997,-0.307512 0.0997,-0.09973 0.26596,-0.09973 h 0.0914 q 0.16622,0 0.26596,0.09973 0.0997,0.09142 0.0997,0.307512 0,0.21609 -0.0997,0.315824 -0.0997,0.09142 -0.26596,0.09142 z m -7.40813,-1.171871 h 0.61503 v 6.150244 h -0.61503 z m -3.02524,5.601709 0.16622,-0.166223 h 0.24102 q 0.39894,0 0.57347,-0.182845 0.18285,-0.182845 0.18285,-0.58178 v -4.670861 h 0.61502 v 4.670861 q 0,0.764625 -0.33244,1.122004 -0.32414,0.357379 -1.0389,0.357379 h -0.40724 z m -5.11135,1.828451 h 0.30751 q 0.45711,0 0.748,-0.132979 0.29089,-0.132978 0.45711,-0.357379 0.16623,-0.216089 0.23271,-0.51529 0.0665,-0.29089 0.0665,-0.615025 0,-0.241023 -0.0249,-0.498668 -0.0249,-0.265957 -0.0665,-0.50698 l -0.17453,-0.939158 0.58178,-0.116356 0.0997,0.598402 1.46276,-0.249335 v -0.681513 h 0.58178 v 1.437827 q 0,0.315824 0.17454,0.448802 0.17453,0.132978 0.54022,0.132978 h 0.29089 v 0.548535 l -0.16622,0.166223 h -0.0166 q -0.38231,0 -0.64826,-0.06649 -0.26596,-0.0748 -0.4405,-0.224401 -0.16622,-0.157912 -0.24102,-0.407246 -0.0748,-0.249334 -0.0748,-0.598402 v -0.06649 l -1.36303,0.232712 q 0.0166,0.207778 0.0249,0.407246 0.0166,0.199467 0.0166,0.398935 0,0.457112 -0.0997,0.872669 -0.0997,0.423868 -0.34076,0.739692 -0.23271,0.324134 -0.63165,0.51529 -0.39062,0.191157 -0.98902,0.191157 h -0.30751 z m 4.44646,-5.011618 q -0.16623,0 -0.26596,-0.09142 -0.0997,-0.09973 -0.0997,-0.315824 0,-0.216089 0.0997,-0.307512 0.0997,-0.09973 0.26596,-0.09973 h 0.0914 q 0.16622,0 0.26595,0.09973 0.0997,0.09142 0.0997,0.307512 0,0.21609 -0.0997,0.315824 -0.0997,0.09142 -0.26595,0.09142 z m -1.07214,0 q -0.16622,0 -0.26596,-0.09142 -0.0997,-0.09973 -0.0997,-0.315824 0,-0.216089 0.0997,-0.307512 0.0997,-0.09973 0.26596,-0.09973 h 0.0914 q 0.16622,0 0.26596,0.09973 0.0997,0.09142 0.0997,0.307512 0,0.21609 -0.0997,0.315824 -0.0997,0.09142 -0.26596,0.09142 z m -7.97871,3.183167 0.16622,-0.166223 h 0.28258 q 0.36569,0 0.67321,-0.02493 0.31582,-0.02493 0.63995,-0.09142 0.32414,-0.0748 0.68152,-0.207778 0.36569,-0.132979 0.8228,-0.349068 l 0.76463,-0.365691 v -0.03324 l -1.23005,-0.274268 -1.72041,-0.423868 v 0.714758 h -0.58178 v -0.639958 q 0,-0.349067 0.19116,-0.523601 0.19946,-0.182845 0.49867,-0.182845 0.0914,0 0.21608,0.02493 0.13298,0.01662 0.40725,0.08311 l 2.02792,0.523602 q 0.45711,0.116356 0.76462,0.166223 0.30752,0.04156 0.53192,0.04156 h 0.13297 v 0.714758 h -0.64826 l -1.13032,0.681513 q -0.51529,0.307512 -0.91422,0.490357 -0.39894,0.174534 -0.74801,0.265957 -0.34906,0.08311 -0.68151,0.108045 -0.32414,0.01662 -0.69814,0.01662 h -0.4488 z m 2.22739,-3.515612 q -0.16623,0 -0.26596,-0.09142 -0.0997,-0.09973 -0.0997,-0.315823 0,-0.21609 0.0997,-0.307512 0.0997,-0.09973 0.26596,-0.09973 h 0.0914 q 0.16622,0 0.26596,0.09973 0.0997,0.09142 0.0997,0.307512 0,0.216089 -0.0997,0.315823 -0.0997,0.09142 -0.26596,0.09142 z m -4.80383,3.515612 0.16623,-0.166223 h 0.29089 q 0.70644,0 0.70644,-0.706447 v -1.31316 h 0.58178 v 1.31316 q 0,0.706447 0.70645,0.706447 h 0.29089 v 0.548535 l -0.16622,0.166223 q -1.14694,0 -1.34641,-0.814492 h -0.0416 q -0.0914,0.457113 -0.35738,0.639958 -0.26596,0.174534 -0.83112,0.174534 z m 1.94481,2.210763 q -0.16622,0 -0.26596,-0.09973 -0.0997,-0.09142 -0.0997,-0.307512 0,-0.216089 0.0997,-0.315823 0.0997,-0.09142 0.26596,-0.09142 h 0.0914 q 0.16623,0 0.26596,0.09142 0.0997,0.09973 0.0997,0.315823 0,0.21609 -0.0997,0.307512 -0.0997,0.09973 -0.26596,0.09973 z m -1.07214,0 q -0.16622,0 -0.26595,-0.09973 -0.0997,-0.09142 -0.0997,-0.307512 0,-0.216089 0.0997,-0.315823 0.0997,-0.09142 0.26595,-0.09142 h 0.0914 q 0.16622,0 0.26595,0.09142 0.0997,0.09973 0.0997,0.315823 0,0.21609 -0.0997,0.307512 -0.0997,0.09973 -0.26595,0.09973 z m -8.50229,0.332446 q -1.08876,0 -1.69548,-0.548536 -0.60671,-0.548535 -0.60671,-1.529249 0,-0.382313 0.0997,-0.806181 0.10805,-0.432179 0.29089,-0.856047 l 0.51529,0.157911 q -0.15791,0.324135 -0.25764,0.681514 -0.0997,0.349068 -0.0997,0.664891 0,0.706447 0.39893,1.09707 0.39894,0.390624 1.10538,0.390624 h 0.49867 q 0.88098,0 1.28823,-0.357379 0.41555,-0.349068 0.41555,-1.105382 0,-0.09973 -0.008,-0.207778 0,-0.108045 -0.0249,-0.257645 -0.0166,-0.157912 -0.0582,-0.374002 -0.0416,-0.216089 -0.11635,-0.531913 l -0.0831,-0.36569 0.58178,-0.116356 0.0748,0.36569 q 0.0665,0.349068 0.10805,0.590091 0.0416,0.232712 0.0582,0.398935 h 0.0166 l 0.47373,-0.806181 q 0.31583,-0.548535 0.63996,-0.905914 0.32414,-0.36569 0.65658,-0.58178 0.33245,-0.216089 0.6732,-0.307512 0.34907,-0.09142 0.72307,-0.09142 0.80618,0 1.25499,0.448801 0.4488,0.440491 0.4488,1.221738 0,0.58178 -0.19116,0.964092 0.17454,0.05818 0.4488,0.05818 h 0.16623 v 0.548535 l -0.16623,0.166223 q -0.31582,0 -0.53191,-0.04987 -0.20778,-0.05818 -0.38231,-0.216089 -0.43218,0.265956 -1.21343,0.265956 h -2.99201 q -0.0582,1.030581 -0.66489,1.512628 -0.60671,0.482046 -1.84507,0.482046 z m 5.50197,-2.709432 q 0.62334,0 0.95578,-0.207779 0.33245,-0.207778 0.33245,-0.73138 0,-0.515291 -0.26596,-0.772936 -0.25764,-0.265956 -0.73138,-0.265956 h -0.24933 q -0.33245,0 -0.60672,0.06649 -0.26595,0.05818 -0.51529,0.216089 -0.24102,0.149601 -0.48204,0.423869 -0.23272,0.265956 -0.49867,0.673202 l -0.35738,0.556846 0.0249,0.04156 z m -18.11285,0.166223 0.16622,-0.166223 h 1.20512 l 0.0166,-0.03325 q -0.40724,-0.315823 -0.63164,-0.714758 -0.21609,-0.398934 -0.21609,-0.822802 0,-0.307513 0.0997,-0.58178 0.10804,-0.282579 0.28258,-0.490358 0.17453,-0.216089 0.40724,-0.357379 0.24103,-0.141289 0.51529,-0.174534 l 0.29921,-0.498668 1.25498,0.764625 q 0.43218,0.265956 0.73138,0.540224 0.30751,0.274268 0.49867,0.598402 0.19115,0.324135 0.27426,0.714758 0.0914,0.382313 0.0914,0.880981 V 16.3152 l -0.49036,0.723069 h -0.94747 q -0.42387,0 -0.81449,-0.09142 -0.39063,-0.09973 -0.73969,-0.29089 -0.34907,0.191156 -0.73969,0.29089 -0.39063,0.09142 -0.8145,0.09142 h -0.4488 z m 2.00299,-0.415557 q 0.39893,-0.232712 0.63995,-0.58178 0.24103,-0.357379 0.24103,-0.739691 0,-0.448802 -0.23271,-0.714759 -0.22441,-0.265956 -0.60672,-0.265956 h -0.0831 q -0.38231,0 -0.61502,0.265956 -0.2244,0.265957 -0.2244,0.714759 0,0.382312 0.24102,0.739691 0.24102,0.349068 0.63996,0.58178 z m 1.36302,-1.878318 q 0.0997,0.265957 0.0997,0.556847 0,0.423868 -0.2244,0.822802 -0.21609,0.398935 -0.62334,0.714758 l 0.0166,0.03325 h 1.77859 v -0.09142 q 0,-0.374001 -0.0582,-0.673202 -0.0582,-0.299201 -0.18285,-0.548535 -0.12466,-0.249334 -0.32413,-0.448802 -0.19116,-0.207778 -0.45711,-0.390623 z m -6.65724,4.122326 h 0.4405 q 0.90591,0 1.39627,-0.340757 0.49867,-0.332446 0.61502,-0.939159 h -0.9724 q -0.66489,0 -1.03058,-0.349068 -0.36569,-0.349068 -0.36569,-0.980714 0,-0.374002 0.10804,-0.706447 0.11636,-0.332446 0.31582,-0.573469 0.19947,-0.249334 0.47374,-0.390624 0.28258,-0.1496 0.61502,-0.1496 0.68983,0 1.08045,0.615024 0.39894,0.615025 0.39894,1.728717 v 0.09142 h 0.38231 v 0.548535 l -0.16622,0.166223 h -0.29089 q -0.18285,0.955781 -0.82281,1.471072 -0.63164,0.523602 -1.73702,0.523602 h -0.4405 z m 0.6649,-2.69281 q 0,0.36569 0.19115,0.531913 0.19947,0.166223 0.62334,0.166223 h 1.01396 v -0.257645 q 0,-0.673203 -0.25765,-1.063826 -0.24933,-0.398935 -0.68982,-0.398935 -0.42387,0 -0.65658,0.282579 -0.2244,0.282579 -0.2244,0.739691 z m -45.10746,0.822803 h 1.55419 v -3.947791 h -0.0499 l -1.39627,1.230048 -0.40725,-0.407246 1.47108,-1.321471 h 1.07213 v 4.44646 h 1.42952 v 0.590091 h -3.67353 z m 4.78722,-0.0083 1.81183,-1.520939 q 0.92254,-0.789558 0.92254,-1.421205 v -0.08311 q 0,-0.432179 -0.27427,-0.673202 -0.26596,-0.241023 -0.748,-0.241023 -0.88929,0 -1.14694,0.847736 l -0.61502,-0.232712 q 0.20778,-0.598402 0.66489,-0.905914 0.45711,-0.307513 1.13031,-0.307513 0.39063,0 0.70645,0.108045 0.32413,0.09973 0.54854,0.299201 0.2244,0.191157 0.34075,0.465424 0.12467,0.274268 0.12467,0.615025 0,0.498668 -0.2992,0.972403 -0.2992,0.473735 -0.93916,0.980714 l -1.38796,1.105382 h 2.82579 v 0.590091 h -3.66522 z m 6.49932,-2.318808 q 0.5236,0 0.8228,-0.207779 0.2992,-0.216089 0.2992,-0.590091 v -0.08311 q 0,-0.349068 -0.26595,-0.540224 -0.25765,-0.199467 -0.72307,-0.199467 -0.77294,0 -1.14694,0.631646 l -0.50698,-0.390623 q 0.57347,-0.839426 1.67054,-0.839426 0.38231,0 0.68982,0.09142 0.31583,0.09142 0.54023,0.265957 0.2244,0.166222 0.34906,0.398934 0.12467,0.232712 0.12467,0.515291 0,0.448801 -0.28258,0.764625 -0.28258,0.307512 -0.78124,0.423868 v 0.03325 q 0.54022,0.09973 0.85604,0.448801 0.31583,0.340757 0.31583,0.831114 0,0.324135 -0.14129,0.598402 -0.13298,0.265957 -0.39063,0.465424 -0.24933,0.191156 -0.5984,0.299201 -0.34907,0.09973 -0.77293,0.09973 -0.57347,0 -1.02227,-0.21609 -0.44049,-0.21609 -0.78956,-0.673202 l 0.49867,-0.374002 q 0.25764,0.365691 0.55684,0.523602 0.2992,0.157912 0.73138,0.157912 0.58178,0 0.88929,-0.224401 0.31583,-0.232712 0.31583,-0.664891 v -0.08311 q 0,-0.43218 -0.31583,-0.656581 -0.30751,-0.232711 -0.88929,-0.232711 h -0.63164 v -0.573469 z m 5.83442,1.911562 h -2.67619 V 15.44253 l 2.36037,-3.440812 h 0.9724 v 3.474057 h 0.80618 v 0.556846 h -0.80618 v 1.005648 h -0.65658 z m 0,-0.556846 v -2.908899 h -0.0416 l -1.99468,2.908899 z m 3.47406,-2.875655 -0.15791,1.836762 h 0.0582 q 0.2244,-0.315823 0.49035,-0.457112 0.26596,-0.14129 0.64827,-0.14129 0.374,0 0.68152,0.116356 0.30751,0.108045 0.5236,0.315823 0.21609,0.207779 0.33244,0.50698 0.12467,0.29089 0.12467,0.648269 0,0.390623 -0.13298,0.706447 -0.13298,0.315823 -0.38231,0.540224 -0.24102,0.224401 -0.59009,0.349068 -0.34907,0.116356 -0.78125,0.116356 -1.08045,0 -1.74534,-0.889292 l 0.51529,-0.390624 q 0.26596,0.382313 0.54023,0.531913 0.28258,0.149601 0.69813,0.149601 0.54854,0 0.84774,-0.257646 0.2992,-0.265956 0.2992,-0.764625 v -0.08311 q 0,-0.498668 -0.2992,-0.756314 -0.2992,-0.265956 -0.84774,-0.265956 -0.30751,0 -0.53191,0.09973 -0.2244,0.09142 -0.46542,0.324135 l -0.58178,-0.08311 0.19946,-2.750988 h 3.00033 v 0.598402 z m 4.44647,5.585086 v -7.463403 h 0.56515 v 7.463403 z m 5.99232,-1.146937 -0.58178,-1.712095 h -2.34374 l -0.58178,1.712095 h -0.70645 l 2.02792,-5.801176 h 0.88929 l 2.02792,5.801176 z m -1.73703,-5.152907 h -0.0416 l -0.98071,2.825788 h 2.00298 z m 3.68184,6.299844 v -7.463403 h 0.56516 v 7.463403 z m 4.08908,-1.047203 q -0.4488,0 -0.81449,-0.149601 -0.35738,-0.157911 -0.61503,-0.44049 -0.24933,-0.29089 -0.38231,-0.706447 -0.13298,-0.415557 -0.13298,-0.930848 0,-0.648269 0.19116,-1.213426 0.19115,-0.573469 0.49036,-1.038893 0.30751,-0.473735 0.6732,-0.831114 0.36569,-0.36569 0.71476,-0.590091 h 0.8976 q -0.46543,0.340757 -0.83112,0.664891 -0.36569,0.324135 -0.63995,0.681514 -0.27427,0.349068 -0.46543,0.756314 -0.19115,0.398934 -0.30751,0.905914 l 0.0416,0.01662 q 0.20778,-0.357379 0.53191,-0.590091 0.33245,-0.241023 0.86436,-0.241023 0.374,0 0.68982,0.124667 0.31583,0.124667 0.54023,0.357379 0.2244,0.232712 0.34906,0.565158 0.13298,0.332446 0.13298,0.739691 0,0.423869 -0.14129,0.781248 -0.13297,0.349067 -0.39062,0.606713 -0.24933,0.249334 -0.60671,0.390623 -0.35738,0.14129 -0.78956,0.14129 z m -0.008,-0.606714 q 0.57347,0 0.88929,-0.315823 0.32413,-0.315823 0.32413,-0.905914 v -0.06649 q 0,-0.590091 -0.32413,-0.905914 -0.31582,-0.315824 -0.88929,-0.315824 -0.57347,0 -0.89761,0.315824 -0.31582,0.315823 -0.31582,0.905914 v 0.06649 q 0,0.590091 0.31582,0.905914 0.32414,0.315823 0.89761,0.315823 z m -44.35946,-5.792864 h 0.2992 l 0.008,-0.03324 q -0.0665,-0.08311 -0.10805,-0.191156 -0.0416,-0.116356 -0.0416,-0.232712 0,-0.3241343 0.21609,-0.5402239 0.21609,-0.2160897 0.54853,-0.2160897 0.19116,0 0.39063,0.099734 0.19947,0.091423 0.2992,0.2493342 l -0.30751,0.3740017 q -0.16623,-0.191157 -0.38232,-0.191157 -0.1496,0 -0.24933,0.08311 -0.0997,0.0748 -0.0997,0.191156 0,0.174534 0.15791,0.274268 0.15791,0.09973 0.44049,0.09973 h 0.53191 v 0.531913 h -1.70378 z m 0.54022,1.163559 h 0.61503 v 5.136285 h -0.61503 z m -6.15024,3.71508 q 0,0.498668 0.32414,0.639958 l 0.44049,-0.739692 q 0.31582,-0.548535 0.63995,-0.905914 0.32414,-0.36569 0.65658,-0.58178 0.33245,-0.216089 0.67321,-0.307512 0.34906,-0.09142 0.72307,-0.09142 0.80618,0 1.25498,0.448801 0.4488,0.440491 0.4488,1.221738 0,0.939159 -0.47374,1.338093 -0.47373,0.398935 -1.39627,0.398935 h -2.46009 q -1.14694,0 -1.34641,-0.814492 h -0.0416 q -0.0914,0.457113 -0.35738,0.639958 -0.26596,0.174534 -0.83112,0.174534 v -0.548535 l 0.16623,-0.166223 h 0.29089 q 0.70644,0 0.70644,-0.706447 v -0.648269 h 0.58178 z m 3.29121,0.706447 q 0.62334,0 0.95578,-0.207779 0.33245,-0.207778 0.33245,-0.73138 0,-0.515291 -0.26596,-0.772936 -0.25764,-0.265956 -0.73138,-0.265956 h -0.24933 q -0.33245,0 -0.60671,0.06649 -0.26596,0.05818 -0.51529,0.216089 -0.24103,0.149601 -0.48205,0.423869 -0.23271,0.265956 -0.49867,0.673202 l -0.35738,0.556846 0.0249,0.04156 z m -0.13297,-3.690146 q -0.16623,0 -0.26596,-0.09142 -0.0997,-0.09973 -0.0997,-0.315823 0,-0.21609 0.0997,-0.307512 0.0997,-0.09973 0.26596,-0.09973 h 0.0914 q 0.16622,0 0.26595,0.09973 0.0997,0.09142 0.0997,0.307512 0,0.21609 -0.0997,0.315823 -0.0997,0.09142 -0.26595,0.09142 z m -8.03688,6.399578 q -1.08876,0 -1.69548,-0.548536 -0.60671,-0.548535 -0.60671,-1.529249 0,-0.382313 0.0997,-0.806181 0.10805,-0.432179 0.29089,-0.856047 l 0.51529,0.157911 q -0.15791,0.324135 -0.25764,0.681514 -0.0997,0.349068 -0.0997,0.664891 0,0.706447 0.39893,1.09707 0.39894,0.390624 1.10538,0.390624 h 0.49867 q 0.88098,0 1.28823,-0.357379 0.41555,-0.349068 0.41555,-1.105382 0,-0.132978 -0.008,-0.265956 -0.008,-0.132978 -0.0332,-0.29089 -0.0166,-0.166223 -0.0582,-0.36569 -0.0332,-0.199468 -0.0831,-0.448802 l -0.14129,-0.689824 0.58178,-0.116356 0.12467,0.689824 q 0.0582,0.324135 0.0914,0.565158 0.0416,0.232712 0.0582,0.423868 h 0.81449 v 0.548535 l -0.16622,0.166223 h -0.62334 q -0.0582,1.030581 -0.66489,1.512628 -0.60671,0.482046 -1.84507,0.482046 z m 0.11635,-4.58775 q -0.16622,0 -0.26595,-0.09142 -0.0997,-0.09973 -0.0997,-0.315824 0,-0.216089 0.0997,-0.307512 0.0997,-0.09973 0.26595,-0.09973 h 0.0914 q 0.16623,0 0.26596,0.09973 0.0997,0.09142 0.0997,0.307512 0,0.21609 -0.0997,0.315824 -0.0997,0.09142 -0.26596,0.09142 z"
       id="text3"
       style="font-size:8.31114px;line-height:1.25;font-family:'IBM Plex Sans Arabic';-inkscape-font-specification:'IBM Plex Sans Arabic';text-align:center;letter-spacing:0px;word-spacing:2.64583px;direction:rtl;text-anchor:middle;fill:#ffffff;stroke-width:0.0577162"
       aria-label="رقم لوحة الترخيص هو ⁦12345|A|6⁩ أضن&#10;" />
    <path
       d="m -155.42195,16.196617 h -1.37317 v -2.148662 h 0.34083 v 1.842416 h 1.03234 z m 1.95109,0 h -0.43138 l -0.55651,-0.869344 h -0.15477 v 0.869344 h -0.34083 v -2.148662 h 0.70799 q 0.354,0 0.54993,0.163002 0.19593,0.161355 0.19593,0.479127 0,0.141598 -0.0445,0.250266 -0.0428,0.107021 -0.12348,0.184406 -0.079,0.07738 -0.18605,0.123486 -0.10538,0.04446 -0.22887,0.06092 z m -0.37046,-1.511473 q 0,-0.164648 -0.10867,-0.246972 -0.10702,-0.08232 -0.29637,-0.08232 h -0.36716 v 0.663533 h 0.36716 q 0.18935,0 0.29637,-0.08232 0.10867,-0.08232 0.10867,-0.251913 z m 1.93462,1.511473 h -1.0307 v -0.306246 h 0.33917 v -1.534523 h -0.33917 v -0.307893 h 1.0307 v 0.307893 h -0.3507 v 1.534523 h 0.3507 z"
       id="text6"
       style="font-weight:bold;font-size:3.372px;line-height:1.25;font-family:'Anonymous Pro';-inkscape-font-specification:'Anonymous Pro Bold';text-align:center;letter-spacing:0px;word-spacing:0px;direction:rtl;text-anchor:middle;fill:#84f801;stroke-width:0.0234166"
       aria-label="LRI" />
    <path
       d="m -200.21029,14.567998 q 0,0.322711 -0.19593,0.480774 -0.19593,0.156416 -0.54663,0.156416 h -0.37046 v 0.869344 h -0.34082 v -2.148663 h 0.70798 q 0.354,0 0.54993,0.163002 0.19593,0.161356 0.19593,0.479127 z m -0.34082,-0.0049 q 0,-0.164649 -0.10867,-0.246973 -0.10702,-0.08232 -0.29307,-0.08232 h -0.37046 v 0.663533 h 0.37046 q 0.18605,0 0.29307,-0.08232 0.10867,-0.08232 0.10867,-0.251912 z m 2.25239,0.436318 q 0,0.21569 -0.0461,0.411621 -0.0445,0.194286 -0.14489,0.342469 -0.0988,0.146537 -0.25685,0.233801 -0.15642,0.08726 -0.3787,0.08726 h -0.6981 v -2.148663 h 0.6981 q 0.21899,0 0.3754,0.08891 0.15807,0.08726 0.25685,0.2338 0.10044,0.146538 0.14654,0.340823 0.0478,0.194285 0.0478,0.409974 z m -0.34082,0 q 0,-0.372105 -0.12678,-0.568037 -0.12678,-0.197578 -0.35894,-0.197578 h -0.35728 v 1.534523 h 0.35728 q 0.23216,0 0.35894,-0.200871 0.12678,-0.200871 0.12678,-0.568037 z m 1.86382,1.075155 h -1.0307 v -0.306247 h 0.33917 v -1.534523 h -0.33917 v -0.307893 h 1.0307 v 0.307893 h -0.3507 v 1.534523 h 0.3507 z"
       id="text7"
       style="font-weight:bold;font-size:3.372px;line-height:1.25;font-family:'Anonymous Pro Minus';-inkscape-font-specification:'Anonymous Pro Minus Bold';text-align:center;letter-spacing:0px;word-spacing:0px;direction:rtl;text-anchor:middle;fill:#84f801;stroke-width:0.0234166"
       aria-label="PDI" />
    <g
       id="g16"
       transform="matrix(-1,0,0,1,-110.73739,-67.845668)">
      <path
         d="m 104.2304,90.576234 v -0.175439 l -0.76608,-0.766083 -0.23392,0.233918 0.45419,0.454192 v 0.331385 l -0.45419,0.454193 0.23392,0.233918 z"
         id="path15"
         style="font-size:3.99221px;line-height:1.25;font-family:'Anonymous Pro';-inkscape-font-specification:'Anonymous Pro';text-align:center;letter-spacing:0px;word-spacing:0px;direction:rtl;text-anchor:middle;fill:#9999ff;fill-opacity:1;stroke-width:0.0277236"
         aria-label="←"
         sodipodi:nodetypes="ccccccccc" />
      <path
         style="fill:none;stroke:#9999ff;stroke-width:0.331;stroke-linecap:butt;stroke-linejoin:miter;stroke-dasharray:none;stroke-dashoffset:0;stroke-opacity:1"
         d="M -33.72278,90.488515 H 103.90695"
         id="path16"
         sodipodi:nodetypes="cc" />
    </g>
    <g
       id="g14"
       transform="translate(-261.49415,-70.072097)">
      <path
         d="m 104.2304,90.576234 v -0.175439 l -0.76608,-0.766083 -0.23392,0.233918 0.45419,0.454192 v 0.331385 l -0.45419,0.454193 0.23392,0.233918 z"
         id="text12"
         style="font-size:3.99221px;line-height:1.25;font-family:'Anonymous Pro';-inkscape-font-specification:'Anonymous Pro';text-align:center;letter-spacing:0px;word-spacing:0px;direction:rtl;text-anchor:middle;fill:#84f801;fill-opacity:1;stroke-width:0.0277236"
         aria-label="←"
         sodipodi:nodetypes="ccccccccc" />
      <path
         style="fill:none;stroke:#84f801;stroke-width:0.331258;stroke-linecap:butt;stroke-linejoin:miter;stroke-dasharray:0.662516, 0.662516;stroke-dashoffset:0;stroke-opacity:1"
         d="M 65.325032,90.488515 H 103.90695"
         id="path14"
         sodipodi:nodetypes="cc" />
    </g>
  </g>
</svg>
