<?xml version="1.0" encoding="UTF-8" standalone="no"?>
<!-- Created with Inkscape (http://www.inkscape.org/) -->

<svg
   width="158.77451mm"
   height="61.597717mm"
   viewBox="0 0 158.77451 61.597717"
   version="1.1"
   id="svg1"
   inkscape:version="1.4 (e7c3feb100, 2024-10-09)"
   sodipodi:docname="bidi-RLI-obtain.svg"
   xmlns:inkscape="http://www.inkscape.org/namespaces/inkscape"
   xmlns:sodipodi="http://sodipodi.sourceforge.net/DTD/sodipodi-0.dtd"
   xmlns="http://www.w3.org/2000/svg"
   xmlns:svg="http://www.w3.org/2000/svg">
  <sodipodi:namedview
     id="namedview1"
     pagecolor="#ffffff"
     bordercolor="#666666"
     borderopacity="1.0"
     inkscape:showpageshadow="2"
     inkscape:pageopacity="0.0"
     inkscape:pagecheckerboard="0"
     inkscape:deskcolor="#d1d1d1"
     inkscape:document-units="mm"
     inkscape:zoom="1.3047986"
     inkscape:cx="298.5135"
     inkscape:cy="113.81067"
     inkscape:window-width="1916"
     inkscape:window-height="964"
     inkscape:window-x="0"
     inkscape:window-y="76"
     inkscape:window-maximized="1"
     inkscape:current-layer="layer1" />
  <defs
     id="defs1">
    <marker
       style="overflow:visible"
       id="ColoredDot"
       refX="0"
       refY="0"
       orient="auto"
       inkscape:stockid="Colored dot"
       markerWidth="1"
       markerHeight="1"
       viewBox="0 0 1 1"
       inkscape:isstock="true"
       inkscape:collect="always"
       preserveAspectRatio="none">
      <path
         transform="scale(0.45)"
         style="fill:context-fill;fill-rule:evenodd;stroke:context-stroke;stroke-width:2"
         d="M 5,0 C 5,2.76 2.76,5 0,5 -2.76,5 -5,2.76 -5,0 c 0,-2.76 2.3,-5 5,-5 2.76,0 5,2.24 5,5 z"
         sodipodi:nodetypes="sssss"
         id="path50" />
    </marker>
    <marker
       style="overflow:visible"
       id="ArrowWide"
       refX="0"
       refY="0"
       orient="auto-start-reverse"
       inkscape:stockid="Wide arrow"
       markerWidth="1"
       markerHeight="1"
       viewBox="0 0 1 1"
       inkscape:isstock="true"
       inkscape:collect="always"
       preserveAspectRatio="xMidYMid">
      <path
         style="fill:none;stroke:context-stroke;stroke-width:1;stroke-linecap:butt"
         d="M 3,-3 0,0 3,3"
         transform="rotate(180,0.125,0)"
         sodipodi:nodetypes="ccc"
         id="path1" />
    </marker>
  </defs>
  <g
     inkscape:label="Calque 1"
     inkscape:groupmode="layer"
     id="layer1"
     transform="translate(-13.493748,-114.56458)">
    <g
       id="g1"
       style="display:none">
      <path
         style="fill:none;fill-opacity:1;stroke:#d7005f;stroke-width:0.331;stroke-linecap:butt;stroke-linejoin:miter;stroke-dasharray:none;stroke-dashoffset:0;stroke-opacity:1;marker-start:url(#ColoredDot);marker-end:url(#ArrowWide)"
         d="M 143.12345,136.82706 H 21.772636 v 2.88668 H 145.2849 v -4.54345 h 4.71832"
         id="path49"
         sodipodi:nodetypes="cccccc" />
      <path
         style="fill:none;fill-opacity:1;stroke:#d7005f;stroke-width:0.331;stroke-linecap:butt;stroke-linejoin:miter;stroke-dasharray:none;stroke-dashoffset:0;stroke-opacity:1;marker-start:url(#ColoredDot);marker-end:url(#ArrowWide)"
         d="m 23.088787,150.00984 h 4.71832 v 4.54345 H 161.9027 v -3.49694 H 40.522078"
         id="path51"
         sodipodi:nodetypes="cccc" />
      <path
         style="fill:none;fill-opacity:1;stroke:#d7005f;stroke-width:0.331;stroke-linecap:butt;stroke-linejoin:miter;stroke-dasharray:none;stroke-dashoffset:0;stroke-opacity:1;marker-start:url(#ColoredDot);marker-end:url(#ArrowWide)"
         d="m 23.088787,166.00621 h 4.71832 v 4.54343 H 161.9027 V 167.0527 H 40.522078"
         id="path52"
         sodipodi:nodetypes="cccc" />
    </g>
    <g
       id="text27"
       style="font-size:8.31114px;line-height:1.75;font-family:'DejaVu Sans Mono';-inkscape-font-specification:'DejaVu Sans Mono';letter-spacing:0px;word-spacing:2.64583px;fill:#ffffff;stroke-width:0.0577162"
       aria-label="أرسل لي هاتين الوثيقتين:&#10;1. رخصة القيادة الخاصة بك؛&#10;2. بطاقة الهوية الخاصة بك.&#10;">
      <path
         d="m 142.08525,127.6394 h 0.74671 v 6.31452 h -0.74671 z m -0.32059,-0.60467 0.31654,-0.073 q -0.17856,-0.0812 -0.24349,-0.22725 -0.069,-0.15016 -0.0649,-0.33277 0.008,-0.38553 0.22726,-0.56409 0.22726,-0.18668 0.60873,-0.18262 0.24755,0.004 0.46263,0.13392 v 0.40582 q -0.20697,-0.13392 -0.46263,-0.13392 -0.26784,0 -0.33683,0.073 -0.11769,0.12986 -0.11769,0.23537 0,0.31248 0.38147,0.42205 0.13392,0.0406 0.6209,-0.0771 v 0.41393 l -1.39195,0.31248 z m -3.1532,6.29423 q 0.0406,-0.23537 0.0406,-0.52756 0,-0.51133 -0.21508,-1.06324 h 0.7467 q 0.20291,0.47886 0.20291,1.01454 0,0.33277 -0.0325,0.58438 -0.16639,1.34325 -1.50964,2.04532 -1.10788,0.58031 -3.10045,0.61684 v -0.74671 q 1.80183,0 2.69463,-0.51944 1.03483,-0.5925 1.17281,-1.40413 z m -6.68787,-0.10957 q 0.2719,0 0.44234,-0.47075 0.15015,-0.41799 0.15015,-1.20528 h 0.6696 q -0.0203,0.66149 0.13392,1.23369 0.1258,0.48698 0.30031,0.48698 0.42205,0 0.42205,-1.13629 v -1.1931 h 0.66554 v 1.38789 q 0,0.64525 -0.25161,1.26615 -0.13392,0.33277 -0.47886,0.47075 -0.0893,0.0365 -0.40582,0.0365 -0.26784,0 -0.36524,-0.10145 -0.26378,-0.2719 -0.36523,-0.78323 -0.12581,0.44234 -0.40988,0.6696 -0.20697,0.17044 -0.50321,0.17044 -0.20291,0 -0.53162,-0.25972 -0.17856,-0.14203 -0.22726,-0.3977 -0.0852,0.23132 -0.36524,0.40988 -0.23943,0.15015 -0.6493,0.15015 h -0.28408 v -0.74671 h 0.17045 q 0.30842,0 0.45451,-0.14203 0.28407,-0.28813 0.28407,-0.767 v -0.77917 h 0.66554 v 0.63308 q 0,0.32059 0.10552,0.72641 0.0852,0.34089 0.37335,0.34089 z m -2.74739,-5.57999 v 4.76024 q 0,0.43016 0.19885,0.62901 0.17856,0.17856 0.35306,0.17856 h 0.30437 v 0.74671 h -0.52756 q -0.22726,0 -0.5438,-0.20697 -0.0609,0.37741 -0.26784,0.63308 -0.42205,0.51133 -0.94555,0.70206 -0.38147,0.13798 -0.88874,0.13798 -0.40176,0 -0.88469,-0.17044 -0.98207,-0.34901 -0.98613,-1.40007 -0.004,-0.56003 0.25566,-0.93338 h 0.74671 q -0.26378,0.46669 -0.26378,0.93338 0,0.51133 0.67365,0.77916 0.16233,0.0649 0.45858,0.0649 0.4261,0 0.76699,-0.13798 0.40176,-0.16639 0.68177,-0.69801 0.12175,-0.23131 0.12175,-1.43253 v -4.58574 z m -12.81966,4.80894 q 0,0.72235 -0.35307,1.13223 -0.32465,0.37335 -1.42847,0.37335 h -2.36186 v -0.74671 h 2.1346 q 0.88468,0 1.06324,-0.17856 0.19885,-0.19885 0.19885,-0.62901 v -4.76024 h 0.74671 z m -5.94523,1.29861 q -0.008,-0.17856 -0.0446,-0.22726 -0.0974,-0.14609 -0.19479,-0.24754 -0.17856,-0.18668 -0.17856,-0.43423 0,-0.31654 0.16638,-0.50727 0.31248,-0.36929 0.66554,-0.43828 0.11769,-0.0243 0.29625,-0.0243 0.52756,0 0.71424,0.56003 0.25972,0.77916 0.3977,0.77916 h 0.14203 v 0.74671 h -0.14203 q -0.51539,0 -0.78729,-0.69801 -0.25972,-0.6696 -0.38147,-0.6696 -0.13797,0.004 -0.2029,0.069 -0.0812,0.073 -0.0812,0.20291 0,0.0122 0.17045,0.29219 0.21508,0.35306 0.21508,0.59655 0,0.33683 -0.31654,0.67366 -0.42205,0.45046 -1.15658,0.55597 -0.56814,0.0812 -0.87656,0.0812 -0.49104,0 -1.08759,-0.14609 -0.92527,-0.22726 -0.97397,-1.03078 -0.0243,-0.37335 0.12175,-0.93338 h 0.72235 q -0.10551,0.32466 -0.10551,0.7954 0.004,0.43017 0.57626,0.53568 0.28002,0.0528 0.73859,0.0528 0.52756,0 0.76294,-0.069 0.51944,-0.15015 0.60061,-0.21103 0.24349,-0.18667 0.23943,-0.30436 z m -1.32702,1.62733 h 0.60872 v 0.60873 h -0.60872 z m -1.01455,0 h 0.60873 v 0.60873 h -0.60873 z m -11.638744,-2.51201 q 0.146094,-0.10957 0.284072,-0.36929 0.158269,-0.29219 0.158269,-0.53974 0,-0.18668 -0.06087,-0.33683 -0.08928,-0.21102 -0.324654,-0.21102 -0.263782,0 -0.35712,0.18261 -0.08928,0.1745 -0.08928,0.31654 0,0.12175 0.02841,0.2719 0.08522,0.47886 0.361177,0.68583 z m -1.286441,0.34494 q 0.211025,0 0.527563,-0.0446 -0.182618,-0.4261 -0.243491,-0.70612 -0.07305,-0.31654 -0.07305,-0.57626 0,-0.34088 0.182618,-0.67771 0.194792,-0.36524 0.507272,-0.32872 -0.17856,-0.15826 -0.507272,-0.21508 v -0.75076 q 0.88874,0.2719 1.781538,1.00237 1.059184,0.86845 1.298616,1.74907 0.05681,0.21103 0.05681,0.44234 0,0.41799 -0.162327,0.66554 -0.300305,0.45858 -1.010485,0.45858 -0.531621,0 -1.156579,-0.43829 -0.486981,0.16639 -1.079475,0.16639 h -0.71018 v -0.74671 z m 2.337508,-1.31484 q 0.02435,0.15015 0.02435,0.30842 0,0.56003 -0.397701,1.02266 -0.0487,0.0568 -0.117687,0.13392 0.211025,0.18667 0.409876,0.18667 0.51133,0 0.57626,-0.27189 0.02841,-0.12175 0.02841,-0.25567 0,-0.24349 -0.13392,-0.56003 -0.117687,-0.28001 -0.389585,-0.56408 z m -5.462297,0.55597 v -4.80894 h 0.746704 v 4.76024 q 0,0.43016 0.202909,0.62901 0.17856,0.17856 0.909031,0.17856 h 0.8441 v 0.74671 h -1.071358 q -0.949612,0 -1.274266,-0.37335 -0.35712,-0.40988 -0.35712,-1.13223 z m -4.739945,-2.5526 h 0.608726 v 0.60873 h -0.608726 z m -1.014544,0 h 0.608726 v 0.60873 h -0.608726 z m 0.831926,3.70918 q -0.292189,0.349 -1.684142,0.349 H 84.54867 v -0.74671 h 0.641191 q 1.15658,0 1.335139,-0.17856 0.198851,-0.19885 0.198851,-0.62901 v -0.88063 h 0.746704 v 0.88063 q 0,0.75888 -0.373352,1.20528 z m -4.821109,0.95772 h 0.608726 v 0.60873 h -0.608726 z m -1.014544,0 h 0.608726 v 0.60873 H 81.26155 Z m 0.82381,-0.95772 q -0.308422,0.349 -1.180929,0.349 h -1.359488 v -0.74671 h 1.136288 q 0.657425,0 0.835984,-0.17856 0.194793,-0.19885 0.194793,-0.62901 v -0.88063 h 0.746704 v 0.88063 q 0,0.43016 0.202908,0.62901 0.17856,0.17856 0.840042,0.17856 h 1.209336 v 0.74671 h -1.432535 q -0.868449,0 -1.193103,-0.349 z m -5.941169,-2.43897 h 0.608726 v 0.60873 h -0.608726 z m 2.406497,3.86338 q -0.288131,0.47075 -0.864391,0.71424 -0.568145,0.23944 -1.091649,0.23944 -0.698006,0 -1.197161,-0.25567 -0.949613,-0.48698 -0.949613,-1.59892 0,-0.70612 0.215083,-1.28238 h 0.746704 q -0.223199,0.70612 -0.223199,1.28238 0,0.73047 0.653366,1.00237 0.231316,0.0974 0.75482,0.0974 0.340887,0 0.596552,-0.0812 0.637133,-0.20697 0.872507,-0.88468 0.13392,-0.38147 0.13392,-0.86439 0,-0.74671 -0.409876,-1.57051 h 0.746704 q 0.06899,0.20696 0.211025,0.55191 0.137978,0.34088 0.263781,0.56814 0.142037,0.25972 0.491039,0.25972 h 0.211026 v 0.74671 h -0.381469 q -0.353061,0 -0.409875,-0.19479 -0.02435,0.70206 -0.369294,1.2702 z M 64.095573,127.6394 h 0.746704 v 6.31452 h -0.746704 z m -3.067978,4.80894 q 0,0.72235 -0.353062,1.13223 -0.324653,0.37335 -1.428477,0.37335 h -2.361857 v -0.74671 h 2.1346 q 0.884681,0 1.063241,-0.17856 0.198851,-0.19885 0.198851,-0.62901 v -4.76024 h 0.746704 z m -5.705797,0.75887 q 0,-0.30842 -0.06493,-0.53973 -0.0974,-0.32466 -0.284072,-0.4464 -0.243491,-0.16639 -0.486981,-0.0609 -0.271898,0.11768 -0.324654,0.34494 -0.06899,0.30436 0.190734,0.5235 0.190734,0.16233 0.969904,0.17856 z m 0.726413,0 h 0.998311 v 0.74671 h -0.787286 l -0.284072,-0.004 q -0.101455,0.63308 -0.624959,1.15658 -0.336828,0.33683 -0.762937,0.52756 -0.779169,0.34901 -2.260402,0.34901 v -0.74671 q 1.465,0 2.000679,-0.30842 0.681773,-0.38553 0.93338,-0.98614 -0.478864,-0.0122 -0.661482,-0.0406 -0.564086,-0.0974 -0.771053,-0.2719 -0.430167,-0.36117 -0.470748,-0.90903 -0.0081,-0.1258 0.03247,-0.35712 0.109571,-0.62901 0.823809,-0.93338 0.239433,-0.10145 0.503214,-0.0974 0.353061,0.008 0.633075,0.20697 0.539737,0.37335 0.629017,0.94555 0.05276,0.33683 0.06899,0.72235 z m -6.622938,0.39771 q -0.292189,0.349 -1.684143,0.349 h -0.864391 v -0.74671 h 0.641192 q 1.156579,0 1.335139,-0.17856 0.198851,-0.19885 0.198851,-0.62901 v -0.88063 h 0.746704 v 0.88063 q 0,0.75888 -0.373352,1.20528 z m -0.288131,-4.72372 h 0.608726 v 0.60873 h -0.608726 z m 0.507272,1.01454 h 0.608726 v 0.60873 h -0.608726 z m -1.014543,0 h 0.608726 v 0.60873 h -0.608726 z m -4.025709,4.6669 h 0.608726 v 0.60873 h -0.608726 z m -1.014544,0 h 0.608726 v 0.60873 h -0.608726 z m 0.823809,-0.95772 q -0.308421,0.349 -1.180928,0.349 h -1.359488 v -0.74671 h 1.136288 q 0.657424,0 0.835984,-0.17856 0.194792,-0.19885 0.194792,-0.62901 v -0.88063 h 0.746704 v 0.88063 q 0,0.43016 0.202909,0.62901 0.17856,0.17856 0.840042,0.17856 h 1.209336 v 0.74671 h -1.432535 q -0.86845,0 -1.193104,-0.349 z m -4.573559,-2.74333 q 0.742646,0.32465 0.8441,0.93338 0.03247,0.20291 0.03247,0.37335 0,0.29625 -0.08928,0.4951 -0.113629,0.2719 -0.259724,0.47481 0.154211,0.069 0.754821,0.069 h 0.913089 v 0.74671 h -1.278325 q -0.551912,0 -1.306732,-0.23132 -0.746704,0.23132 -1.298616,0.23132 h -1.282382 v -0.74671 h 0.917147 q 0.592493,0 0.75482,-0.069 -0.121745,-0.16233 -0.267839,-0.47481 -0.08116,-0.18668 -0.08116,-0.4951 0,-0.17856 0.03247,-0.37335 0.09334,-0.58032 0.8441,-0.93338 0.121745,-0.0568 0.381468,-0.0568 0.259723,0 0.389585,0.0568 z m -0.251607,0.73047 q -0.08116,-0.0406 -0.137978,-0.0406 -0.05681,0 -0.129861,0.0406 -0.227258,0.12986 -0.324654,0.34495 -0.04058,0.0852 -0.04058,0.2029 0,0.17451 0.0974,0.38959 0.121745,0.27596 0.397701,0.36524 0.259723,-0.0852 0.405818,-0.36524 0.0974,-0.20291 0.0974,-0.38959 0,-0.0974 -0.04058,-0.2029 -0.0974,-0.21103 -0.324654,-0.34495 z m 0.02435,-2.30504 h 0.608726 v 0.60872 H 39.61261 Z m -1.014543,0 h 0.608726 v 0.60872 h -0.608726 z m -4.00136,0.60872 h 0.608726 v 0.60873 h -0.608726 z m -1.014544,0 h 0.608726 v 0.60873 h -0.608726 z m 0.82381,3.70918 q -0.308422,0.349 -1.180929,0.349 h -1.359488 v -0.74671 h 1.136288 q 0.657425,0 0.835984,-0.17856 0.194793,-0.19885 0.194793,-0.62901 v -0.88063 h 0.746704 v 0.88063 q 0,0.43016 0.202908,0.62901 0.17856,0.17856 0.840042,0.17856 h 1.209336 v 0.74671 h -1.432535 q -0.86845,0 -1.193103,-0.349 z m -4.812996,0.95772 h 0.608726 v 0.60873 h -0.608726 z m -1.014543,0 h 0.608726 v 0.60873 h -0.608726 z m 0.823809,-0.95772 q -0.308421,0.349 -1.180928,0.349 h -1.359489 v -0.74671 h 1.136289 q 0.657424,0 0.835984,-0.17856 0.194792,-0.19885 0.194792,-0.62901 v -0.88063 h 0.746704 v 0.88063 q 0,0.43016 0.202909,0.62901 0.17856,0.17856 0.840042,0.17856 h 1.209336 v 0.74671 h -1.432536 q -0.868449,0 -1.193103,-0.349 z m -5.941166,-2.43897 h 0.608726 v 0.60873 h -0.608726 z m 2.406497,3.86338 q -0.28813,0.47075 -0.864391,0.71424 -0.568144,0.23944 -1.091649,0.23944 -0.698005,0 -1.197161,-0.25567 -0.949613,-0.48698 -0.949613,-1.59892 0,-0.70612 0.215084,-1.28238 h 0.746704 q -0.2232,0.70612 -0.2232,1.28238 0,0.73047 0.653366,1.00237 0.231316,0.0974 0.75482,0.0974 0.340887,0 0.596552,-0.0812 0.637133,-0.20697 0.872507,-0.88468 0.13392,-0.38147 0.13392,-0.86439 0,-0.74671 -0.409875,-1.57051 h 0.746704 q 0.06899,0.20696 0.211025,0.55191 0.137977,0.34088 0.263781,0.56814 0.142036,0.25972 0.491039,0.25972 h 0.211025 v 0.74671 h -0.381468 q -0.353062,0 -0.409876,-0.19479 -0.02435,0.70206 -0.369294,1.2702 z"
         id="path2" />
      <path
         style="fill:#ff0d38"
         d="m 146.94695,129.64008 h 1.02266 v 1.22963 h -1.02266 z m 0,3.0761 h 1.02266 v 1.23774 h -1.02266 z"
         id="path3" />
      <path
         style="fill:#ff0d38"
         d="m 23.034969,147.80852 h 1.274267 v -4.63037 l -1.371663,0.30842 v -0.74671 l 1.363547,-0.3003 h 0.819751 v 5.36896 h 1.258034 v 0.68989 h -3.343936 z m 5.892469,-0.54785 h 1.02266 v 1.23774 h -1.02266 z"
         id="path4" />
      <path
         d="m 161.27221,147.87345 q 0.0406,-0.23537 0.0406,-0.52756 0,-0.51133 -0.21509,-1.06324 h 0.74671 q 0.20291,0.47887 0.20291,1.01454 0,0.33277 -0.0325,0.58438 -0.16638,1.34326 -1.50964,2.04532 -1.10788,0.58032 -3.10044,0.61684 v -0.7467 q 1.80183,0 2.69462,-0.51945 1.03484,-0.59249 1.17282,-1.40413 z m -6.5296,-3.83903 h 0.60873 v 0.60873 h -0.60873 z m 1.32296,2.26852 q -0.33682,-0.0933 -0.75482,-0.18667 -0.34494,-0.0771 -1.07541,-0.14204 -0.33277,-0.0284 -0.98614,-0.004 v -0.7467 q 0.29219,-0.0284 0.59655,-0.0325 0.65743,0 1.35543,0.14204 1.04701,0.21102 1.93981,0.60872 v 0.62496 q -0.30842,0.0974 -0.66554,0.30842 -0.67366,0.39771 -0.97396,0.66554 -0.58844,0.52351 -0.8928,0.63308 -0.89686,0.32465 -1.55834,0.32465 h -0.51945 v -0.7467 h 0.40582 q 0.92121,0 1.44471,-0.29219 0.42205,-0.23537 0.8928,-0.66554 0.38147,-0.349 0.79134,-0.49104 z m -6.39162,1.44877 h 0.5235 q 0.56815,0 0.86439,-0.18668 0.43017,-0.27595 0.43017,-0.56002 0,-0.18262 -0.16233,-0.33277 -0.14609,-0.13392 -0.40176,-0.13392 -0.28813,0 -0.71018,0.44234 -0.30436,0.31653 -0.54379,0.77105 z m -0.0933,0.7467 q -0.3003,0 -0.61684,-0.17044 -0.26378,-0.14204 -0.42205,-0.38958 -0.41394,0.56002 -0.68989,0.56002 h -0.32466 v -0.7467 h 0.10552 q 0.1258,0 0.29624,-0.18668 0.18262,-0.20291 0.18262,-0.72235 v -0.46263 h 0.7467 v 0.31653 q 0,0.0974 0.0365,0.25973 0.0365,0.16232 0.21914,0.36523 0.30842,-0.51944 0.50727,-0.76293 0.5925,-0.7183 1.20122,-0.7183 0.69395,0 1.06324,0.33277 0.35306,0.31654 0.35306,0.80758 0,0.21102 -0.1258,0.49915 0.0649,0.0406 0.12175,0.0933 0.18667,0.17856 0.3003,0.17856 h 0.15827 v 0.7467 h -0.23943 q -0.21103,0 -0.62496,-0.38146 l -0.11363,-0.10552 q -0.69801,0.48698 -1.24992,0.48698 z m -4.11905,-4.26108 h 0.60873 v 0.60873 h -0.60873 z m -1.01454,0 h 0.60872 v 0.60873 h -0.60872 z m 1.29456,3.11668 q -0.0609,-0.17044 -0.11363,-0.3693 -0.0528,-0.2029 -0.10146,-0.61278 -0.48698,0.0487 -0.81975,0.3206 -0.45046,0.36117 -0.44234,0.61278 0.004,0.16639 0.36929,0.26784 0.36524,0.10145 1.10789,-0.21914 z m -0.2719,-1.56646 q -0.0162,-0.15827 -0.0284,-0.33277 h 0.7467 q 0.004,0.68178 0.15016,1.3879 0.0852,0.40987 0.31248,0.73047 0.1258,0.17856 0.58031,0.17856 h 0.45858 v 0.7467 h -0.68177 q -0.36524,0 -0.66149,-0.20696 -0.18261,-0.12581 -0.33683,-0.36524 -0.56002,0.29625 -1.1931,0.29625 -0.22726,0 -0.46263,-0.0609 -0.767,-0.1948 -0.767,-0.81976 0,-0.70206 0.82787,-1.21745 0.44234,-0.27595 1.05513,-0.33683 z M 132.0778,142.1839 h 0.7467 v 6.31451 h -0.7467 z m -3.06798,4.80893 q 0,0.72236 -0.35306,1.13223 -0.32466,0.37335 -1.42848,0.37335 h -2.36186 v -0.7467 h 2.1346 q 0.88468,0 1.06324,-0.17856 0.19885,-0.19885 0.19885,-0.62902 v -4.76023 h 0.74671 z m -6.17654,-1.58674 q 0.74265,0.32465 0.8441,0.93338 0.0325,0.2029 0.0325,0.37335 0,0.29624 -0.0893,0.49509 -0.11363,0.2719 -0.25972,0.47481 0.15421,0.069 0.75482,0.069 h 0.91308 v 0.7467 h -1.27832 q -0.55191,0 -1.30673,-0.23131 -0.74671,0.23131 -1.29862,0.23131 h -1.28238 v -0.7467 h 0.91715 q 0.59249,0 0.75482,-0.069 -0.12175,-0.16233 -0.26784,-0.47481 -0.0812,-0.18667 -0.0812,-0.49509 0,-0.17856 0.0325,-0.37335 0.0933,-0.58032 0.8441,-0.93338 0.12174,-0.0568 0.38147,-0.0568 0.25972,0 0.38958,0.0568 z m -0.2516,0.73047 q -0.0812,-0.0406 -0.13798,-0.0406 -0.0568,0 -0.12986,0.0406 -0.22726,0.12986 -0.32466,0.34494 -0.0406,0.0852 -0.0406,0.20291 0,0.1745 0.0974,0.38958 0.12174,0.27596 0.3977,0.36524 0.25972,-0.0852 0.40582,-0.36524 0.0974,-0.2029 0.0974,-0.38958 0,-0.0974 -0.0406,-0.20291 -0.0974,-0.21102 -0.32465,-0.34494 z m 0.0243,-2.30505 h 0.60873 v 0.60873 h -0.60873 z m -1.01454,0 h 0.60873 v 0.60873 h -0.60873 z m -4.00136,5.27563 h 0.60873 v 0.60873 h -0.60873 z m -1.01454,0 h 0.60872 v 0.60873 h -0.60872 z m 0.82381,-0.95773 q -0.30843,0.349 -1.18093,0.349 h -1.35949 v -0.7467 h 1.13629 q 0.65742,0 0.83598,-0.17856 0.19479,-0.19885 0.19479,-0.62902 v -0.88062 h 0.74671 v 0.88062 q 0,0.43017 0.20291,0.62902 0.17856,0.17856 0.84004,0.17856 h 1.20933 v 0.7467 h -1.43253 q -0.86845,0 -1.1931,-0.349 z m -5.07678,-1.15658 v -4.80893 h 0.7467 v 4.76023 q 0,0.43017 0.20291,0.62902 0.17856,0.17856 0.90903,0.17856 h 0.8441 v 0.7467 h -1.07136 q -0.94961,0 -1.27426,-0.37335 -0.35712,-0.40987 -0.35712,-1.13223 z m -4.97126,0.8928 q 0.70612,-0.20291 0.84004,-0.65337 0.0325,-0.10957 0.0325,-0.28001 0,-0.36929 -0.24349,-0.78729 -0.29625,-0.48698 -0.96991,-1.21339 h 0.92121 q 0.43422,0.43828 0.72641,0.9699 0.33277,0.61685 0.33277,1.04295 0,0.40176 -0.12986,0.70613 -0.32465,0.79134 -1.38789,0.95367 -0.18668,0.0284 -0.56815,0.0284 -0.61278,0 -1.03078,-0.15421 v -0.7467 q 0.46669,0.17044 1.00643,0.17044 0.33277,0 0.47075,-0.0365 z m -4.91039,-3.6483 h 0.60872 v 0.60873 h -0.60872 z m -1.01455,0 h 0.60873 v 0.60873 h -0.60873 z m 0.63714,2.01286 q -0.26784,0 -0.40176,0.35306 -0.10551,0.28001 -0.10146,0.77917 0.004,0.33277 0.22726,0.51133 0.23132,0.17856 0.46263,0.17856 0.3693,0 0.74671,-0.23132 0.30436,-0.18668 0.30436,-0.53162 0,-0.31248 -0.26784,-0.57626 -0.49915,-0.48698 -0.9699,-0.48292 z m -0.1461,-0.73048 q 0.80352,0 1.54211,0.64931 0.5722,0.50322 0.5722,1.10383 -0.004,0.81163 -0.60061,1.11599 -0.6696,0.34495 -1.20528,0.34495 -0.38958,0 -0.71829,-0.14204 -0.67772,-0.3003 -0.67772,-1.27021 0,-0.73453 0.15015,-1.05106 0.34089,-0.75077 0.93744,-0.75077 z M 89.402141,142.1839 h 0.746704 v 6.31451 h -0.746704 z m -3.067971,4.80893 q 0,0.72236 -0.353061,1.13223 -0.324654,0.37335 -1.428477,0.37335 h -2.361857 v -0.7467 h 2.134599 q 0.884682,0 1.063242,-0.17856 0.19885,-0.19885 0.19885,-0.62902 v -4.76023 h 0.746704 z m -6.935421,-2.95841 h 0.608726 v 0.60873 h -0.608726 z m 0.458573,1.29862 q 1.047009,0.21102 1.939808,0.60872 v 0.62496 q -0.263782,0.0812 -0.560028,0.24755 0.202908,0.31654 0.324653,0.45452 0.422051,0.48292 0.641192,0.48292 h 0.24349 v 0.7467 h -0.324654 q -0.612784,0 -1.115997,-0.68177 -0.162327,-0.21914 -0.40176,-0.61278 -0.280014,0.18667 -0.446399,0.33682 -0.588435,0.52351 -0.892798,0.63308 -0.896856,0.32465 -1.558339,0.32465 h -0.519446 v -0.7467 h 0.405817 q 0.921206,0 1.44471,-0.29219 0.42205,-0.23537 0.892799,-0.66554 0.381468,-0.349 0.791344,-0.49104 -0.336829,-0.0933 -0.754821,-0.18667 -0.344945,-0.0771 -1.075416,-0.14204 -0.33277,-0.0284 -0.986136,-0.004 v -0.7467 q 0.292188,-0.0284 0.596551,-0.0325 0.657425,0 1.35543,0.14204 z m -5.206639,1.65979 v -4.80893 h 0.746704 v 4.76023 q 0,0.43017 0.202909,0.62902 0.178559,0.17856 0.909031,0.17856 h 0.8441 v 0.7467 h -1.071358 q -0.949613,0 -1.274267,-0.37335 -0.357119,-0.40987 -0.357119,-1.13223 z m -5.015901,0.75888 h 0.523504 q 0.568144,0 0.864391,-0.18668 0.430166,-0.27595 0.430166,-0.56002 0,-0.18262 -0.162327,-0.33277 -0.146094,-0.13392 -0.401759,-0.13392 -0.28813,0 -0.71018,0.44234 -0.304363,0.31653 -0.543795,0.77105 z m -0.09334,0.7467 q -0.300305,0 -0.616843,-0.17044 -0.263781,-0.14204 -0.42205,-0.38958 -0.413934,0.56002 -0.795402,0.56002 h -0.527563 v -0.7467 h 0.304363 q 0.174502,0 0.324654,-0.17856 0.263782,-0.32465 0.263782,-0.73047 v -0.46263 h 0.746704 v 0.31653 q 0,0.0974 0.03652,0.25973 0.03652,0.16232 0.219142,0.36523 0.308421,-0.51944 0.507271,-0.76293 0.592494,-0.7183 1.20122,-0.7183 0.693947,0 1.063241,0.33277 0.353061,0.31654 0.353061,0.80758 0,0.77105 -0.746704,1.21339 -0.511329,0.30436 -1.026718,0.30436 z m -4.427467,-4.26108 h 0.608726 v 0.60873 h -0.608726 z m -1.014543,0 h 0.608726 v 0.60873 h -0.608726 z m 1.294557,3.11668 q -0.06087,-0.17044 -0.113629,-0.3693 -0.05276,-0.2029 -0.101454,-0.61278 -0.486981,0.0487 -0.819751,0.3206 -0.450457,0.36117 -0.442341,0.61278 0.0041,0.16639 0.369294,0.26784 0.365235,0.10145 1.107881,-0.21914 z m -0.271897,-1.56646 q -0.01623,-0.15827 -0.02841,-0.33277 h 0.746704 q 0.0041,0.68178 0.150153,1.3879 0.08522,0.40987 0.312479,0.73047 0.125804,0.17856 0.580319,0.17856 h 0.458574 v 0.7467 h -0.681774 q -0.365235,0 -0.661482,-0.20696 -0.182618,-0.12581 -0.336828,-0.36524 -0.560028,0.29625 -1.193103,0.29625 -0.227258,0 -0.462632,-0.0609 -0.766995,-0.1948 -0.766995,-0.81976 0,-0.70206 0.827867,-1.21745 0.442341,-0.27595 1.055126,-0.33683 z m -13.050989,2.36186 q -0.292189,0.349 -1.684142,0.349 h -0.864392 v -0.7467 h 0.641192 q 1.15658,0 1.335139,-0.17856 0.198851,-0.19885 0.198851,-0.62902 v -0.88062 h 0.746704 v 0.88062 q 0,0.75888 -0.373352,1.20528 z m -0.42205,0.95773 h 0.608726 v 0.60873 h -0.608726 z m -4.890102,-5.07272 v 0.33277 q -0.300305,0.0162 -0.454516,0.073 -0.324654,0.12174 -0.324654,0.25566 0,0.11363 0.05682,0.18668 0.0487,0.0649 0.324654,0.10551 0.413933,0.0609 0.413933,0.418 0,0.44639 -0.357119,0.61684 -0.33277,0.15827 -0.649308,0.15827 -0.267839,0 -0.495097,-0.0446 v -0.35712 q 0.275956,0.0406 0.458574,0.0406 0.24349,0 0.474806,-0.10551 0.24349,-0.10552 0.24349,-0.22726 0,-0.15421 -0.316537,-0.2232 -0.300305,-0.0649 -0.373352,-0.17856 -0.129862,-0.19073 -0.125803,-0.37741 0.0081,-0.32871 0.312479,-0.48292 0.344945,-0.1745 0.811635,-0.19074 z m 2.138657,-1.85052 v 4.76023 q 0,0.43017 0.198851,0.62902 0.178559,0.17856 0.284072,0.17856 h 0.304363 v 0.7467 h -0.527563 q -0.324653,0 -0.783227,-0.49915 -0.369294,0.31654 -0.68989,0.49915 -0.417992,0.21509 -1.225568,0.2232 -0.702064,0.008 -1.363547,-0.2232 -0.880623,-0.30842 -0.880623,-1.05512 0,-0.30436 0.06493,-0.51945 h 0.746704 q -0.05681,0.23538 -0.05681,0.41394 0,0.37741 0.624959,0.56002 0.491039,0.14204 0.8441,0.14204 0.474806,0 0.872507,-0.15421 0.328712,-0.14204 0.629017,-0.52756 0.211025,-0.2719 0.211025,-1.3392 v -3.83497 z m -6.537716,3.04768 h -0.856275 v -0.698 l 0.66554,-1.29862 h 0.523505 l -0.33277,1.29862 z m -0.856275,2.23606 h 0.856275 v 1.03077 h -0.856275 z"
         id="path5" />
      <path
         style="fill:#ff0d38"
         d="m 23.452961,162.35302 h 2.783908 v 0.68989 h -3.680764 v -0.68989 q 0.758878,-0.79946 1.327023,-1.41225 0.568144,-0.61278 0.783227,-0.86439 0.405818,-0.49509 0.547854,-0.79946 0.142036,-0.30842 0.142036,-0.62901 0,-0.50728 -0.300305,-0.79541 -0.296247,-0.28813 -0.815693,-0.28813 -0.369294,0 -0.775111,0.13392 -0.405818,0.13392 -0.860333,0.40582 v -0.82787 q 0.417992,-0.19885 0.819751,-0.3003 0.405817,-0.10146 0.79946,-0.10146 0.88874,0 1.428477,0.47481 0.543796,0.47075 0.543796,1.23774 0,0.38959 -0.182618,0.77917 -0.17856,0.38959 -0.584377,0.86034 -0.227258,0.26378 -0.661482,0.73047 -0.430167,0.46669 -1.314849,1.39601 z m 5.474477,-0.54785 h 1.02266 v 1.23774 h -1.02266 z"
         id="path6" />
      <path
         d="m 155.07944,162.69391 q -0.29219,0.349 -1.68414,0.349 h -0.8644 v -0.74671 h 0.6412 q 1.15658,0 1.33514,-0.17855 0.19885,-0.19886 0.19885,-0.62902 V 160.608 h 0.7467 v 0.88063 q 0,0.75888 -0.37335,1.20528 z m -0.42205,0.95772 h 0.60872 v 0.60873 h -0.60872 z m -4.9388,-1.35543 h 0.5235 q 0.56815,0 0.86439,-0.18667 0.43017,-0.27596 0.43017,-0.56003 0,-0.18262 -0.16233,-0.33277 -0.14609,-0.13392 -0.40176,-0.13392 -0.28813,0 -0.71018,0.44234 -0.30436,0.31654 -0.54379,0.77105 z m 2.56476,-0.77105 q 0,0.21508 -0.17044,0.49916 0.24755,0.27189 0.3977,0.27189 h 0.18262 v 0.74671 h -0.23537 q -0.37742,0 -0.72236,-0.3206 l -0.11363,-0.10551 q -0.50727,0.42611 -1.11194,0.42611 h -2.09807 -0.88469 v -0.74671 h 0.88469 v -5.56781 h 0.7467 v 5.13765 q 0.30842,-0.51945 0.50727,-0.76294 0.59249,-0.7183 1.20122,-0.7183 0.69395,0 1.06324,0.33278 0.35306,0.31653 0.35306,0.80757 z m -7.29254,0.0122 v -4.80894 h 0.74671 v 4.76024 q 0,0.43016 0.20291,0.62902 0.17856,0.17855 0.90903,0.17855 h 0.8441 v 0.74671 h -1.07136 q -0.94961,0 -1.27427,-0.37335 -0.35712,-0.40988 -0.35712,-1.13223 z m -4.96315,-0.67366 q 0.16639,-0.1745 0.16639,-0.48698 0,-0.23943 -0.26784,-0.4464 -0.1258,-0.10146 -0.30436,-0.0974 -0.21103,0.004 -0.37336,0.1745 -0.16232,0.16639 -0.16638,0.37336 0,0.32465 0.2232,0.47886 0.16233,0.10146 0.33277,0.10146 0.29219,0 0.38958,-0.0974 z m -2.50795,1.43253 h 0.97802 q 0.34089,0 0.95367,-0.0933 0.3206,-0.0487 0.56409,-0.42611 0.1258,-0.19479 0.18668,-0.3977 -0.25567,0.2232 -0.64931,0.23131 -0.52757,0.008 -0.8441,-0.27189 -0.3977,-0.35307 -0.3977,-0.87657 0,-0.21102 0.0325,-0.38958 0.0933,-0.60061 0.70207,-0.88063 0.31653,-0.14609 0.62495,-0.14609 0.36524,0 0.63308,0.20291 0.38958,0.29218 0.57626,0.70612 0.0933,0.20697 0.0933,0.77511 0,0.8441 -0.31654,1.42442 -0.3003,0.55191 -0.80352,0.73047 -0.44234,0.15827 -1.03077,0.15827 h -1.30268 z m 2.31316,-4.52892 h 0.60873 v 0.60873 h -0.60873 z m -1.01454,0 h 0.60872 v 0.60873 h -0.60872 z m -3.36423,1.01455 h 0.60873 v 0.60872 h -0.60873 z m -1.01454,0 h 0.60872 v 0.60872 h -0.60872 z m 1.29455,3.11667 q -0.0609,-0.17044 -0.11363,-0.36929 -0.0527,-0.20291 -0.10145,-0.61278 -0.48698,0.0487 -0.81975,0.32059 -0.45046,0.36118 -0.44234,0.61279 0.004,0.16638 0.36929,0.26784 0.36524,0.10145 1.10788,-0.21915 z m -0.27189,-1.56645 q -0.0162,-0.15827 -0.0284,-0.33277 h 0.7467 q 0.004,0.68177 0.15016,1.38789 0.0852,0.40988 0.31247,0.73048 0.12581,0.17855 0.58032,0.17855 h 0.45858 v 0.74671 h -0.68178 q -0.36523,0 -0.66148,-0.20697 -0.18262,-0.1258 -0.33683,-0.36523 -0.56003,0.29624 -1.1931,0.29624 -0.22726,0 -0.46263,-0.0609 -0.767,-0.19479 -0.767,-0.81975 0,-0.70206 0.82787,-1.21745 0.44234,-0.27596 1.05513,-0.33683 z m -13.39187,-3.60366 h 0.7467 v 6.31452 h -0.7467 z m -3.06799,4.80894 q 0,0.72235 -0.35306,1.13223 -0.32465,0.37335 -1.42847,0.37335 h -2.36186 v -0.74671 h 2.1346 q 0.88468,0 1.06324,-0.17855 0.19885,-0.19886 0.19885,-0.62902 v -4.76024 h 0.7467 z m -7.1018,0.75887 h 0.0771 q 0.17045,0 0.56003,-0.30842 0.46263,-0.36523 0.46263,-0.57626 0,-0.45451 -0.34088,-0.45451 -0.30437,0 -0.60467,0.5722 -0.15421,0.29219 -0.15421,0.76699 z m -0.74671,0 q 0.0365,-1.07947 0.56003,-1.5908 0.43828,-0.43422 0.96179,-0.43422 0.56003,0 0.84004,0.40176 0.18668,0.27189 0.18668,0.73452 0,0.45046 -0.66149,0.88874 h 1.98039 v 0.74671 h -1.98039 q 0.66149,0.43828 0.66149,0.88874 0,0.46263 -0.18668,0.73453 -0.28001,0.40176 -0.84004,0.40176 -0.52351,0 -0.96179,-0.43423 -0.5235,-0.51944 -0.56003,-1.5908 h -1.29861 v -0.74671 z m 0.74671,0.74671 q 0,0.47481 0.15421,0.76699 0.3003,0.57221 0.60467,0.57221 0.34088,0 0.34088,-0.45452 0,-0.21102 -0.46263,-0.57626 -0.38958,-0.30842 -0.56003,-0.30842 z m -3.60771,-0.74671 q 0,-0.30842 -0.0649,-0.53973 -0.0974,-0.32466 -0.28408,-0.4464 -0.24349,-0.16639 -0.48698,-0.0609 -0.2719,0.11768 -0.32465,0.34494 -0.069,0.30436 0.19073,0.52351 0.19074,0.16232 0.96991,0.17855 z m 0.72641,0 h 0.99831 v 0.74671 h -0.78729 l -0.28407,-0.004 q -0.10145,0.63308 -0.62496,1.15658 -0.33683,0.33683 -0.76293,0.52756 -0.77917,0.34901 -2.26041,0.34901 v -0.74671 q 1.465,0 2.00068,-0.30842 0.68178,-0.38553 0.93338,-0.98614 -0.47886,-0.0122 -0.66148,-0.0406 -0.56408,-0.0974 -0.77105,-0.2719 -0.43017,-0.36117 -0.47075,-0.90903 -0.008,-0.1258 0.0325,-0.35712 0.10957,-0.62901 0.8238,-0.93338 0.23944,-0.10145 0.50322,-0.0974 0.35306,0.008 0.63307,0.20697 0.53974,0.37335 0.62902,0.94555 0.0528,0.33683 0.069,0.72235 z m -6.50931,1.35543 h 0.60872 v 0.60873 h -0.60872 z m -1.01455,0 h 0.60873 v 0.60873 h -0.60873 z m 0.90092,-0.95772 q -0.29219,0.349 -1.68414,0.349 h -0.864396 v -0.74671 h 0.641196 q 1.15657,0 1.33513,-0.17855 0.19886,-0.19886 0.19886,-0.62902 V 160.608 h 0.7467 v 0.88063 q 0,0.75888 -0.37335,1.20528 z m -4.614149,-3.91208 h 0.608726 v 0.60872 h -0.608726 z m -1.014543,0 h 0.608726 v 0.60872 h -0.608726 z m 1.294557,3.11667 q -0.06087,-0.17044 -0.113629,-0.36929 -0.05276,-0.20291 -0.101454,-0.61278 -0.486981,0.0487 -0.819751,0.32059 -0.450458,0.36118 -0.442341,0.61279 0.0041,0.16638 0.369294,0.26784 0.365235,0.10145 1.107881,-0.21915 z m -0.271898,-1.56645 q -0.01623,-0.15827 -0.02841,-0.33277 h 0.746704 q 0.0041,0.68177 0.150153,1.38789 0.08522,0.40988 0.312479,0.73048 0.125803,0.17855 0.580319,0.17855 h 0.458575 v 0.74671 h -0.681775 q -0.365235,0 -0.661482,-0.20697 -0.182618,-0.1258 -0.336828,-0.36523 -0.560028,0.29624 -1.193104,0.29624 -0.227257,0 -0.462631,-0.0609 -0.766995,-0.19479 -0.766995,-0.81975 0,-0.70206 0.827867,-1.21745 0.442341,-0.27596 1.055125,-0.33683 z m -13.391866,-3.60366 h 0.746704 v 6.31452 h -0.746704 z m -3.067981,4.80894 q 0,0.72235 -0.353062,1.13223 -0.324653,0.37335 -1.428477,0.37335 h -2.361857 v -0.74671 h 2.1346 q 0.884681,0 1.063241,-0.17855 0.198851,-0.19886 0.198851,-0.62902 v -4.76024 h 0.746704 z m -6.935422,-2.95841 h 0.608726 v 0.60872 h -0.608726 z m 0.458574,1.29861 q 1.047009,0.21103 1.939807,0.60873 v 0.62496 q -0.263781,0.0812 -0.560028,0.24755 0.202909,0.31653 0.324654,0.45451 0.42205,0.48292 0.641191,0.48292 h 0.243491 v 0.74671 h -0.324654 q -0.612785,0 -1.115998,-0.68177 -0.162327,-0.21915 -0.401759,-0.61279 -0.280014,0.18668 -0.446399,0.33683 -0.588436,0.5235 -0.892799,0.63307 -0.896856,0.32466 -1.558338,0.32466 h -0.519447 v -0.74671 h 0.405818 q 0.921205,0 1.44471,-0.29218 0.42205,-0.23538 0.892798,-0.66554 0.381468,-0.34901 0.791344,-0.49104 -0.336829,-0.0933 -0.754821,-0.18668 -0.344944,-0.0771 -1.075416,-0.14204 -0.33277,-0.0284 -0.986136,-0.004 v -0.74671 q 0.292189,-0.0284 0.596552,-0.0325 0.657424,0 1.35543,0.14203 z m -5.206636,1.6598 v -4.80894 h 0.746704 v 4.76024 q 0,0.43016 0.202909,0.62902 0.178559,0.17855 0.909031,0.17855 h 0.8441 v 0.74671 h -1.071358 q -0.949613,0 -1.274267,-0.37335 -0.357119,-0.40988 -0.357119,-1.13223 z m -5.015901,0.75887 h 0.523504 q 0.568144,0 0.864391,-0.18667 0.430166,-0.27596 0.430166,-0.56003 0,-0.18262 -0.162327,-0.33277 -0.146094,-0.13392 -0.401759,-0.13392 -0.28813,0 -0.71018,0.44234 -0.304363,0.31654 -0.543795,0.77105 z m -0.09334,0.74671 q -0.300305,0 -0.616843,-0.17044 -0.263781,-0.14204 -0.42205,-0.38959 -0.413934,0.56003 -0.795402,0.56003 h -0.527563 v -0.74671 h 0.304363 q 0.174502,0 0.324654,-0.17855 0.263782,-0.32466 0.263782,-0.73048 v -0.46263 h 0.746704 v 0.31654 q 0,0.0974 0.03652,0.25972 0.03652,0.16233 0.219142,0.36524 0.308421,-0.51945 0.507271,-0.76294 0.592494,-0.7183 1.20122,-0.7183 0.693947,0 1.063241,0.33278 0.353061,0.31653 0.353061,0.80757 0,0.77105 -0.746704,1.2134 -0.511329,0.30436 -1.026718,0.30436 z m -4.427471,-4.26108 h 0.608727 v 0.60872 h -0.608727 z m -1.014543,0 h 0.608726 v 0.60872 h -0.608726 z m 1.294557,3.11667 q -0.06087,-0.17044 -0.113628,-0.36929 -0.05276,-0.20291 -0.101455,-0.61278 -0.486981,0.0487 -0.819751,0.32059 -0.450457,0.36118 -0.442341,0.61279 0.0041,0.16638 0.369294,0.26784 0.365236,0.10145 1.107881,-0.21915 z m -0.271897,-1.56645 q -0.01623,-0.15827 -0.02841,-0.33277 h 0.746704 q 0.0041,0.68177 0.150152,1.38789 0.08522,0.40988 0.312479,0.73048 0.125804,0.17855 0.580319,0.17855 h 0.458574 v 0.74671 h -0.681773 q -0.365236,0 -0.661483,-0.20697 -0.182617,-0.1258 -0.336828,-0.36523 -0.560028,0.29624 -1.193103,0.29624 -0.227258,0 -0.462632,-0.0609 -0.766995,-0.19479 -0.766995,-0.81975 0,-0.70206 0.827868,-1.21745 0.442341,-0.27596 1.055125,-0.33683 z m -13.050989,2.36186 q -0.292189,0.349 -1.684142,0.349 h -0.864391 v -0.74671 h 0.641191 q 1.15658,0 1.335139,-0.17855 0.198851,-0.19886 0.198851,-0.62902 V 160.608 h 0.746704 v 0.88063 q 0,0.75888 -0.373352,1.20528 z m -0.42205,0.95772 h 0.608726 v 0.60873 h -0.608726 z m -4.890098,-5.07271 v 0.33277 q -0.300305,0.0162 -0.454516,0.073 -0.324654,0.12175 -0.324654,0.25567 0,0.11363 0.05682,0.18668 0.0487,0.0649 0.324654,0.10551 0.413933,0.0609 0.413933,0.41799 0,0.4464 -0.357119,0.61684 -0.33277,0.15827 -0.649308,0.15827 -0.267839,0 -0.495097,-0.0446 v -0.35712 q 0.275956,0.0406 0.458574,0.0406 0.24349,0 0.474806,-0.10551 0.243491,-0.10551 0.243491,-0.22726 0,-0.15421 -0.316538,-0.2232 -0.300305,-0.0649 -0.373352,-0.17856 -0.129862,-0.19073 -0.125803,-0.37741 0.0081,-0.32871 0.312479,-0.48292 0.344945,-0.1745 0.811635,-0.19073 z m 2.138657,-1.85053 v 4.76024 q 0,0.43016 0.198851,0.62902 0.17856,0.17855 0.284072,0.17855 h 0.304363 v 0.74671 h -0.527563 q -0.324653,0 -0.783227,-0.49916 -0.369294,0.31654 -0.68989,0.49916 -0.417992,0.21508 -1.225568,0.2232 -0.702064,0.008 -1.363547,-0.2232 -0.880623,-0.30842 -0.880623,-1.05513 0,-0.30436 0.06493,-0.51944 h 0.746703 q -0.05681,0.23537 -0.05681,0.41393 0,0.37741 0.624959,0.56003 0.491039,0.14204 0.8441,0.14204 0.474806,0 0.872507,-0.15422 0.328712,-0.14203 0.629017,-0.52756 0.211025,-0.2719 0.211025,-1.3392 v -3.83497 z m 115.706357,5.07678 h 1.02266 v 1.23774 h -1.02266 z"
         id="path7" />
    </g>
  </g>
</svg>
