<?xml version="1.0" encoding="UTF-8" standalone="no"?>
<!-- Created with Inkscape (http://www.inkscape.org/) -->

<svg
   width="158.77451mm"
   height="61.597717mm"
   viewBox="0 0 158.77451 61.597717"
   version="1.1"
   id="svg1"
   inkscape:version="1.4 (e7c3feb100, 2024-10-09)"
   sodipodi:docname="bidi-RLI-expected.svg"
   xmlns:inkscape="http://www.inkscape.org/namespaces/inkscape"
   xmlns:sodipodi="http://sodipodi.sourceforge.net/DTD/sodipodi-0.dtd"
   xmlns="http://www.w3.org/2000/svg"
   xmlns:svg="http://www.w3.org/2000/svg">
  <sodipodi:namedview
     id="namedview1"
     pagecolor="#ffffff"
     bordercolor="#666666"
     borderopacity="1.0"
     inkscape:showpageshadow="2"
     inkscape:pageopacity="0.0"
     inkscape:pagecheckerboard="0"
     inkscape:deskcolor="#d1d1d1"
     inkscape:document-units="mm"
     inkscape:zoom="0.33695652"
     inkscape:cx="414"
     inkscape:cy="69.741936"
     inkscape:window-width="956"
     inkscape:window-height="964"
     inkscape:window-x="0"
     inkscape:window-y="76"
     inkscape:window-maximized="0"
     inkscape:current-layer="layer1" />
  <defs
     id="defs1" />
  <g
     inkscape:label="Calque 1"
     inkscape:groupmode="layer"
     id="layer1"
     transform="translate(9.5250006,-119.85625)">
    <g
       id="text13"
       style="font-size:8.31114px;line-height:1.75;font-family:'DejaVu Sans Mono';-inkscape-font-specification:'DejaVu Sans Mono';letter-spacing:0px;word-spacing:2.64583px;direction:rtl;fill:#ffffff;stroke-width:0.0577162"
       aria-label="⁧أرسل لي هاتين الوثيقتين:&#10;⁧1. رخصة القيادة الخاصة بك؛&#10;⁧2. بطاقة الهوية الخاصة بك.&#10;">
      <path
         d="m 134.6417,132.93107 h 0.7467 v 6.31452 h -0.7467 z m -0.3206,-0.60467 0.31654,-0.073 q -0.17856,-0.0812 -0.24349,-0.22726 -0.069,-0.15015 -0.0649,-0.33277 0.008,-0.38553 0.22725,-0.56409 0.22726,-0.18667 0.60873,-0.18262 0.24755,0.004 0.46263,0.13392 v 0.40582 q -0.20697,-0.13392 -0.46263,-0.13392 -0.26784,0 -0.33683,0.073 -0.11769,0.12986 -0.11769,0.23537 0,0.31248 0.38147,0.42205 0.13392,0.0406 0.6209,-0.0771 v 0.41393 l -1.39195,0.31248 z m -3.15321,6.29423 q 0.0406,-0.23537 0.0406,-0.52756 0,-0.51133 -0.21508,-1.06324 h 0.7467 q 0.20291,0.47886 0.20291,1.01454 0,0.33277 -0.0325,0.58438 -0.16638,1.34325 -1.50964,2.04532 -1.10788,0.58032 -3.10044,0.61684 v -0.7467 q 1.80183,0 2.69463,-0.51945 1.03483,-0.59249 1.17281,-1.40413 z m -6.68787,-0.10957 q 0.2719,0 0.44234,-0.47075 0.15016,-0.41799 0.15016,-1.20528 h 0.6696 q -0.0203,0.66149 0.13392,1.23369 0.1258,0.48698 0.3003,0.48698 0.42205,0 0.42205,-1.13629 v -1.1931 h 0.66554 v 1.38789 q 0,0.64525 -0.25161,1.26615 -0.13392,0.33277 -0.47886,0.47075 -0.0893,0.0365 -0.40582,0.0365 -0.26784,0 -0.36523,-0.10146 -0.26379,-0.2719 -0.36524,-0.78323 -0.1258,0.44235 -0.40987,0.6696 -0.20697,0.17045 -0.50322,0.17045 -0.20291,0 -0.53162,-0.25973 -0.17856,-0.14203 -0.22726,-0.3977 -0.0852,0.23132 -0.36523,0.40988 -0.23943,0.15015 -0.64931,0.15015 h -0.28407 v -0.7467 h 0.17044 q 0.30842,0 0.45452,-0.14204 0.28407,-0.28813 0.28407,-0.76699 v -0.77917 h 0.66554 v 0.63307 q 0,0.3206 0.10551,0.72641 0.0852,0.34089 0.37335,0.34089 z m -2.74738,-5.57999 v 4.76024 q 0,0.43017 0.19885,0.62902 0.17856,0.17856 0.35306,0.17856 h 0.30436 v 0.7467 h -0.52756 q -0.22726,0 -0.5438,-0.20697 -0.0609,0.37741 -0.26784,0.63308 -0.42205,0.51133 -0.94555,0.70206 -0.38147,0.13798 -0.88874,0.13798 -0.40176,0 -0.88468,-0.17044 -0.98208,-0.34901 -0.98614,-1.40007 -0.004,-0.56003 0.25567,-0.93338 h 0.7467 q -0.26378,0.46669 -0.26378,0.93338 0,0.51133 0.67366,0.77917 0.16232,0.0649 0.45857,0.0649 0.42611,0 0.76699,-0.13798 0.40176,-0.16639 0.68178,-0.69801 0.12174,-0.23131 0.12174,-1.43253 v -4.58574 z m -12.81968,4.80894 q 0,0.72235 -0.35306,1.13223 -0.32465,0.37335 -1.42848,0.37335 h -2.36185 v -0.7467 h 2.1346 q 0.88468,0 1.06324,-0.17856 0.19885,-0.19885 0.19885,-0.62902 v -4.76024 h 0.7467 z m -5.94522,1.29861 q -0.008,-0.17856 -0.0446,-0.22725 -0.0974,-0.1461 -0.19479,-0.24755 -0.17856,-0.18668 -0.17856,-0.43423 0,-0.31654 0.16639,-0.50727 0.31248,-0.36929 0.66554,-0.43828 0.11768,-0.0243 0.29624,-0.0243 0.52757,0 0.71424,0.56003 0.25972,0.77917 0.3977,0.77917 h 0.14204 v 0.7467 h -0.14204 q -0.51539,0 -0.78728,-0.69801 -0.25973,-0.66959 -0.38147,-0.66959 -0.13798,0.004 -0.20291,0.069 -0.0812,0.073 -0.0812,0.20291 0,0.0122 0.17044,0.29219 0.21508,0.35306 0.21508,0.59655 0,0.33683 -0.31653,0.67366 -0.42205,0.45046 -1.15658,0.55597 -0.56815,0.0812 -0.87657,0.0812 -0.49104,0 -1.08759,-0.14609 -0.925264,-0.22726 -0.973962,-1.03078 -0.02435,-0.37335 0.121745,-0.93338 h 0.722357 q -0.10551,0.32466 -0.10551,0.79541 0.004,0.43016 0.57626,0.53567 0.28001,0.0528 0.73858,0.0528 0.52757,0 0.76294,-0.069 0.51945,-0.15015 0.60061,-0.21102 0.24349,-0.18668 0.23943,-0.30437 z m -1.32702,1.62733 h 0.60873 v 0.60873 h -0.60873 z m -1.01454,0 h 0.60872 v 0.60873 h -0.60872 z m -11.63875,-2.51201 q 0.146094,-0.10957 0.284072,-0.36929 0.158269,-0.29219 0.158269,-0.53974 0,-0.18668 -0.06087,-0.33683 -0.08928,-0.21102 -0.324654,-0.21102 -0.263782,0 -0.35712,0.18261 -0.08928,0.17451 -0.08928,0.31654 0,0.12175 0.02841,0.2719 0.08522,0.47886 0.361177,0.68583 z m -1.286441,0.34495 q 0.211025,0 0.527563,-0.0446 -0.182618,-0.42611 -0.243491,-0.70613 -0.07305,-0.31653 -0.07305,-0.57626 0,-0.34088 0.182618,-0.67771 0.194792,-0.36524 0.507272,-0.32871 -0.17856,-0.15827 -0.507272,-0.21509 v -0.75076 q 0.88874,0.2719 1.781538,1.00237 1.059184,0.86845 1.298616,1.74907 0.05681,0.21103 0.05681,0.44234 0,0.418 -0.162327,0.66554 -0.300305,0.45858 -1.010485,0.45858 -0.531621,0 -1.156579,-0.43828 -0.486981,0.16638 -1.079475,0.16638 h -0.71018 v -0.7467 z m 2.337508,-1.31485 q 0.02435,0.15015 0.02435,0.30842 0,0.56003 -0.397701,1.02266 -0.0487,0.0568 -0.117687,0.13392 0.211025,0.18667 0.409876,0.18667 0.51133,0 0.57626,-0.27189 0.02841,-0.12175 0.02841,-0.25567 0,-0.24349 -0.13392,-0.56003 -0.117687,-0.28001 -0.389585,-0.56408 z m -5.462304,0.55597 v -4.80894 h 0.746704 v 4.76024 q 0,0.43017 0.202908,0.62902 0.17856,0.17856 0.909031,0.17856 h 0.844101 v 0.7467 h -1.071358 q -0.949613,0 -1.274267,-0.37335 -0.357119,-0.40988 -0.357119,-1.13223 z m -4.739942,-2.55259 h 0.608726 v 0.60872 h -0.608726 z m -1.014544,0 h 0.608727 v 0.60872 h -0.608727 z m 0.831926,3.70917 q -0.292188,0.349 -1.684142,0.349 H 77.1051 v -0.7467 h 0.641191 q 1.15658,0 1.33514,-0.17856 0.19885,-0.19885 0.19885,-0.62902 v -0.88062 h 0.746704 v 0.88062 q 0,0.75888 -0.373352,1.20528 z m -4.821109,0.95773 h 0.608726 v 0.60872 h -0.608726 z m -1.014543,0 h 0.608726 v 0.60872 h -0.608726 z m 0.823809,-0.95773 q -0.308421,0.349 -1.180929,0.349 h -1.359488 v -0.7467 h 1.136289 q 0.657424,0 0.835983,-0.17856 0.194793,-0.19885 0.194793,-0.62902 v -0.88062 h 0.746704 v 0.88062 q 0,0.43017 0.202908,0.62902 0.17856,0.17856 0.840042,0.17856 h 1.209336 v 0.7467 h -1.432535 q -0.868449,0 -1.193103,-0.349 z m -5.941165,-2.43897 h 0.608726 v 0.60873 h -0.608726 z m 2.406497,3.86339 q -0.288131,0.47074 -0.864391,0.71423 -0.568145,0.23944 -1.091649,0.23944 -0.698006,0 -1.197161,-0.25567 -0.949613,-0.48698 -0.949613,-1.59892 0,-0.70612 0.215083,-1.28238 h 0.746704 q -0.223199,0.70612 -0.223199,1.28238 0,0.73047 0.653366,1.00237 0.231316,0.0974 0.75482,0.0974 0.340887,0 0.596552,-0.0812 0.637133,-0.20696 0.872507,-0.88468 0.13392,-0.38147 0.13392,-0.86439 0,-0.7467 -0.409876,-1.57051 h 0.746704 q 0.06899,0.20696 0.211025,0.55191 0.137978,0.34089 0.263781,0.56814 0.142037,0.25973 0.491039,0.25973 h 0.211026 v 0.7467 h -0.381469 q -0.353061,0 -0.409875,-0.19479 -0.02435,0.70206 -0.369294,1.27021 z m -14.455115,-7.38994 h 0.746704 v 6.31452 h -0.746704 z m -3.067982,4.80894 q 0,0.72235 -0.353061,1.13223 -0.324654,0.37335 -1.428478,0.37335 h -2.361857 v -0.7467 h 2.1346 q 0.884682,0 1.063241,-0.17856 0.198851,-0.19885 0.198851,-0.62902 v -4.76024 h 0.746704 z m -5.705791,0.75888 q 0,-0.30842 -0.06493,-0.53974 -0.0974,-0.32465 -0.284072,-0.4464 -0.243491,-0.16639 -0.486981,-0.0609 -0.271898,0.11768 -0.324654,0.34494 -0.06899,0.30437 0.190734,0.52351 0.190734,0.16232 0.969904,0.17856 z m 0.726413,0 h 0.998311 v 0.7467 h -0.787286 l -0.284072,-0.004 q -0.101455,0.63308 -0.624959,1.15658 -0.336828,0.33683 -0.762937,0.52756 -0.779169,0.34901 -2.260403,0.34901 v -0.74671 q 1.465001,0 2.00068,-0.30842 0.681773,-0.38552 0.93338,-0.98613 -0.478864,-0.0122 -0.661482,-0.0406 -0.564086,-0.0974 -0.771053,-0.27189 -0.430167,-0.36118 -0.470748,-0.90903 -0.0081,-0.12581 0.03246,-0.35712 0.109571,-0.62902 0.823809,-0.93338 0.239433,-0.10146 0.503214,-0.0974 0.353061,0.008 0.633075,0.20697 0.539737,0.37335 0.629017,0.94555 0.05276,0.33683 0.06899,0.72236 z m -6.622944,0.3977 q -0.292189,0.349 -1.684142,0.349 H 39.43317 v -0.7467 h 0.641191 q 1.15658,0 1.335139,-0.17856 0.198851,-0.19885 0.198851,-0.62902 v -0.88062 h 0.746704 v 0.88062 q 0,0.75888 -0.373352,1.20528 z m -0.288131,-4.72372 h 0.608727 v 0.60873 h -0.608727 z m 0.507272,1.01455 h 0.608726 v 0.60872 h -0.608726 z m -1.014543,0 h 0.608726 v 0.60872 h -0.608726 z m -4.025707,4.6669 h 0.608726 v 0.60872 h -0.608726 z m -1.014544,0 h 0.608726 v 0.60872 H 36.14605 Z m 0.823809,-0.95773 q -0.308421,0.349 -1.180928,0.349 h -1.359488 v -0.7467 h 1.136288 q 0.657425,0 0.835984,-0.17856 0.194792,-0.19885 0.194792,-0.62902 v -0.88062 h 0.746704 v 0.88062 q 0,0.43017 0.202909,0.62902 0.17856,0.17856 0.840042,0.17856 h 1.209336 v 0.7467 h -1.432535 q -0.86845,0 -1.193104,-0.349 z m -4.573562,-2.74333 q 0.742646,0.32466 0.8441,0.93338 0.03247,0.20291 0.03247,0.37335 0,0.29625 -0.08928,0.4951 -0.113629,0.2719 -0.259723,0.47481 0.15421,0.069 0.75482,0.069 h 0.913089 v 0.7467 h -1.278325 q -0.551911,0 -1.306732,-0.23132 -0.746704,0.23132 -1.298615,0.23132 h -1.282383 v -0.7467 h 0.917147 q 0.592493,0 0.75482,-0.069 -0.121745,-0.16233 -0.267839,-0.47481 -0.08116,-0.18668 -0.08116,-0.4951 0,-0.17856 0.03247,-0.37335 0.09334,-0.58032 0.8441,-0.93338 0.121745,-0.0568 0.381468,-0.0568 0.259723,0 0.389585,0.0568 z m -0.251607,0.73047 q -0.08116,-0.0406 -0.137978,-0.0406 -0.05681,0 -0.129861,0.0406 -0.227258,0.12986 -0.324654,0.34495 -0.04058,0.0852 -0.04058,0.20291 0,0.1745 0.0974,0.38958 0.121746,0.27596 0.397701,0.36524 0.259723,-0.0852 0.405818,-0.36524 0.0974,-0.20291 0.0974,-0.38958 0,-0.0974 -0.04058,-0.20291 -0.0974,-0.21103 -0.324654,-0.34495 z m 0.02435,-2.30504 h 0.608726 v 0.60873 h -0.608726 z m -1.014543,0 h 0.608726 v 0.60873 h -0.608726 z m -4.001357,0.60873 h 0.608726 v 0.60872 h -0.608726 z m -1.014544,0 h 0.608726 v 0.60872 h -0.608726 z m 0.82381,3.70917 q -0.308422,0.349 -1.180929,0.349 h -1.359488 v -0.7467 h 1.136288 q 0.657425,0 0.835984,-0.17856 0.194793,-0.19885 0.194793,-0.62902 v -0.88062 h 0.746704 v 0.88062 q 0,0.43017 0.202908,0.62902 0.17856,0.17856 0.840042,0.17856 h 1.209336 v 0.7467 h -1.432535 q -0.868449,0 -1.193103,-0.349 z m -4.812995,0.95773 h 0.608726 v 0.60872 H 22.14941 Z m -1.014544,0 h 0.608727 v 0.60872 h -0.608727 z m 0.82381,-0.95773 q -0.308421,0.349 -1.180929,0.349 h -1.359488 v -0.7467 h 1.136289 q 0.657424,0 0.835983,-0.17856 0.194793,-0.19885 0.194793,-0.62902 v -0.88062 h 0.746704 v 0.88062 q 0,0.43017 0.202908,0.62902 0.17856,0.17856 0.840042,0.17856 h 1.209336 v 0.7467 h -1.432535 q -0.868449,0 -1.193103,-0.349 z m -5.941168,-2.43897 h 0.608726 v 0.60873 h -0.608726 z m 2.406497,3.86339 q -0.28813,0.47074 -0.864391,0.71423 -0.568144,0.23944 -1.091648,0.23944 -0.698006,0 -1.197162,-0.25567 -0.949612,-0.48698 -0.949612,-1.59892 0,-0.70612 0.215083,-1.28238 h 0.746704 q -0.2232,0.70612 -0.2232,1.28238 0,0.73047 0.653366,1.00237 0.231316,0.0974 0.754821,0.0974 0.340886,0 0.596551,-0.0812 0.637133,-0.20696 0.872507,-0.88468 0.13392,-0.38147 0.13392,-0.86439 0,-0.7467 -0.409875,-1.57051 h 0.746704 q 0.06899,0.20696 0.211025,0.55191 0.137978,0.34089 0.263781,0.56814 0.142036,0.25973 0.491039,0.25973 h 0.211025 v 0.7467 h -0.381468 q -0.353061,0 -0.409876,-0.19479 -0.02435,0.70206 -0.369294,1.27021 z m -6.947593,-5.38926 h 1.02266 v 1.22963 h -1.02266 z m 0,3.0761 h 1.02266 v 1.23774 h -1.02266 z"
         id="path1" />
      <path
         d="m 133.61091,153.1002 h 1.27427 v -4.63038 l -1.37166,0.30842 v -0.7467 l 1.36355,-0.30031 h 0.81975 v 5.36897 h 1.25803 v 0.68989 h -3.34394 z m -4.11498,-0.54786 h 1.02266 v 1.23775 h -1.02266 z m -10.98133,0.61279 q 0.0406,-0.23538 0.0406,-0.52757 0,-0.51133 -0.21508,-1.06324 h 0.7467 q 0.20291,0.47887 0.20291,1.01455 0,0.33277 -0.0325,0.58437 -0.16639,1.34326 -1.50964,2.04532 -1.10788,0.58032 -3.10045,0.61684 v -0.7467 q 1.80183,0 2.69463,-0.51945 1.03483,-0.59249 1.17281,-1.40412 z m -6.52959,-3.83904 h 0.60872 v 0.60873 h -0.60872 z m 1.32296,2.26852 q -0.33683,-0.0933 -0.75482,-0.18667 -0.34494,-0.0771 -1.07542,-0.14204 -0.33277,-0.0284 -0.98613,-0.004 v -0.7467 q 0.29219,-0.0284 0.59655,-0.0325 0.65742,0 1.35543,0.14204 1.04701,0.21102 1.93981,0.60873 v 0.62495 q -0.30843,0.0974 -0.66554,0.30843 -0.67366,0.3977 -0.97397,0.66554 -0.58843,0.5235 -0.89279,0.63307 -0.89686,0.32466 -1.55834,0.32466 h -0.51945 v -0.74671 h 0.40582 q 0.9212,0 1.44471,-0.29219 0.42205,-0.23537 0.8928,-0.66554 0.38146,-0.349 0.79134,-0.49104 z m -6.39163,1.44877 h 0.52351 q 0.56814,0 0.86439,-0.18667 0.43017,-0.27596 0.43017,-0.56003 0,-0.18262 -0.16233,-0.33277 -0.1461,-0.13392 -0.40176,-0.13392 -0.28813,0 -0.71018,0.44234 -0.30436,0.31654 -0.5438,0.77105 z m -0.0933,0.74671 q -0.30031,0 -0.61685,-0.17045 -0.26378,-0.14203 -0.42205,-0.38958 -0.41393,0.56003 -0.68989,0.56003 h -0.32465 v -0.74671 h 0.10551 q 0.12581,0 0.29625,-0.18667 0.18262,-0.20291 0.18262,-0.72236 v -0.46263 h 0.7467 v 0.31654 q 0,0.0974 0.0365,0.25972 0.0365,0.16233 0.21915,0.36523 0.30842,-0.51944 0.50727,-0.76293 0.59249,-0.7183 1.20122,-0.7183 0.69394,0 1.06324,0.33277 0.35306,0.31654 0.35306,0.80758 0,0.21102 -0.1258,0.49915 0.0649,0.0406 0.12174,0.0933 0.18668,0.17856 0.30031,0.17856 h 0.15827 v 0.74671 h -0.23944 q -0.21102,0 -0.62496,-0.38147 l -0.11362,-0.10552 q -0.69801,0.48699 -1.24992,0.48699 z m -4.11905,-4.26109 h 0.60872 v 0.60873 h -0.60872 z m -1.01455,0 h 0.60873 v 0.60873 h -0.60873 z m 1.29456,3.11668 q -0.0609,-0.17044 -0.11363,-0.36929 -0.0528,-0.20291 -0.10145,-0.61279 -0.48698,0.0487 -0.81975,0.3206 -0.45046,0.36118 -0.44234,0.61278 0.004,0.16639 0.36929,0.26784 0.36524,0.10146 1.10788,-0.21914 z m -0.2719,-1.56645 q -0.0162,-0.15827 -0.0284,-0.33278 h 0.7467 q 0.004,0.68178 0.15015,1.3879 0.0852,0.40988 0.31248,0.73047 0.12581,0.17856 0.58032,0.17856 h 0.45857 v 0.74671 h -0.68177 q -0.36523,0 -0.66148,-0.20697 -0.18262,-0.1258 -0.33683,-0.36524 -0.56003,0.29625 -1.1931,0.29625 -0.22726,0 -0.46263,-0.0609 -0.767,-0.1948 -0.767,-0.81975 0,-0.70207 0.82787,-1.21746 0.44234,-0.27595 1.05512,-0.33682 z m -13.391866,-3.60366 h 0.746704 v 6.31452 h -0.746704 z m -3.067982,4.80893 q 0,0.72236 -0.353061,1.13223 -0.324654,0.37336 -1.428478,0.37336 h -2.361857 v -0.74671 h 2.1346 q 0.884682,0 1.063241,-0.17856 0.198851,-0.19885 0.198851,-0.62902 v -4.76023 h 0.746704 z m -6.176543,-1.58674 q 0.742646,0.32465 0.8441,0.93338 0.03246,0.20291 0.03246,0.37335 0,0.29625 -0.08928,0.4951 -0.113628,0.27189 -0.259723,0.4748 0.154211,0.069 0.754821,0.069 h 0.913089 v 0.74671 h -1.278325 q -0.551912,0 -1.306732,-0.23132 -0.746704,0.23132 -1.298616,0.23132 h -1.282383 v -0.74671 h 0.917148 q 0.592493,0 0.75482,-0.069 -0.121745,-0.16232 -0.267839,-0.4748 -0.08116,-0.18668 -0.08116,-0.4951 0,-0.17856 0.03247,-0.37335 0.09334,-0.58032 0.8441,-0.93338 0.121745,-0.0568 0.381468,-0.0568 0.259723,0 0.389585,0.0568 z m -0.251607,0.73047 q -0.08116,-0.0406 -0.137978,-0.0406 -0.05681,0 -0.129862,0.0406 -0.227257,0.12986 -0.324653,0.34494 -0.04058,0.0852 -0.04058,0.20291 0,0.1745 0.0974,0.38959 0.121745,0.27595 0.397701,0.36523 0.259723,-0.0852 0.405817,-0.36523 0.0974,-0.20291 0.0974,-0.38959 0,-0.0974 -0.04058,-0.20291 -0.0974,-0.21102 -0.324654,-0.34494 z m 0.02435,-2.30504 h 0.608726 v 0.60872 h -0.608726 z m -1.014543,0 h 0.608726 v 0.60872 h -0.608726 z m -4.001355,5.27562 h 0.608726 v 0.60873 h -0.608726 z m -1.014543,0 h 0.608726 v 0.60873 H 73.81798 Z m 0.823809,-0.95773 q -0.308421,0.34901 -1.180928,0.34901 h -1.359489 v -0.74671 h 1.136289 q 0.657424,0 0.835984,-0.17856 0.194792,-0.19885 0.194792,-0.62902 v -0.88062 h 0.746704 v 0.88062 q 0,0.43017 0.202909,0.62902 0.178559,0.17856 0.840042,0.17856 h 1.209336 v 0.74671 h -1.432536 q -0.868449,0 -1.193103,-0.34901 z m -5.076778,-1.15658 v -4.80893 h 0.746704 v 4.76023 q 0,0.43017 0.202909,0.62902 0.17856,0.17856 0.909031,0.17856 h 0.8441 v 0.74671 h -1.071358 q -0.949613,0 -1.274266,-0.37336 -0.35712,-0.40987 -0.35712,-1.13223 z m -4.971265,0.8928 q 0.706122,-0.20291 0.840042,-0.65336 0.03246,-0.10958 0.03246,-0.28002 0,-0.36929 -0.24349,-0.78728 -0.296247,-0.48699 -0.969904,-1.2134 h 0.921206 q 0.434224,0.43828 0.726413,0.9699 0.33277,0.61685 0.33277,1.04296 0,0.40175 -0.129861,0.70612 -0.324654,0.79134 -1.387896,0.95367 -0.186676,0.0284 -0.568144,0.0284 -0.612785,0 -1.030776,-0.15421 v -0.74671 q 0.46669,0.17044 1.006427,0.17044 0.33277,0 0.470748,-0.0365 z m -4.910381,-3.6483 h 0.608726 v 0.60873 h -0.608726 z m -1.014544,0 h 0.608726 v 0.60873 h -0.608726 z m 0.637133,2.01286 q -0.267839,0 -0.401759,0.35306 -0.105512,0.28001 -0.101454,0.77917 0.0041,0.33277 0.227258,0.51133 0.231315,0.17856 0.462631,0.17856 0.369294,0 0.746704,-0.23132 0.304363,-0.18667 0.304363,-0.53162 0,-0.31248 -0.267839,-0.57626 -0.499155,-0.48698 -0.969904,-0.48292 z m -0.146094,-0.73047 q 0.803519,0 1.542106,0.6493 0.572203,0.50322 0.572203,1.10383 -0.0041,0.81163 -0.60061,1.11599 -0.669599,0.34495 -1.205278,0.34495 -0.389584,0 -0.718296,-0.14204 -0.677716,-0.3003 -0.677716,-1.27021 0,-0.73452 0.150153,-1.05106 0.340887,-0.75076 0.937438,-0.75076 z m -12.515312,-3.33582 h 0.746704 v 6.31452 h -0.746704 z m -3.067978,4.80893 q 0,0.72236 -0.353061,1.13223 -0.324654,0.37336 -1.428477,0.37336 h -2.361857 v -0.74671 h 2.134599 q 0.884682,0 1.063242,-0.17856 0.19885,-0.19885 0.19885,-0.62902 v -4.76023 h 0.746704 z m -6.935421,-2.95841 h 0.608726 v 0.60873 h -0.608726 z m 0.458573,1.29862 q 1.047009,0.21102 1.939807,0.60873 v 0.62495 q -0.263781,0.0812 -0.560028,0.24755 0.202909,0.31654 0.324654,0.45452 0.42205,0.48292 0.641192,0.48292 h 0.24349 v 0.74671 h -0.324654 q -0.612784,0 -1.115998,-0.68178 -0.162326,-0.21914 -0.401759,-0.61278 -0.280014,0.18667 -0.446399,0.33683 -0.588435,0.5235 -0.892798,0.63307 -0.896857,0.32466 -1.558339,0.32466 h -0.519446 v -0.74671 h 0.405817 q 0.921206,0 1.44471,-0.29219 0.42205,-0.23537 0.892798,-0.66554 0.381469,-0.349 0.791344,-0.49104 -0.336828,-0.0933 -0.75482,-0.18667 -0.344945,-0.0771 -1.075416,-0.14204 -0.33277,-0.0284 -0.986136,-0.004 v -0.7467 q 0.292188,-0.0284 0.596551,-0.0325 0.657424,0 1.35543,0.14204 z m -5.206635,1.65979 v -4.80893 h 0.746704 v 4.76023 q 0,0.43017 0.202908,0.62902 0.17856,0.17856 0.909031,0.17856 h 0.8441 v 0.74671 h -1.071357 q -0.949613,0 -1.274267,-0.37336 -0.357119,-0.40987 -0.357119,-1.13223 z m -5.015904,0.75888 h 0.523505 q 0.568144,0 0.864391,-0.18667 0.430166,-0.27596 0.430166,-0.56003 0,-0.18262 -0.162327,-0.33277 -0.146094,-0.13392 -0.401759,-0.13392 -0.28813,0 -0.71018,0.44234 -0.304363,0.31654 -0.543796,0.77105 z m -0.09334,0.74671 q -0.300305,0 -0.616842,-0.17045 -0.263781,-0.14203 -0.42205,-0.38958 -0.413934,0.56003 -0.795402,0.56003 h -0.527563 v -0.74671 h 0.304363 q 0.174502,0 0.324654,-0.17856 0.263781,-0.32465 0.263781,-0.73047 v -0.46263 h 0.746704 v 0.31654 q 0,0.0974 0.03652,0.25972 0.03652,0.16233 0.219141,0.36523 0.308421,-0.51944 0.507272,-0.76293 0.592493,-0.7183 1.201219,-0.7183 0.693948,0 1.063242,0.33277 0.353061,0.31654 0.353061,0.80758 0,0.77105 -0.746704,1.21339 -0.51133,0.30437 -1.026718,0.30437 z m -4.42747,-4.26109 h 0.608726 v 0.60873 h -0.608726 z m -1.014543,0 h 0.608726 v 0.60873 h -0.608726 z m 1.294557,3.11668 q -0.06087,-0.17044 -0.113629,-0.36929 -0.05276,-0.20291 -0.101454,-0.61279 -0.486981,0.0487 -0.819751,0.3206 -0.450457,0.36118 -0.442341,0.61278 0.0041,0.16639 0.369294,0.26784 0.365235,0.10146 1.107881,-0.21914 z m -0.271897,-1.56645 q -0.01623,-0.15827 -0.02841,-0.33278 h 0.746704 q 0.0041,0.68178 0.150153,1.3879 0.08522,0.40988 0.312479,0.73047 0.125803,0.17856 0.580319,0.17856 h 0.458574 v 0.74671 h -0.681774 q -0.365235,0 -0.661482,-0.20697 -0.182618,-0.1258 -0.336828,-0.36524 -0.560028,0.29625 -1.193103,0.29625 -0.227258,0 -0.462632,-0.0609 -0.766995,-0.1948 -0.766995,-0.81975 0,-0.70207 0.827867,-1.21746 0.442341,-0.27595 1.055126,-0.33682 z m -13.0509865,2.36185 q -0.2921886,0.34901 -1.6841422,0.34901 h -0.864391 v -0.74671 h 0.6411914 q 1.1565796,0 1.3351392,-0.17856 0.1988506,-0.19885 0.1988506,-0.62902 v -0.88062 h 0.7467039 v 0.88062 q 0,0.75888 -0.3733519,1.20528 z m -0.4220501,0.95773 h 0.608726 v 0.60873 h -0.608726 z m -4.8901005,-5.07272 v 0.33277 q -0.3003049,0.0162 -0.4545155,0.073 -0.3246539,0.12175 -0.3246539,0.25567 0,0.11363 0.056814,0.18667 0.048698,0.0649 0.324654,0.10551 0.4139337,0.0609 0.4139337,0.418 0,0.4464 -0.3571193,0.61684 -0.3327703,0.15827 -0.6493078,0.15827 -0.2678395,0 -0.4950972,-0.0446 v -0.35712 q 0.2759558,0.0406 0.4585736,0.0406 0.2434904,0 0.4748063,-0.10551 0.2434905,-0.10551 0.2434905,-0.22726 0,-0.15421 -0.3165376,-0.2232 -0.3003048,-0.0649 -0.373352,-0.17856 -0.1298615,-0.19073 -0.1258034,-0.37741 0.00812,-0.32871 0.3124794,-0.48292 0.3449448,-0.1745 0.8116348,-0.19074 z m 2.1386576,-1.85052 v 4.76023 q 0,0.43017 0.1988505,0.62902 0.1785597,0.17856 0.2840722,0.17856 h 0.304363 v 0.74671 H 6.3997356 q -0.3246539,0 -0.7832275,-0.49916 -0.3692938,0.31654 -0.6898896,0.49916 -0.4179919,0.21508 -1.2255685,0.22319 -0.702064,0.008 -1.3635464,-0.22319 -0.8806237,-0.30843 -0.8806237,-1.05513 0,-0.30436 0.064931,-0.51945 h 0.746704 q -0.056814,0.23538 -0.056814,0.41394 0,0.37741 0.6249588,0.56003 0.491039,0.14203 0.8441002,0.14203 0.4748063,0 0.8725073,-0.15421 0.3287121,-0.14204 0.629017,-0.52756 0.211025,-0.2719 0.211025,-1.3392 v -3.83497 z m -6.53771759,3.04769 H -1.2539798 v -0.69801 l 0.66554054,-1.29862 h 0.52350443 l -0.33277026,1.29862 z m -0.85627471,2.23605 h 0.85627471 v 1.03078 H -1.2539798 Z"
         id="path2" />
      <path
         d="m 134.02891,167.64469 h 2.7839 v 0.68989 h -3.68076 v -0.68989 q 0.75888,-0.79946 1.32702,-1.41224 0.56815,-0.61279 0.78323,-0.86439 0.40582,-0.4951 0.54785,-0.79946 0.14204,-0.30843 0.14204,-0.62902 0,-0.50727 -0.3003,-0.7954 -0.29625,-0.28813 -0.8157,-0.28813 -0.36929,0 -0.77511,0.13392 -0.40582,0.13392 -0.86033,0.40581 v -0.82786 q 0.41799,-0.19886 0.81975,-0.30031 0.40582,-0.10145 0.79946,-0.10145 0.88874,0 1.42848,0.4748 0.54379,0.47075 0.54379,1.23775 0,0.38958 -0.18262,0.77916 -0.17856,0.38959 -0.58437,0.86034 -0.22726,0.26378 -0.66148,0.73047 -0.43017,0.46669 -1.31485,1.39601 z m -4.53298,-0.54785 h 1.02266 v 1.23774 h -1.02266 z m -12.17037,0.88874 q -0.29219,0.349 -1.68415,0.349 h -0.86439 v -0.7467 h 0.6412 q 1.15657,0 1.33513,-0.17856 0.19886,-0.19885 0.19886,-0.62902 v -0.88062 h 0.7467 v 0.88062 q 0,0.75888 -0.37335,1.20528 z m -0.42205,0.95773 h 0.60872 v 0.60872 h -0.60872 z m -4.9388,-1.35543 h 0.52351 q 0.56814,0 0.86439,-0.18668 0.43017,-0.27596 0.43017,-0.56003 0,-0.18262 -0.16233,-0.33277 -0.14609,-0.13392 -0.40176,-0.13392 -0.28813,0 -0.71018,0.44234 -0.30436,0.31654 -0.5438,0.77106 z m 2.56477,-0.77106 q 0,0.21509 -0.17044,0.49916 0.24755,0.2719 0.3977,0.2719 h 0.18262 v 0.7467 h -0.23538 q -0.37741,0 -0.72235,-0.3206 l -0.11363,-0.10551 q -0.50727,0.42611 -1.11194,0.42611 h -2.09808 -0.88468 v -0.7467 h 0.88468 v -5.56782 h 0.74671 v 5.13765 q 0.30842,-0.51945 0.50727,-0.76294 0.59249,-0.71829 1.20122,-0.71829 0.69395,0 1.06324,0.33277 0.35306,0.31653 0.35306,0.80757 z m -7.29254,0.0122 v -4.80894 h 0.7467 v 4.76024 q 0,0.43017 0.20291,0.62902 0.17856,0.17856 0.90903,0.17856 h 0.8441 v 0.7467 h -1.07135 q -0.94962,0 -1.27427,-0.37335 -0.35712,-0.40988 -0.35712,-1.13223 z m -4.96315,-0.67366 q 0.16639,-0.1745 0.16639,-0.48698 0,-0.23943 -0.26784,-0.4464 -0.12581,-0.10145 -0.30437,-0.0974 -0.21102,0.004 -0.37335,0.17451 -0.16233,0.16638 -0.16638,0.37335 0,0.32465 0.2232,0.47886 0.16232,0.10146 0.33277,0.10146 0.29218,0 0.38958,-0.0974 z m -2.507951,1.43254 h 0.978021 q 0.34089,0 0.95367,-0.0933 0.3206,-0.0487 0.56409,-0.42611 0.1258,-0.19479 0.18667,-0.3977 -0.25566,0.2232 -0.64931,0.23132 -0.52756,0.008 -0.8441,-0.2719 -0.3977,-0.35306 -0.3977,-0.87657 0,-0.21102 0.0325,-0.38958 0.0933,-0.60061 0.70206,-0.88063 0.31654,-0.14609 0.62496,-0.14609 0.36524,0 0.63308,0.20291 0.38958,0.29219 0.57626,0.70612 0.0933,0.20697 0.0933,0.77511 0,0.8441 -0.31654,1.42442 -0.30031,0.55191 -0.80352,0.73047 -0.44234,0.15827 -1.03078,0.15827 h -1.302671 z m 2.313161,-4.52893 h 0.60872 v 0.60873 H 102.079 Z m -1.01455,0 h 0.60873 v 0.60873 h -0.60873 z m -3.364216,1.01455 h 0.608726 v 0.60872 h -0.608726 z m -1.014544,0 h 0.608727 v 0.60872 H 96.68569 Z m 1.294558,3.11668 q -0.06087,-0.17045 -0.113629,-0.3693 -0.05276,-0.20291 -0.101454,-0.61278 -0.486981,0.0487 -0.819751,0.32059 -0.450458,0.36118 -0.442341,0.61279 0.0041,0.16638 0.369293,0.26784 0.365236,0.10145 1.107882,-0.21914 z m -0.271898,-1.56646 q -0.01623,-0.15827 -0.02841,-0.33277 h 0.746704 q 0.0041,0.68177 0.150152,1.3879 0.08522,0.40987 0.31248,0.73047 0.125803,0.17856 0.580319,0.17856 h 0.458573 v 0.7467 h -0.681773 q -0.365236,0 -0.661482,-0.20697 -0.182618,-0.1258 -0.336829,-0.36523 -0.560028,0.29624 -1.193103,0.29624 -0.227257,0 -0.462632,-0.0609 -0.766994,-0.19479 -0.766994,-0.81975 0,-0.70206 0.827867,-1.21745 0.442341,-0.27596 1.055125,-0.33683 z m -13.391877,-3.60366 h 0.746704 v 6.31452 h -0.746704 z m -3.067982,4.80894 q 0,0.72235 -0.353061,1.13223 -0.324654,0.37335 -1.428477,0.37335 h -2.361858 v -0.7467 h 2.1346 q 0.884682,0 1.063241,-0.17856 0.198851,-0.19885 0.198851,-0.62902 v -4.76024 h 0.746704 z m -7.101799,0.75888 h 0.07711 q 0.170444,0 0.560028,-0.30842 0.462632,-0.36524 0.462632,-0.57627 0,-0.45451 -0.340887,-0.45451 -0.304363,0 -0.604667,0.5722 -0.154211,0.29219 -0.154211,0.767 z m -0.746704,0 q 0.03652,-1.07948 0.560028,-1.59081 0.438283,-0.43422 0.961787,-0.43422 0.560028,0 0.840042,0.40176 0.186676,0.27189 0.186676,0.73453 0,0.45045 -0.661482,0.88874 h 1.980389 v 0.7467 h -1.980389 q 0.661482,0.43828 0.661482,0.88874 0,0.46263 -0.186676,0.73453 -0.280014,0.40176 -0.840042,0.40176 -0.523504,0 -0.961787,-0.43423 -0.523505,-0.51944 -0.560028,-1.5908 h -1.298616 v -0.7467 z m 0.746704,0.7467 q 0,0.47481 0.154211,0.767 0.300304,0.5722 0.604667,0.5722 0.340887,0 0.340887,-0.45452 0,-0.21102 -0.462632,-0.57626 -0.389584,-0.30842 -0.560028,-0.30842 z m -3.607719,-0.7467 q 0,-0.30842 -0.06493,-0.53974 -0.0974,-0.32465 -0.284072,-0.4464 -0.24349,-0.16638 -0.486981,-0.0609 -0.271898,0.11768 -0.324654,0.34494 -0.06899,0.30437 0.190734,0.52351 0.190735,0.16232 0.969904,0.17856 z m 0.726413,0 h 0.998311 v 0.7467 h -0.787286 l -0.284072,-0.004 q -0.101454,0.63308 -0.624959,1.15658 -0.336828,0.33683 -0.762937,0.52756 -0.779169,0.34901 -2.260402,0.34901 v -0.74671 q 1.465,0 2.000679,-0.30842 0.681774,-0.38552 0.93338,-0.98613 -0.478864,-0.0122 -0.661482,-0.0406 -0.564086,-0.0974 -0.771053,-0.27189 -0.430166,-0.36118 -0.470748,-0.90903 -0.0081,-0.12581 0.03247,-0.35712 0.109571,-0.62902 0.823809,-0.93338 0.239433,-0.10146 0.503214,-0.0974 0.353061,0.008 0.633075,0.20697 0.539737,0.37335 0.629017,0.94555 0.05276,0.33683 0.06899,0.72236 z m -6.509313,1.35543 h 0.608726 v 0.60872 h -0.608726 z m -1.014544,0 h 0.608726 v 0.60872 h -0.608726 z m 0.900915,-0.95773 q -0.292189,0.349 -1.684142,0.349 h -0.864391 v -0.7467 h 0.641191 q 1.15658,0 1.335139,-0.17856 0.198851,-0.19885 0.198851,-0.62902 v -0.88062 h 0.746704 v 0.88062 q 0,0.75888 -0.373352,1.20528 z m -4.614135,-3.91208 h 0.608726 v 0.60872 h -0.608726 z m -1.014543,0 h 0.608726 v 0.60872 h -0.608726 z m 1.294557,3.11668 q -0.06087,-0.17045 -0.113629,-0.3693 -0.05276,-0.20291 -0.101454,-0.61278 -0.486981,0.0487 -0.819751,0.32059 -0.450457,0.36118 -0.442341,0.61279 0.0041,0.16638 0.369294,0.26784 0.365235,0.10145 1.107881,-0.21914 z m -0.271897,-1.56646 q -0.01623,-0.15827 -0.02841,-0.33277 h 0.746704 q 0.0041,0.68177 0.150153,1.3879 0.08522,0.40987 0.312479,0.73047 0.125804,0.17856 0.580319,0.17856 h 0.458574 v 0.7467 h -0.681773 q -0.365236,0 -0.661483,-0.20697 -0.182618,-0.1258 -0.336828,-0.36523 -0.560028,0.29624 -1.193103,0.29624 -0.227258,0 -0.462632,-0.0609 -0.766995,-0.19479 -0.766995,-0.81975 0,-0.70206 0.827867,-1.21745 0.442341,-0.27596 1.055126,-0.33683 z m -13.391878,-3.60366 h 0.746704 v 6.31452 H 46.644548 Z M 43.57657,166.829 q 0,0.72235 -0.353061,1.13223 -0.324654,0.37335 -1.428477,0.37335 h -2.361857 v -0.7467 h 2.134599 q 0.884682,0 1.063242,-0.17856 0.19885,-0.19885 0.19885,-0.62902 v -4.76024 h 0.746704 z m -6.935421,-2.95841 h 0.608726 v 0.60873 h -0.608726 z m 0.458573,1.29861 q 1.047009,0.21103 1.939807,0.60873 v 0.62496 q -0.263781,0.0812 -0.560028,0.24755 0.202909,0.31654 0.324654,0.45451 0.42205,0.48293 0.641192,0.48293 h 0.24349 v 0.7467 h -0.324654 q -0.612784,0 -1.115998,-0.68177 -0.162326,-0.21914 -0.401759,-0.61279 -0.280014,0.18668 -0.446399,0.33683 -0.588435,0.52351 -0.892798,0.63308 -0.896857,0.32465 -1.558339,0.32465 h -0.519446 v -0.7467 h 0.405817 q 0.921206,0 1.44471,-0.29219 0.42205,-0.23538 0.892798,-0.66554 0.381469,-0.34901 0.791344,-0.49104 -0.336828,-0.0933 -0.75482,-0.18668 -0.344945,-0.0771 -1.075416,-0.14203 -0.33277,-0.0284 -0.986136,-0.004 v -0.74671 q 0.292188,-0.0284 0.596551,-0.0325 0.657424,0 1.35543,0.14203 z m -5.206635,1.6598 v -4.80894 h 0.746704 v 4.76024 q 0,0.43017 0.202908,0.62902 0.17856,0.17856 0.909031,0.17856 h 0.8441 v 0.7467 h -1.071357 q -0.949613,0 -1.274267,-0.37335 -0.357119,-0.40988 -0.357119,-1.13223 z m -5.015904,0.75888 h 0.523505 q 0.568144,0 0.864391,-0.18668 0.430166,-0.27596 0.430166,-0.56003 0,-0.18262 -0.162327,-0.33277 -0.146094,-0.13392 -0.401759,-0.13392 -0.28813,0 -0.71018,0.44234 -0.304363,0.31654 -0.543796,0.77106 z m -0.09334,0.7467 q -0.300305,0 -0.616842,-0.17044 -0.263781,-0.14204 -0.42205,-0.38959 -0.413934,0.56003 -0.795402,0.56003 h -0.527563 v -0.7467 h 0.304363 q 0.174502,0 0.324654,-0.17856 0.263781,-0.32466 0.263781,-0.73047 v -0.46264 h 0.746704 v 0.31654 q 0,0.0974 0.03652,0.25972 0.03652,0.16233 0.219141,0.36524 0.308421,-0.51945 0.507272,-0.76294 0.592493,-0.71829 1.201219,-0.71829 0.693948,0 1.063242,0.33277 0.353061,0.31653 0.353061,0.80757 0,0.77106 -0.746704,1.2134 -0.51133,0.30436 -1.026718,0.30436 z m -4.42747,-4.26108 h 0.608726 v 0.60872 h -0.608726 z m -1.014543,0 h 0.608726 v 0.60872 h -0.608726 z m 1.294557,3.11668 q -0.06087,-0.17045 -0.113629,-0.3693 -0.05276,-0.20291 -0.101454,-0.61278 -0.486981,0.0487 -0.819751,0.32059 -0.450457,0.36118 -0.442341,0.61279 0.0041,0.16638 0.369294,0.26784 0.365235,0.10145 1.107881,-0.21914 z m -0.271897,-1.56646 q -0.01623,-0.15827 -0.02841,-0.33277 h 0.746704 q 0.0041,0.68177 0.150153,1.3879 0.08522,0.40987 0.312479,0.73047 0.125803,0.17856 0.580319,0.17856 h 0.458574 v 0.7467 h -0.681774 q -0.365235,0 -0.661482,-0.20697 -0.182618,-0.1258 -0.336828,-0.36523 -0.560028,0.29624 -1.193103,0.29624 -0.227258,0 -0.462632,-0.0609 -0.766995,-0.19479 -0.766995,-0.81975 0,-0.70206 0.827867,-1.21745 0.442341,-0.27596 1.055126,-0.33683 z m -13.0509865,2.36186 q -0.2921886,0.349 -1.6841422,0.349 h -0.864391 v -0.7467 h 0.6411914 q 1.1565796,0 1.3351392,-0.17856 0.1988506,-0.19885 0.1988506,-0.62902 v -0.88062 h 0.7467039 v 0.88062 q 0,0.75888 -0.3733519,1.20528 z m -0.4220501,0.95773 h 0.608726 v 0.60872 h -0.608726 z m -4.8901005,-5.07272 v 0.33277 q -0.3003049,0.0162 -0.4545155,0.073 -0.3246539,0.12174 -0.3246539,0.25566 0,0.11363 0.056814,0.18668 0.048698,0.0649 0.324654,0.10551 0.4139337,0.0609 0.4139337,0.41799 0,0.4464 -0.3571193,0.61684 -0.3327703,0.15827 -0.6493078,0.15827 -0.2678395,0 -0.4950972,-0.0446 v -0.35712 q 0.2759558,0.0406 0.4585736,0.0406 0.2434904,0 0.4748063,-0.10552 0.2434905,-0.10551 0.2434905,-0.22725 0,-0.15422 -0.3165376,-0.2232 -0.3003048,-0.0649 -0.373352,-0.17856 -0.1298615,-0.19074 -0.1258034,-0.37741 0.00812,-0.32872 0.3124794,-0.48293 0.3449448,-0.1745 0.8116348,-0.19073 z m 2.1386576,-1.85053 v 4.76024 q 0,0.43017 0.1988505,0.62902 0.1785597,0.17856 0.2840722,0.17856 h 0.304363 v 0.7467 H 6.3997356 q -0.3246539,0 -0.7832275,-0.49915 -0.3692938,0.31653 -0.6898896,0.49915 -0.4179919,0.21508 -1.2255685,0.2232 -0.702064,0.008 -1.3635464,-0.2232 -0.8806237,-0.30842 -0.8806237,-1.05512 0,-0.30437 0.064931,-0.51945 h 0.746704 q -0.056814,0.23537 -0.056814,0.41393 0,0.37741 0.6249588,0.56003 0.491039,0.14204 0.8441002,0.14204 0.4748063,0 0.8725073,-0.15421 0.3287121,-0.14204 0.629017,-0.52757 0.211025,-0.27189 0.211025,-1.33919 v -3.83498 z m -7.316887,5.07678 h 1.02265984 v 1.23774 H -1.1768745 Z"
         id="path3" />
    </g>
  </g>
</svg>
