<?xml version="1.0" encoding="UTF-8" standalone="no"?>
<!-- Created with Inkscape (http://www.inkscape.org/) -->

<svg
   width="140.02393mm"
   height="10.056479mm"
   viewBox="0 0 140.02393 10.056479"
   version="1.1"
   id="svg1"
   inkscape:version="1.4 (e7c3feb100, 2024-10-09)"
   sodipodi:docname="bidi-expected.svg"
   xmlns:inkscape="http://www.inkscape.org/namespaces/inkscape"
   xmlns:sodipodi="http://sodipodi.sourceforge.net/DTD/sodipodi-0.dtd"
   xmlns="http://www.w3.org/2000/svg"
   xmlns:svg="http://www.w3.org/2000/svg">
  <sodipodi:namedview
     id="namedview1"
     pagecolor="#ffffff"
     bordercolor="#666666"
     borderopacity="1.0"
     inkscape:showpageshadow="2"
     inkscape:pageopacity="0.0"
     inkscape:pagecheckerboard="0"
     inkscape:deskcolor="#d1d1d1"
     inkscape:document-units="mm"
     inkscape:zoom="1.8313859"
     inkscape:cx="264.82676"
     inkscape:cy="21.022331"
     inkscape:window-width="1920"
     inkscape:window-height="1080"
     inkscape:window-x="0"
     inkscape:window-y="0"
     inkscape:window-maximized="1"
     inkscape:current-layer="layer1" />
  <defs
     id="defs1" />
  <g
     inkscape:label="Calque 1"
     inkscape:groupmode="layer"
     id="layer1"
     transform="translate(-139.7,-391.05417)">
    <path
       d="m 277.35524,399.84736 h 0.30752 c 0.30474,0 0.55407,-0.0443 0.748,-0.13298 0.19393,-0.0887 0.3463,-0.20778 0.45711,-0.35738 0.11081,-0.14406 0.18838,-0.31582 0.23271,-0.51529 0.0443,-0.19393 0.0665,-0.39893 0.0665,-0.61502 0,-0.16069 -0.008,-0.32691 -0.0249,-0.49867 -0.0166,-0.17731 -0.0388,-0.3463 -0.0665,-0.50698 l -0.17453,-0.93916 0.58178,-0.11636 0.10804,0.63165 c 0.0886,0.50975 0.13298,0.9918 0.13298,1.44614 0,0.30474 -0.0332,0.59563 -0.0997,0.87267 -0.0665,0.28258 -0.18005,0.52914 -0.34075,0.73969 -0.15514,0.21609 -0.36569,0.38786 -0.63165,0.51529 -0.26041,0.12744 -0.59009,0.19116 -0.98902,0.19116 h -0.30752 z m -3.41587,-1.82845 0.16622,-0.16622 h 1.57081 c 0.22717,0 0.41832,-0.0194 0.57346,-0.0582 0.15515,-0.0388 0.27982,-0.10252 0.37401,-0.19116 0.0997,-0.0887 0.16899,-0.20224 0.20777,-0.34076 0.0443,-0.14405 0.0665,-0.31859 0.0665,-0.5236 v -0.26595 h -0.0415 c -0.0776,0.18284 -0.20778,0.3269 -0.39063,0.43218 -0.1773,0.10527 -0.38785,0.15791 -0.63164,0.15791 -0.44326,0 -0.78679,-0.11359 -1.03058,-0.34076 -0.24379,-0.22717 -0.36569,-0.54854 -0.36569,-0.96409 0,-0.24379 0.036,-0.47374 0.10804,-0.68983 0.0776,-0.21609 0.18285,-0.40447 0.31582,-0.56515 0.13298,-0.16069 0.29089,-0.28813 0.47374,-0.38232 0.18839,-0.0942 0.39339,-0.14129 0.61502,-0.14129 0.47651,0 0.85051,0.20501 1.12201,0.61503 0.27149,0.41001 0.40724,0.98625 0.40724,1.72872 0,0.41555 -0.0305,0.76739 -0.0914,1.05551 -0.0609,0.28812 -0.16344,0.52083 -0.30751,0.69814 -0.13852,0.17176 -0.32414,0.29643 -0.55685,0.374 -0.22717,0.0776 -0.50974,0.11635 -0.84773,0.11635 h -1.73703 z m 2.06116,-1.68716 c 0.23825,0 0.42664,-0.0194 0.56516,-0.0582 0.14406,-0.0443 0.25487,-0.11082 0.33244,-0.19947 -0.0111,-0.42109 -0.10526,-0.75631 -0.28258,-1.00565 -0.1773,-0.24933 -0.41555,-0.374 -0.71475,-0.374 -0.28258,0 -0.50144,0.0914 -0.65658,0.27427 -0.1496,0.17731 -0.2244,0.41279 -0.2244,0.70645 0,0.23271 0.0637,0.4017 0.19115,0.50698 0.13298,0.0997 0.34076,0.1496 0.62334,0.1496 z m 0.41556,-3.34939 c -0.11082,0 -0.19947,-0.0305 -0.26596,-0.0914 -0.0665,-0.0665 -0.0997,-0.17174 -0.0997,-0.31583 0,-0.14406 0.0332,-0.24656 0.0997,-0.30751 0.0665,-0.0665 0.15512,-0.0997 0.26596,-0.0997 h 0.0914 c 0.11081,0 0.19947,0.0332 0.26596,0.0997 0.0665,0.0609 0.0997,0.16344 0.0997,0.30751 0,0.14406 -0.0332,0.24934 -0.0997,0.31583 -0.0665,0.0609 -0.15512,0.0914 -0.26596,0.0914 z m -1.07214,0 c -0.11081,0 -0.19947,-0.0305 -0.26596,-0.0914 -0.0665,-0.0665 -0.0997,-0.17174 -0.0997,-0.31583 0,-0.14406 0.0332,-0.24656 0.0997,-0.30751 0.0665,-0.0665 0.15512,-0.0997 0.26596,-0.0997 h 0.0914 c 0.11082,0 0.19947,0.0332 0.26596,0.0997 0.0665,0.0609 0.0997,0.16344 0.0997,0.30751 0,0.14406 -0.0332,0.24934 -0.0997,0.31583 -0.0665,0.0609 -0.15512,0.0914 -0.26596,0.0914 z m -6.10869,5.46873 c 0,-0.32137 0.0222,-0.59841 0.0665,-0.83112 0.0443,-0.23271 0.12468,-0.43771 0.24103,-0.61502 0.11635,-0.17731 0.27149,-0.33799 0.46542,-0.48205 0.19947,-0.14406 0.45434,-0.29089 0.76463,-0.44049 l 1.18849,-0.58178 h 0.64827 l 0.59009,1.60405 c 0.0554,0.1496 0.10527,0.27427 0.1496,0.374 0.0499,0.0942 0.1025,0.169 0.15791,0.22441 0.0554,0.0554 0.11635,0.0942 0.18285,0.11635 0.072,0.0222 0.15514,0.0333 0.24933,0.0333 h 0.16622 v 0.54853 l -0.16622,0.16622 c -0.26041,0 -0.46819,-0.036 -0.62333,-0.10804 -0.15515,-0.0776 -0.29367,-0.22717 -0.41556,-0.4488 l -0.0499,0.0166 v 0.54022 h -0.98902 c -0.45435,0 -0.80896,-0.0887 -1.06383,-0.26595 -0.25487,-0.17731 -0.38231,-0.42387 -0.38231,-0.73969 0,-0.29366 0.11358,-0.52914 0.34075,-0.70645 l -0.0332,-0.0333 -0.25765,0.1496 c -0.12189,0.0776 -0.2244,0.15515 -0.30751,0.23272 -0.0776,0.0776 -0.13851,0.17176 -0.18284,0.28258 -0.0443,0.11081 -0.0776,0.24379 -0.0997,0.39893 -0.0166,0.15514 -0.0249,0.34353 -0.0249,0.56516 v 2.65956 h -0.61502 z m 1.67885,-1.18018 c 0,0.19947 0.0803,0.3463 0.24102,0.44049 0.16068,0.0942 0.41278,0.14129 0.75631,0.14129 h 0.90592 c -0.0609,-0.12744 -0.12742,-0.29089 -0.19947,-0.49036 l -0.44049,-1.18018 -0.34076,0.15791 c -0.18285,0.0831 -0.33245,0.16345 -0.4488,0.24102 -0.11635,0.072 -0.21055,0.14406 -0.28258,0.21609 -0.072,0.072 -0.12189,0.14683 -0.1496,0.2244 -0.0277,0.0776 -0.0416,0.16069 -0.0416,0.24934 z m -9.18668,0.748 0.16622,-0.16622 h 0.24103 c 0.26595,0 0.45711,-0.0609 0.57347,-0.18285 0.12189,-0.12189 0.18284,-0.31582 0.18284,-0.58178 v -4.67086 h 0.61502 v 4.67086 c 0,0.50975 -0.11081,0.88375 -0.33244,1.122 -0.21609,0.23825 -0.56239,0.35738 -1.03889,0.35738 h -0.40725 z m -3.29123,1.82845 h 0.44049 c 0.60395,0 1.06937,-0.11359 1.39628,-0.34076 0.33244,-0.22163 0.53745,-0.53468 0.61502,-0.93916 h -0.9724 c -0.44326,0 -0.78679,-0.11635 -1.03058,-0.34906 -0.24379,-0.23271 -0.36569,-0.55962 -0.36569,-0.98072 0,-0.24933 0.036,-0.48482 0.10804,-0.70645 0.0776,-0.22163 0.18285,-0.41278 0.31582,-0.57346 0.13298,-0.16623 0.29089,-0.29644 0.47374,-0.39063 0.18839,-0.0997 0.39339,-0.1496 0.61502,-0.1496 0.45989,0 0.82004,0.20501 1.08045,0.61503 0.26596,0.41001 0.39894,0.98625 0.39894,1.72871 v 0.0914 h 0.38231 v 0.54853 l -0.16622,0.16622 h -0.29089 c -0.1219,0.63719 -0.39617,1.12755 -0.82281,1.47108 -0.42109,0.34907 -1.0001,0.5236 -1.73703,0.5236 h -0.44049 z m 0.6649,-2.69281 c 0,0.24379 0.0637,0.4211 0.19115,0.53191 0.13298,0.11082 0.34076,0.16623 0.62334,0.16623 h 1.01396 v -0.25765 c 0,-0.4488 -0.0859,-0.80341 -0.25765,-1.06383 -0.16622,-0.26595 -0.39616,-0.39893 -0.68982,-0.39893 -0.28258,0 -0.50144,0.0942 -0.65658,0.28258 -0.1496,0.18839 -0.2244,0.43495 -0.2244,0.73969 z m -6.38296,0.86436 0.16622,-0.16622 h 0.28258 c 0.24379,0 0.46819,-0.008 0.6732,-0.0249 0.21055,-0.0166 0.42387,-0.0471 0.63996,-0.0914 0.21609,-0.0499 0.44326,-0.11913 0.68151,-0.20778 0.24379,-0.0887 0.51806,-0.20501 0.82281,-0.34907 l 0.76462,-0.36569 v -0.0332 l -1.23005,-0.27427 -1.7204,-0.42387 v 0.71476 h -0.58178 v -0.63996 c 0,-0.23271 0.0637,-0.40724 0.19115,-0.5236 0.13298,-0.12189 0.2992,-0.18284 0.49867,-0.18284 0.0609,0 0.13296,0.008 0.21609,0.0249 0.0887,0.0111 0.2244,0.0388 0.40725,0.0831 l 2.02791,0.5236 c 0.30475,0.0776 0.55962,0.13298 0.76463,0.16623 0.20501,0.0277 0.38231,0.0415 0.53191,0.0415 h 0.13298 v 0.71476 h -0.64827 l -1.13031,0.68151 c -0.34353,0.20501 -0.64827,0.36847 -0.91423,0.49036 -0.26595,0.11635 -0.51529,0.20501 -0.748,0.26596 -0.23271,0.0554 -0.45988,0.0914 -0.68151,0.10804 -0.21609,0.0111 -0.44881,0.0166 -0.69814,0.0166 h -0.4488 z m 0,0.54853 c -0.25487,0 -0.47096,-0.0194 -0.64827,-0.0582 -0.17176,-0.0443 -0.31305,-0.11359 -0.42387,-0.20778 -0.10527,-0.0997 -0.18284,-0.2244 -0.23271,-0.374 -0.0499,-0.15515 -0.0748,-0.3463 -0.0748,-0.57347 v -0.14129 h -0.0416 c -0.0776,0.24933 -0.21055,0.43772 -0.39894,0.56516 -0.18285,0.12189 -0.40448,0.18284 -0.66489,0.18284 -0.37123,0 -0.66212,-0.0997 -0.87267,-0.2992 -0.20501,-0.19947 -0.30751,-0.48205 -0.30751,-0.84774 0,-0.15514 0.0249,-0.2992 0.0748,-0.43218 0.0499,-0.13851 0.13021,-0.27149 0.24102,-0.39893 0.11635,-0.13298 0.26318,-0.26319 0.44049,-0.39062 0.17731,-0.13298 0.3934,-0.2715 0.64827,-0.41556 l 0.83943,-0.48205 v -0.41555 h 0.58178 v 2.99201 c 0,0.22717 0.0582,0.38231 0.17453,0.46542 0.11635,0.0776 0.29643,0.11636 0.54022,0.11636 h 0.29089 v 0.54853 z m -2.36036,-1.32147 c 0.33799,0 0.57901,-0.0471 0.72307,-0.14129 0.14406,-0.0997 0.21609,-0.27427 0.21609,-0.5236 v -1.21343 l -0.83943,0.44881 c -0.29366,0.16068 -0.50421,0.31028 -0.63165,0.4488 -0.12743,0.13298 -0.19115,0.28812 -0.19115,0.46542 0,0.17731 0.0526,0.30752 0.15791,0.39063 0.11081,0.0831 0.2992,0.12466 0.56516,0.12466 z m 1.20511,-3.6569 c -0.11081,0 -0.19946,-0.0305 -0.26595,-0.0914 -0.0665,-0.0665 -0.0997,-0.17174 -0.0997,-0.31582 0,-0.14406 0.0332,-0.24657 0.0997,-0.30752 0.0665,-0.0665 0.15512,-0.0997 0.26595,-0.0997 h 0.0914 c 0.11082,0 0.19947,0.0332 0.26596,0.0997 0.0665,0.0609 0.0997,0.16344 0.0997,0.30752 0,0.14405 -0.0332,0.24933 -0.0997,0.31582 -0.0665,0.0609 -0.15512,0.0914 -0.26596,0.0914 z m -1.07214,0 c -0.11081,0 -0.19946,-0.0305 -0.26595,-0.0914 -0.0665,-0.0665 -0.0997,-0.17174 -0.0997,-0.31582 0,-0.14406 0.0332,-0.24657 0.0997,-0.30752 0.0665,-0.0665 0.15512,-0.0997 0.26595,-0.0997 h 0.0914 c 0.11081,0 0.19946,0.0332 0.26595,0.0997 0.0665,0.0609 0.0997,0.16344 0.0997,0.30752 0,0.14405 -0.0332,0.24933 -0.0997,0.31582 -0.0665,0.0609 -0.15512,0.0914 -0.26595,0.0914 z m -7.40812,-1.17187 h 0.61503 v 6.15024 h -0.61503 z m -3.02524,5.60171 0.16622,-0.16622 h 0.24102 c 0.26596,0 0.45712,-0.0609 0.57347,-0.18285 0.1219,-0.12189 0.18285,-0.31582 0.18285,-0.58178 v -4.67086 h 0.61502 v 4.67086 c 0,0.50975 -0.11081,0.88375 -0.33244,1.122 -0.21609,0.23825 -0.56239,0.35738 -1.0389,0.35738 h -0.40724 z m -5.11136,1.82845 h 0.30752 c 0.30474,0 0.55407,-0.0443 0.748,-0.13298 0.19393,-0.0887 0.3463,-0.20778 0.45711,-0.35738 0.11081,-0.14406 0.18838,-0.31582 0.23271,-0.51529 0.0443,-0.19393 0.0665,-0.39893 0.0665,-0.61502 0,-0.16069 -0.008,-0.32691 -0.0249,-0.49867 -0.0166,-0.17731 -0.0388,-0.3463 -0.0665,-0.50698 l -0.17453,-0.93916 0.58178,-0.11636 0.0997,0.59841 1.46276,-0.24934 v -0.68151 h 0.58178 v 1.43783 c 0,0.21055 0.0582,0.36015 0.17453,0.4488 0.11636,0.0886 0.29644,0.13298 0.54023,0.13298 h 0.29089 v 0.54853 l -0.16623,0.16622 h -0.0166 c -0.25487,0 -0.47096,-0.0222 -0.64827,-0.0665 -0.1773,-0.0499 -0.32413,-0.12467 -0.44049,-0.2244 -0.11081,-0.10527 -0.19115,-0.24102 -0.24102,-0.40724 -0.0499,-0.16623 -0.0748,-0.36569 -0.0748,-0.5984 v -0.0665 l -1.36303,0.23271 c 0.0111,0.13852 0.0194,0.27427 0.0249,0.40724 0.0111,0.13298 0.0166,0.26596 0.0166,0.39894 0,0.30474 -0.0332,0.59563 -0.0997,0.87267 -0.0665,0.28258 -0.18005,0.52914 -0.34075,0.73969 -0.15514,0.21609 -0.36569,0.38786 -0.63165,0.51529 -0.26041,0.12744 -0.59009,0.19116 -0.98902,0.19116 h -0.30752 z m 4.44646,-5.01162 c -0.11081,0 -0.19946,-0.0305 -0.26595,-0.0914 -0.0665,-0.0665 -0.0997,-0.17174 -0.0997,-0.31582 0,-0.14406 0.0332,-0.24657 0.0997,-0.30752 0.0665,-0.0665 0.15512,-0.0997 0.26595,-0.0997 h 0.0914 c 0.11081,0 0.19946,0.0332 0.26595,0.0997 0.0665,0.0609 0.0997,0.16344 0.0997,0.30752 0,0.14406 -0.0332,0.24933 -0.0997,0.31582 -0.0665,0.0609 -0.15512,0.0914 -0.26595,0.0914 z m -1.07213,0 c -0.11082,0 -0.19947,-0.0305 -0.26596,-0.0914 -0.0665,-0.0665 -0.0997,-0.17174 -0.0997,-0.31582 0,-0.14406 0.0332,-0.24657 0.0997,-0.30752 0.0665,-0.0665 0.15512,-0.0997 0.26596,-0.0997 h 0.0914 c 0.11081,0 0.19947,0.0332 0.26596,0.0997 0.0665,0.0609 0.0997,0.16344 0.0997,0.30752 0,0.14406 -0.0332,0.24933 -0.0997,0.31582 -0.0665,0.0609 -0.15512,0.0914 -0.26596,0.0914 z m -7.97871,3.18317 0.16622,-0.16622 h 0.28258 c 0.24379,0 0.46819,-0.008 0.6732,-0.0249 0.21055,-0.0166 0.42387,-0.0471 0.63996,-0.0914 0.21609,-0.0499 0.44327,-0.11913 0.68152,-0.20778 0.24379,-0.0887 0.51806,-0.20501 0.8228,-0.34907 l 0.76462,-0.36569 v -0.0332 l -1.23005,-0.27427 -1.7204,-0.42387 v 0.71476 h -0.58178 v -0.63996 c 0,-0.23271 0.0637,-0.40724 0.19115,-0.5236 0.13298,-0.12189 0.2992,-0.18284 0.49867,-0.18284 0.0609,0 0.13296,0.008 0.21609,0.0249 0.0887,0.0111 0.2244,0.0388 0.40725,0.0831 l 2.02792,0.5236 c 0.30474,0.0776 0.55961,0.13298 0.76462,0.16623 0.20501,0.0277 0.38231,0.0415 0.53191,0.0415 h 0.13298 v 0.71476 h -0.64827 l -1.13031,0.68151 c -0.34353,0.20501 -0.64827,0.36847 -0.91423,0.49036 -0.26595,0.11635 -0.51529,0.20501 -0.748,0.26596 -0.23271,0.0554 -0.45988,0.0914 -0.68151,0.10804 -0.21609,0.0111 -0.44881,0.0166 -0.69814,0.0166 h -0.4488 z m 2.22739,-3.51561 c -0.11082,0 -0.19947,-0.0305 -0.26596,-0.0914 -0.0665,-0.0665 -0.0997,-0.17174 -0.0997,-0.31582 0,-0.14406 0.0332,-0.24656 0.0997,-0.30751 0.0665,-0.0665 0.15512,-0.0997 0.26596,-0.0997 h 0.0914 c 0.11081,0 0.19946,0.0332 0.26595,0.0997 0.0665,0.0609 0.0997,0.16344 0.0997,0.30751 0,0.14406 -0.0332,0.24933 -0.0997,0.31582 -0.0665,0.0609 -0.15512,0.0914 -0.26595,0.0914 z m -4.80383,3.51561 0.16622,-0.16622 h 0.29089 c 0.47097,0 0.70645,-0.23548 0.70645,-0.70645 v -1.31316 h 0.58178 v 1.31316 c 0,0.47097 0.23548,0.70645 0.70645,0.70645 h 0.29089 v 0.54853 l -0.16623,0.16622 c -0.76462,0 -1.21342,-0.2715 -1.3464,-0.81449 h -0.0416 c -0.0609,0.30474 -0.18006,0.51806 -0.35737,0.63996 -0.17731,0.11635 -0.45435,0.17453 -0.83112,0.17453 z m 1.94481,2.21076 c -0.11081,0 -0.19947,-0.0332 -0.26596,-0.0997 -0.0665,-0.0609 -0.0997,-0.16344 -0.0997,-0.30751 0,-0.14406 0.0332,-0.24934 0.0997,-0.31583 0.0665,-0.0609 0.15512,-0.0914 0.26596,-0.0914 h 0.0914 c 0.11081,0 0.19947,0.0305 0.26596,0.0914 0.0665,0.0665 0.0997,0.17174 0.0997,0.31583 0,0.14406 -0.0332,0.24656 -0.0997,0.30751 -0.0665,0.0665 -0.15512,0.0997 -0.26596,0.0997 z m -1.07214,0 c -0.11081,0 -0.19947,-0.0332 -0.26596,-0.0997 -0.0665,-0.0609 -0.0997,-0.16344 -0.0997,-0.30751 0,-0.14406 0.0332,-0.24934 0.0997,-0.31583 0.0665,-0.0609 0.15512,-0.0914 0.26596,-0.0914 h 0.0914 c 0.11082,0 0.19947,0.0305 0.26596,0.0914 0.0665,0.0665 0.0997,0.17174 0.0997,0.31583 0,0.14406 -0.0332,0.24656 -0.0997,0.30751 -0.0665,0.0665 -0.15512,0.0997 -0.26596,0.0997 z m -8.5023,0.33245 c -0.72583,0 -1.29099,-0.18285 -1.69547,-0.54854 -0.40447,-0.36569 -0.60671,-0.87544 -0.60671,-1.52925 0,-0.25487 0.0332,-0.5236 0.0997,-0.80618 0.072,-0.28812 0.169,-0.57347 0.29089,-0.85605 l 0.51529,0.15792 c -0.10527,0.21609 -0.19115,0.44326 -0.25764,0.68151 -0.0665,0.23271 -0.0997,0.45434 -0.0997,0.66489 0,0.47097 0.13298,0.83666 0.39894,1.09707 0.26595,0.26041 0.63441,0.39062 1.10538,0.39062 h 0.49867 c 0.58732,0 1.01673,-0.11912 1.28823,-0.35737 0.27703,-0.23271 0.41555,-0.60118 0.41555,-1.10539 0,-0.0665 -0.003,-0.13572 -0.008,-0.20777 0,-0.072 -0.008,-0.15792 -0.0249,-0.25765 -0.0111,-0.10527 -0.0305,-0.22994 -0.0582,-0.374 -0.0277,-0.14406 -0.0665,-0.32136 -0.11636,-0.53191 l -0.0831,-0.36569 0.58178,-0.11636 0.0748,0.36569 c 0.0443,0.23271 0.0803,0.42941 0.10805,0.59009 0.0277,0.15514 0.0471,0.28812 0.0582,0.39894 h 0.0166 l 0.47373,-0.80618 c 0.21055,-0.36569 0.42387,-0.66767 0.63996,-0.90592 0.21609,-0.24379 0.43495,-0.43772 0.65658,-0.58178 0.22163,-0.14406 0.44603,-0.24656 0.6732,-0.30751 0.23271,-0.0609 0.47374,-0.0914 0.72307,-0.0914 0.53745,0 0.95578,0.1496 1.25498,0.4488 0.29921,0.29366 0.44881,0.70091 0.44881,1.22174 0,0.38785 -0.0637,0.70922 -0.19116,0.96409 0.11635,0.0388 0.26595,0.0582 0.4488,0.0582 h 0.16622 v 0.54853 l -0.16622,0.16622 c -0.21055,0 -0.38785,-0.0166 -0.53191,-0.0499 -0.13852,-0.0388 -0.26596,-0.11083 -0.38231,-0.21609 -0.28812,0.1773 -0.6926,0.26595 -1.21343,0.26595 h -2.99201 c -0.0388,0.68706 -0.26043,1.19127 -0.66489,1.51263 -0.40448,0.32137 -1.01951,0.48205 -1.84508,0.48205 z m 5.50198,-2.70943 c 0.41555,0 0.73415,-0.0693 0.95578,-0.20778 0.22163,-0.13852 0.33245,-0.38231 0.33245,-0.73138 0,-0.34353 -0.0887,-0.60117 -0.26596,-0.77294 -0.17177,-0.17731 -0.41556,-0.26596 -0.73138,-0.26596 h -0.24933 c -0.22163,0 -0.42387,0.0222 -0.60672,0.0665 -0.1773,0.0388 -0.34906,0.11083 -0.51529,0.21609 -0.16068,0.0997 -0.32136,0.24102 -0.48204,0.42387 -0.15515,0.17731 -0.32137,0.40171 -0.49867,0.6732 l -0.35738,0.55685 0.0249,0.0416 z m -18.11285,0.16622 0.16622,-0.16622 h 1.20512 l 0.0166,-0.0333 c -0.2715,-0.21055 -0.48205,-0.4488 -0.63165,-0.71476 -0.14406,-0.26595 -0.21609,-0.54022 -0.21609,-0.8228 0,-0.20501 0.0332,-0.39893 0.0997,-0.58178 0.072,-0.18839 0.16622,-0.35184 0.28258,-0.49036 0.11635,-0.14406 0.2521,-0.26319 0.40724,-0.35738 0.16069,-0.0942 0.33245,-0.15237 0.51529,-0.17453 l 0.2992,-0.49867 1.25499,0.76463 c 0.28812,0.1773 0.53191,0.35737 0.73138,0.54022 0.20501,0.18285 0.37123,0.38231 0.49867,0.5984 0.12743,0.21609 0.21885,0.45435 0.27426,0.71476 0.0609,0.25487 0.0914,0.54853 0.0914,0.88098 v 0.16622 l -0.49036,0.72307 h -0.94747 c -0.28258,0 -0.55408,-0.0305 -0.81449,-0.0914 -0.26042,-0.0665 -0.50699,-0.16343 -0.7397,-0.29089 -0.23271,0.12744 -0.47927,0.2244 -0.73969,0.29089 -0.26041,0.0609 -0.53191,0.0914 -0.81449,0.0914 h -0.4488 z m 2.00298,-0.41556 c 0.26596,-0.15514 0.47928,-0.34907 0.63996,-0.58178 0.16069,-0.23825 0.24103,-0.48482 0.24103,-0.73969 0,-0.2992 -0.0776,-0.53745 -0.23272,-0.71476 -0.1496,-0.1773 -0.35184,-0.26595 -0.60671,-0.26595 h -0.0831 c -0.25487,0 -0.45988,0.0886 -0.61503,0.26595 -0.1496,0.17731 -0.2244,0.41556 -0.2244,0.71476 0,0.25487 0.0803,0.50144 0.24103,0.73969 0.16068,0.23271 0.374,0.42664 0.63995,0.58178 z m 1.36303,-1.87832 c 0.0665,0.17731 0.0997,0.36292 0.0997,0.55685 0,0.28258 -0.0748,0.55685 -0.22441,0.8228 -0.14406,0.26596 -0.35184,0.50421 -0.62333,0.71476 l 0.0166,0.0333 h 1.77859 v -0.0914 c 0,-0.24933 -0.0194,-0.47373 -0.0582,-0.6732 -0.0388,-0.19947 -0.0998,-0.38231 -0.18285,-0.54853 -0.0831,-0.16623 -0.19115,-0.31583 -0.32413,-0.44881 -0.12744,-0.13851 -0.27981,-0.26872 -0.45711,-0.39062 z m -6.65724,4.12233 h 0.44049 c 0.60395,0 1.06937,-0.11359 1.39628,-0.34076 0.33244,-0.22163 0.53745,-0.53468 0.61502,-0.93916 h -0.9724 c -0.44327,0 -0.7868,-0.11635 -1.03059,-0.34906 -0.24379,-0.23271 -0.36569,-0.55962 -0.36569,-0.98072 0,-0.24933 0.036,-0.48482 0.10805,-0.70645 0.0776,-0.22163 0.18285,-0.41278 0.31582,-0.57346 0.13298,-0.16623 0.29089,-0.29644 0.47374,-0.39063 0.18839,-0.0997 0.39339,-0.1496 0.61502,-0.1496 0.45989,0 0.82004,0.20501 1.08045,0.61503 0.26596,0.41001 0.39894,0.98625 0.39894,1.72871 v 0.0914 h 0.38231 v 0.54853 l -0.16623,0.16622 h -0.29089 c -0.12189,0.63719 -0.39616,1.12755 -0.8228,1.47108 -0.42109,0.34907 -1.0001,0.5236 -1.73703,0.5236 h -0.44049 z m 0.66489,-2.69281 c 0,0.24379 0.0637,0.4211 0.19116,0.53191 0.13298,0.11082 0.34076,0.16623 0.62334,0.16623 h 1.01396 v -0.25765 c 0,-0.4488 -0.0859,-0.80341 -0.25765,-1.06383 -0.16622,-0.26595 -0.39616,-0.39893 -0.68982,-0.39893 -0.28258,0 -0.50144,0.0942 -0.65658,0.28258 -0.14961,0.18839 -0.22441,0.43495 -0.22441,0.73969 z m -52.40721,-4.88664 h 0.2992 l 0.008,-0.0332 c -0.0443,-0.0554 -0.0804,-0.11912 -0.10805,-0.19116 -0.0277,-0.0776 -0.0416,-0.15514 -0.0416,-0.23271 0,-0.21609 0.072,-0.39617 0.21609,-0.54023 0.14406,-0.14406 0.3269,-0.21609 0.54853,-0.21609 0.12744,0 0.25765,0.0332 0.39063,0.0997 0.13297,0.0609 0.23271,0.14404 0.2992,0.24933 l -0.30752,0.374 c -0.11081,-0.12743 -0.23825,-0.19115 -0.38231,-0.19115 -0.0997,0 -0.18284,0.0277 -0.24933,0.0831 -0.0665,0.0499 -0.0997,0.11358 -0.0997,0.19115 0,0.11636 0.0526,0.20778 0.15792,0.27427 0.10527,0.0665 0.2521,0.0997 0.44049,0.0997 h 0.53191 v 0.53191 h -1.70378 z m 0.54022,1.16356 h 0.61502 v 5.13628 h -0.61502 z m -6.15024,3.71508 c 0,0.33245 0.10804,0.54577 0.32413,0.63996 l 0.4405,-0.73969 c 0.21055,-0.36569 0.42386,-0.66767 0.63995,-0.90592 0.21609,-0.24379 0.43495,-0.43772 0.65658,-0.58178 0.22163,-0.14406 0.44604,-0.24656 0.67321,-0.30751 0.23271,-0.0609 0.47373,-0.0914 0.72306,-0.0914 0.53745,0 0.95578,0.1496 1.25499,0.4488 0.2992,0.29366 0.4488,0.70091 0.4488,1.22174 0,0.6261 -0.15791,1.07213 -0.47374,1.33809 -0.31582,0.26595 -0.78124,0.39893 -1.39627,0.39893 h -2.4601 c -0.76462,0 -1.21342,-0.2715 -1.3464,-0.81449 h -0.0416 c -0.0609,0.30474 -0.18006,0.51806 -0.35738,0.63996 -0.1773,0.11635 -0.45434,0.17453 -0.83111,0.17453 v -0.54853 l 0.16622,-0.16622 h 0.29089 c 0.47097,0 0.70645,-0.23548 0.70645,-0.70645 v -0.64827 h 0.58178 z m 3.29121,0.70645 c 0.41556,0 0.73415,-0.0693 0.95578,-0.20778 0.22163,-0.13852 0.33245,-0.38231 0.33245,-0.73138 0,-0.34353 -0.0887,-0.60117 -0.26596,-0.77294 -0.17176,-0.17731 -0.41555,-0.26596 -0.73138,-0.26596 h -0.24933 c -0.22163,0 -0.42387,0.0222 -0.60672,0.0665 -0.1773,0.0388 -0.34906,0.11083 -0.51529,0.21609 -0.16068,0.0997 -0.32136,0.24102 -0.48204,0.42387 -0.15514,0.17731 -0.32136,0.40171 -0.49867,0.6732 l -0.35738,0.55685 0.0249,0.0416 z m -0.13298,-3.69015 c -0.11081,0 -0.19946,-0.0305 -0.26595,-0.0914 -0.0665,-0.0665 -0.0997,-0.17174 -0.0997,-0.31583 0,-0.14406 0.0332,-0.24656 0.0997,-0.30751 0.0665,-0.0665 0.15512,-0.0997 0.26595,-0.0997 h 0.0914 c 0.11081,0 0.19946,0.0332 0.26595,0.0997 0.0665,0.0609 0.0997,0.16344 0.0997,0.30751 0,0.14406 -0.0332,0.24934 -0.0997,0.31583 -0.0665,0.0609 -0.15512,0.0914 -0.26595,0.0914 z m -8.03688,6.39958 c -0.72583,0 -1.29099,-0.18285 -1.69547,-0.54854 -0.40447,-0.36569 -0.60671,-0.87544 -0.60671,-1.52925 0,-0.25487 0.0332,-0.5236 0.0997,-0.80618 0.072,-0.28812 0.169,-0.57347 0.29089,-0.85605 l 0.51529,0.15792 c -0.10527,0.21609 -0.19115,0.44326 -0.25764,0.68151 -0.0665,0.23271 -0.0997,0.45434 -0.0997,0.66489 0,0.47097 0.13298,0.83666 0.39894,1.09707 0.26595,0.26041 0.63441,0.39062 1.10538,0.39062 h 0.49867 c 0.58732,0 1.01673,-0.11912 1.28823,-0.35737 0.27703,-0.23271 0.41555,-0.60118 0.41555,-1.10539 0,-0.0886 -0.003,-0.1773 -0.008,-0.26595 -0.005,-0.0887 -0.0164,-0.18562 -0.0332,-0.29089 -0.0111,-0.11081 -0.0305,-0.23271 -0.0582,-0.36569 -0.0222,-0.13298 -0.0499,-0.28258 -0.0831,-0.4488 l -0.14129,-0.68983 0.58178,-0.11635 0.12466,0.68982 c 0.0388,0.21609 0.0693,0.40447 0.0914,0.56516 0.0277,0.15514 0.0471,0.29643 0.0582,0.42387 h 0.81449 v 0.54853 l -0.16623,0.16622 h -0.62333 c -0.0388,0.68706 -0.26043,1.19127 -0.66489,1.51263 -0.40448,0.32137 -1.01951,0.48205 -1.84508,0.48205 z m 0.11636,-4.58775 c -0.11081,0 -0.19947,-0.0305 -0.26596,-0.0914 -0.0665,-0.0665 -0.0997,-0.17174 -0.0997,-0.31583 0,-0.14406 0.0332,-0.24656 0.0997,-0.30751 0.0665,-0.0665 0.15512,-0.0997 0.26596,-0.0997 h 0.0914 c 0.11082,0 0.19947,0.0332 0.26596,0.0997 0.0665,0.0609 0.0997,0.16344 0.0997,0.30751 0,0.14406 -0.0332,0.24934 -0.0997,0.31583 -0.0665,0.0609 -0.15512,0.0914 -0.26596,0.0914 z"
       id="text10"
       style="font-size:8.31114px;line-height:1.25;font-family:'IBM Plex Sans Arabic';-inkscape-font-specification:'IBM Plex Sans Arabic';text-align:center;letter-spacing:0px;word-spacing:2.64583px;direction:rtl;text-anchor:middle;fill:#737373;fill-opacity:1;stroke-width:0.0577162"
       aria-label="رقم لوحة الترخيص هو ⁦12345|A|6⁩ أضن&#10;"
       sodipodi:nodetypes="cssccscccccscccsccccssccscccssscscssssccsccsccsscscssscscsscscssscscsscscsscssccccccscscccccccsssccccscsccccsscccccssccccscsccscscccsccssscccscsccccccsccscscscscsccsccccccccccscsccccscccccccsccccccscccscscccccccscscccscscccscsscscsscscssscscsscscsscccccccscsccscscccssccsccccccccssscccsccsscccscccsccscscsscscssscscsscscssccsccccccccccscsccccscccccccsccscscsscscssccssccssccccccccscscsscscssscscsscscsssssccccsssscsccscccccccccscscscscccccscssscsscssccccccccccccscccccccscsccscccsccccscsscsccccsccccsssccccsccssscccscsccccccsccscscscscsccccssscccscscscccccccccccccccscssssccccccsscccccscsscccccccscscsscscsssssccccscsscsscccccccccccccssscscsscscss" />
    <path
       d="m 159.79092,397.97735 h 1.55419 v -3.94779 h -0.0499 l -1.39627,1.23005 -0.40725,-0.40725 1.47107,-1.32147 h 1.07214 v 4.44646 h 1.42952 v 0.59009 h -3.67353 z m 4.78722,-0.008 1.81183,-1.52094 c 0.61503,-0.52637 0.92254,-1.00011 0.92254,-1.4212 v -0.0831 c 0,-0.28812 -0.0914,-0.51252 -0.27427,-0.67321 -0.17731,-0.16068 -0.42664,-0.24102 -0.748,-0.24102 -0.59287,0 -0.97518,0.28258 -1.14694,0.84774 l -0.61502,-0.23271 c 0.13851,-0.39894 0.36014,-0.70091 0.66489,-0.90592 0.30474,-0.20501 0.68151,-0.30751 1.13031,-0.30751 0.26041,0 0.4959,0.036 0.70645,0.10804 0.21609,0.0665 0.39893,0.1662 0.54853,0.29921 0.1496,0.12743 0.26319,0.28257 0.34076,0.46542 0.0831,0.18285 0.12467,0.38785 0.12467,0.61502 0,0.33245 -0.0997,0.65658 -0.2992,0.97241 -0.19947,0.31582 -0.51252,0.64272 -0.93916,0.98071 l -1.38796,1.10538 h 2.82578 v 0.59009 h -3.66521 z m 6.49932,-2.31881 c 0.34907,0 0.62333,-0.0693 0.8228,-0.20777 0.19947,-0.14406 0.2992,-0.34076 0.2992,-0.5901 v -0.0831 c 0,-0.23271 -0.0887,-0.41279 -0.26596,-0.54022 -0.17176,-0.13298 -0.41278,-0.19947 -0.72307,-0.19947 -0.51529,0 -0.8976,0.21055 -1.14693,0.63165 l -0.50698,-0.39063 c 0.38231,-0.55961 0.93916,-0.83942 1.67054,-0.83942 0.25487,0 0.48481,0.0305 0.68982,0.0914 0.21055,0.0609 0.39062,0.14959 0.54023,0.26596 0.1496,0.11081 0.26595,0.24379 0.34906,0.39893 0.0831,0.15514 0.12467,0.3269 0.12467,0.51529 0,0.29921 -0.0942,0.55408 -0.28258,0.76463 -0.18839,0.20501 -0.4488,0.3463 -0.78125,0.42387 v 0.0332 c 0.36015,0.0665 0.6455,0.21607 0.85605,0.4488 0.21055,0.22717 0.31583,0.50421 0.31583,0.83112 0,0.21609 -0.0471,0.41555 -0.14129,0.5984 -0.0887,0.17731 -0.21886,0.33245 -0.39063,0.46542 -0.16622,0.12744 -0.36569,0.22717 -0.5984,0.2992 -0.23271,0.0665 -0.49036,0.0997 -0.77294,0.0997 -0.38231,0 -0.72306,-0.072 -1.02227,-0.21609 -0.29366,-0.14406 -0.55684,-0.36846 -0.78955,-0.6732 l 0.49866,-0.37401 c 0.17177,0.24379 0.35738,0.41833 0.55685,0.52361 0.19947,0.10527 0.44326,0.15791 0.73138,0.15791 0.38785,0 0.68428,-0.0748 0.88929,-0.2244 0.21055,-0.15514 0.31583,-0.37677 0.31583,-0.66489 v -0.0831 c 0,-0.28811 -0.10528,-0.50697 -0.31583,-0.65658 -0.20501,-0.15514 -0.50144,-0.23271 -0.88929,-0.23271 h -0.63165 v -0.57347 z m 5.83442,1.91157 h -2.67619 v -0.5901 l 2.36037,-3.44081 h 0.9724 v 3.47406 h 0.80618 v 0.55685 h -0.80618 v 1.00564 h -0.65658 z m 0,-0.55685 v -2.9089 h -0.0416 l -1.99467,2.9089 z m 3.47406,-2.87565 -0.15791,1.83676 h 0.0582 c 0.14961,-0.21055 0.31306,-0.36293 0.49036,-0.45712 0.17731,-0.0942 0.3934,-0.14129 0.64827,-0.14129 0.24933,0 0.4765,0.0388 0.68151,0.11636 0.20501,0.072 0.37955,0.17731 0.52361,0.31582 0.14406,0.13852 0.25487,0.30751 0.33244,0.50698 0.0831,0.19393 0.12467,0.41002 0.12467,0.64827 0,0.26042 -0.0443,0.4959 -0.13298,0.70645 -0.0886,0.21055 -0.21609,0.39062 -0.38231,0.54022 -0.16068,0.1496 -0.35738,0.26596 -0.59009,0.34907 -0.23271,0.0776 -0.49313,0.11636 -0.78125,0.11636 -0.7203,0 -1.30208,-0.29643 -1.74534,-0.88929 l 0.51529,-0.39063 c 0.17731,0.25487 0.35738,0.43218 0.54023,0.53191 0.18838,0.0997 0.42109,0.14961 0.69813,0.14961 0.36569,0 0.64827,-0.0859 0.84774,-0.25765 0.19947,-0.17731 0.2992,-0.43218 0.2992,-0.76462 v -0.0831 c 0,-0.33244 -0.0997,-0.58454 -0.2992,-0.75631 -0.19947,-0.17731 -0.48205,-0.26596 -0.84774,-0.26596 -0.20501,0 -0.38231,0.0332 -0.53191,0.0997 -0.1496,0.0609 -0.30474,0.16898 -0.46543,0.32413 l -0.58178,-0.0831 0.19947,-2.75099 h 3.00032 v 0.59841 z m 4.44646,5.58508 v -7.4634 h 0.56516 v 7.4634 z m 5.99233,-1.14694 -0.58178,-1.71209 h -2.34374 l -0.58178,1.71209 h -0.70645 l 2.02792,-5.80117 h 0.88929 l 2.02792,5.80117 z m -1.73703,-5.1529 h -0.0416 l -0.98071,2.82578 h 2.00298 z m 3.68184,6.29984 v -7.4634 h 0.56516 v 7.4634 z m 4.08908,-1.0472 c -0.2992,0 -0.5707,-0.0499 -0.81449,-0.1496 -0.23825,-0.10527 -0.44326,-0.2521 -0.61503,-0.44049 -0.16622,-0.19393 -0.29366,-0.42941 -0.38231,-0.70645 -0.0887,-0.27704 -0.13298,-0.58732 -0.13298,-0.93085 0,-0.43218 0.0637,-0.83665 0.19116,-1.21342 0.12743,-0.38231 0.29088,-0.72861 0.49035,-1.0389 0.20501,-0.31582 0.42942,-0.59286 0.67321,-0.83111 0.24379,-0.24379 0.48204,-0.44049 0.71475,-0.59009 h 0.89761 c -0.31029,0.22717 -0.58733,0.4488 -0.83112,0.66489 -0.24379,0.21609 -0.45711,0.44326 -0.63995,0.68151 -0.18285,0.23271 -0.33799,0.48482 -0.46543,0.75632 -0.12743,0.26595 -0.22994,0.56792 -0.30751,0.90591 l 0.0416,0.0166 c 0.13852,-0.23825 0.31583,-0.43495 0.53192,-0.59009 0.22163,-0.16068 0.50975,-0.24102 0.86436,-0.24102 0.24933,0 0.47927,0.0416 0.68982,0.12467 0.21055,0.0831 0.39062,0.20223 0.54023,0.35738 0.1496,0.15514 0.26595,0.34352 0.34906,0.56515 0.0887,0.22163 0.13298,0.4682 0.13298,0.73969 0,0.28258 -0.0471,0.543 -0.14129,0.78125 -0.0887,0.23271 -0.21886,0.43495 -0.39062,0.60671 -0.16623,0.16623 -0.36846,0.29644 -0.60671,0.39063 -0.23825,0.0942 -0.50144,0.14129 -0.78956,0.14129 z m -0.008,-0.60672 c 0.38231,0 0.67874,-0.10527 0.88929,-0.31582 0.21609,-0.21055 0.32413,-0.51252 0.32413,-0.90591 v -0.0665 c 0,-0.39339 -0.10804,-0.69537 -0.32413,-0.90592 -0.21055,-0.21055 -0.50698,-0.31582 -0.88929,-0.31582 -0.38231,0 -0.68152,0.10527 -0.89761,0.31582 -0.21055,0.21055 -0.31582,0.51253 -0.31582,0.90592 v 0.0665 c 0,0.39339 0.10527,0.69536 0.31582,0.90591 0.21609,0.21055 0.5153,0.31582 0.89761,0.31582 z"
       id="path1"
       style="font-size:8.31114px;line-height:1.25;font-family:'IBM Plex Sans Arabic';-inkscape-font-specification:'IBM Plex Sans Arabic';text-align:center;letter-spacing:0px;word-spacing:2.64583px;direction:rtl;text-anchor:middle;fill:#fb660a;fill-opacity:1;stroke-width:0.0577162"
       aria-label="رقم لوحة الترخيص هو ⁦12345|A|6⁩ أضن&#10;"
       sodipodi:nodetypes="cccccccccccccccsscsccsscccssccccccccsscsccsccssccccscccscccsscsscscccccccccccccccccccccccsscscssccscccscsscsccccccccccccccccccccccccccccccccccsscccccscccccssscscssccscsscscsscs" />
  </g>
</svg>
