<?xml version="1.0" encoding="UTF-8" standalone="no"?>
<!-- Created with Inkscape (http://www.inkscape.org/) -->

<svg
   width="140.02393mm"
   height="10.056479mm"
   viewBox="0 0 140.02393 10.056479"
   version="1.1"
   id="svg1"
   sodipodi:docname="bidi-obtain.svg"
   inkscape:version="1.4 (e7c3feb100, 2024-10-09)"
   xmlns:inkscape="http://www.inkscape.org/namespaces/inkscape"
   xmlns:sodipodi="http://sodipodi.sourceforge.net/DTD/sodipodi-0.dtd"
   xmlns="http://www.w3.org/2000/svg"
   xmlns:svg="http://www.w3.org/2000/svg">
  <sodipodi:namedview
     id="namedview1"
     pagecolor="#ffffff"
     bordercolor="#666666"
     borderopacity="1.0"
     inkscape:showpageshadow="2"
     inkscape:pageopacity="0.0"
     inkscape:pagecheckerboard="0"
     inkscape:deskcolor="#d1d1d1"
     inkscape:document-units="mm"
     inkscape:zoom="2.1219734"
     inkscape:cx="137.84339"
     inkscape:cy="19.086007"
     inkscape:window-width="1920"
     inkscape:window-height="1080"
     inkscape:window-x="0"
     inkscape:window-y="0"
     inkscape:window-maximized="1"
     inkscape:current-layer="layer1" />
  <defs
     id="defs1" />
  <g
     inkscape:label="Calque 1"
     inkscape:groupmode="layer"
     id="layer1"
     transform="translate(-29.368746,18.520834)">
    <path
       d="m 167.02399,-9.727648 h 0.30751 c 0.30475,0 0.55408,-0.044326 0.74801,-0.1329783 0.19393,-0.088652 0.3463,-0.2077787 0.45711,-0.3573787 0.11081,-0.14406 0.18838,-0.315824 0.23271,-0.515291 0.0443,-0.193927 0.0665,-0.398935 0.0665,-0.615024 0,-0.160682 -0.008,-0.326905 -0.0249,-0.498669 -0.0166,-0.177304 -0.0388,-0.346297 -0.0665,-0.506979 l -0.17454,-0.939159 0.58178,-0.116356 0.10805,0.631647 c 0.0887,0.509749 0.13298,0.991795 0.13298,1.446138 0,0.304742 -0.0332,0.595632 -0.0997,0.87267 -0.0665,0.282579 -0.18005,0.5291424 -0.34076,0.7396911 -0.15514,0.2160897 -0.36569,0.3878532 -0.63164,0.5152907 -0.26042,0.1274375 -0.5901,0.1911562 -0.98903,0.1911562 h -0.30751 z m -3.41588,-1.828451 0.16623,-0.166223 h 1.5708 c 0.22717,0 0.41833,-0.01939 0.57347,-0.05818 0.15514,-0.03879 0.27981,-0.102505 0.374,-0.191156 0.0997,-0.08865 0.16899,-0.202238 0.20778,-0.340757 0.0443,-0.144059 0.0665,-0.318593 0.0665,-0.523601 v -0.265957 h -0.0416 c -0.0776,0.182845 -0.20777,0.326905 -0.39062,0.432179 -0.17731,0.105275 -0.38786,0.157912 -0.63165,0.157912 -0.44326,0 -0.78679,-0.113586 -1.03058,-0.340757 -0.24379,-0.227171 -0.36569,-0.548535 -0.36569,-0.964092 0,-0.243793 0.036,-0.473735 0.10805,-0.689825 0.0776,-0.216089 0.18284,-0.404475 0.31582,-0.565157 0.13298,-0.160682 0.29089,-0.28812 0.47374,-0.382313 0.18838,-0.09419 0.39339,-0.141289 0.61502,-0.141289 0.47651,0 0.85051,0.205008 1.122,0.615024 0.2715,0.410017 0.40725,0.986256 0.40725,1.728718 0,0.415557 -0.0305,0.767395 -0.0914,1.055514 -0.0609,0.28812 -0.16344,0.520832 -0.30751,0.698136 -0.13852,0.171763 -0.32414,0.29643 -0.55685,0.374001 -0.22717,0.07757 -0.50975,0.116356 -0.84774,0.116356 h -1.73703 z m 2.06117,-1.687161 c 0.23825,0 0.42664,-0.01939 0.56515,-0.05818 0.14406,-0.04433 0.25488,-0.110816 0.33245,-0.199468 -0.0111,-0.421097 -0.10526,-0.756313 -0.28258,-1.005648 -0.1773,-0.249334 -0.41555,-0.374001 -0.71476,-0.374001 -0.28257,0 -0.50143,0.09142 -0.65658,0.274268 -0.1496,0.177304 -0.2244,0.412786 -0.2244,0.706447 0,0.232712 0.0637,0.401705 0.19116,0.506979 0.13298,0.09973 0.34076,0.149601 0.62333,0.149601 z m 0.41555,-3.34939 c -0.11081,0 -0.19946,-0.03047 -0.26595,-0.09142 -0.0665,-0.06649 -0.0997,-0.171761 -0.0997,-0.315824 0,-0.144059 0.0332,-0.246563 0.0997,-0.307512 0.0665,-0.06649 0.15512,-0.09973 0.26595,-0.09973 h 0.0914 c 0.11081,0 0.19946,0.03324 0.26595,0.09973 0.0665,0.06095 0.0997,0.163451 0.0997,0.307512 0,0.14406 -0.0332,0.249335 -0.0997,0.315824 -0.0665,0.06095 -0.15512,0.09142 -0.26595,0.09142 z m -1.07213,0 c -0.11082,0 -0.19947,-0.03047 -0.26596,-0.09142 -0.0665,-0.06649 -0.0997,-0.171761 -0.0997,-0.315824 0,-0.144059 0.0332,-0.246563 0.0997,-0.307512 0.0665,-0.06649 0.15512,-0.09973 0.26596,-0.09973 h 0.0914 c 0.11081,0 0.19947,0.03324 0.26596,0.09973 0.0665,0.06095 0.0997,0.163451 0.0997,0.307512 0,0.14406 -0.0332,0.249335 -0.0997,0.315824 -0.0665,0.06095 -0.15512,0.09142 -0.26596,0.09142 z m -6.1087,5.46873 c 0,-0.321364 0.0222,-0.598402 0.0665,-0.831114 0.0443,-0.232711 0.12467,-0.437719 0.24102,-0.615024 0.11636,-0.177304 0.2715,-0.337986 0.46543,-0.482046 0.19947,-0.14406 0.45434,-0.29089 0.76462,-0.44049 l 1.1885,-0.58178 h 0.64827 l 0.59009,1.60405 c 0.0554,0.149601 0.10527,0.274268 0.1496,0.374001 0.0499,0.09419 0.1025,0.168993 0.15791,0.224401 0.0554,0.05541 0.11635,0.09419 0.18284,0.116356 0.072,0.02216 0.15515,0.03324 0.24934,0.03324 h 0.16622 v 0.548536 l -0.16622,0.166222 c -0.26042,0 -0.4682,-0.03602 -0.62334,-0.108044 -0.15514,-0.07757 -0.29366,-0.227171 -0.41555,-0.448802 l -0.0499,0.01662 v 0.540224 h -0.98903 c -0.45434,0 -0.80895,-0.08865 -1.06382,-0.265956 -0.25488,-0.177305 -0.38232,-0.423869 -0.38232,-0.739692 0,-0.29366 0.11359,-0.529142 0.34076,-0.706446 l -0.0332,-0.03324 -0.25765,0.149601 c -0.12189,0.07757 -0.2244,0.15514 -0.30751,0.232711 -0.0776,0.07757 -0.13852,0.171764 -0.18285,0.282579 -0.0443,0.110815 -0.0776,0.243794 -0.0997,0.398935 -0.0166,0.155141 -0.0249,0.343527 -0.0249,0.565157 v 2.6595653 H 158.904 Z m 1.67885,-1.180181 c 0,0.199467 0.0803,0.346297 0.24103,0.44049 0.16068,0.09419 0.41278,0.141289 0.75631,0.141289 h 0.90591 c -0.0609,-0.127437 -0.12742,-0.29089 -0.19946,-0.490357 l -0.44049,-1.180182 -0.34076,0.157912 c -0.18285,0.08311 -0.33245,0.163452 -0.4488,0.241023 -0.11636,0.07203 -0.21055,0.14406 -0.28258,0.21609 -0.072,0.07203 -0.1219,0.146829 -0.1496,0.2244 -0.0277,0.07757 -0.0416,0.160682 -0.0416,0.249335 z m -9.18667,0.748002 0.16622,-0.166223 h 0.24102 c 0.26596,0 0.45712,-0.06095 0.57347,-0.182845 0.1219,-0.121897 0.18285,-0.315823 0.18285,-0.58178 v -4.67086 h 0.61502 v 4.67086 c 0,0.50975 -0.11081,0.883751 -0.33244,1.122004 -0.21609,0.238253 -0.56239,0.357379 -1.0389,0.357379 h -0.40724 z m -3.29123,1.828451 h 0.44049 c 0.60395,0 1.06937,-0.1135857 1.39627,-0.340757 0.33245,-0.22163 0.53746,-0.534683 0.61503,-0.939159 h -0.97241 c -0.44326,0 -0.78679,-0.116356 -1.03058,-0.349067 -0.24379,-0.232712 -0.36569,-0.559617 -0.36569,-0.980715 0,-0.249334 0.036,-0.484816 0.10805,-0.706447 0.0776,-0.221631 0.18284,-0.412787 0.31582,-0.573469 0.13298,-0.166223 0.29089,-0.29643 0.47374,-0.390623 0.18838,-0.09973 0.39339,-0.149601 0.61502,-0.149601 0.45988,0 0.82003,0.205008 1.08045,0.615025 0.26595,0.410016 0.39893,0.986255 0.39893,1.728717 v 0.09142 h 0.38232 v 0.548536 l -0.16623,0.166222 h -0.29089 c -0.12189,0.637188 -0.39616,1.1275454 -0.8228,1.4710722 -0.4211,0.3490679 -1.00011,0.5236018 -1.73703,0.5236018 h -0.44049 z m 0.66489,-2.692809 c 0,0.243793 0.0637,0.421098 0.19116,0.531913 0.13298,0.110815 0.34076,0.166222 0.62333,0.166222 h 1.01396 v -0.257645 c 0,-0.448801 -0.0859,-0.80341 -0.25764,-1.063826 -0.16623,-0.265957 -0.39617,-0.398935 -0.68983,-0.398935 -0.28258,0 -0.50144,0.09419 -0.65658,0.282579 -0.1496,0.188386 -0.2244,0.43495 -0.2244,0.739692 z m -6.38295,0.864358 0.16622,-0.166223 h 0.28258 c 0.24379,0 0.46819,-0.0083 0.6732,-0.02493 0.21055,-0.01662 0.42387,-0.04709 0.63996,-0.09142 0.21609,-0.04987 0.44326,-0.119126 0.68151,-0.207778 0.24379,-0.08865 0.51806,-0.205008 0.8228,-0.349068 l 0.76463,-0.36569 v -0.03324 l -1.23005,-0.274267 -1.72041,-0.423868 v 0.714758 h -0.58178 v -0.639958 c 0,-0.232712 0.0637,-0.407246 0.19116,-0.523602 0.13298,-0.121897 0.2992,-0.182845 0.49867,-0.182845 0.0609,0 0.13296,0.0083 0.21609,0.02493 0.0887,0.01108 0.2244,0.03878 0.40724,0.08311 l 2.02792,0.523602 c 0.30474,0.07757 0.55962,0.132977 0.76463,0.166222 0.20501,0.02771 0.38231,0.04156 0.53191,0.04156 h 0.13298 v 0.714758 h -0.64827 l -1.13032,0.681514 c -0.34353,0.205008 -0.64827,0.36846 -0.91422,0.490357 -0.26596,0.116356 -0.51529,0.205008 -0.748,0.265956 -0.23271,0.05541 -0.45989,0.09142 -0.68152,0.108045 -0.21609,0.01108 -0.4488,0.01662 -0.69813,0.01662 h -0.4488 z m 0,0.548535 c -0.25488,0 -0.47097,-0.01939 -0.64827,-0.05818 -0.17177,-0.04433 -0.31306,-0.113586 -0.42387,-0.207778 -0.10527,-0.09973 -0.18284,-0.224401 -0.23271,-0.374001 -0.0499,-0.155141 -0.0748,-0.346298 -0.0748,-0.573469 v -0.141289 h -0.0416 c -0.0776,0.249334 -0.21054,0.43772 -0.39893,0.565157 -0.18285,0.121897 -0.40448,0.182845 -0.66489,0.182845 -0.37123,0 -0.66212,-0.09973 -0.87267,-0.299201 -0.20501,-0.199467 -0.30752,-0.482046 -0.30752,-0.847736 0,-0.155141 0.0249,-0.299201 0.0748,-0.432179 0.0499,-0.138519 0.13021,-0.271498 0.24103,-0.398935 0.11635,-0.132979 0.26318,-0.263187 0.44049,-0.390624 0.1773,-0.132978 0.39339,-0.271497 0.64827,-0.415557 l 0.83942,-0.482046 v -0.415557 h 0.58178 v 2.992011 c 0,0.227171 0.0582,0.382312 0.17454,0.465423 0.11635,0.07757 0.29643,0.116356 0.54022,0.116356 h 0.29089 v 0.548536 z m -2.36037,-1.321471 c 0.33799,0 0.57901,-0.0471 0.72307,-0.141289 0.14406,-0.09973 0.21609,-0.274268 0.21609,-0.523602 v -1.213427 l -0.83942,0.448802 c -0.29366,0.160682 -0.50421,0.310283 -0.63165,0.448802 -0.12744,0.132978 -0.19116,0.288119 -0.19116,0.465423 0,0.177305 0.0526,0.307513 0.15792,0.390624 0.11081,0.08311 0.2992,0.124667 0.56515,0.124667 z m 1.20512,-3.656901 c -0.11081,0 -0.19947,-0.03047 -0.26596,-0.09142 -0.0665,-0.06649 -0.0997,-0.171761 -0.0997,-0.315823 0,-0.14406 0.0332,-0.246564 0.0997,-0.307513 0.0665,-0.06649 0.15512,-0.09973 0.26596,-0.09973 h 0.0914 c 0.11081,0 0.19947,0.03324 0.26596,0.09973 0.0665,0.06095 0.0997,0.163451 0.0997,0.307513 0,0.144059 -0.0332,0.249334 -0.0997,0.315823 -0.0665,0.06095 -0.15512,0.09142 -0.26596,0.09142 z m -1.07214,0 c -0.11081,0 -0.19946,-0.03047 -0.26595,-0.09142 -0.0665,-0.06649 -0.0997,-0.171761 -0.0997,-0.315823 0,-0.14406 0.0332,-0.246564 0.0997,-0.307513 0.0665,-0.06649 0.15512,-0.09973 0.26595,-0.09973 h 0.0914 c 0.11082,0 0.19947,0.03324 0.26596,0.09973 0.0665,0.06095 0.0997,0.163451 0.0997,0.307513 0,0.144059 -0.0332,0.249334 -0.0997,0.315823 -0.0665,0.06095 -0.15512,0.09142 -0.26596,0.09142 z m -7.40812,-1.171871 h 0.61502 v 6.150243 h -0.61502 z m -3.02525,5.601708 0.16623,-0.166223 h 0.24102 c 0.26595,0 0.45711,-0.06095 0.57347,-0.182845 0.12189,-0.121897 0.18284,-0.315823 0.18284,-0.58178 v -4.67086 h 0.61503 v 4.67086 c 0,0.50975 -0.11082,0.883751 -0.33245,1.122004 -0.21609,0.238253 -0.56238,0.357379 -1.03889,0.357379 h -0.40725 z m -5.11135,1.828451 h 0.30751 c 0.30475,0 0.55408,-0.044326 0.74801,-0.1329783 0.19392,-0.088652 0.34629,-0.2077787 0.45711,-0.3573787 0.11081,-0.14406 0.18838,-0.315824 0.23271,-0.515291 0.0443,-0.193927 0.0665,-0.398935 0.0665,-0.615024 0,-0.160682 -0.008,-0.326905 -0.0249,-0.498669 -0.0166,-0.177304 -0.0388,-0.346297 -0.0665,-0.506979 l -0.17454,-0.939159 0.58178,-0.116356 0.0997,0.598402 1.46276,-0.249334 v -0.681514 h 0.58178 v 1.437828 c 0,0.210549 0.0582,0.360149 0.17453,0.448801 0.11635,0.08865 0.29643,0.132978 0.54022,0.132978 h 0.29089 v 0.548536 l -0.16622,0.166222 h -0.0166 c -0.25487,0 -0.47096,-0.02216 -0.64827,-0.06649 -0.17731,-0.04987 -0.32414,-0.124667 -0.44049,-0.2244 -0.11081,-0.105275 -0.19115,-0.241023 -0.24102,-0.407246 -0.0499,-0.166223 -0.0748,-0.365691 -0.0748,-0.598402 v -0.06649 l -1.36303,0.232712 c 0.0111,0.138519 0.0194,0.274268 0.0249,0.407246 0.0111,0.132979 0.0166,0.265957 0.0166,0.398935 0,0.304742 -0.0332,0.595632 -0.0997,0.87267 -0.0665,0.282579 -0.18005,0.5291424 -0.34076,0.7396911 -0.15514,0.2160897 -0.36569,0.3878532 -0.63164,0.5152907 -0.26042,0.1274375 -0.5901,0.1911562 -0.98903,0.1911562 h -0.30751 z m 4.44646,-5.011617 c -0.11081,0 -0.19947,-0.03047 -0.26596,-0.09142 -0.0665,-0.06649 -0.0997,-0.171761 -0.0997,-0.315823 0,-0.14406 0.0332,-0.246564 0.0997,-0.307513 0.0665,-0.06649 0.15512,-0.09973 0.26596,-0.09973 h 0.0914 c 0.11082,0 0.19947,0.03324 0.26596,0.09973 0.0665,0.06095 0.0997,0.163451 0.0997,0.307513 0,0.144059 -0.0332,0.249334 -0.0997,0.315823 -0.0665,0.06095 -0.15512,0.09142 -0.26596,0.09142 z m -1.07214,0 c -0.11081,0 -0.19946,-0.03047 -0.26595,-0.09142 -0.0665,-0.06649 -0.0997,-0.171761 -0.0997,-0.315823 0,-0.14406 0.0332,-0.246564 0.0997,-0.307513 0.0665,-0.06649 0.15512,-0.09973 0.26595,-0.09973 h 0.0914 c 0.11081,0 0.19946,0.03324 0.26595,0.09973 0.0665,0.06095 0.0997,0.163451 0.0997,0.307513 0,0.144059 -0.0332,0.249334 -0.0997,0.315823 -0.0665,0.06095 -0.15512,0.09142 -0.26595,0.09142 z m -7.9787,3.183166 0.16622,-0.166223 h 0.28258 c 0.24379,0 0.46819,-0.0083 0.6732,-0.02493 0.21055,-0.01662 0.42387,-0.04709 0.63996,-0.09142 0.21609,-0.04987 0.44326,-0.119126 0.68151,-0.207778 0.24379,-0.08865 0.51806,-0.205008 0.82281,-0.349068 l 0.76462,-0.36569 v -0.03324 l -1.23005,-0.274267 -1.7204,-0.423868 v 0.714758 h -0.58178 v -0.639958 c 0,-0.232712 0.0637,-0.407246 0.19115,-0.523602 0.13298,-0.121897 0.2992,-0.182845 0.49867,-0.182845 0.0609,0 0.13296,0.0083 0.21609,0.02493 0.0887,0.01108 0.2244,0.03878 0.40725,0.08311 l 2.02791,0.523602 c 0.30475,0.07757 0.55962,0.132977 0.76463,0.166222 0.20501,0.02771 0.38231,0.04156 0.53191,0.04156 h 0.13298 v 0.714758 h -0.64827 l -1.13031,0.681514 c -0.34353,0.205008 -0.64827,0.36846 -0.91423,0.490357 -0.26595,0.116356 -0.51529,0.205008 -0.748,0.265956 -0.23271,0.05541 -0.45989,0.09142 -0.68152,0.108045 -0.21609,0.01108 -0.4488,0.01662 -0.69813,0.01662 h -0.4488 z m 2.22738,-3.515612 c -0.11081,0 -0.19946,-0.03047 -0.26595,-0.09142 -0.0665,-0.06649 -0.0997,-0.171761 -0.0997,-0.315823 0,-0.14406 0.0332,-0.246564 0.0997,-0.307512 0.0665,-0.06649 0.15512,-0.09973 0.26595,-0.09973 h 0.0914 c 0.11081,0 0.19946,0.03324 0.26595,0.09973 0.0665,0.06095 0.0997,0.163451 0.0997,0.307512 0,0.14406 -0.0332,0.249334 -0.0997,0.315823 -0.0665,0.06095 -0.15512,0.09142 -0.26595,0.09142 z m -4.80382,3.515612 0.16622,-0.166223 h 0.29089 c 0.47097,0 0.70645,-0.235482 0.70645,-0.706447 v -1.31316 h 0.58178 v 1.31316 c 0,0.470965 0.23548,0.706447 0.70644,0.706447 h 0.29089 v 0.548536 l -0.16622,0.166222 c -0.76463,0 -1.21343,-0.271497 -1.3464,-0.814491 h -0.0416 c -0.0609,0.304741 -0.18006,0.51806 -0.35738,0.639957 -0.1773,0.116356 -0.45434,0.174534 -0.83111,0.174534 z m 1.94481,2.2107634 c -0.11082,0 -0.19947,-0.033245 -0.26596,-0.099734 -0.0665,-0.060949 -0.0997,-0.1634527 -0.0997,-0.3075121 0,-0.1440598 0.0332,-0.2493343 0.0997,-0.3158233 0.0665,-0.06095 0.15512,-0.09142 0.26596,-0.09142 h 0.0914 c 0.11081,0 0.19946,0.03047 0.26595,0.09142 0.0665,0.06649 0.0997,0.1717636 0.0997,0.3158233 0,0.1440597 -0.0332,0.2465638 -0.0997,0.3075121 -0.0665,0.066489 -0.15512,0.099734 -0.26595,0.099734 z m -1.07214,0 c -0.11081,0 -0.19947,-0.033245 -0.26596,-0.099734 -0.0665,-0.060949 -0.0997,-0.1634527 -0.0997,-0.3075121 0,-0.1440598 0.0332,-0.2493343 0.0997,-0.3158233 0.0665,-0.06095 0.15512,-0.09142 0.26596,-0.09142 h 0.0914 c 0.11081,0 0.19947,0.03047 0.26596,0.09142 0.0665,0.06649 0.0997,0.1717636 0.0997,0.3158233 0,0.1440597 -0.0332,0.2465638 -0.0997,0.3075121 -0.0665,0.066489 -0.15512,0.099734 -0.26596,0.099734 z m -8.5023,0.3324456 c -0.72584,0 -1.291,-0.1828451 -1.69547,-0.5485352 -0.40447,-0.3656899 -0.60671,-0.8754398 -0.60671,-1.5292498 0,-0.254875 0.0332,-0.523602 0.0997,-0.806181 0.072,-0.288119 0.16899,-0.573468 0.29089,-0.856047 l 0.51529,0.157912 c -0.10527,0.216089 -0.19116,0.44326 -0.25765,0.681513 -0.0665,0.232712 -0.0997,0.454342 -0.0997,0.664891 0,0.470965 0.13298,0.836655 0.39894,1.097071 0.26595,0.2604156 0.63441,0.3906234 1.10538,0.3906234 h 0.49867 c 0.58732,0 1.01673,-0.1191265 1.28822,-0.3573794 0.27704,-0.232711 0.41556,-0.601172 0.41556,-1.105381 0,-0.06649 -0.003,-0.135746 -0.008,-0.207779 0,-0.07203 -0.008,-0.157912 -0.0249,-0.257645 -0.0111,-0.105275 -0.0305,-0.229942 -0.0582,-0.374001 -0.0277,-0.14406 -0.0665,-0.321364 -0.11636,-0.531913 l -0.0831,-0.365691 0.58178,-0.116355 0.0748,0.36569 c 0.0443,0.232712 0.0803,0.429409 0.10804,0.590091 0.0277,0.155141 0.0471,0.288119 0.0582,0.398934 h 0.0166 l 0.47374,-0.80618 c 0.21055,-0.36569 0.42387,-0.667661 0.63996,-0.905914 0.21609,-0.243794 0.43495,-0.437721 0.65658,-0.58178 0.22163,-0.14406 0.44603,-0.246564 0.6732,-0.307512 0.23271,-0.06095 0.47374,-0.09142 0.72307,-0.09142 0.53745,0 0.95578,0.149601 1.25498,0.448802 0.2992,0.29366 0.4488,0.700906 0.4488,1.221737 0,0.387853 -0.0637,0.709217 -0.19115,0.964092 0.11635,0.03879 0.26595,0.05818 0.4488,0.05818 h 0.16622 v 0.548536 l -0.16622,0.166222 c -0.21055,0 -0.38786,-0.01662 -0.53191,-0.04987 -0.13852,-0.03879 -0.26596,-0.110817 -0.38232,-0.21609 -0.28812,0.177304 -0.69259,0.265956 -1.21342,0.265956 h -2.99201 c -0.0388,0.687055 -0.26043,1.1912638 -0.6649,1.5126279 -0.40447,0.3213641 -1.0195,0.4820461 -1.84507,0.4820461 z m 5.50198,-2.709432 c 0.41555,0 0.73415,-0.06926 0.95578,-0.207778 0.22163,-0.138519 0.33244,-0.382313 0.33244,-0.73138 0,-0.343527 -0.0887,-0.601173 -0.26595,-0.772936 -0.17177,-0.177305 -0.41556,-0.265957 -0.73138,-0.265957 h -0.24934 c -0.22163,0 -0.42386,0.02216 -0.60671,0.06649 -0.17731,0.03879 -0.34907,0.110817 -0.51529,0.21609 -0.16068,0.09973 -0.32136,0.241023 -0.48205,0.423868 -0.15514,0.177304 -0.32136,0.401705 -0.49867,0.673202 l -0.35738,0.556847 0.0249,0.04156 z m -18.112853,0.166223 0.166223,-0.166223 h 1.205115 l 0.01662,-0.03324 c -0.271497,-0.210549 -0.482046,-0.448802 -0.631646,-0.714758 -0.14406,-0.265957 -0.21609,-0.540224 -0.21609,-0.822803 0,-0.205008 0.03324,-0.398935 0.09973,-0.58178 0.07203,-0.188386 0.166223,-0.351838 0.282579,-0.490357 0.116355,-0.14406 0.252104,-0.263186 0.407245,-0.357379 0.160682,-0.09419 0.332446,-0.152371 0.515291,-0.174534 l 0.299201,-0.498669 1.254975,0.764625 c 0.28812,0.177305 0.53192,0.357379 0.73138,0.540224 0.20502,0.182845 0.37124,0.382313 0.49867,0.598403 0.12744,0.216089 0.21887,0.454342 0.27427,0.714758 0.0609,0.254875 0.0914,0.548535 0.0914,0.88098 v 0.166223 l -0.49036,0.723069 h -0.94747 c -0.28257,0 -0.55406,-0.03047 -0.814483,-0.09142 -0.260415,-0.06649 -0.506979,-0.16345 -0.739691,-0.29089 -0.232712,0.127437 -0.479276,0.224401 -0.739692,0.29089 -0.260415,0.06095 -0.531912,0.09142 -0.814491,0.09142 h -0.448802 z m 2.002985,-0.415557 c 0.265956,-0.155141 0.479275,-0.349068 0.639958,-0.58178 0.16068,-0.238253 0.24102,-0.484816 0.24102,-0.739691 0,-0.299201 -0.07757,-0.537454 -0.232709,-0.714758 -0.149601,-0.177305 -0.351839,-0.265957 -0.606714,-0.265957 h -0.08311 c -0.254875,0 -0.459883,0.08865 -0.615024,0.265957 -0.149601,0.177304 -0.224401,0.415557 -0.224401,0.714758 0,0.254875 0.08034,0.501438 0.241023,0.739691 0.160682,0.232712 0.374001,0.426639 0.639957,0.58178 z m 1.363028,-1.878317 c 0.0665,0.177304 0.0997,0.362919 0.0997,0.556846 0,0.282579 -0.0748,0.556846 -0.2244,0.822803 -0.14406,0.265956 -0.35184,0.504209 -0.623334,0.714758 l 0.01662,0.03324 h 1.778584 v -0.09142 c 0,-0.249334 -0.0194,-0.473735 -0.0582,-0.673203 -0.0388,-0.199467 -0.0998,-0.382312 -0.18284,-0.548535 -0.0831,-0.166223 -0.19116,-0.315823 -0.32414,-0.448801 -0.12744,-0.138519 -0.27981,-0.268727 -0.45711,-0.390624 z m -6.65724,4.122325 h 0.440491 c 0.603943,0 1.069366,-0.1135857 1.396271,-0.340757 0.332446,-0.22163 0.537454,-0.534683 0.615024,-0.939159 h -0.972403 c -0.443261,0 -0.786788,-0.116356 -1.030581,-0.349067 -0.243793,-0.232712 -0.36569,-0.559617 -0.36569,-0.980715 0,-0.249334 0.03601,-0.484816 0.108044,-0.706447 0.07757,-0.221631 0.182845,-0.412787 0.315824,-0.573469 0.132978,-0.166223 0.29089,-0.29643 0.473735,-0.390623 0.188385,-0.09973 0.393393,-0.149601 0.615024,-0.149601 0.459883,0 0.820033,0.205008 1.080448,0.615025 0.265957,0.410016 0.398935,0.986255 0.398935,1.728717 v 0.09142 h 0.382312 v 0.548536 l -0.166222,0.166222 h -0.29089 c -0.121897,0.637188 -0.396164,1.1275454 -0.822803,1.4710722 -0.421098,0.3490692 -1.000107,0.5236038 -1.737028,0.5236038 H 93.90223 Z m 0.664891,-2.692809 c 0,0.243793 0.06372,0.421098 0.191157,0.531913 0.132978,0.110815 0.340756,0.166222 0.623335,0.166222 h 1.013959 v -0.257645 c 0,-0.448801 -0.08588,-0.80341 -0.257645,-1.063826 -0.166223,-0.265957 -0.396164,-0.398935 -0.689825,-0.398935 -0.282579,0 -0.501439,0.09419 -0.65658,0.282579 -0.149601,0.188386 -0.224401,0.43495 -0.224401,0.739692 z m -52.407517,-4.886951 h 0.299201 l 0.0083,-0.03324 c -0.04433,-0.05541 -0.08034,-0.119126 -0.108045,-0.191157 -0.02771,-0.07757 -0.04156,-0.15514 -0.04156,-0.232711 0,-0.21609 0.07203,-0.396165 0.21609,-0.540225 0.14406,-0.144059 0.326905,-0.216089 0.548535,-0.216089 0.127438,0 0.257646,0.03324 0.390624,0.09973 0.132978,0.06095 0.232712,0.144058 0.299201,0.249335 l -0.307512,0.374001 c -0.110815,-0.127437 -0.238253,-0.191156 -0.382313,-0.191156 -0.09973,0 -0.182845,0.0277 -0.249334,0.08311 -0.06649,0.04987 -0.09973,0.113585 -0.09973,0.191156 0,0.116356 0.05264,0.207779 0.157912,0.274268 0.105275,0.06649 0.252105,0.09973 0.440491,0.09973 h 0.531913 v 0.531913 h -1.703784 z m 0.540224,1.16356 h 0.615024 v 5.136284 h -0.615024 z m -6.15024,3.715079 c 0,0.332446 0.108045,0.545765 0.324135,0.639958 l 0.44049,-0.739691 c 0.210549,-0.36569 0.423868,-0.667661 0.639958,-0.905914 0.216089,-0.243794 0.434949,-0.437721 0.65658,-0.58178 0.22163,-0.14406 0.446031,-0.246564 0.673202,-0.307512 0.232712,-0.06095 0.473735,-0.09142 0.723069,-0.09142 0.537454,0 0.955782,0.149601 1.254983,0.448802 0.299201,0.29366 0.448801,0.700906 0.448801,1.221737 0,0.626106 -0.157912,1.072137 -0.473735,1.338094 -0.315823,0.265956 -0.781247,0.398934 -1.396271,0.398934 h -2.460098 c -0.764625,0 -1.213426,-0.271497 -1.346405,-0.814491 h -0.04156 c -0.06095,0.304741 -0.180073,0.51806 -0.357379,0.639957 -0.177305,0.116356 -0.454343,0.174534 -0.831114,0.174534 v -0.548535 l 0.166222,-0.166223 h 0.29089 c 0.470965,0 0.706447,-0.235482 0.706447,-0.706447 v -0.648268 h 0.58178 z m 3.291212,0.706447 c 0.415557,0 0.73415,-0.06926 0.955781,-0.207778 0.22163,-0.138519 0.332445,-0.382313 0.332445,-0.73138 0,-0.343527 -0.08865,-0.601173 -0.265956,-0.772936 -0.171764,-0.177305 -0.415558,-0.265957 -0.731381,-0.265957 h -0.249334 c -0.22163,0 -0.423868,0.02216 -0.606713,0.06649 -0.177304,0.03879 -0.349068,0.110817 -0.515291,0.21609 -0.160682,0.09973 -0.321364,0.241023 -0.482046,0.423868 -0.155141,0.177304 -0.321364,0.401705 -0.498668,0.673202 l -0.357379,0.556847 0.02493,0.04156 z m -0.132979,-3.690146 c -0.110815,0 -0.199467,-0.03047 -0.265956,-0.09142 -0.06649,-0.06649 -0.09973,-0.171761 -0.09973,-0.315824 0,-0.144059 0.03324,-0.246563 0.09973,-0.307512 0.06649,-0.06649 0.155139,-0.09973 0.265956,-0.09973 h 0.09142 c 0.110815,0 0.199467,0.03324 0.265956,0.09973 0.06649,0.06095 0.09973,0.163451 0.09973,0.307512 0,0.14406 -0.03324,0.249335 -0.09973,0.315824 -0.06649,0.06095 -0.155139,0.09142 -0.265956,0.09142 z m -8.036878,6.399578 c -0.72584,0 -1.290998,-0.1828451 -1.695473,-0.5485352 -0.404475,-0.3656899 -0.606713,-0.8754398 -0.606713,-1.5292498 0,-0.254875 0.03324,-0.523602 0.09973,-0.806181 0.07203,-0.288119 0.168993,-0.573468 0.29089,-0.856047 l 0.515291,0.157912 c -0.105275,0.216089 -0.191156,0.44326 -0.257645,0.681513 -0.06649,0.232712 -0.09973,0.454342 -0.09973,0.664891 0,0.470965 0.132978,0.836655 0.398935,1.097071 0.265956,0.2604156 0.634416,0.3906234 1.105381,0.3906234 h 0.498669 c 0.587321,0 1.016729,-0.1191265 1.288226,-0.3573794 0.277038,-0.232711 0.415557,-0.601172 0.415557,-1.105381 0,-0.08865 -0.0028,-0.177304 -0.0083,-0.265957 -0.0055,-0.08865 -0.01661,-0.185615 -0.03324,-0.29089 -0.01108,-0.110815 -0.03047,-0.232711 -0.05818,-0.36569 -0.02217,-0.132978 -0.04987,-0.282578 -0.08311,-0.448801 l -0.141289,-0.689825 0.58178,-0.116356 0.124667,0.689825 c 0.03879,0.216089 0.06926,0.404475 0.09142,0.565157 0.02771,0.155141 0.0471,0.296431 0.05818,0.423868 h 0.814492 v 0.548536 l -0.166223,0.166222 h -0.623335 c -0.03879,0.687055 -0.260417,1.1912638 -0.664891,1.5126279 -0.404476,0.3213641 -1.0195,0.4820461 -1.845073,0.4820461 z m 0.116356,-4.587749 c -0.110815,0 -0.199468,-0.03047 -0.265957,-0.09142 -0.06649,-0.06649 -0.09973,-0.171761 -0.09973,-0.315823 0,-0.14406 0.03324,-0.246564 0.09973,-0.307512 0.06649,-0.06649 0.155139,-0.09973 0.265957,-0.09973 h 0.09142 c 0.110815,0 0.199468,0.03324 0.265957,0.09973 0.06649,0.06095 0.09973,0.163451 0.09973,0.307512 0,0.144059 -0.03324,0.249334 -0.09973,0.315823 -0.06649,0.06095 -0.155139,0.09142 -0.265957,0.09142 z"
       id="text2"
       style="font-size:8.31114px;line-height:1.25;font-family:'IBM Plex Sans Arabic';-inkscape-font-specification:'IBM Plex Sans Arabic';text-align:center;letter-spacing:0px;word-spacing:2.64583px;direction:rtl;text-anchor:middle;fill:#737373;fill-opacity:1;stroke-width:0.0577162"
       aria-label="رقم لوحة الترخيص هو 12345|A|6 أضن"
       sodipodi:nodetypes="cssccscccccscccsccccssccscccssscscssssccsccsccsscscssscscsscscssscscsscscsssssccccccscscccccccsssccccscsccscsscccccscccccscsccscscccsccssscccscsccccccsccscscscscsccsccccccccccscsccccscccccccsccccccscccscscccccccscscccscscccscsscscsscscssscscsscscsscccccccscsccscscccssccsccccccccssscccsccsscccscccsccscscsscscssscscsscscssccsccccccccccscsccccscccccccsccscscsscscssccssccssccccccccscscsscscssscscsscscsssssccccsssscsccscccccccccscscscscccccscsssssscssccccccscccccscccccccscsccscccsccccscsscscccsccccsscccccsccssscccscsccccccsccscscscscsccccssscccscssscccccccccccccscscssssccccccssccccsscsscccccccscscsscscsssssccccsssscssccccccccccccsssscscsscscss" />
    <path
       d="m 64.993185,-11.597655 h 1.554184 v -3.947791 h -0.04987 l -1.396272,1.230049 -0.407246,-0.407246 1.471072,-1.321471 h 1.072137 v 4.446459 h 1.429516 v 0.590091 h -3.673524 z m 4.78722,-0.0083 1.811828,-1.520938 c 0.615025,-0.526373 0.922537,-1.000108 0.922537,-1.421205 v -0.08311 c 0,-0.288119 -0.09142,-0.51252 -0.274268,-0.673202 -0.177304,-0.160682 -0.426638,-0.241023 -0.748002,-0.241023 -0.592861,0 -0.975174,0.282579 -1.146938,0.847736 l -0.615024,-0.232712 c 0.138519,-0.398935 0.360149,-0.700906 0.664891,-0.905914 0.304742,-0.205008 0.681514,-0.307512 1.130315,-0.307512 0.260416,0 0.495898,0.03601 0.706447,0.108045 0.21609,0.06649 0.398935,0.16622 0.548535,0.299201 0.149601,0.127437 0.263186,0.282579 0.340757,0.465424 0.08311,0.182845 0.124667,0.387853 0.124667,0.615024 0,0.332445 -0.09973,0.65658 -0.299201,0.972403 -0.199467,0.315823 -0.51252,0.642728 -0.939159,0.980715 l -1.38796,1.105381 h 2.825788 v 0.590091 h -3.665213 z m 6.499314,-2.318808 c 0.349068,0 0.623336,-0.06926 0.822803,-0.207778 0.199467,-0.14406 0.299201,-0.340757 0.299201,-0.590091 v -0.08311 c 0,-0.232711 -0.08865,-0.412786 -0.265957,-0.540224 -0.171763,-0.132978 -0.412786,-0.199467 -0.723069,-0.199467 -0.515291,0 -0.897603,0.210549 -1.146937,0.631647 l -0.50698,-0.390624 c 0.382313,-0.559617 0.939159,-0.839425 1.670539,-0.839425 0.254875,0 0.484817,0.03047 0.689825,0.09142 0.210549,0.06095 0.390623,0.149599 0.540224,0.265957 0.149601,0.110815 0.265957,0.243794 0.349068,0.398935 0.08311,0.155141 0.124667,0.326905 0.124667,0.51529 0,0.299201 -0.09419,0.554076 -0.282579,0.764625 -0.188385,0.205008 -0.448801,0.346297 -0.781247,0.423868 v 0.03325 c 0.360149,0.06649 0.645499,0.216087 0.856048,0.448801 0.210549,0.227171 0.315823,0.504209 0.315823,0.831114 0,0.21609 -0.0471,0.415558 -0.141289,0.598403 -0.08865,0.177304 -0.218861,0.332445 -0.390624,0.465423 -0.166223,0.127438 -0.36569,0.227172 -0.598402,0.299201 -0.232712,0.06649 -0.490357,0.09973 -0.772936,0.09973 -0.382313,0 -0.723069,-0.07203 -1.02227,-0.21609 -0.293661,-0.144059 -0.556847,-0.36846 -0.789559,-0.673202 l 0.498669,-0.374001 c 0.171763,0.243793 0.357379,0.418327 0.556846,0.523602 0.199467,0.105274 0.443261,0.157911 0.731381,0.157911 0.387853,0 0.684283,-0.0748 0.889292,-0.2244 0.210549,-0.155141 0.315823,-0.376772 0.315823,-0.664892 V -12.462 c 0,-0.288119 -0.105274,-0.506979 -0.315823,-0.65658 -0.205009,-0.155141 -0.501439,-0.232712 -0.889292,-0.232712 h -0.631647 v -0.573469 z m 5.834423,1.911562 h -2.676187 v -0.59009 l 2.360364,-3.440812 h 0.972403 v 3.474056 h 0.806181 v 0.556846 h -0.806181 v 1.005648 h -0.65658 z m 0,-0.556846 v -2.908899 h -0.04156 l -1.994673,2.908899 z m 3.474063,-2.875654 -0.157912,1.836762 h 0.05818 c 0.149601,-0.210549 0.313053,-0.36292 0.490358,-0.457113 0.177304,-0.09419 0.393393,-0.14129 0.648268,-0.14129 0.249335,0 0.476506,0.03879 0.681514,0.116356 0.205008,0.07203 0.379542,0.177305 0.523602,0.315824 0.144059,0.138519 0.254874,0.307512 0.332445,0.506979 0.08311,0.193927 0.124668,0.410016 0.124668,0.648269 0,0.260416 -0.04433,0.495898 -0.132979,0.706447 -0.08865,0.210549 -0.216089,0.390623 -0.382312,0.540224 -0.160682,0.149601 -0.357379,0.265957 -0.590091,0.349068 -0.232712,0.07757 -0.493128,0.116356 -0.781247,0.116356 -0.720299,0 -1.302079,-0.296431 -1.74534,-0.889292 l 0.515291,-0.390623 c 0.177304,0.254875 0.357379,0.432179 0.540224,0.531912 0.188386,0.09973 0.421098,0.149601 0.698136,0.149601 0.36569,0 0.648269,-0.08588 0.847736,-0.257645 0.199467,-0.177305 0.299201,-0.43218 0.299201,-0.764625 v -0.08311 c 0,-0.332445 -0.09973,-0.58455 -0.299201,-0.756313 -0.199467,-0.177305 -0.482046,-0.265957 -0.847736,-0.265957 -0.205008,0 -0.382312,0.03324 -0.531913,0.09973 -0.149601,0.06095 -0.304742,0.168991 -0.465424,0.324134 l -0.58178,-0.08311 0.199468,-2.750987 h 3.000321 v 0.598402 z M 62.491539,-9.8606263 V -17.32403 h 0.565157 v 7.4634037 z m -9.541191,-1.1469377 -0.581779,-1.712094 h -2.343742 l -0.58178,1.712094 H 48.7366 l 2.027918,-5.801175 h 0.889292 l 2.027919,5.801175 z M 51.21332,-16.16047 h -0.04156 l -0.980714,2.825787 h 2.002985 z m 3.68184,6.2998437 V -17.32403 h 0.565158 v 7.4634037 z m 4.089075,-1.0472037 c -0.299201,0 -0.570699,-0.04987 -0.814492,-0.1496 -0.238253,-0.105275 -0.443261,-0.252105 -0.615024,-0.440491 -0.166223,-0.193927 -0.29366,-0.429409 -0.382313,-0.706447 -0.08865,-0.277038 -0.132978,-0.58732 -0.132978,-0.930847 0,-0.432179 0.06372,-0.836655 0.191156,-1.213427 0.127438,-0.382313 0.290891,-0.72861 0.490358,-1.038892 0.205008,-0.315823 0.429409,-0.592861 0.673202,-0.831114 0.243793,-0.243794 0.482046,-0.440491 0.714758,-0.590091 h 0.897603 c -0.310283,0.227171 -0.587321,0.448801 -0.831114,0.664891 -0.243793,0.216089 -0.457113,0.44326 -0.639958,0.681513 -0.182845,0.232712 -0.337986,0.484817 -0.465424,0.756314 -0.127437,0.265957 -0.229941,0.567928 -0.307512,0.905914 l 0.04156,0.01662 c 0.138519,-0.238253 0.315823,-0.43495 0.531913,-0.590091 0.221631,-0.160682 0.50975,-0.241023 0.864358,-0.241023 0.249335,0 0.479276,0.04156 0.689825,0.124667 0.210549,0.08311 0.390623,0.202238 0.540224,0.357379 0.149601,0.155141 0.265957,0.343527 0.349068,0.565157 0.08865,0.221631 0.132978,0.468195 0.132978,0.739692 0,0.282579 -0.0471,0.542994 -0.141289,0.781247 -0.08865,0.232712 -0.21886,0.43495 -0.390624,0.606713 -0.166223,0.166223 -0.36846,0.296431 -0.606713,0.390624 -0.238253,0.09419 -0.501439,0.141289 -0.789558,0.141289 z m -0.0083,-0.606713 c 0.382312,0 0.678743,-0.105274 0.889292,-0.315823 0.216089,-0.210549 0.324134,-0.512521 0.324134,-0.905915 v -0.06649 c 0,-0.393394 -0.108045,-0.695365 -0.324134,-0.905914 -0.210549,-0.210549 -0.50698,-0.315823 -0.889292,-0.315823 -0.382313,0 -0.681514,0.105274 -0.897603,0.315823 -0.210549,0.210549 -0.315824,0.51252 -0.315824,0.905914 v 0.06649 c 0,0.393394 0.105275,0.695366 0.315824,0.905915 0.216089,0.210549 0.51529,0.315823 0.897603,0.315823 z"
       id="path1"
       style="font-size:8.31114px;line-height:1.25;font-family:'IBM Plex Sans Arabic';-inkscape-font-specification:'IBM Plex Sans Arabic';text-align:center;letter-spacing:0px;word-spacing:2.64583px;direction:rtl;text-anchor:middle;fill:#d7005f;fill-opacity:1;stroke-width:0.0577162"
       aria-label="رقم لوحة الترخيص هو 12345|A|6 أضن"
       sodipodi:nodetypes="cccccccccccccccsscsccsscccssccccccscsscsccsccssccccscccscccsscsscsccsccccccccccccccccccccsscscssccscccscsscscccccccccccccccccccccccccccccccsccsscccccscccccssscscssssscsscscsscs" />
  </g>
</svg>
