<?xml version="1.0" encoding="UTF-8" standalone="no"?>
<!-- Created with Inkscape (http://www.inkscape.org/) -->

<svg
   width="158.77451mm"
   height="61.597717mm"
   viewBox="0 0 158.77451 61.597717"
   version="1.1"
   id="svg1"
   inkscape:version="1.4 (e7c3feb100, 2024-10-09)"
   sodipodi:docname="bidi-RLI-solution.svg"
   xmlns:inkscape="http://www.inkscape.org/namespaces/inkscape"
   xmlns:sodipodi="http://sodipodi.sourceforge.net/DTD/sodipodi-0.dtd"
   xmlns="http://www.w3.org/2000/svg"
   xmlns:svg="http://www.w3.org/2000/svg">
  <sodipodi:namedview
     id="namedview1"
     pagecolor="#ffffff"
     bordercolor="#666666"
     borderopacity="1.0"
     inkscape:showpageshadow="2"
     inkscape:pageopacity="0.0"
     inkscape:pagecheckerboard="0"
     inkscape:deskcolor="#d1d1d1"
     inkscape:document-units="mm"
     inkscape:zoom="1.3047986"
     inkscape:cx="296.9807"
     inkscape:cy="115.34347"
     inkscape:window-width="1340"
     inkscape:window-height="964"
     inkscape:window-x="0"
     inkscape:window-y="76"
     inkscape:window-maximized="1"
     inkscape:current-layer="layer1" />
  <defs
     id="defs1">
    <marker
       style="overflow:visible"
       id="ArrowWide"
       refX="0"
       refY="0"
       orient="auto-start-reverse"
       inkscape:stockid="Wide arrow"
       markerWidth="1"
       markerHeight="1"
       viewBox="0 0 1 1"
       inkscape:isstock="true"
       inkscape:collect="always"
       preserveAspectRatio="xMidYMid">
      <path
         style="fill:none;stroke:context-stroke;stroke-width:1;stroke-linecap:butt"
         d="M 3,-3 0,0 3,3"
         transform="rotate(180,0.125,0)"
         sodipodi:nodetypes="ccc"
         id="path1" />
    </marker>
  </defs>
  <g
     inkscape:label="Calque 1"
     inkscape:groupmode="layer"
     id="layer1"
     transform="translate(-13.493748,-114.56458)">
    <path
       d="m 163.00396,133.14328 h -0.43137 l -0.55652,-0.86934 h -0.15477 v 0.86934 h -0.34082 v -2.14866 h 0.70799 q 0.35399,0 0.54993,0.163 0.19593,0.16136 0.19593,0.47913 0,0.14159 -0.0445,0.25026 -0.0428,0.10702 -0.12348,0.18441 -0.079,0.0774 -0.18606,0.12349 -0.10537,0.0445 -0.22886,0.0609 z m -0.37045,-1.51147 q 0,-0.16465 -0.10867,-0.24698 -0.10702,-0.0823 -0.29637,-0.0823 h -0.36717 v 0.66353 h 0.36717 q 0.18935,0 0.29637,-0.0823 0.10867,-0.0823 0.10867,-0.25191 z m 2.10091,1.51147 h -1.37317 v -2.14866 h 0.34082 v 1.84241 h 1.03235 z m 1.67447,0 h -1.0307 v -0.30625 h 0.33918 v -1.53452 h -0.33918 v -0.30789 h 1.0307 v 0.30789 h -0.3507 v 1.53452 h 0.3507 z"
       id="text6-1"
       style="font-weight:bold;font-size:3.372px;line-height:1.25;font-family:'Anonymous Pro';-inkscape-font-specification:'Anonymous Pro Bold';text-align:center;letter-spacing:0px;word-spacing:0px;direction:rtl;text-anchor:middle;fill:#84f801;stroke-width:0.0234166"
       aria-label="RLI" />
    <g
       id="text44"
       style="font-size:8.31114px;line-height:1.75;font-family:'DejaVu Sans Mono';-inkscape-font-specification:'DejaVu Sans Mono';letter-spacing:0px;word-spacing:2.64583px;direction:rtl;fill:#ffffff;stroke-width:0.0577162"
       aria-label="⁧أرسل لي هاتين الوثيقتين:&#10;⁧1. رخصة القيادة الخاصة بك؛&#10;⁧2. بطاقة الهوية الخاصة بك.&#10;">
      <path
         d="m 157.66043,127.63937 h 0.74671 v 6.31452 h -0.74671 z m -0.32059,-0.60467 0.31654,-0.073 q -0.17856,-0.0812 -0.2435,-0.22725 -0.069,-0.15016 -0.0649,-0.33277 0.008,-0.38553 0.22726,-0.56409 0.22726,-0.18668 0.60873,-0.18262 0.24755,0.004 0.46263,0.13392 v 0.40582 q -0.20697,-0.13392 -0.46263,-0.13392 -0.26784,0 -0.33683,0.0731 -0.11769,0.12986 -0.11769,0.23537 0,0.31248 0.38147,0.42205 0.13392,0.0406 0.6209,-0.0771 v 0.41393 l -1.39195,0.31248 z m -3.15321,6.29423 q 0.0406,-0.23537 0.0406,-0.52756 0,-0.51133 -0.21509,-1.06324 h 0.74671 q 0.20291,0.47886 0.20291,1.01454 0,0.33277 -0.0325,0.58438 -0.16638,1.34325 -1.50964,2.04532 -1.10788,0.58031 -3.10044,0.61684 v -0.74671 q 1.80183,0 2.69462,-0.51944 1.03484,-0.5925 1.17282,-1.40413 z m -6.68787,-0.10957 q 0.2719,0 0.44234,-0.47075 0.15015,-0.41799 0.15015,-1.20528 h 0.6696 q -0.0203,0.66149 0.13392,1.23369 0.12581,0.48698 0.30031,0.48698 0.42205,0 0.42205,-1.13629 v -1.1931 h 0.66554 v 1.38789 q 0,0.64525 -0.25161,1.26615 -0.13392,0.33277 -0.47886,0.47075 -0.0893,0.0365 -0.40582,0.0365 -0.26784,0 -0.36524,-0.10145 -0.26378,-0.2719 -0.36523,-0.78323 -0.1258,0.44234 -0.40988,0.6696 -0.20696,0.17044 -0.50321,0.17044 -0.20291,0 -0.53162,-0.25972 -0.17856,-0.14204 -0.22726,-0.3977 -0.0852,0.23132 -0.36523,0.40988 -0.23944,0.15015 -0.64931,0.15015 h -0.28407 v -0.74671 h 0.17044 q 0.30842,0 0.45451,-0.14203 0.28408,-0.28813 0.28408,-0.767 v -0.77917 h 0.66554 v 0.63308 q 0,0.32059 0.10551,0.72641 0.0852,0.34089 0.37335,0.34089 z m -2.74738,-5.57999 v 4.76024 q 0,0.43016 0.19885,0.62901 0.17856,0.17856 0.35306,0.17856 h 0.30436 v 0.74671 h -0.52756 q -0.22726,0 -0.5438,-0.20697 -0.0609,0.37741 -0.26784,0.63308 -0.42205,0.51133 -0.94555,0.70206 -0.38147,0.13798 -0.88874,0.13798 -0.40176,0 -0.88468,-0.17045 -0.98208,-0.349 -0.98614,-1.40007 -0.004,-0.56002 0.25566,-0.93338 h 0.74671 q -0.26378,0.46669 -0.26378,0.93338 0,0.51133 0.67365,0.77917 0.16233,0.0649 0.45858,0.0649 0.42611,0 0.76699,-0.13798 0.40176,-0.16639 0.68178,-0.69801 0.12174,-0.23131 0.12174,-1.43253 v -4.58574 z m -12.81968,4.80894 q 0,0.72235 -0.35306,1.13223 -0.32465,0.37335 -1.42848,0.37335 h -2.36186 v -0.74671 h 2.1346 q 0.88469,0 1.06325,-0.17856 0.19885,-0.19885 0.19885,-0.62901 v -4.76024 h 0.7467 z m -5.94522,1.29861 q -0.008,-0.17856 -0.0446,-0.22726 -0.0974,-0.14609 -0.19479,-0.24755 -0.17856,-0.18667 -0.17856,-0.43422 0,-0.31654 0.16638,-0.50727 0.31248,-0.3693 0.66554,-0.43828 0.11769,-0.0243 0.29625,-0.0243 0.52756,0 0.71424,0.56002 0.25972,0.77917 0.3977,0.77917 h 0.14204 v 0.74671 h -0.14204 q -0.51539,0 -0.78729,-0.69801 -0.25972,-0.6696 -0.38146,-0.6696 -0.13798,0.004 -0.20291,0.069 -0.0812,0.073 -0.0812,0.20291 0,0.0122 0.17045,0.29219 0.21508,0.35306 0.21508,0.59655 0,0.33683 -0.31654,0.67366 -0.42205,0.45046 -1.15658,0.55597 -0.56814,0.0812 -0.87656,0.0812 -0.49104,0 -1.08759,-0.14609 -0.92527,-0.22726 -0.97396,-1.03078 -0.0244,-0.37335 0.12174,-0.93338 h 0.72236 q -0.10552,0.32465 -0.10552,0.7954 0.004,0.43017 0.57626,0.53568 0.28002,0.0528 0.73859,0.0528 0.52756,0 0.76294,-0.069 0.51944,-0.15015 0.60061,-0.21103 0.24349,-0.18667 0.23943,-0.30436 z m -1.32702,1.62733 h 0.60872 v 0.60872 h -0.60872 z m -1.01455,0 h 0.60873 v 0.60872 h -0.60873 z m -11.63874,-2.51201 q 0.14609,-0.10957 0.28407,-0.36929 0.15827,-0.29219 0.15827,-0.53974 0,-0.18668 -0.0609,-0.33683 -0.0893,-0.21103 -0.32466,-0.21103 -0.26378,0 -0.35712,0.18262 -0.0893,0.1745 -0.0893,0.31654 0,0.12175 0.0284,0.2719 0.0852,0.47886 0.36118,0.68583 z m -1.28644,0.34494 q 0.21102,0 0.52756,-0.0446 -0.18262,-0.4261 -0.24349,-0.70612 -0.073,-0.31654 -0.073,-0.57626 0,-0.34089 0.18262,-0.67771 0.19479,-0.36524 0.50727,-0.32872 -0.17856,-0.15826 -0.50727,-0.21508 v -0.75076 q 0.88874,0.2719 1.78154,1.00237 1.05918,0.86845 1.29861,1.74907 0.0568,0.21103 0.0568,0.44234 0,0.41799 -0.16233,0.66554 -0.3003,0.45858 -1.01048,0.45858 -0.53162,0 -1.15658,-0.43829 -0.48698,0.16639 -1.07948,0.16639 h -0.71018 v -0.74671 z m 2.3375,-1.31484 q 0.0243,0.15015 0.0243,0.30842 0,0.56002 -0.3977,1.02266 -0.0487,0.0568 -0.11768,0.13392 0.21102,0.18667 0.40987,0.18667 0.51133,0 0.57626,-0.2719 0.0284,-0.12174 0.0284,-0.25566 0,-0.24349 -0.13392,-0.56003 -0.11769,-0.28001 -0.38959,-0.56408 z m -5.4623,0.55597 v -4.80894 h 0.7467 v 4.76024 q 0,0.43016 0.20291,0.62901 0.17856,0.17856 0.90903,0.17856 h 0.8441 v 0.74671 h -1.07135 q -0.94962,0 -1.27427,-0.37335 -0.35712,-0.40988 -0.35712,-1.13223 z m -4.73994,-2.5526 h 0.60872 v 0.60873 h -0.60872 z m -1.01454,0 h 0.60872 v 0.60873 h -0.60872 z m 0.83192,3.70917 q -0.29219,0.34901 -1.68414,0.34901 h -0.86439 v -0.74671 h 0.64119 q 1.15658,0 1.33514,-0.17856 0.19885,-0.19885 0.19885,-0.62901 v -0.88063 h 0.7467 v 0.88063 q 0,0.75888 -0.37335,1.20527 z m -4.821108,0.95773 h 0.608726 v 0.60873 h -0.608726 z m -1.014544,0 h 0.608726 v 0.60873 h -0.608726 z m 0.82381,-0.95773 q -0.308422,0.34901 -1.180929,0.34901 h -1.359488 v -0.74671 h 1.136288 q 0.657425,0 0.835984,-0.17856 0.194793,-0.19885 0.194793,-0.62901 v -0.88063 h 0.746704 v 0.88063 q 0,0.43016 0.202908,0.62901 0.17856,0.17856 0.840042,0.17856 h 1.20934 v 0.74671 h -1.432539 q -0.868449,0 -1.193103,-0.34901 z m -5.941166,-2.43896 h 0.608727 v 0.60873 h -0.608727 z m 2.406498,3.86338 q -0.288131,0.47075 -0.864391,0.71424 -0.568145,0.23943 -1.091649,0.23943 -0.698006,0 -1.197162,-0.25566 -0.949612,-0.48698 -0.949612,-1.59892 0,-0.70612 0.215083,-1.28238 h 0.746704 q -0.2232,0.70612 -0.2232,1.28238 0,0.73047 0.653366,1.00237 0.231316,0.0974 0.754821,0.0974 0.340886,0 0.596551,-0.0812 0.637134,-0.20697 0.872508,-0.88468 0.133919,-0.38147 0.133919,-0.86439 0,-0.74671 -0.409875,-1.57052 h 0.746704 q 0.06899,0.20697 0.211025,0.55192 0.137978,0.34088 0.263781,0.56814 0.142036,0.25972 0.491039,0.25972 h 0.211025 v 0.74671 h -0.381468 q -0.353061,0 -0.409876,-0.19479 -0.02435,0.70206 -0.369293,1.2702 z m -14.455116,-7.38993 h 0.746704 v 6.31452 h -0.746704 z m -3.067981,4.80894 q 0,0.72235 -0.353062,1.13223 -0.324653,0.37335 -1.428477,0.37335 h -2.361857 v -0.74671 h 2.134599 q 0.884682,0 1.063242,-0.17856 0.198851,-0.19885 0.198851,-0.62901 v -4.76024 h 0.746704 z m -5.705791,0.75887 q 0,-0.30842 -0.06493,-0.53973 -0.0974,-0.32466 -0.284072,-0.4464 -0.243491,-0.16639 -0.486981,-0.0609 -0.271898,0.11768 -0.324654,0.34494 -0.06899,0.30436 0.190734,0.5235 0.190734,0.16233 0.969904,0.17856 z m 0.726413,0 h 0.99831 v 0.74671 H 71.83441 l -0.284072,-0.004 q -0.101455,0.63307 -0.624959,1.15658 -0.336829,0.33683 -0.762937,0.52756 -0.779169,0.349 -2.260403,0.349 v -0.7467 q 1.465001,0 2.00068,-0.30842 0.681773,-0.38553 0.93338,-0.98614 -0.478865,-0.0122 -0.661482,-0.0406 -0.564087,-0.0974 -0.771053,-0.2719 -0.430167,-0.36117 -0.470749,-0.90903 -0.0081,-0.1258 0.03247,-0.35712 0.10957,-0.62901 0.823809,-0.93338 0.239432,-0.10145 0.503214,-0.0974 0.353061,0.008 0.633075,0.20696 0.539737,0.37336 0.629017,0.94556 0.05276,0.33683 0.06899,0.72235 z m -6.622944,0.3977 q -0.292189,0.34901 -1.684143,0.34901 h -0.864391 v -0.74671 h 0.641192 q 1.156579,0 1.335139,-0.17856 0.198851,-0.19885 0.198851,-0.62901 v -0.88063 h 0.746704 v 0.88063 q 0,0.75888 -0.373352,1.20527 z m -0.288131,-4.72371 h 0.608726 v 0.60873 H 64.71231 Z m 0.507272,1.01454 h 0.608726 v 0.60873 h -0.608726 z m -1.014543,0 h 0.608726 v 0.60873 h -0.608726 z m -4.025708,4.6669 h 0.608727 v 0.60873 h -0.608727 z m -1.014543,0 h 0.608726 v 0.60873 h -0.608726 z m 0.823809,-0.95773 q -0.308421,0.34901 -1.180928,0.34901 H 57.44818 v -0.74671 h 1.136289 q 0.657424,0 0.835984,-0.17856 0.194792,-0.19885 0.194792,-0.62901 v -0.88063 h 0.746704 v 0.88063 q 0,0.43016 0.202909,0.62901 0.17856,0.17856 0.840042,0.17856 h 1.209336 v 0.74671 H 61.1817 q -0.868449,0 -1.193103,-0.34901 z m -4.573562,-2.74332 q 0.742646,0.32465 0.8441,0.93338 0.03247,0.20291 0.03247,0.37335 0,0.29625 -0.08928,0.4951 -0.113629,0.2719 -0.259724,0.4748 0.154211,0.069 0.754821,0.069 h 0.913089 v 0.74671 h -1.278325 q -0.551912,0 -1.306732,-0.23132 -0.746704,0.23132 -1.298615,0.23132 h -1.282383 v -0.74671 h 0.917147 q 0.592493,0 0.75482,-0.069 -0.121745,-0.16232 -0.267839,-0.4748 -0.08116,-0.18668 -0.08116,-0.4951 0,-0.17856 0.03247,-0.37335 0.09334,-0.58032 0.8441,-0.93338 0.121745,-0.0568 0.381468,-0.0568 0.259723,0 0.389585,0.0568 z m -0.251607,0.73047 q -0.08116,-0.0406 -0.137978,-0.0406 -0.05681,0 -0.129861,0.0406 -0.227258,0.12986 -0.324654,0.34495 -0.04058,0.0852 -0.04058,0.2029 0,0.17451 0.0974,0.38959 0.121745,0.27595 0.397701,0.36523 0.259723,-0.0852 0.405818,-0.36523 0.0974,-0.20291 0.0974,-0.38959 0,-0.0974 -0.04058,-0.2029 -0.0974,-0.21103 -0.324654,-0.34495 z m 0.02435,-2.30504 h 0.608726 v 0.60872 h -0.608726 z m -1.014543,0 h 0.608726 v 0.60872 h -0.608726 z m -4.001357,0.60872 h 0.608726 v 0.60873 h -0.608726 z m -1.014544,0 h 0.608726 v 0.60873 h -0.608726 z m 0.823809,3.70917 q -0.308421,0.34901 -1.180928,0.34901 h -1.359488 v -0.74671 h 1.136288 q 0.657424,0 0.835984,-0.17856 0.194792,-0.19885 0.194792,-0.62901 v -0.88063 h 0.746704 v 0.88063 q 0,0.43016 0.202909,0.62901 0.17856,0.17856 0.840042,0.17856 h 1.209336 v 0.74671 h -1.432535 q -0.86845,0 -1.193104,-0.34901 z m -4.812994,0.95773 h 0.608726 v 0.60873 h -0.608726 z m -1.014544,0 h 0.608726 v 0.60873 h -0.608726 z m 0.82381,-0.95773 q -0.308422,0.34901 -1.180929,0.34901 h -1.359488 v -0.74671 h 1.136288 q 0.657425,0 0.835984,-0.17856 0.194793,-0.19885 0.194793,-0.62901 v -0.88063 h 0.746704 v 0.88063 q 0,0.43016 0.202908,0.62901 0.17856,0.17856 0.840042,0.17856 h 1.209336 v 0.74671 h -1.432535 q -0.86845,0 -1.193103,-0.34901 z m -5.941168,-2.43896 h 0.608726 v 0.60873 h -0.608726 z m 2.406497,3.86338 q -0.28813,0.47075 -0.864391,0.71424 -0.568144,0.23943 -1.091649,0.23943 -0.698006,0 -1.197161,-0.25566 -0.949613,-0.48698 -0.949613,-1.59892 0,-0.70612 0.215084,-1.28238 h 0.746704 q -0.2232,0.70612 -0.2232,1.28238 0,0.73047 0.653366,1.00237 0.231316,0.0974 0.75482,0.0974 0.340887,0 0.596552,-0.0812 0.637133,-0.20697 0.872507,-0.88468 0.13392,-0.38147 0.13392,-0.86439 0,-0.74671 -0.409876,-1.57052 h 0.746704 q 0.06899,0.20697 0.211025,0.55192 0.137978,0.34088 0.263782,0.56814 0.142036,0.25972 0.491039,0.25972 h 0.211025 v 0.74671 h -0.381468 q -0.353062,0 -0.409876,-0.19479 -0.02435,0.70206 -0.369294,1.2702 z"
         id="path2" />
      <path
         style="fill:#84f801"
         d="m 34.49515,129.64005 h 1.02266 v 1.22963 h -1.02266 z m 0,3.07609 h 1.02266 v 1.23775 h -1.02266 z"
         id="path3" />
      <path
         style="fill:#84f801"
         d="m 156.62965,147.80849 h 1.27427 v -4.63037 l -1.37166,0.30842 v -0.74671 l 1.36354,-0.3003 h 0.81975 v 5.36896 h 1.25804 v 0.68989 h -3.34394 z m -4.11498,-0.54785 h 1.02266 v 1.23774 h -1.02266 z"
         id="path4" />
      <path
         d="m 141.53334,147.87342 q 0.0406,-0.23537 0.0406,-0.52756 0,-0.51133 -0.21508,-1.06324 h 0.7467 q 0.20291,0.47886 0.20291,1.01454 0,0.33277 -0.0325,0.58438 -0.16639,1.34326 -1.50965,2.04532 -1.10788,0.58032 -3.10044,0.61684 v -0.7467 q 1.80183,0 2.69463,-0.51945 1.03483,-0.59249 1.17281,-1.40413 z m -6.5296,-3.83903 h 0.60873 v 0.60873 h -0.60873 z m 1.32297,2.26852 q -0.33683,-0.0933 -0.75482,-0.18668 -0.34495,-0.0771 -1.07542,-0.14203 -0.33277,-0.0284 -0.98613,-0.004 v -0.7467 q 0.29218,-0.0284 0.59655,-0.0325 0.65742,0 1.35543,0.14204 1.04701,0.21102 1.9398,0.60872 v 0.62496 q -0.30842,0.0974 -0.66554,0.30842 -0.67365,0.3977 -0.97396,0.66554 -0.58843,0.52351 -0.8928,0.63308 -0.89685,0.32465 -1.55834,0.32465 h -0.51944 v -0.7467 h 0.40582 q 0.9212,0 1.44471,-0.29219 0.42205,-0.23537 0.89279,-0.66554 0.38147,-0.349 0.79135,-0.49104 z m -6.39163,1.44877 h 0.52351 q 0.56814,0 0.86439,-0.18668 0.43016,-0.27595 0.43016,-0.56002 0,-0.18262 -0.16232,-0.33278 -0.1461,-0.13391 -0.40176,-0.13391 -0.28813,0 -0.71018,0.44234 -0.30437,0.31653 -0.5438,0.77105 z m -0.0933,0.7467 q -0.3003,0 -0.61684,-0.17044 -0.26378,-0.14204 -0.42205,-0.38958 -0.41393,0.56002 -0.68989,0.56002 h -0.32465 v -0.7467 h 0.10551 q 0.1258,0 0.29625,-0.18668 0.18261,-0.20291 0.18261,-0.72235 v -0.46263 h 0.74671 v 0.31653 q 0,0.0974 0.0365,0.25973 0.0365,0.16232 0.21914,0.36523 0.30842,-0.51944 0.50728,-0.76293 0.59249,-0.7183 1.20121,-0.7183 0.69395,0 1.06325,0.33277 0.35306,0.31654 0.35306,0.80758 0,0.21102 -0.12581,0.49915 0.0649,0.0406 0.12175,0.0933 0.18668,0.17856 0.3003,0.17856 h 0.15827 v 0.7467 h -0.23943 q -0.21102,0 -0.62496,-0.38147 l -0.11363,-0.10551 q -0.698,0.48698 -1.24991,0.48698 z m -4.11905,-4.26108 h 0.60873 v 0.60873 h -0.60873 z m -1.01454,0 h 0.60873 v 0.60873 h -0.60873 z m 1.29456,3.11668 q -0.0609,-0.17045 -0.11363,-0.3693 -0.0528,-0.2029 -0.10145,-0.61278 -0.48699,0.0487 -0.81976,0.3206 -0.45045,0.36117 -0.44234,0.61278 0.004,0.16639 0.3693,0.26784 0.36523,0.10145 1.10788,-0.21914 z m -0.2719,-1.56646 q -0.0162,-0.15827 -0.0284,-0.33277 h 0.74671 q 0.004,0.68178 0.15015,1.3879 0.0852,0.40987 0.31248,0.73047 0.1258,0.17856 0.58032,0.17856 h 0.45857 v 0.7467 h -0.68177 q -0.36524,0 -0.66148,-0.20696 -0.18262,-0.12581 -0.33683,-0.36524 -0.56003,0.29625 -1.1931,0.29625 -0.22726,0 -0.46264,-0.0609 -0.76699,-0.19479 -0.76699,-0.81975 0,-0.70206 0.82787,-1.21745 0.44234,-0.27595 1.05512,-0.33683 z m -13.39187,-3.60366 h 0.74671 v 6.31452 h -0.74671 z m -3.06798,4.80894 q 0,0.72236 -0.35306,1.13223 -0.32466,0.37335 -1.42848,0.37335 h -2.36186 v -0.7467 h 2.1346 q 0.88469,0 1.06325,-0.17856 0.19885,-0.19885 0.19885,-0.62902 v -4.76024 h 0.7467 z m -6.17654,-1.58675 q 0.74264,0.32466 0.8441,0.93338 0.0325,0.20291 0.0325,0.37336 0,0.29624 -0.0893,0.49509 -0.11363,0.2719 -0.25972,0.47481 0.15421,0.069 0.75482,0.069 h 0.91309 v 0.7467 h -1.27833 q -0.55191,0 -1.30673,-0.23131 -0.7467,0.23131 -1.29861,0.23131 h -1.28239 v -0.7467 h 0.91715 q 0.59249,0 0.75482,-0.069 -0.12174,-0.16233 -0.26784,-0.47481 -0.0812,-0.18667 -0.0812,-0.49509 0,-0.17856 0.0325,-0.37336 0.0933,-0.58031 0.8441,-0.93338 0.12175,-0.0568 0.38147,-0.0568 0.25972,0 0.38959,0.0568 z m -0.25161,0.73048 q -0.0812,-0.0406 -0.13798,-0.0406 -0.0568,0 -0.12986,0.0406 -0.22726,0.12986 -0.32465,0.34494 -0.0406,0.0852 -0.0406,0.20291 0,0.1745 0.0974,0.38958 0.12175,0.27596 0.3977,0.36524 0.25972,-0.0852 0.40582,-0.36524 0.0974,-0.2029 0.0974,-0.38958 0,-0.0974 -0.0406,-0.20291 -0.0974,-0.21102 -0.32465,-0.34494 z m 0.0243,-2.30505 h 0.60872 v 0.60873 h -0.60872 z m -1.01454,0 h 0.60872 v 0.60873 h -0.60872 z m -4.001359,5.27563 h 0.608726 v 0.60873 h -0.608726 z m -1.014543,0 h 0.608726 v 0.60873 h -0.608726 z m 0.823809,-0.95773 q -0.308421,0.349 -1.180929,0.349 H 95.12011 v -0.7467 h 1.136289 q 0.657424,0 0.835984,-0.17856 0.194792,-0.19885 0.194792,-0.62902 v -0.88062 h 0.746704 v 0.88062 q 0,0.43017 0.202909,0.62902 0.178559,0.17856 0.840042,0.17856 h 1.20934 v 0.7467 h -1.43254 q -0.868449,0 -1.193103,-0.349 z m -5.076778,-1.15658 v -4.80894 h 0.746704 v 4.76024 q 0,0.43017 0.202909,0.62902 0.178559,0.17856 0.909031,0.17856 h 0.8441 v 0.7467 h -1.071358 q -0.949613,0 -1.274267,-0.37335 -0.357119,-0.40987 -0.357119,-1.13223 z m -4.971265,0.8928 q 0.706122,-0.20291 0.840042,-0.65337 0.03246,-0.10957 0.03246,-0.28001 0,-0.3693 -0.24349,-0.78729 -0.296247,-0.48698 -0.969904,-1.21339 h 0.921206 q 0.434224,0.43828 0.726413,0.9699 0.33277,0.61685 0.33277,1.04295 0,0.40176 -0.129862,0.70613 -0.324654,0.79134 -1.387895,0.95367 -0.186676,0.0284 -0.568144,0.0284 -0.612785,0 -1.030777,-0.15421 v -0.7467 q 0.46669,0.17044 1.006427,0.17044 0.332771,0 0.470749,-0.0365 z m -4.910382,-3.6483 h 0.608726 v 0.60873 h -0.608726 z m -1.014543,0 h 0.608726 v 0.60873 h -0.608726 z m 0.637133,2.01285 q -0.267839,0 -0.401759,0.35307 -0.105513,0.28001 -0.101454,0.77917 0.0041,0.33277 0.227257,0.51133 0.231316,0.17855 0.462632,0.17855 0.369294,0 0.746704,-0.23131 0.304363,-0.18668 0.304363,-0.53162 0,-0.31248 -0.267839,-0.57626 -0.499156,-0.48698 -0.969904,-0.48293 z m -0.146094,-0.73047 q 0.803518,0 1.542106,0.64931 0.572202,0.50321 0.572202,1.10382 -0.0041,0.81164 -0.600609,1.116 -0.669599,0.34495 -1.205278,0.34495 -0.389585,0 -0.718297,-0.14204 -0.677715,-0.3003 -0.677715,-1.27021 0,-0.73453 0.150153,-1.05106 0.340886,-0.75077 0.937438,-0.75077 z m -12.515312,-3.33582 h 0.746704 v 6.31452 h -0.746704 z m -3.067978,4.80894 q 0,0.72236 -0.353061,1.13223 -0.324654,0.37335 -1.428477,0.37335 h -2.361858 v -0.7467 h 2.1346 q 0.884682,0 1.063241,-0.17856 0.198851,-0.19885 0.198851,-0.62902 v -4.76024 h 0.746704 z m -6.935422,-2.95841 h 0.608727 v 0.60873 h -0.608727 z m 0.458574,1.29862 q 1.047009,0.21102 1.939807,0.60872 v 0.62496 q -0.263781,0.0812 -0.560028,0.24755 0.202909,0.31654 0.324654,0.45452 0.42205,0.48292 0.641192,0.48292 h 0.24349 v 0.7467 h -0.324654 q -0.612784,0 -1.115998,-0.68177 -0.162327,-0.21914 -0.401759,-0.61278 -0.280014,0.18667 -0.446399,0.33682 -0.588435,0.52351 -0.892798,0.63308 -0.896857,0.32465 -1.558339,0.32465 h -0.519446 v -0.7467 h 0.405817 q 0.921206,0 1.44471,-0.29219 0.42205,-0.23537 0.892798,-0.66554 0.381469,-0.349 0.791344,-0.49104 -0.336828,-0.0933 -0.75482,-0.18668 -0.344945,-0.0771 -1.075416,-0.14203 -0.332771,-0.0284 -0.986137,-0.004 v -0.7467 q 0.292189,-0.0284 0.596552,-0.0325 0.657424,0 1.35543,0.14204 z m -5.206636,1.65979 v -4.80894 h 0.746704 v 4.76024 q 0,0.43017 0.202909,0.62902 0.17856,0.17856 0.909031,0.17856 h 0.8441 v 0.7467 H 56.54321 q -0.949612,0 -1.274266,-0.37335 -0.35712,-0.40987 -0.35712,-1.13223 z m -5.015903,0.75888 h 0.523504 q 0.568145,0 0.864392,-0.18668 0.430166,-0.27595 0.430166,-0.56002 0,-0.18262 -0.162327,-0.33278 -0.146094,-0.13391 -0.401759,-0.13391 -0.288131,0 -0.710181,0.44234 -0.304363,0.31653 -0.543795,0.77105 z m -0.09334,0.7467 q -0.300305,0 -0.616842,-0.17044 -0.263782,-0.14204 -0.42205,-0.38958 -0.413934,0.56002 -0.795403,0.56002 h -0.527562 v -0.7467 h 0.304363 q 0.174501,0 0.324654,-0.17856 0.263781,-0.32465 0.263781,-0.73047 v -0.46263 h 0.746704 v 0.31653 q 0,0.0974 0.03652,0.25973 0.03652,0.16232 0.219141,0.36523 0.308421,-0.51944 0.507272,-0.76293 0.592493,-0.7183 1.201219,-0.7183 0.693948,0 1.063242,0.33277 0.353061,0.31654 0.353061,0.80758 0,0.77105 -0.746704,1.21339 -0.51133,0.30436 -1.026718,0.30436 z m -4.42747,-4.26108 h 0.608726 v 0.60873 h -0.608726 z m -1.014544,0 h 0.608727 v 0.60873 h -0.608727 z m 1.294558,3.11668 q -0.06087,-0.17045 -0.113629,-0.3693 -0.05276,-0.2029 -0.101454,-0.61278 -0.486981,0.0487 -0.819751,0.3206 -0.450458,0.36117 -0.442341,0.61278 0.0041,0.16639 0.369293,0.26784 0.365236,0.10145 1.107882,-0.21914 z m -0.271898,-1.56646 q -0.01623,-0.15827 -0.02841,-0.33277 h 0.746704 q 0.0041,0.68178 0.150153,1.3879 0.08522,0.40987 0.312479,0.73047 0.125803,0.17856 0.580319,0.17856 h 0.458573 v 0.7467 h -0.681773 q -0.365235,0 -0.661482,-0.20696 -0.182618,-0.12581 -0.336829,-0.36524 -0.560028,0.29625 -1.193103,0.29625 -0.227257,0 -0.462632,-0.0609 -0.766994,-0.19479 -0.766994,-0.81975 0,-0.70206 0.827867,-1.21745 0.442341,-0.27595 1.055125,-0.33683 z m -13.050986,2.36186 q -0.292188,0.349 -1.684142,0.349 H 29.78371 v -0.7467 h 0.641192 q 1.156579,0 1.335139,-0.17856 0.19885,-0.19885 0.19885,-0.62902 v -0.88062 h 0.746704 v 0.88062 q 0,0.75888 -0.373352,1.20528 z m -0.42205,0.95773 h 0.608726 v 0.60873 h -0.608726 z m -4.8901,-5.07272 v 0.33277 q -0.300305,0.0162 -0.454516,0.073 -0.324654,0.12174 -0.324654,0.25566 0,0.11363 0.05682,0.18668 0.0487,0.0649 0.324654,0.10551 0.413933,0.0609 0.413933,0.41799 0,0.4464 -0.357119,0.61685 -0.33277,0.15827 -0.649308,0.15827 -0.267839,0 -0.495097,-0.0446 v -0.35712 q 0.275956,0.0406 0.458574,0.0406 0.24349,0 0.474806,-0.10551 0.24349,-0.10552 0.24349,-0.22726 0,-0.15421 -0.316537,-0.2232 -0.300305,-0.0649 -0.373352,-0.17856 -0.129862,-0.19074 -0.125803,-0.37741 0.0081,-0.32871 0.312479,-0.48292 0.344945,-0.17451 0.811635,-0.19074 z m 2.138657,-1.85053 v 4.76024 q 0,0.43017 0.198851,0.62902 0.178559,0.17856 0.284072,0.17856 h 0.304363 v 0.7467 h -0.527563 q -0.324653,0 -0.783227,-0.49915 -0.369294,0.31654 -0.68989,0.49915 -0.417992,0.21509 -1.225568,0.2232 -0.702064,0.008 -1.363547,-0.2232 -0.880623,-0.30842 -0.880623,-1.05512 0,-0.30437 0.06493,-0.51945 h 0.746704 q -0.05681,0.23538 -0.05681,0.41394 0,0.37741 0.624959,0.56002 0.491039,0.14204 0.8441,0.14204 0.474806,0 0.872507,-0.15421 0.328712,-0.14204 0.629017,-0.52756 0.211025,-0.2719 0.211025,-1.3392 v -3.83498 z m -6.537717,3.04769 h -0.856275 v -0.698 l 0.665541,-1.29862 h 0.523504 l -0.33277,1.29862 z m -0.856275,2.23606 h 0.856275 v 1.03077 h -0.856275 z"
         id="path5" />
      <path
         style="fill:#84f801"
         d="m 157.04764,162.35299 h 2.78391 v 0.68989 h -3.68076 v -0.68989 q 0.75888,-0.79946 1.32702,-1.41225 0.56815,-0.61278 0.78323,-0.86439 0.40582,-0.49509 0.54785,-0.79946 0.14204,-0.30842 0.14204,-0.62901 0,-0.50728 -0.30031,-0.79541 -0.29624,-0.28813 -0.81569,-0.28813 -0.36929,0 -0.77511,0.13392 -0.40582,0.13392 -0.86033,0.40582 v -0.82787 q 0.41799,-0.19885 0.81975,-0.3003 0.40581,-0.10146 0.79946,-0.10146 0.88874,0 1.42847,0.47481 0.5438,0.47075 0.5438,1.23774 0,0.38959 -0.18262,0.77917 -0.17856,0.38959 -0.58437,0.86034 -0.22726,0.26378 -0.66149,0.73047 -0.43016,0.46669 -1.31485,1.39601 z m -4.53297,-0.54785 h 1.02266 v 1.23774 h -1.02266 z"
         id="path6" />
      <path
         d="m 140.34429,162.69388 q -0.29218,0.349 -1.68414,0.349 h -0.86439 v -0.74671 h 0.64119 q 1.15658,0 1.33514,-0.17856 0.19885,-0.19885 0.19885,-0.62901 v -0.88063 h 0.74671 v 0.88063 q 0,0.75888 -0.37336,1.20528 z m -0.42205,0.95772 h 0.60873 v 0.60873 h -0.60873 z m -4.93879,-1.35543 h 0.52351 q 0.56814,0 0.86439,-0.18667 0.43016,-0.27596 0.43016,-0.56003 0,-0.18262 -0.16232,-0.33277 -0.1461,-0.13392 -0.40176,-0.13392 -0.28813,0 -0.71018,0.44234 -0.30437,0.31654 -0.5438,0.77105 z m 2.56477,-0.77105 q 0,0.21508 -0.17045,0.49916 0.24755,0.27189 0.39771,0.27189 h 0.18261 v 0.74671 h -0.23537 q -0.37741,0 -0.72236,-0.3206 l -0.11362,-0.10551 q -0.50728,0.42611 -1.11194,0.42611 h -2.09808 -0.88468 v -0.74671 h 0.88468 v -5.56781 h 0.7467 v 5.13765 q 0.30843,-0.51945 0.50728,-0.76294 0.59249,-0.7183 1.20122,-0.7183 0.69394,0 1.06324,0.33277 0.35306,0.31654 0.35306,0.80758 z m -7.29254,0.0122 v -4.80894 h 0.7467 v 4.76024 q 0,0.43016 0.20291,0.62901 0.17856,0.17856 0.90903,0.17856 h 0.8441 v 0.74671 h -1.07136 q -0.94961,0 -1.27426,-0.37335 -0.35712,-0.40988 -0.35712,-1.13223 z m -4.96315,-0.67366 q 0.16638,-0.1745 0.16638,-0.48698 0,-0.23943 -0.26784,-0.4464 -0.1258,-0.10146 -0.30436,-0.0974 -0.21102,0.004 -0.37335,0.1745 -0.16233,0.16639 -0.16639,0.37336 0,0.32465 0.2232,0.47886 0.16233,0.10145 0.33277,0.10145 0.29219,0 0.38959,-0.0974 z m -2.50795,1.43253 h 0.97802 q 0.34088,0 0.95367,-0.0933 0.32059,-0.0487 0.56408,-0.42611 0.12581,-0.19479 0.18668,-0.3977 -0.25567,0.2232 -0.64931,0.23131 -0.52756,0.008 -0.8441,-0.27189 -0.3977,-0.35307 -0.3977,-0.87657 0,-0.21103 0.0325,-0.38959 0.0933,-0.6006 0.70206,-0.88062 0.31654,-0.14609 0.62496,-0.14609 0.36523,0 0.63307,0.20291 0.38959,0.29218 0.57626,0.70612 0.0933,0.20696 0.0933,0.77511 0,0.8441 -0.31653,1.42442 -0.30031,0.55191 -0.80352,0.73047 -0.44234,0.15827 -1.03078,0.15827 h -1.30267 z m 2.31316,-4.52892 h 0.60872 v 0.60873 h -0.60872 z m -1.01455,0 h 0.60873 v 0.60873 h -0.60873 z m -3.36422,1.01455 h 0.60873 v 0.60872 h -0.60873 z m -1.01454,0 h 0.60872 v 0.60872 h -0.60872 z m 1.29456,3.11667 q -0.0609,-0.17044 -0.11363,-0.36929 -0.0528,-0.20291 -0.10146,-0.61278 -0.48698,0.0487 -0.81975,0.32059 -0.45046,0.36118 -0.44234,0.61279 0.004,0.16638 0.36929,0.26783 0.36524,0.10146 1.10789,-0.21914 z m -0.2719,-1.56645 q -0.0162,-0.15827 -0.0284,-0.33277 h 0.7467 q 0.004,0.68177 0.15016,1.38789 0.0852,0.40988 0.31248,0.73047 0.1258,0.17856 0.58032,0.17856 h 0.45857 v 0.74671 h -0.68177 q -0.36524,0 -0.66149,-0.20697 -0.18261,-0.1258 -0.33682,-0.36523 -0.56003,0.29624 -1.19311,0.29624 -0.22726,0 -0.46263,-0.0609 -0.76699,-0.19479 -0.76699,-0.81975 0,-0.70207 0.82786,-1.21745 0.44234,-0.27596 1.05513,-0.33683 z m -13.39188,-3.60366 h 0.7467 v 6.31452 h -0.7467 z m -3.06798,4.80894 q 0,0.72235 -0.35306,1.13223 -0.32466,0.37335 -1.42848,0.37335 h -2.36186 v -0.74671 h 2.1346 q 0.88468,0 1.06324,-0.17856 0.19885,-0.19885 0.19885,-0.62901 v -4.76024 h 0.74671 z m -7.1018,0.75887 h 0.07711 q 0.170443,0 0.560028,-0.30842 0.462632,-0.36523 0.462632,-0.57626 0,-0.45451 -0.340887,-0.45451 -0.304363,0 -0.604668,0.5722 -0.15421,0.29219 -0.15421,0.76699 z m -0.746704,0 q 0.03652,-1.07947 0.560028,-1.5908 0.438282,-0.43422 0.961787,-0.43422 0.560028,0 0.840042,0.40175 0.186676,0.2719 0.186676,0.73453 0,0.45046 -0.661482,0.88874 h 1.980393 v 0.74671 h -1.980393 q 0.661482,0.43828 0.661482,0.88874 0,0.46263 -0.186676,0.73453 -0.280014,0.40176 -0.840042,0.40176 -0.523505,0 -0.961787,-0.43423 -0.523505,-0.51944 -0.560028,-1.5908 H 95.12011 v -0.74671 z m 0.746704,0.74671 q 0,0.4748 0.15421,0.76699 0.300305,0.57221 0.604668,0.57221 0.340887,0 0.340887,-0.45452 0,-0.21102 -0.462632,-0.57626 -0.389585,-0.30842 -0.560028,-0.30842 z m -3.607719,-0.74671 q 0,-0.30842 -0.06493,-0.53973 -0.0974,-0.32466 -0.284072,-0.4464 -0.243491,-0.16639 -0.486981,-0.0609 -0.271898,0.11768 -0.324654,0.34494 -0.06899,0.30436 0.190734,0.5235 0.190734,0.16233 0.969904,0.17856 z m 0.726413,0 h 0.998311 v 0.74671 h -0.787286 l -0.284072,-0.004 q -0.101455,0.63308 -0.624959,1.15658 -0.336828,0.33683 -0.762937,0.52756 -0.779169,0.34901 -2.260403,0.34901 v -0.74671 q 1.465001,0 2.00068,-0.30842 0.681773,-0.38553 0.93338,-0.98614 -0.478864,-0.0122 -0.661482,-0.0406 -0.564086,-0.0974 -0.771053,-0.2719 -0.430167,-0.36117 -0.470748,-0.90903 -0.0081,-0.1258 0.03247,-0.35712 0.109571,-0.62901 0.823809,-0.93338 0.239433,-0.10145 0.503214,-0.0974 0.353061,0.008 0.633075,0.20696 0.539737,0.37336 0.629017,0.94556 0.05276,0.33683 0.06899,0.72235 z m -6.509313,1.35543 h 0.608726 v 0.60873 h -0.608726 z m -1.014544,0 h 0.608726 v 0.60873 h -0.608726 z m 0.900915,-0.95772 q -0.292189,0.349 -1.684142,0.349 h -0.864391 v -0.74671 h 0.641191 q 1.15658,0 1.335139,-0.17856 0.198851,-0.19885 0.198851,-0.62901 v -0.88063 h 0.746704 v 0.88063 q 0,0.75888 -0.373352,1.20528 z m -4.614135,-3.91208 h 0.608726 v 0.60872 h -0.608726 z m -1.014543,0 h 0.608726 v 0.60872 h -0.608726 z m 1.294557,3.11667 q -0.06087,-0.17044 -0.113629,-0.36929 -0.05276,-0.20291 -0.101454,-0.61278 -0.486981,0.0487 -0.819751,0.32059 -0.450458,0.36118 -0.442341,0.61279 0.0041,0.16638 0.369294,0.26783 0.365235,0.10146 1.107881,-0.21914 z m -0.271898,-1.56645 q -0.01623,-0.15827 -0.02841,-0.33277 h 0.746704 q 0.0041,0.68177 0.150153,1.38789 0.08522,0.40988 0.312479,0.73047 0.125803,0.17856 0.580319,0.17856 h 0.458574 v 0.74671 h -0.681774 q -0.365235,0 -0.661482,-0.20697 -0.182618,-0.1258 -0.336828,-0.36523 -0.560028,0.29624 -1.193104,0.29624 -0.227257,0 -0.462631,-0.0609 -0.766995,-0.19479 -0.766995,-0.81975 0,-0.70207 0.827867,-1.21745 0.442341,-0.27596 1.055125,-0.33683 z m -13.391877,-3.60366 h 0.746704 v 6.31452 h -0.746704 z m -3.067978,4.80894 q 0,0.72235 -0.353061,1.13223 -0.324654,0.37335 -1.428477,0.37335 h -2.361858 v -0.74671 h 2.1346 q 0.884682,0 1.063241,-0.17856 0.198851,-0.19885 0.198851,-0.62901 v -4.76024 h 0.746704 z m -6.935422,-2.95841 h 0.608727 v 0.60872 h -0.608727 z m 0.458574,1.29861 q 1.047009,0.21103 1.939807,0.60873 v 0.62496 q -0.263781,0.0812 -0.560028,0.24755 0.202909,0.31653 0.324654,0.45451 0.42205,0.48292 0.641192,0.48292 h 0.24349 v 0.74671 h -0.324654 q -0.612784,0 -1.115998,-0.68178 -0.162327,-0.21914 -0.401759,-0.61278 -0.280014,0.18668 -0.446399,0.33683 -0.588435,0.5235 -0.892798,0.63307 -0.896857,0.32466 -1.558339,0.32466 h -0.519446 v -0.74671 h 0.405817 q 0.921206,0 1.44471,-0.29218 0.42205,-0.23538 0.892798,-0.66554 0.381469,-0.34901 0.791344,-0.49104 -0.336828,-0.0933 -0.75482,-0.18668 -0.344945,-0.0771 -1.075416,-0.14204 -0.332771,-0.0284 -0.986137,-0.004 v -0.74671 q 0.292189,-0.0284 0.596552,-0.0325 0.657424,0 1.35543,0.14203 z m -5.206636,1.6598 v -4.80894 h 0.746704 v 4.76024 q 0,0.43016 0.202909,0.62901 0.17856,0.17856 0.909031,0.17856 h 0.8441 v 0.74671 H 56.54321 q -0.949612,0 -1.274266,-0.37335 -0.35712,-0.40988 -0.35712,-1.13223 z m -5.015903,0.75887 h 0.523504 q 0.568145,0 0.864392,-0.18667 0.430166,-0.27596 0.430166,-0.56003 0,-0.18262 -0.162327,-0.33277 -0.146094,-0.13392 -0.401759,-0.13392 -0.288131,0 -0.710181,0.44234 -0.304363,0.31654 -0.543795,0.77105 z m -0.09334,0.74671 q -0.300305,0 -0.616842,-0.17045 -0.263782,-0.14203 -0.42205,-0.38958 -0.413934,0.56003 -0.795403,0.56003 h -0.527562 v -0.74671 h 0.304363 q 0.174501,0 0.324654,-0.17856 0.263781,-0.32465 0.263781,-0.73047 v -0.46263 h 0.746704 v 0.31654 q 0,0.0974 0.03652,0.25972 0.03652,0.16233 0.219141,0.36524 0.308421,-0.51945 0.507272,-0.76294 0.592493,-0.7183 1.201219,-0.7183 0.693948,0 1.063242,0.33277 0.353061,0.31654 0.353061,0.80758 0,0.77105 -0.746704,1.2134 -0.51133,0.30436 -1.026718,0.30436 z m -4.42747,-4.26108 h 0.608726 v 0.60872 h -0.608726 z m -1.014544,0 h 0.608727 v 0.60872 h -0.608727 z m 1.294558,3.11667 q -0.06087,-0.17044 -0.113629,-0.36929 -0.05276,-0.20291 -0.101454,-0.61278 -0.486981,0.0487 -0.819751,0.32059 -0.450458,0.36118 -0.442341,0.61279 0.0041,0.16638 0.369293,0.26783 0.365236,0.10146 1.107882,-0.21914 z m -0.271898,-1.56645 q -0.01623,-0.15827 -0.02841,-0.33277 h 0.746704 q 0.0041,0.68177 0.150153,1.38789 0.08522,0.40988 0.312479,0.73047 0.125803,0.17856 0.580319,0.17856 h 0.458573 v 0.74671 h -0.681773 q -0.365235,0 -0.661482,-0.20697 -0.182618,-0.1258 -0.336829,-0.36523 -0.560028,0.29624 -1.193103,0.29624 -0.227257,0 -0.462632,-0.0609 -0.766994,-0.19479 -0.766994,-0.81975 0,-0.70207 0.827867,-1.21745 0.442341,-0.27596 1.055125,-0.33683 z m -13.050986,2.36186 q -0.292188,0.349 -1.684142,0.349 H 29.78371 v -0.74671 h 0.641192 q 1.156579,0 1.335139,-0.17856 0.19885,-0.19885 0.19885,-0.62901 v -0.88063 h 0.746704 v 0.88063 q 0,0.75888 -0.373352,1.20528 z m -0.42205,0.95772 h 0.608726 v 0.60873 h -0.608726 z m -4.8901,-5.07271 v 0.33277 q -0.300305,0.0162 -0.454516,0.073 -0.324654,0.12175 -0.324654,0.25567 0,0.11363 0.05682,0.18668 0.0487,0.0649 0.324654,0.10551 0.413933,0.0609 0.413933,0.41799 0,0.4464 -0.357119,0.61684 -0.33277,0.15827 -0.649308,0.15827 -0.267839,0 -0.495097,-0.0446 v -0.35712 q 0.275956,0.0406 0.458574,0.0406 0.24349,0 0.474806,-0.10551 0.24349,-0.10551 0.24349,-0.22726 0,-0.15421 -0.316537,-0.2232 -0.300305,-0.0649 -0.373352,-0.17856 -0.129862,-0.19073 -0.125803,-0.37741 0.0081,-0.32871 0.312479,-0.48292 0.344945,-0.1745 0.811635,-0.19073 z m 2.138657,-1.85053 v 4.76024 q 0,0.43016 0.198851,0.62901 0.178559,0.17856 0.284072,0.17856 h 0.304363 v 0.74671 h -0.527563 q -0.324653,0 -0.783227,-0.49916 -0.369294,0.31654 -0.68989,0.49916 -0.417992,0.21508 -1.225568,0.2232 -0.702064,0.008 -1.363547,-0.2232 -0.880623,-0.30842 -0.880623,-1.05513 0,-0.30436 0.06493,-0.51944 h 0.746704 q -0.05681,0.23537 -0.05681,0.41393 0,0.37741 0.624959,0.56003 0.491039,0.14203 0.8441,0.14203 0.474806,0 0.872507,-0.15421 0.328712,-0.14203 0.629017,-0.52756 0.211025,-0.2719 0.211025,-1.3392 v -3.83497 z m -7.316887,5.07678 h 1.02266 v 1.23774 h -1.02266 z"
         id="path7" />
    </g>
    <g
       id="g1"
       style="display:none">
      <path
         style="fill:none;stroke:#9999ff;stroke-width:0.331;stroke-linecap:butt;stroke-linejoin:miter;stroke-dasharray:none;stroke-dashoffset:0;stroke-opacity:1;marker-end:url(#ArrowWide)"
         d="M 158.83181,137.64437 H 34.204129"
         id="path16-5"
         sodipodi:nodetypes="cc" />
      <path
         style="fill:none;stroke:#9999ff;stroke-width:0.331;stroke-linecap:butt;stroke-linejoin:miter;stroke-dasharray:none;stroke-dashoffset:0;stroke-opacity:1;marker-end:url(#ArrowWide)"
         d="M 158.83181,151.4027 H 18.858296"
         id="path47"
         sodipodi:nodetypes="cc" />
      <path
         style="fill:none;stroke:#9999ff;stroke-width:0.331;stroke-linecap:butt;stroke-linejoin:miter;stroke-dasharray:none;stroke-dashoffset:0;stroke-opacity:1;marker-end:url(#ArrowWide)"
         d="M 158.83181,167.27771 H 18.858296"
         id="path48"
         sodipodi:nodetypes="cc" />
    </g>
    <path
       d="m 163.00396,148.48907 h -0.43137 l -0.55652,-0.86934 h -0.15477 v 0.86934 h -0.34082 v -2.14866 h 0.70799 q 0.35399,0 0.54993,0.163 0.19593,0.16136 0.19593,0.47913 0,0.1416 -0.0445,0.25027 -0.0428,0.10702 -0.12348,0.1844 -0.079,0.0774 -0.18606,0.12349 -0.10537,0.0445 -0.22886,0.0609 z m -0.37045,-1.51147 q 0,-0.16465 -0.10867,-0.24697 -0.10702,-0.0823 -0.29637,-0.0823 h -0.36717 v 0.66353 h 0.36717 q 0.18935,0 0.29637,-0.0823 0.10867,-0.0823 0.10867,-0.25191 z m 2.10091,1.51147 h -1.37317 v -2.14866 h 0.34082 v 1.84242 h 1.03235 z m 1.67447,0 h -1.0307 v -0.30624 h 0.33918 v -1.53452 h -0.33918 v -0.3079 h 1.0307 v 0.3079 h -0.3507 v 1.53452 h 0.3507 z"
       id="text52"
       style="font-weight:bold;font-size:3.372px;line-height:1.25;font-family:'Anonymous Pro';-inkscape-font-specification:'Anonymous Pro Bold';text-align:center;letter-spacing:0px;word-spacing:0px;direction:rtl;text-anchor:middle;fill:#84f801;stroke-width:0.0234166"
       aria-label="RLI" />
    <path
       d="m 163.00396,161.71817 h -0.43137 l -0.55652,-0.86934 h -0.15477 v 0.86934 h -0.34082 v -2.14866 h 0.70799 q 0.35399,0 0.54993,0.163 0.19593,0.16136 0.19593,0.47913 0,0.14159 -0.0445,0.25026 -0.0428,0.10702 -0.12348,0.18441 -0.079,0.0774 -0.18606,0.12349 -0.10537,0.0444 -0.22886,0.0609 z m -0.37045,-1.51147 q 0,-0.16465 -0.10867,-0.24698 -0.10702,-0.0823 -0.29637,-0.0823 h -0.36717 v 0.66353 h 0.36717 q 0.18935,0 0.29637,-0.0823 0.10867,-0.0823 0.10867,-0.25191 z m 2.10091,1.51147 h -1.37317 v -2.14866 h 0.34082 v 1.84241 h 1.03235 z m 1.67447,0 h -1.0307 v -0.30625 h 0.33918 v -1.53452 h -0.33918 v -0.30789 h 1.0307 v 0.30789 h -0.3507 v 1.53452 h 0.3507 z"
       id="text53"
       style="font-weight:bold;font-size:3.372px;line-height:1.25;font-family:'Anonymous Pro';-inkscape-font-specification:'Anonymous Pro Bold';text-align:center;letter-spacing:0px;word-spacing:0px;direction:rtl;text-anchor:middle;fill:#84f801;stroke-width:0.0234166"
       aria-label="RLI" />
  </g>
</svg>
