<?xml version="1.0" encoding="UTF-8" standalone="no"?>
<svg
   width="88.658989mm"
   height="167.0015mm"
   viewBox="0 0 88.658989 167.0015"
   version="1.1"
   id="svg8"
   inkscape:version="1.4 (e7c3feb100, 2024-10-09)"
   sodipodi:docname="epee-plume-fr.svg"
   xmlns:inkscape="http://www.inkscape.org/namespaces/inkscape"
   xmlns:sodipodi="http://sodipodi.sourceforge.net/DTD/sodipodi-0.dtd"
   xmlns:xlink="http://www.w3.org/1999/xlink"
   xmlns="http://www.w3.org/2000/svg"
   xmlns:svg="http://www.w3.org/2000/svg"
   xmlns:rdf="http://www.w3.org/1999/02/22-rdf-syntax-ns#"
   xmlns:cc="http://creativecommons.org/ns#"
   xmlns:dc="http://purl.org/dc/elements/1.1/">
  <defs
     id="defs2">
    <clipPath
       clipPathUnits="userSpaceOnUse"
       id="clipPath9314">
      <path
         id="path9316"
         style="fill:#a1a1a1;fill-opacity:1;stroke:none;stroke-width:0.264583px;stroke-linecap:butt;stroke-linejoin:miter;stroke-opacity:1"
         d="m 451.09818,563.95521 c -4.16607,3.02228 -21.16045,7.7029 -21.16045,7.7029 l 13.42036,9.23716 c 9.14662,-1.05119 35.22781,-14.84509 35.22781,-14.84509 z m -0.61597,28.12542 c -8.92144,5.5998 -23.82851,7.9566 -23.82851,7.9566 l 13.84205,8.5783 c 15.68315,0.63672 36.50908,-12.92545 36.60499,-13.3015 z m -30.24984,8.93175 c -0.21728,0.005 -0.41807,0.073 -0.60307,0.20516 -0.2431,0.17693 -0.38925,0.4136 -0.43873,0.71054 -0.0383,0.23013 -0.006,0.45146 0.0956,0.66302 0.10271,0.20786 0.25694,0.36676 0.46355,0.47749 0.0278,0.0161 0.26266,0.11838 0.70435,0.30644 0.0675,0.0303 0.11882,0.056 0.15349,0.077 0.0353,0.0172 0.0792,0.0511 0.13176,0.10178 0.0563,0.0513 0.10334,0.11285 0.14107,0.18399 0.0916,0.16021 0.12026,0.3406 0.0868,0.54105 -0.0353,0.21156 -0.13483,0.38571 -0.29869,0.52245 -0.16396,0.13671 -0.35708,0.18645 -0.57983,0.14933 -0.37116,-0.0618 -0.64752,-0.21117 -0.82939,-0.44752 -0.18497,-0.24064 -0.25271,-0.54533 -0.20257,-0.91466 0.003,-0.0377 -0.0164,-0.0598 -0.0574,-0.0666 -0.0222,-0.004 -0.0402,2.6e-4 -0.0532,0.008 -0.013,0.009 -0.0222,0.0209 -0.0284,0.0351 l -0.014,0.0837 -0.1855,1.1126 c -0.009,0.052 -0.013,0.0878 -0.0124,0.10697 0.004,0.0198 0.0214,0.0323 0.0512,0.0372 0.0259,0.004 0.0579,-0.0151 0.0956,-0.0584 l 0.0212,-0.0254 c 0.06,-0.0625 0.13738,-0.14878 0.23202,-0.2589 0.0786,0.12375 0.20111,0.23765 0.3669,0.34158 0.16517,0.10763 0.36261,0.18076 0.59274,0.2191 0.31919,0.0532 0.59992,-0.0164 0.8418,-0.20876 0.24619,-0.1955 0.39545,-0.4514 0.44804,-0.76689 0.0457,-0.27466 0.006,-0.52877 -0.11887,-0.76324 -0.12436,-0.23815 -0.30036,-0.405 -0.52864,-0.50025 l -0.68419,-0.29144 c -0.16396,-0.0693 -0.2868,-0.17925 -0.36845,-0.33023 -0.0779,-0.15031 -0.10317,-0.30742 -0.076,-0.47077 0.0334,-0.20045 0.1306,-0.35983 0.29144,-0.478 0.16515,-0.12125 0.35327,-0.1639 0.56483,-0.12866 0.61984,0.10329 0.91729,0.55152 0.89194,1.34461 0,0.0458 0.0188,0.0718 0.0558,0.078 0.0222,0.004 0.0393,0.003 0.0517,-0.003 0.013,-0.009 0.0209,-0.0214 0.0233,-0.0362 0.006,-0.0143 0.0127,-0.0418 0.0196,-0.0827 l 0.18656,-1.11879 c 0.009,-0.0557 0.0108,-0.0919 0.006,-0.108 0,-0.019 -0.0159,-0.0312 -0.0455,-0.0362 -0.0259,-0.004 -0.0579,0.0151 -0.0956,0.0584 l -0.24752,0.28525 c -0.0687,-0.0915 -0.12536,-0.1624 -0.17055,-0.21188 -0.0446,-0.0532 -0.12824,-0.11462 -0.25011,-0.18449 -0.11816,-0.0693 -0.25294,-0.11674 -0.40513,-0.14211 -0.0759,-0.0127 -0.15039,-0.0175 -0.22272,-0.0161 z m 4.43798,0.99735 c -0.0156,0 -0.0291,1.6e-4 -0.0403,0.005 -0.0188,0.0101 -0.0418,0.0343 -0.0698,0.0729 l -2.12286,2.87268 c -0.15557,0.20768 -0.39383,0.26483 -0.71572,0.17209 l -0.0527,0.16745 c 0.2512,0.0667 0.43649,0.11851 0.55502,0.15553 0.0682,0.0214 0.273,0.0913 0.61442,0.20981 l 0.0522,-0.1669 c -0.1293,-0.0404 -0.22148,-0.0989 -0.27646,-0.1752 -0.0514,-0.0752 -0.0655,-0.15039 -0.0419,-0.22583 0.0124,-0.0395 0.0246,-0.0654 0.0362,-0.0775 l 0.46818,-0.62839 1.33067,0.41598 0.0279,0.91363 c -0.003,0.0465 -0.005,0.0734 -0.007,0.0806 -0.0337,0.10779 -0.19955,0.11488 -0.49763,0.0217 l -0.0522,0.1669 c 0.13266,0.0297 0.39295,0.10509 0.78083,0.22635 0.24421,0.0764 0.47784,0.15515 0.70073,0.23667 l 0.0522,-0.1669 -0.0972,-0.0305 c -0.1616,-0.0505 -0.26717,-0.0969 -0.31678,-0.14004 -0.0485,-0.0467 -0.0732,-0.11981 -0.0739,-0.21858 l -0.11057,-3.73051 c -0.003,-0.0285 -0.005,-0.047 -0.007,-0.0553 -0.003,-0.008 -0.006,-0.0193 -0.013,-0.0336 -0.003,-0.0167 -0.0106,-0.0291 -0.0238,-0.0372 -0.0101,-0.007 -0.0254,-0.014 -0.047,-0.0206 -0.0198,-0.006 -0.0372,-0.0101 -0.0527,-0.0103 z m -0.33125,0.67127 0.0615,1.94099 -1.21233,-0.37881 z m 2.78534,0.34261 -0.0651,0.16227 0.15192,0.061 c 0.0699,0.0279 0.15632,0.0659 0.25837,0.11472 0.0566,0.0307 0.0871,0.0552 0.092,0.0734 0.0101,0.0161 0.005,0.0487 -0.0145,0.0977 l -1.09191,2.73677 c -0.0209,0.0524 -0.0409,0.0928 -0.0605,0.12144 -0.0196,0.0286 -0.055,0.0613 -0.10594,0.0977 -0.0461,0.0343 -0.11449,0.0474 -0.20463,0.0398 -0.0901,-0.008 -0.19767,-0.0366 -0.32348,-0.0868 l -0.0651,0.16277 c 0.37113,0.13597 0.57763,0.2122 0.6196,0.22895 0.0419,0.0167 0.24442,0.10353 0.60719,0.26045 l 0.0646,-0.16227 c -0.12581,-0.0502 -0.22389,-0.10366 -0.29456,-0.1602 -0.0706,-0.0565 -0.11223,-0.11409 -0.12557,-0.17209 -0.008,-0.0601 -0.0103,-0.10684 -0.005,-0.14107 0.006,-0.0342 0.0188,-0.0778 0.0398,-0.13023 l 1.08778,-2.72592 c 0.0127,0.0293 0.0217,0.0572 0.0274,0.0837 l 0.88369,3.99873 c 0.0169,0.0594 0.0376,0.0941 0.062,0.10387 0.0349,0.014 0.0594,0.0138 0.0734,0 0.014,-0.0145 0.032,-0.05 0.0543,-0.10594 l 1.15496,-2.89388 c 0.0209,-0.0524 0.0408,-0.0933 0.0605,-0.12197 0.0196,-0.0286 0.0526,-0.0597 0.0987,-0.094 0.051,-0.0364 0.12121,-0.051 0.21135,-0.0434 0.0902,0.008 0.19817,0.0366 0.32401,0.0868 l 0.0651,-0.16227 c -0.37115,-0.13592 -0.57766,-0.21267 -0.6196,-0.22945 -0.042,-0.0167 -0.24437,-0.10353 -0.60719,-0.26043 l -0.0651,0.16278 c 0.12583,0.0502 0.22442,0.10366 0.29506,0.1602 0.0706,0.0566 0.10991,0.11459 0.11835,0.17465 0.0132,0.058 0.0175,0.10425 0.0119,0.13851 -0.006,0.0342 -0.0188,0.0773 -0.0398,0.1297 l -0.89347,2.23861 -0.76483,-3.45921 c -0.0119,-0.0412 -0.0236,-0.068 -0.0346,-0.0806 -0.0111,-0.0127 -0.041,-0.0285 -0.0899,-0.048 z m 5.28704,2.21692 c -0.25112,-0.003 -0.50652,0.0472 -0.76636,0.14986 -0.51475,0.20341 -0.88834,0.56629 -1.12086,1.08884 -0.23257,0.52255 -0.25289,1.04479 -0.061,1.56684 0.19193,0.52197 0.53536,0.89328 1.03042,1.1136 0.20283,0.0903 0.41032,0.13769 0.6227,0.14161 0.2109,0.007 0.39016,-0.0432 0.53692,-0.1509 0.008,0.0737 0.0341,0.16788 0.0781,0.28216 0.0454,0.11083 0.082,0.17224 0.10954,0.18449 0.031,0.0138 0.064,-0.0185 0.0992,-0.0977 l 0.39947,-0.89763 c 0.0459,-0.10316 0.0913,-0.15867 0.13642,-0.16743 0.0485,-0.007 0.15541,0.0259 0.32038,0.0992 l 0.0708,-0.16018 c -0.38621,-0.15954 -0.5983,-0.24725 -0.63614,-0.26408 -0.42973,-0.19124 -0.70403,-0.31959 -0.82319,-0.38499 l -0.0713,0.15967 0.16537,0.0734 c 0.22,0.0979 0.347,0.17296 0.38137,0.22532 0.0378,0.0539 0.034,0.1325 -0.0119,0.23563 l -0.14729,0.3302 c -0.0597,0.1341 -0.14246,0.23289 -0.24908,0.29663 -0.1051,0.0603 -0.21799,0.0865 -0.33795,0.0785 -0.11999,-0.008 -0.2171,-0.0209 -0.292,-0.0377 -0.0733,-0.0204 -0.13946,-0.0432 -0.19791,-0.0692 -0.0859,-0.0383 -0.17288,-0.0873 -0.26149,-0.14726 -0.0871,-0.0635 -0.18348,-0.16222 -0.28887,-0.2956 -0.10194,-0.13187 -0.17938,-0.27733 -0.23201,-0.43667 -0.0511,-0.16279 -0.0652,-0.37107 -0.0429,-0.62476 0.0273,-0.25561 0.10504,-0.52771 0.23357,-0.8165 0.13005,-0.29221 0.27999,-0.53247 0.45009,-0.72035 0.17356,-0.18638 0.33557,-0.31385 0.48577,-0.38294 0.15515,-0.071 0.31488,-0.11131 0.47956,-0.12041 0.16621,-0.0124 0.29776,-0.007 0.39481,0.0156 0.102,0.0206 0.19447,0.0491 0.27697,0.0858 0.28191,0.12547 0.47609,0.34565 0.58293,0.66096 0.11176,0.31334 0.11096,0.66717 -0.003,1.06143 -0.0101,0.0409 -0.0143,0.0683 -0.0119,0.0817 0.003,0.0135 0.0209,0.0276 0.0553,0.0429 0.0412,0.0183 0.0681,0.022 0.0811,0.0114 0.013,-0.0106 0.0319,-0.0432 0.0563,-0.0982 l 0.54417,-1.22216 c 0.023,-0.0516 0.0338,-0.086 0.0331,-0.10282 0.004,-0.0188 -0.008,-0.0343 -0.0351,-0.0465 -0.0275,-0.0122 -0.0642,-0.003 -0.11007,0.0259 l -0.42738,0.26665 c -0.0324,-0.0845 -0.0636,-0.15346 -0.093,-0.20773 -0.0243,-0.0562 -0.0655,-0.13049 -0.12351,-0.22222 -0.058,-0.0917 -0.13239,-0.1741 -0.22325,-0.24752 -0.0909,-0.0734 -0.19643,-0.13663 -0.31679,-0.19015 -0.24233,-0.10788 -0.48942,-0.16328 -0.74051,-0.1659 z m 4.62349,2.08206 -0.076,0.15811 0.12247,0.0584 c 0.18328,0.0878 0.28808,0.15666 0.3142,0.20672 0.0295,0.0517 0.0206,0.12684 -0.0265,0.22532 l -1.28469,2.68303 c -0.0471,0.0984 -0.0999,0.15232 -0.15864,0.16174 -0.0554,0.0111 -0.17486,-0.0275 -0.35812,-0.11523 l -0.12197,-0.0584 -0.076,0.15761 1.86346,0.89194 c 0.43106,0.20635 0.87709,0.2159 1.33842,0.0279 0.46466,-0.18638 0.81119,-0.51753 1.0387,-0.99269 0.23233,-0.48538 0.27999,-0.97319 0.14365,-1.464 -0.13634,-0.49082 -0.42186,-0.84002 -0.85628,-1.04801 z m 0.90485,0.67127 c 0.0385,-0.0108 0.11559,0.0114 0.23098,0.0666 l 0.50903,0.24392 c 0.39031,0.18688 0.62389,0.49276 0.70022,0.91726 0.0611,0.32546 -0.0321,0.74605 -0.27906,1.26193 -0.23561,0.49215 -0.50744,0.82082 -0.81597,0.986 -0.12843,0.0678 -0.29123,0.11067 -0.48784,0.12919 -0.1932,0.0201 -0.40177,-0.023 -0.62579,-0.13023 l -0.51419,-0.24648 c -0.11539,-0.0552 -0.18058,-0.10123 -0.19635,-0.13798 -0.0124,-0.0351 0.003,-0.0968 0.0444,-0.185 l 1.31879,-2.75436 c 0.0423,-0.0882 0.0806,-0.13851 0.11576,-0.1509 z m 2.97759,1.20457 -0.0765,0.15761 0.12197,0.0589 c 0.18291,0.0885 0.28779,0.15809 0.31367,0.20825 0.0293,0.0518 0.0201,0.12655 -0.0274,0.22479 l -0.92707,1.91564 c -0.17209,0.35568 -0.19251,0.71768 -0.0615,1.08624 0.13605,0.36682 0.3782,0.63477 0.72708,0.80357 0.28791,0.13933 0.58618,0.15798 0.89452,0.0563 0.30832,-0.1016 0.55597,-0.28885 0.74258,-0.56224 0.0429,-0.0628 0.10473,-0.17716 0.185,-0.34314 l 0.78653,-1.62626 c 0.0279,-0.0576 0.0533,-0.10168 0.0765,-0.13229 0.0233,-0.0306 0.06,-0.0628 0.11007,-0.0971 0.0534,-0.0327 0.12361,-0.0401 0.21134,-0.0227 0.0894,0.014 0.19537,0.0506 0.31729,0.10956 l 0.076,-0.15761 c -0.37077,-0.16685 -0.57283,-0.25853 -0.60667,-0.27493 -0.0373,-0.018 -0.23651,-0.12084 -0.59737,-0.30798 l -0.076,0.15762 c 0.12194,0.059 0.21571,0.11946 0.28218,0.18087 0.0664,0.0614 0.10178,0.12239 0.10591,0.18293 0.009,0.0588 0.01,0.10472 0.003,0.13848 -0.008,0.0338 -0.0246,0.0763 -0.0491,0.12713 l -0.85318,1.76268 c -0.16555,0.34211 -0.39653,0.56902 -0.69297,0.68057 -0.29482,0.10821 -0.57094,0.1003 -0.82838,-0.0244 -0.0779,-0.0377 -0.15134,-0.0883 -0.22117,-0.15139 -0.0648,-0.0648 -0.12988,-0.15452 -0.19534,-0.26974 -0.0638,-0.11867 -0.0906,-0.27194 -0.0796,-0.4589 0.0143,-0.18531 0.0767,-0.3911 0.18656,-0.61806 l 0.93689,-1.9358 c 0.0475,-0.0982 0.0986,-0.15298 0.15399,-0.1638 0.0588,-0.009 0.17989,0.0303 0.36277,0.11885 l 0.12197,0.0594 0.076,-0.15761 c -0.12348,-0.0472 -0.37459,-0.16264 -0.75395,-0.34623 -0.38275,-0.18521 -0.63101,-0.31179 -0.74467,-0.37931 z m 5.09942,2.46084 -0.0558,0.16589 0.12867,0.0429 c 0.19267,0.0646 0.30488,0.11994 0.33695,0.1664 0.0356,0.0477 0.0363,0.12337 0.003,0.22685 l -0.8971,2.67581 c -0.018,0.0535 -0.0359,0.0953 -0.0538,0.12504 -0.018,0.0297 -0.0508,0.0642 -0.0997,0.10338 -0.0441,0.0368 -0.11163,0.0537 -0.20206,0.0511 -0.0904,-0.003 -0.19968,-0.0251 -0.32814,-0.0682 l -0.0558,0.1659 c 0.37828,0.11488 0.5887,0.17944 0.63151,0.19378 0.0428,0.0143 0.25011,0.0896 0.62114,0.22582 l 0.0553,-0.1659 c -0.12845,-0.043 -0.22963,-0.0906 -0.30334,-0.14313 -0.0737,-0.0525 -0.11885,-0.10719 -0.13539,-0.16434 -0.0119,-0.0595 -0.0156,-0.10657 -0.0119,-0.14107 0.004,-0.0345 0.014,-0.0788 0.032,-0.1323 l 0.96686,-2.88456 0.006,0.003 0.17361,3.76103 c 0.003,0.0881 0.0249,0.13912 0.0677,0.15346 0.0392,0.0132 0.083,-0.0101 0.13073,-0.0692 l 2.45205,-2.94659 0.005,0.003 -1.00304,2.99103 -0.0403,-0.009 c -0.12645,0.077 -0.24922,0.1555 -0.37415,0.23307 -0.0397,-0.0111 -0.0708,-0.0172 -0.11938,-0.0336 l -0.12817,-0.0429 -0.0558,0.16589 c 0.0185,0.005 0.0832,0.0267 0.10644,0.0331 -8.45539,5.30495 -13.42604,11.85148 -13.42604,11.85148 l 9.99577,-0.14161 0.22326,8.22378 c 0,0 14.10758,-13.95756 20.56979,-16.57416 l -7.59954,-1.68156 c 0.0196,-0.0206 0.0395,-0.0412 0.0538,-0.0651 0.0441,-0.0677 0.0761,-0.13057 0.0966,-0.18913 0.0209,-0.0623 0.0337,-0.11771 0.0382,-0.16642 0.006,-0.0637 -0.0159,-0.0978 -0.0646,-0.10231 -0.0375,-0.003 -0.0624,0.0243 -0.0755,0.0837 -0.0316,0.17846 -0.0883,0.3034 -0.17052,0.37518 -0.0145,0.0127 -0.0297,0.0175 -0.0444,0.0274 l -0.4227,-0.0935 c -0.0127,-0.0241 -0.0265,-0.0485 -0.0362,-0.0708 -0.0116,-0.0389 -0.0233,-0.0969 -0.0352,-0.17362 -0.008,-0.0763 -0.0154,-0.14131 -0.0217,-0.19484 -0.003,-0.0569 -0.006,-0.14007 -0.0108,-0.25011 l -0.0315,-0.4563 c -0.0578,-0.31525 -0.26664,-0.55359 -0.62582,-0.71519 0.29131,-0.0449 0.53653,-0.14145 0.73536,-0.2894 0.20257,-0.14756 0.31343,-0.32655 0.33279,-0.53639 0.0251,-0.27353 -0.0953,-0.52237 -0.36173,-0.74724 -0.26612,-0.22865 -0.60341,-0.36182 -1.01182,-0.39947 l -1.76475,-0.16277 -0.0161,0.17415 0.13486,0.0124 c 0.20233,0.0188 0.32454,0.0469 0.3664,0.0848 0.0456,0.0382 0.0633,0.1115 0.0532,0.22013 l -0.2713,2.9378 -1.51929,-0.33641 -0.4589,-3.50986 c -0.006,-0.0281 -0.01,-0.0461 -0.0119,-0.0543 -0.003,-0.008 -0.008,-0.0193 -0.0164,-0.0325 -0.004,-0.0161 -0.0135,-0.0274 -0.0274,-0.0341 -0.0103,-0.006 -0.0265,-0.0114 -0.0486,-0.0161 -0.0405,-0.008 -0.0715,-0.007 -0.093,0.004 -0.0177,0.0116 -0.0387,0.0379 -0.0625,0.0791 l -1.7875,3.0091 -1.52392,-0.33692 0.90329,-2.69388 c 0.0347,-0.10348 0.0787,-0.16417 0.13229,-0.1819 0.0571,-0.0167 0.18198,0.007 0.37465,0.0718 l 0.12817,0.0434 0.0558,-0.1664 -0.90434,-0.30282 c -0.0678,-0.0227 -0.11245,-0.0316 -0.13386,-0.0269 -0.0167,0.003 -0.0424,0.0254 -0.077,0.0692 l -2.18178,2.62052 -0.15708,-3.38635 c -0.006,-0.0655 -0.0156,-0.10682 -0.03,-0.12351 -0.0143,-0.0167 -0.0536,-0.0358 -0.11782,-0.0574 z m 20.92174,1.3162 v 0 c -0.18131,0.003 -0.37007,0.032 -0.56639,0.0915 l -1.66656,0.50488 c -0.10321,0.0198 -0.20145,0.0411 -0.31263,0.0584 -0.13758,0.0214 -0.35266,0.0487 -0.64442,0.0827 l 0.0269,0.17311 c 0.10782,-0.0167 0.19114,-0.009 0.24961,0.0238 0.0584,0.0328 0.0925,0.081 0.10232,0.14417 0.009,0.0558 2e-5,0.11464 -0.0295,0.17621 l -0.68781,1.63764 -1.26555,-1.48778 c -0.0318,-0.0331 -0.0498,-0.0628 -0.0537,-0.0889 -0.009,-0.0558 0.0153,-0.0977 0.0718,-0.12558 0.0603,-0.0284 0.15904,-0.053 0.29663,-0.0744 l -0.0269,-0.17312 c -0.13214,0.032 -0.40625,0.0804 -0.8227,0.14523 -0.2491,0.0388 -0.49162,0.0708 -0.7276,0.0961 l -3.32949,0.0801 -0.077,1.27175 0.14107,-0.003 c 0.0111,-0.16962 0.0209,-0.30345 0.03,-0.40153 0.0127,-0.0982 0.0331,-0.19272 0.061,-0.28371 0.0316,-0.0948 0.0658,-0.16531 0.10231,-0.21135 0.0403,-0.0461 0.0977,-0.0873 0.17208,-0.12298 0.0744,-0.0394 0.16024,-0.064 0.25787,-0.0739 0.0976,-0.0135 0.21968,-0.022 0.36639,-0.0254 0.16553,-0.004 0.2671,-0.003 0.30488,0.004 0.0378,0.007 0.0646,0.0193 0.0801,0.0377 0.0193,0.0182 0.0308,0.039 0.0351,0.0615 0.004,0.0225 0.007,0.06 0.008,0.11266 l 0.0713,2.97346 c 0.003,0.0752 -0.005,0.12819 -0.019,0.15865 -0.0143,0.0305 -0.0644,0.058 -0.15036,0.0827 -0.086,0.0246 -0.22519,0.0393 -0.41704,0.0439 l -0.22532,0.005 0.004,0.17518 c 0.15396,-0.0151 0.50932,-0.0291 1.06608,-0.0424 0.56052,-0.0135 0.91779,-0.0167 1.07228,-0.009 l -0.004,-0.17465 -0.22582,0.005 c -0.19185,0.005 -0.331,-0.003 -0.41807,-0.0238 -0.0871,-0.0206 -0.13875,-0.0456 -0.15452,-0.0754 -0.0156,-0.0297 -0.0243,-0.0824 -0.0265,-0.15761 l -0.0708,-2.97347 c -0.003,-0.0677 0.003,-0.11689 0.0135,-0.14726 0.0106,-0.0341 0.0383,-0.0574 0.0832,-0.0698 0.0412,-0.008 0.1484,-0.0154 0.32144,-0.019 0.14671,-0.003 0.26884,-2.4e-4 0.3669,0.008 0.098,0.005 0.18537,0.0257 0.26149,0.0615 0.0761,0.032 0.1334,0.0705 0.17208,0.11472 0.0425,0.0442 0.0798,0.1129 0.11213,0.20619 0.036,0.0895 0.0608,0.18307 0.0744,0.28062 0.0175,0.0974 0.0357,0.23053 0.0548,0.39947 l 0.14107,-0.004 -0.12041,-1.10897 c 0.1183,-0.018 0.21257,-0.0236 0.28062,-0.0156 0.0692,0.005 0.11874,0.0172 0.14883,0.0393 0.0295,0.0183 0.0654,0.0528 0.10747,0.10335 l 1.46812,1.72497 0.16952,1.08779 c 0.0169,0.10781 0.004,0.18227 -0.0393,0.22325 -0.0394,0.0404 -0.15992,0.0762 -0.36071,0.10747 l -0.13382,0.0206 0.0268,0.17312 c 0.13213,-0.032 0.40283,-0.08 0.81185,-0.14364 0.40896,-0.0637 0.68143,-0.10039 0.81701,-0.1101 l -0.0269,-0.17258 -0.12813,0.0196 c -0.20453,0.0318 -0.33351,0.035 -0.38706,0.009 -0.0498,-0.0265 -0.0838,-0.0971 -0.10181,-0.21241 l -0.16743,-1.07641 0.80356,-1.91875 c 0.1074,-0.26424 0.32642,-0.42239 0.65733,-0.47387 l -0.003,-0.018 c 0.12779,-0.0326 0.22521,-0.0487 0.26665,-0.0336 0.0566,0.0183 0.10067,0.08 0.13229,0.18449 l 0.86196,2.84684 c 0.0316,0.10446 0.0295,0.17973 -0.008,0.22635 -0.0334,0.0455 -0.14761,0.0977 -0.3421,0.15658 l -0.1297,0.0393 0.0506,0.16742 c 0.12639,-0.0501 0.38777,-0.1348 0.78393,-0.25474 0.39617,-0.11996 0.66083,-0.19428 0.79375,-0.22272 l -0.0506,-0.16746 -0.12972,0.0393 c -0.19447,0.0589 -0.32007,0.0792 -0.37672,0.061 -0.053,-0.0193 -0.0955,-0.0811 -0.12713,-0.1855 l -0.41341,-1.36683 0.62116,-0.18812 c 0.20889,-0.0632 0.39495,-0.0528 0.55811,0.0315 0.12087,0.0617 0.20635,0.13612 0.25631,0.22322 0.0489,0.0835 0.10472,0.22935 0.16795,0.43823 0.0447,0.14767 0.079,0.25512 0.10335,0.32245 0.0268,0.0627 0.0696,0.13266 0.12816,0.20929 0.0575,0.073 0.13211,0.13112 0.22376,0.17415 0.21868,0.0989 0.46839,0.1058 0.7493,0.0206 0.0972,-0.0294 0.17521,-0.0787 0.23307,-0.14729 0.0615,-0.0697 0.0978,-0.14343 0.10954,-0.22169 0.0154,-0.0793 0.0214,-0.15039 0.018,-0.21239 -0.004,-0.0656 -0.0132,-0.12165 -0.0274,-0.16846 -0.0185,-0.0612 -0.0509,-0.0845 -0.0977,-0.0703 -0.036,0.0109 -0.0494,0.0462 -0.0393,0.10594 0.0379,0.17727 0.0325,0.31443 -0.0164,0.41188 -0.0466,0.0927 -0.11094,0.15166 -0.19378,0.17672 -0.0432,0.013 -0.0827,0.019 -0.11835,0.018 -0.0368,-0.005 -0.0734,-0.0212 -0.10954,-0.0496 -0.0361,-0.0284 -0.0683,-0.0562 -0.0961,-0.0832 -0.0254,-0.0317 -0.0579,-0.0802 -0.0977,-0.14676 -0.0362,-0.0677 -0.0669,-0.126 -0.093,-0.17312 -0.0236,-0.0518 -0.0584,-0.12681 -0.1044,-0.22688 l -0.20154,-0.41132 c -0.17224,-0.27022 -0.45489,-0.41235 -0.84851,-0.42685 0.25299,-0.15132 0.44357,-0.33277 0.57205,-0.54467 0.13211,-0.21299 0.16751,-0.42101 0.10644,-0.6227 -0.0796,-0.26289 -0.28501,-0.44855 -0.61648,-0.55655 -0.16631,-0.0558 -0.34012,-0.0819 -0.52141,-0.0801 z m -0.11009,0.20515 v 0 c 0.0435,0 0.0833,0.005 0.11938,0.014 0.0721,0.0175 0.14766,0.0462 0.22633,0.0853 0.0776,0.0355 0.14536,0.0975 0.20362,0.18603 0.0571,0.0849 0.10496,0.19024 0.14314,0.31626 0.0327,0.10808 0.0492,0.20928 0.0501,0.30334 0.003,0.0894 -0.0119,0.18648 -0.047,0.29147 -0.0361,0.10136 -0.11189,0.19505 -0.22738,0.28112 -0.11546,0.0861 -0.26905,0.15769 -0.4599,0.21547 l -0.59946,0.1819 -0.42373,-1.39938 c -0.0154,-0.0504 -0.0244,-0.0869 -0.0274,-0.10956 -0.003,-0.0228 -2.1e-4,-0.0453 0.009,-0.0677 0.0114,-0.0271 0.0364,-0.0485 0.075,-0.0641 0.0338,-0.0183 0.13872,-0.0535 0.31523,-0.10697 0.10445,-0.0316 0.18986,-0.0558 0.2558,-0.0718 0.0659,-0.0161 0.14798,-0.031 0.24595,-0.0449 0.0508,-0.007 0.0976,-0.0109 0.14108,-0.0103 z m -14.74843,0.85577 0.25474,1.92545 -1.24383,-0.2558 z m 3.30004,0.15296 c 0.0382,-0.004 0.1492,0.003 0.3328,0.0196 0.10866,0.01 0.19645,0.0201 0.26355,0.03 0.0671,0.0101 0.14838,0.0268 0.24445,0.0507 0.0998,0.0243 0.18002,0.0584 0.24029,0.10181 0.0602,0.0433 0.11959,0.098 0.17775,0.1638 0.0585,0.0621 0.0977,0.14515 0.11835,0.24908 0.0209,0.1002 0.0257,0.21561 0.0135,0.34676 -0.0103,0.1124 -0.0326,0.2122 -0.0672,0.29972 -0.0304,0.0841 -0.082,0.16812 -0.15401,0.25218 -0.0717,0.0803 -0.17685,0.13893 -0.31626,0.17518 -0.13938,0.0363 -0.30834,0.0452 -0.50694,0.0269 l -0.62373,-0.0579 0.13436,-1.45571 c 0.005,-0.0525 0.01,-0.0895 0.0156,-0.11163 0.006,-0.0222 0.0175,-0.0421 0.0341,-0.0594 0.0209,-0.0206 0.052,-0.0311 0.0935,-0.031 z m -4.38525,1.67534 1.3658,0.28112 0.0956,0.73073 -1.82573,-0.40413 z m 4.09588,0.10647 0.64645,0.0594 c 0.21733,0.0201 0.386,0.0997 0.50541,0.23927 0.0888,0.10265 0.13946,0.20383 0.15296,0.30334 0.0138,0.0958 0.0111,0.25241 -0.009,0.46974 -0.0143,0.15359 -0.023,0.26591 -0.0259,0.33745 0,0.0681 0.0148,0.1488 0.0403,0.24183 0.0143,0.0494 0.0367,0.0963 0.0641,0.14108 l -1.50431,-0.3328 c 0,-0.0138 -0.003,-0.0227 0,-0.0377 z" />
    </clipPath>
    <filter
       inkscape:collect="always"
       style="color-interpolation-filters:sRGB"
       id="filter9306"
       x="-0.1773645"
       width="1.354729"
       y="-0.017337249"
       height="1.0346745">
      <feGaussianBlur
         inkscape:collect="always"
         stdDeviation="0.9381385"
         id="feGaussianBlur9308" />
    </filter>
    <linearGradient
       inkscape:collect="always"
       xlink:href="#radialGradient11540-6-2"
       id="linearGradient1146"
       gradientUnits="userSpaceOnUse"
       gradientTransform="matrix(1.8210871,0,0,1.8210871,-383.32853,-874.43844)"
       x1="452.15741"
       y1="799.17206"
       x2="455.63037"
       y2="799.17206" />
    <radialGradient
       fy="196"
       fx="300"
       r="15"
       cy="196"
       cx="300"
       gradientUnits="userSpaceOnUse"
       id="radialGradient11540-6-2">
      <stop
         id="stop11542-61"
         style="stop-color:#FFFFFF"
         offset="0" />
      <stop
         id="stop11544-0"
         style="stop-color:#FFFFFF"
         offset="0.129412" />
      <stop
         id="stop11546-6"
         style="stop-color:#FFFFFF"
         offset="0.290196" />
      <stop
         id="stop11548-1"
         style="stop-color:#E5E5E5"
         offset="0.568627" />
      <stop
         id="stop11550-5"
         style="stop-color:#999999"
         offset="0.870588" />
      <stop
         id="stop11552-9"
         style="stop-color:#7F7F7F"
         offset="1" />
    </radialGradient>
    <linearGradient
       id="linearGradient5173">
      <stop
         id="stop5175"
         offset="0"
         style="stop-color:#d80000;stop-opacity:1;" />
      <stop
         id="stop5177"
         offset="1"
         style="stop-color:#310000;stop-opacity:1;" />
    </linearGradient>
    <linearGradient
       inkscape:collect="always"
       id="linearGradient8912">
      <stop
         style="stop-color:#0e0e0e;stop-opacity:1"
         offset="0"
         id="stop8908" />
      <stop
         style="stop-color:#1f1f1f;stop-opacity:1"
         offset="1"
         id="stop8910" />
    </linearGradient>
    <clipPath
       clipPathUnits="userSpaceOnUse"
       id="clipPath9034">
      <path
         id="path9036"
         style="fill:#dbd9cc;fill-opacity:1;stroke:none;stroke-width:0.529167;stroke-linecap:butt;stroke-linejoin:miter;stroke-miterlimit:4;stroke-dasharray:none;stroke-opacity:1"
         d="m 436.13787,526.71097 c 1.57782,81.53629 4.84378,84.28044 0.2005,111.94614 5.85801,9.08926 6.14691,17.92034 6.14691,17.92034 0,0 0.28842,-8.83108 6.1464,-17.92034 -4.64325,-27.6657 -1.37731,-30.40985 0.2005,-111.94614 h -4.00907 c -0.44537,36.04055 0.55028,61.11916 -2.33783,96.83595 -2.88817,-35.71677 -1.89193,-60.79683 -2.33733,-96.83595 z" />
    </clipPath>
    <filter
       inkscape:collect="always"
       style="color-interpolation-filters:sRGB"
       id="filter9022"
       x="-0.010558697"
       width="1.0211174"
       y="-0.012058524"
       height="1.024117">
      <feGaussianBlur
         inkscape:collect="always"
         stdDeviation="0.38964262"
         id="feGaussianBlur9024" />
    </filter>
    <clipPath
       clipPathUnits="userSpaceOnUse"
       id="clipPath9046">
      <path
         inkscape:connector-curvature="0"
         style="color:#000000;font-style:normal;font-variant:normal;font-weight:normal;font-stretch:normal;font-size:medium;line-height:normal;font-family:sans-serif;font-variant-ligatures:normal;font-variant-position:normal;font-variant-caps:normal;font-variant-numeric:normal;font-variant-alternates:normal;font-feature-settings:normal;text-indent:0;text-align:start;text-decoration:none;text-decoration-line:none;text-decoration-style:solid;text-decoration-color:#000000;letter-spacing:normal;word-spacing:normal;text-transform:none;writing-mode:lr-tb;direction:ltr;text-orientation:mixed;dominant-baseline:auto;baseline-shift:baseline;text-anchor:start;white-space:normal;shape-padding:0;clip-rule:nonzero;display:inline;overflow:visible;visibility:visible;isolation:auto;mix-blend-mode:normal;color-interpolation:sRGB;color-interpolation-filters:linearRGB;solid-color:#000000;solid-opacity:1;vector-effect:none;fill:url(#linearGradient9050);fill-opacity:1;fill-rule:evenodd;stroke:none;stroke-width:0.177766;stroke-linecap:butt;stroke-linejoin:miter;stroke-miterlimit:4;stroke-dasharray:none;stroke-dashoffset:0;stroke-opacity:1;color-rendering:auto;image-rendering:auto;shape-rendering:auto;text-rendering:auto;enable-background:accumulate"
         d="m 442.3147,526.5265 c -0.72427,0 -1.44639,0.012 -2.16823,0.0294 0.45029,36.12381 -0.55375,61.22189 2.3386,96.99078 2.89218,-35.76701 1.88941,-60.86303 2.3395,-96.98515 -0.83815,-0.0212 -1.67503,-0.0357 -2.50987,-0.0347 z"
         id="path9048"
         sodipodi:nodetypes="cccccc" />
    </clipPath>
    <filter
       inkscape:collect="always"
       style="color-interpolation-filters:sRGB"
       id="filter9064"
       x="-0.024221841"
       width="1.0484437"
       y="-0.027662471"
       height="1.0553249">
      <feGaussianBlur
         inkscape:collect="always"
         stdDeviation="0.89384725"
         id="feGaussianBlur9066" />
    </filter>
    <clipPath
       clipPathUnits="userSpaceOnUse"
       id="clipPath9130">
      <path
         style="fill:none;stroke:#000000;stroke-width:0.264583px;stroke-linecap:butt;stroke-linejoin:miter;stroke-opacity:1"
         d="m 434.56577,556.62685 13.18744,2.42665 -2.38471,29.83647 -6.24957,-2.19668 z"
         id="path9132" />
    </clipPath>
    <radialGradient
       inkscape:collect="always"
       xlink:href="#listel"
       id="radialGradient9074"
       cx="445.19476"
       cy="556.57581"
       fx="445.19476"
       fy="556.57581"
       r="34.596619"
       gradientTransform="matrix(1,0,0,0.52576935,0,263.94532)"
       gradientUnits="userSpaceOnUse" />
    <linearGradient
       inkscape:collect="always"
       id="listel">
      <stop
         style="stop-color:#ffffff;stop-opacity:1;"
         offset="0"
         id="stop9068" />
      <stop
         style="stop-color:#ebebeb;stop-opacity:1"
         offset="1"
         id="stop9070" />
    </linearGradient>
    <radialGradient
       inkscape:collect="always"
       xlink:href="#listel"
       id="radialGradient9082"
       cx="443.4722"
       cy="582.6582"
       fx="443.4722"
       fy="582.6582"
       r="44.283508"
       gradientTransform="matrix(1,0,0,0.33785461,0,385.80443)"
       gradientUnits="userSpaceOnUse" />
    <radialGradient
       inkscape:collect="always"
       xlink:href="#listel"
       id="radialGradient9090"
       cx="443.73865"
       cy="608.83905"
       fx="443.73865"
       fy="608.83905"
       r="33.293629"
       gradientTransform="matrix(1,0,0,0.38728108,0,373.04721)"
       gradientUnits="userSpaceOnUse" />
    <clipPath
       clipPathUnits="userSpaceOnUse"
       id="clipPath2671">
      <path
         id="path2669"
         style="fill:#dbd9cc;fill-opacity:1;stroke:none;stroke-width:0.529167;stroke-linecap:butt;stroke-linejoin:miter;stroke-miterlimit:4;stroke-dasharray:none;stroke-opacity:1"
         d="m 436.13787,526.71097 c 1.57782,81.53629 4.84378,84.28044 0.2005,111.94614 5.85801,9.08926 6.14691,17.92034 6.14691,17.92034 0,0 0.28842,-8.83108 6.1464,-17.92034 -4.64325,-27.6657 -1.37731,-30.40985 0.2005,-111.94614 h -4.00907 c -0.44537,36.04055 0.55028,61.11916 -2.33783,96.83595 -2.88817,-35.71677 -1.89193,-60.79683 -2.33733,-96.83595 z" />
    </clipPath>
    <clipPath
       clipPathUnits="userSpaceOnUse"
       id="clipPath2679">
      <path
         inkscape:connector-curvature="0"
         style="color:#000000;font-style:normal;font-variant:normal;font-weight:normal;font-stretch:normal;font-size:medium;line-height:normal;font-family:sans-serif;font-variant-ligatures:normal;font-variant-position:normal;font-variant-caps:normal;font-variant-numeric:normal;font-variant-alternates:normal;font-feature-settings:normal;text-indent:0;text-align:start;text-decoration:none;text-decoration-line:none;text-decoration-style:solid;text-decoration-color:#000000;letter-spacing:normal;word-spacing:normal;text-transform:none;writing-mode:lr-tb;direction:ltr;text-orientation:mixed;dominant-baseline:auto;baseline-shift:baseline;text-anchor:start;white-space:normal;shape-padding:0;clip-rule:nonzero;display:inline;overflow:visible;visibility:visible;isolation:auto;mix-blend-mode:normal;color-interpolation:sRGB;color-interpolation-filters:linearRGB;solid-color:#000000;solid-opacity:1;vector-effect:none;fill:url(#linearGradient9050);fill-opacity:1;fill-rule:evenodd;stroke:none;stroke-width:0.177766;stroke-linecap:butt;stroke-linejoin:miter;stroke-miterlimit:4;stroke-dasharray:none;stroke-dashoffset:0;stroke-opacity:1;color-rendering:auto;image-rendering:auto;shape-rendering:auto;text-rendering:auto;enable-background:accumulate"
         d="m 442.3147,526.5265 c -0.72427,0 -1.44639,0.012 -2.16823,0.0294 0.45029,36.12381 -0.55375,61.22189 2.3386,96.99078 2.89218,-35.76701 1.88941,-60.86303 2.3395,-96.98515 -0.83815,-0.0212 -1.67503,-0.0357 -2.50987,-0.0347 z"
         id="path2677"
         sodipodi:nodetypes="cccccc" />
    </clipPath>
    <clipPath
       clipPathUnits="userSpaceOnUse"
       id="clipPath2687">
      <path
         style="fill:none;stroke:#000000;stroke-width:0.264583px;stroke-linecap:butt;stroke-linejoin:miter;stroke-opacity:1"
         d="m 434.56577,556.62685 13.18744,2.42665 -2.38471,29.83647 -6.24957,-2.19668 z"
         id="path2685" />
    </clipPath>
    <clipPath
       clipPathUnits="userSpaceOnUse"
       id="clipPath2698">
      <path
         id="path2696"
         style="fill:#a1a1a1;fill-opacity:1;stroke:none;stroke-width:0.264583px;stroke-linecap:butt;stroke-linejoin:miter;stroke-opacity:1"
         d="m 451.09818,563.95521 c -4.16607,3.02228 -21.16045,7.7029 -21.16045,7.7029 l 13.42036,9.23716 c 9.14662,-1.05119 35.22781,-14.84509 35.22781,-14.84509 z m -0.61597,28.12542 c -8.92144,5.5998 -23.82851,7.9566 -23.82851,7.9566 l 13.84205,8.5783 c 15.68315,0.63672 36.50908,-12.92545 36.60499,-13.3015 z m -30.24984,8.93175 c -0.21728,0.005 -0.41807,0.073 -0.60307,0.20516 -0.2431,0.17693 -0.38925,0.4136 -0.43873,0.71054 -0.0383,0.23013 -0.006,0.45146 0.0956,0.66302 0.10271,0.20786 0.25694,0.36676 0.46355,0.47749 0.0278,0.0161 0.26266,0.11838 0.70435,0.30644 0.0675,0.0303 0.11882,0.056 0.15349,0.077 0.0353,0.0172 0.0792,0.0511 0.13176,0.10178 0.0563,0.0513 0.10334,0.11285 0.14107,0.18399 0.0916,0.16021 0.12026,0.3406 0.0868,0.54105 -0.0353,0.21156 -0.13483,0.38571 -0.29869,0.52245 -0.16396,0.13671 -0.35708,0.18645 -0.57983,0.14933 -0.37116,-0.0618 -0.64752,-0.21117 -0.82939,-0.44752 -0.18497,-0.24064 -0.25271,-0.54533 -0.20257,-0.91466 0.003,-0.0377 -0.0164,-0.0598 -0.0574,-0.0666 -0.0222,-0.004 -0.0402,2.6e-4 -0.0532,0.008 -0.013,0.009 -0.0222,0.0209 -0.0284,0.0351 l -0.014,0.0837 -0.1855,1.1126 c -0.009,0.052 -0.013,0.0878 -0.0124,0.10697 0.004,0.0198 0.0214,0.0323 0.0512,0.0372 0.0259,0.004 0.0579,-0.0151 0.0956,-0.0584 l 0.0212,-0.0254 c 0.06,-0.0625 0.13738,-0.14878 0.23202,-0.2589 0.0786,0.12375 0.20111,0.23765 0.3669,0.34158 0.16517,0.10763 0.36261,0.18076 0.59274,0.2191 0.31919,0.0532 0.59992,-0.0164 0.8418,-0.20876 0.24619,-0.1955 0.39545,-0.4514 0.44804,-0.76689 0.0457,-0.27466 0.006,-0.52877 -0.11887,-0.76324 -0.12436,-0.23815 -0.30036,-0.405 -0.52864,-0.50025 l -0.68419,-0.29144 c -0.16396,-0.0693 -0.2868,-0.17925 -0.36845,-0.33023 -0.0779,-0.15031 -0.10317,-0.30742 -0.076,-0.47077 0.0334,-0.20045 0.1306,-0.35983 0.29144,-0.478 0.16515,-0.12125 0.35327,-0.1639 0.56483,-0.12866 0.61984,0.10329 0.91729,0.55152 0.89194,1.34461 0,0.0458 0.0188,0.0718 0.0558,0.078 0.0222,0.004 0.0393,0.003 0.0517,-0.003 0.013,-0.009 0.0209,-0.0214 0.0233,-0.0362 0.006,-0.0143 0.0127,-0.0418 0.0196,-0.0827 l 0.18656,-1.11879 c 0.009,-0.0557 0.0108,-0.0919 0.006,-0.108 0,-0.019 -0.0159,-0.0312 -0.0455,-0.0362 -0.0259,-0.004 -0.0579,0.0151 -0.0956,0.0584 l -0.24752,0.28525 c -0.0687,-0.0915 -0.12536,-0.1624 -0.17055,-0.21188 -0.0446,-0.0532 -0.12824,-0.11462 -0.25011,-0.18449 -0.11816,-0.0693 -0.25294,-0.11674 -0.40513,-0.14211 -0.0759,-0.0127 -0.15039,-0.0175 -0.22272,-0.0161 z m 4.43798,0.99735 c -0.0156,0 -0.0291,1.6e-4 -0.0403,0.005 -0.0188,0.0101 -0.0418,0.0343 -0.0698,0.0729 l -2.12286,2.87268 c -0.15557,0.20768 -0.39383,0.26483 -0.71572,0.17209 l -0.0527,0.16745 c 0.2512,0.0667 0.43649,0.11851 0.55502,0.15553 0.0682,0.0214 0.273,0.0913 0.61442,0.20981 l 0.0522,-0.1669 c -0.1293,-0.0404 -0.22148,-0.0989 -0.27646,-0.1752 -0.0514,-0.0752 -0.0655,-0.15039 -0.0419,-0.22583 0.0124,-0.0395 0.0246,-0.0654 0.0362,-0.0775 l 0.46818,-0.62839 1.33067,0.41598 0.0279,0.91363 c -0.003,0.0465 -0.005,0.0734 -0.007,0.0806 -0.0337,0.10779 -0.19955,0.11488 -0.49763,0.0217 l -0.0522,0.1669 c 0.13266,0.0297 0.39295,0.10509 0.78083,0.22635 0.24421,0.0764 0.47784,0.15515 0.70073,0.23667 l 0.0522,-0.1669 -0.0972,-0.0305 c -0.1616,-0.0505 -0.26717,-0.0969 -0.31678,-0.14004 -0.0485,-0.0467 -0.0732,-0.11981 -0.0739,-0.21858 l -0.11057,-3.73051 c -0.003,-0.0285 -0.005,-0.047 -0.007,-0.0553 -0.003,-0.008 -0.006,-0.0193 -0.013,-0.0336 -0.003,-0.0167 -0.0106,-0.0291 -0.0238,-0.0372 -0.0101,-0.007 -0.0254,-0.014 -0.047,-0.0206 -0.0198,-0.006 -0.0372,-0.0101 -0.0527,-0.0103 z m -0.33125,0.67127 0.0615,1.94099 -1.21233,-0.37881 z m 2.78534,0.34261 -0.0651,0.16227 0.15192,0.061 c 0.0699,0.0279 0.15632,0.0659 0.25837,0.11472 0.0566,0.0307 0.0871,0.0552 0.092,0.0734 0.0101,0.0161 0.005,0.0487 -0.0145,0.0977 l -1.09191,2.73677 c -0.0209,0.0524 -0.0409,0.0928 -0.0605,0.12144 -0.0196,0.0286 -0.055,0.0613 -0.10594,0.0977 -0.0461,0.0343 -0.11449,0.0474 -0.20463,0.0398 -0.0901,-0.008 -0.19767,-0.0366 -0.32348,-0.0868 l -0.0651,0.16277 c 0.37113,0.13597 0.57763,0.2122 0.6196,0.22895 0.0419,0.0167 0.24442,0.10353 0.60719,0.26045 l 0.0646,-0.16227 c -0.12581,-0.0502 -0.22389,-0.10366 -0.29456,-0.1602 -0.0706,-0.0565 -0.11223,-0.11409 -0.12557,-0.17209 -0.008,-0.0601 -0.0103,-0.10684 -0.005,-0.14107 0.006,-0.0342 0.0188,-0.0778 0.0398,-0.13023 l 1.08778,-2.72592 c 0.0127,0.0293 0.0217,0.0572 0.0274,0.0837 l 0.88369,3.99873 c 0.0169,0.0594 0.0376,0.0941 0.062,0.10387 0.0349,0.014 0.0594,0.0138 0.0734,0 0.014,-0.0145 0.032,-0.05 0.0543,-0.10594 l 1.15496,-2.89388 c 0.0209,-0.0524 0.0408,-0.0933 0.0605,-0.12197 0.0196,-0.0286 0.0526,-0.0597 0.0987,-0.094 0.051,-0.0364 0.12121,-0.051 0.21135,-0.0434 0.0902,0.008 0.19817,0.0366 0.32401,0.0868 l 0.0651,-0.16227 c -0.37115,-0.13592 -0.57766,-0.21267 -0.6196,-0.22945 -0.042,-0.0167 -0.24437,-0.10353 -0.60719,-0.26043 l -0.0651,0.16278 c 0.12583,0.0502 0.22442,0.10366 0.29506,0.1602 0.0706,0.0566 0.10991,0.11459 0.11835,0.17465 0.0132,0.058 0.0175,0.10425 0.0119,0.13851 -0.006,0.0342 -0.0188,0.0773 -0.0398,0.1297 l -0.89347,2.23861 -0.76483,-3.45921 c -0.0119,-0.0412 -0.0236,-0.068 -0.0346,-0.0806 -0.0111,-0.0127 -0.041,-0.0285 -0.0899,-0.048 z m 5.28704,2.21692 c -0.25112,-0.003 -0.50652,0.0472 -0.76636,0.14986 -0.51475,0.20341 -0.88834,0.56629 -1.12086,1.08884 -0.23257,0.52255 -0.25289,1.04479 -0.061,1.56684 0.19193,0.52197 0.53536,0.89328 1.03042,1.1136 0.20283,0.0903 0.41032,0.13769 0.6227,0.14161 0.2109,0.007 0.39016,-0.0432 0.53692,-0.1509 0.008,0.0737 0.0341,0.16788 0.0781,0.28216 0.0454,0.11083 0.082,0.17224 0.10954,0.18449 0.031,0.0138 0.064,-0.0185 0.0992,-0.0977 l 0.39947,-0.89763 c 0.0459,-0.10316 0.0913,-0.15867 0.13642,-0.16743 0.0485,-0.007 0.15541,0.0259 0.32038,0.0992 l 0.0708,-0.16018 c -0.38621,-0.15954 -0.5983,-0.24725 -0.63614,-0.26408 -0.42973,-0.19124 -0.70403,-0.31959 -0.82319,-0.38499 l -0.0713,0.15967 0.16537,0.0734 c 0.22,0.0979 0.347,0.17296 0.38137,0.22532 0.0378,0.0539 0.034,0.1325 -0.0119,0.23563 l -0.14729,0.3302 c -0.0597,0.1341 -0.14246,0.23289 -0.24908,0.29663 -0.1051,0.0603 -0.21799,0.0865 -0.33795,0.0785 -0.11999,-0.008 -0.2171,-0.0209 -0.292,-0.0377 -0.0733,-0.0204 -0.13946,-0.0432 -0.19791,-0.0692 -0.0859,-0.0383 -0.17288,-0.0873 -0.26149,-0.14726 -0.0871,-0.0635 -0.18348,-0.16222 -0.28887,-0.2956 -0.10194,-0.13187 -0.17938,-0.27733 -0.23201,-0.43667 -0.0511,-0.16279 -0.0652,-0.37107 -0.0429,-0.62476 0.0273,-0.25561 0.10504,-0.52771 0.23357,-0.8165 0.13005,-0.29221 0.27999,-0.53247 0.45009,-0.72035 0.17356,-0.18638 0.33557,-0.31385 0.48577,-0.38294 0.15515,-0.071 0.31488,-0.11131 0.47956,-0.12041 0.16621,-0.0124 0.29776,-0.007 0.39481,0.0156 0.102,0.0206 0.19447,0.0491 0.27697,0.0858 0.28191,0.12547 0.47609,0.34565 0.58293,0.66096 0.11176,0.31334 0.11096,0.66717 -0.003,1.06143 -0.0101,0.0409 -0.0143,0.0683 -0.0119,0.0817 0.003,0.0135 0.0209,0.0276 0.0553,0.0429 0.0412,0.0183 0.0681,0.022 0.0811,0.0114 0.013,-0.0106 0.0319,-0.0432 0.0563,-0.0982 l 0.54417,-1.22216 c 0.023,-0.0516 0.0338,-0.086 0.0331,-0.10282 0.004,-0.0188 -0.008,-0.0343 -0.0351,-0.0465 -0.0275,-0.0122 -0.0642,-0.003 -0.11007,0.0259 l -0.42738,0.26665 c -0.0324,-0.0845 -0.0636,-0.15346 -0.093,-0.20773 -0.0243,-0.0562 -0.0655,-0.13049 -0.12351,-0.22222 -0.058,-0.0917 -0.13239,-0.1741 -0.22325,-0.24752 -0.0909,-0.0734 -0.19643,-0.13663 -0.31679,-0.19015 -0.24233,-0.10788 -0.48942,-0.16328 -0.74051,-0.1659 z m 4.62349,2.08206 -0.076,0.15811 0.12247,0.0584 c 0.18328,0.0878 0.28808,0.15666 0.3142,0.20672 0.0295,0.0517 0.0206,0.12684 -0.0265,0.22532 l -1.28469,2.68303 c -0.0471,0.0984 -0.0999,0.15232 -0.15864,0.16174 -0.0554,0.0111 -0.17486,-0.0275 -0.35812,-0.11523 l -0.12197,-0.0584 -0.076,0.15761 1.86346,0.89194 c 0.43106,0.20635 0.87709,0.2159 1.33842,0.0279 0.46466,-0.18638 0.81119,-0.51753 1.0387,-0.99269 0.23233,-0.48538 0.27999,-0.97319 0.14365,-1.464 -0.13634,-0.49082 -0.42186,-0.84002 -0.85628,-1.04801 z m 0.90485,0.67127 c 0.0385,-0.0108 0.11559,0.0114 0.23098,0.0666 l 0.50903,0.24392 c 0.39031,0.18688 0.62389,0.49276 0.70022,0.91726 0.0611,0.32546 -0.0321,0.74605 -0.27906,1.26193 -0.23561,0.49215 -0.50744,0.82082 -0.81597,0.986 -0.12843,0.0678 -0.29123,0.11067 -0.48784,0.12919 -0.1932,0.0201 -0.40177,-0.023 -0.62579,-0.13023 l -0.51419,-0.24648 c -0.11539,-0.0552 -0.18058,-0.10123 -0.19635,-0.13798 -0.0124,-0.0351 0.003,-0.0968 0.0444,-0.185 l 1.31879,-2.75436 c 0.0423,-0.0882 0.0806,-0.13851 0.11576,-0.1509 z m 2.97759,1.20457 -0.0765,0.15761 0.12197,0.0589 c 0.18291,0.0885 0.28779,0.15809 0.31367,0.20825 0.0293,0.0518 0.0201,0.12655 -0.0274,0.22479 l -0.92707,1.91564 c -0.17209,0.35568 -0.19251,0.71768 -0.0615,1.08624 0.13605,0.36682 0.3782,0.63477 0.72708,0.80357 0.28791,0.13933 0.58618,0.15798 0.89452,0.0563 0.30832,-0.1016 0.55597,-0.28885 0.74258,-0.56224 0.0429,-0.0628 0.10473,-0.17716 0.185,-0.34314 l 0.78653,-1.62626 c 0.0279,-0.0576 0.0533,-0.10168 0.0765,-0.13229 0.0233,-0.0306 0.06,-0.0628 0.11007,-0.0971 0.0534,-0.0327 0.12361,-0.0401 0.21134,-0.0227 0.0894,0.014 0.19537,0.0506 0.31729,0.10956 l 0.076,-0.15761 c -0.37077,-0.16685 -0.57283,-0.25853 -0.60667,-0.27493 -0.0373,-0.018 -0.23651,-0.12084 -0.59737,-0.30798 l -0.076,0.15762 c 0.12194,0.059 0.21571,0.11946 0.28218,0.18087 0.0664,0.0614 0.10178,0.12239 0.10591,0.18293 0.009,0.0588 0.01,0.10472 0.003,0.13848 -0.008,0.0338 -0.0246,0.0763 -0.0491,0.12713 l -0.85318,1.76268 c -0.16555,0.34211 -0.39653,0.56902 -0.69297,0.68057 -0.29482,0.10821 -0.57094,0.1003 -0.82838,-0.0244 -0.0779,-0.0377 -0.15134,-0.0883 -0.22117,-0.15139 -0.0648,-0.0648 -0.12988,-0.15452 -0.19534,-0.26974 -0.0638,-0.11867 -0.0906,-0.27194 -0.0796,-0.4589 0.0143,-0.18531 0.0767,-0.3911 0.18656,-0.61806 l 0.93689,-1.9358 c 0.0475,-0.0982 0.0986,-0.15298 0.15399,-0.1638 0.0588,-0.009 0.17989,0.0303 0.36277,0.11885 l 0.12197,0.0594 0.076,-0.15761 c -0.12348,-0.0472 -0.37459,-0.16264 -0.75395,-0.34623 -0.38275,-0.18521 -0.63101,-0.31179 -0.74467,-0.37931 z m 5.09942,2.46084 -0.0558,0.16589 0.12867,0.0429 c 0.19267,0.0646 0.30488,0.11994 0.33695,0.1664 0.0356,0.0477 0.0363,0.12337 0.003,0.22685 l -0.8971,2.67581 c -0.018,0.0535 -0.0359,0.0953 -0.0538,0.12504 -0.018,0.0297 -0.0508,0.0642 -0.0997,0.10338 -0.0441,0.0368 -0.11163,0.0537 -0.20206,0.0511 -0.0904,-0.003 -0.19968,-0.0251 -0.32814,-0.0682 l -0.0558,0.1659 c 0.37828,0.11488 0.5887,0.17944 0.63151,0.19378 0.0428,0.0143 0.25011,0.0896 0.62114,0.22582 l 0.0553,-0.1659 c -0.12845,-0.043 -0.22963,-0.0906 -0.30334,-0.14313 -0.0737,-0.0525 -0.11885,-0.10719 -0.13539,-0.16434 -0.0119,-0.0595 -0.0156,-0.10657 -0.0119,-0.14107 0.004,-0.0345 0.014,-0.0788 0.032,-0.1323 l 0.96686,-2.88456 0.006,0.003 0.17361,3.76103 c 0.003,0.0881 0.0249,0.13912 0.0677,0.15346 0.0392,0.0132 0.083,-0.0101 0.13073,-0.0692 l 2.45205,-2.94659 0.005,0.003 -1.00304,2.99103 -0.0403,-0.009 c -0.12645,0.077 -0.24922,0.1555 -0.37415,0.23307 -0.0397,-0.0111 -0.0708,-0.0172 -0.11938,-0.0336 l -0.12817,-0.0429 -0.0558,0.16589 c 0.0185,0.005 0.0832,0.0267 0.10644,0.0331 -8.45539,5.30495 -13.42604,11.85148 -13.42604,11.85148 l 9.99577,-0.14161 0.22326,8.22378 c 0,0 14.10758,-13.95756 20.56979,-16.57416 l -7.59954,-1.68156 c 0.0196,-0.0206 0.0395,-0.0412 0.0538,-0.0651 0.0441,-0.0677 0.0761,-0.13057 0.0966,-0.18913 0.0209,-0.0623 0.0337,-0.11771 0.0382,-0.16642 0.006,-0.0637 -0.0159,-0.0978 -0.0646,-0.10231 -0.0375,-0.003 -0.0624,0.0243 -0.0755,0.0837 -0.0316,0.17846 -0.0883,0.3034 -0.17052,0.37518 -0.0145,0.0127 -0.0297,0.0175 -0.0444,0.0274 l -0.4227,-0.0935 c -0.0127,-0.0241 -0.0265,-0.0485 -0.0362,-0.0708 -0.0116,-0.0389 -0.0233,-0.0969 -0.0352,-0.17362 -0.008,-0.0763 -0.0154,-0.14131 -0.0217,-0.19484 -0.003,-0.0569 -0.006,-0.14007 -0.0108,-0.25011 l -0.0315,-0.4563 c -0.0578,-0.31525 -0.26664,-0.55359 -0.62582,-0.71519 0.29131,-0.0449 0.53653,-0.14145 0.73536,-0.2894 0.20257,-0.14756 0.31343,-0.32655 0.33279,-0.53639 0.0251,-0.27353 -0.0953,-0.52237 -0.36173,-0.74724 -0.26612,-0.22865 -0.60341,-0.36182 -1.01182,-0.39947 l -1.76475,-0.16277 -0.0161,0.17415 0.13486,0.0124 c 0.20233,0.0188 0.32454,0.0469 0.3664,0.0848 0.0456,0.0382 0.0633,0.1115 0.0532,0.22013 l -0.2713,2.9378 -1.51929,-0.33641 -0.4589,-3.50986 c -0.006,-0.0281 -0.01,-0.0461 -0.0119,-0.0543 -0.003,-0.008 -0.008,-0.0193 -0.0164,-0.0325 -0.004,-0.0161 -0.0135,-0.0274 -0.0274,-0.0341 -0.0103,-0.006 -0.0265,-0.0114 -0.0486,-0.0161 -0.0405,-0.008 -0.0715,-0.007 -0.093,0.004 -0.0177,0.0116 -0.0387,0.0379 -0.0625,0.0791 l -1.7875,3.0091 -1.52392,-0.33692 0.90329,-2.69388 c 0.0347,-0.10348 0.0787,-0.16417 0.13229,-0.1819 0.0571,-0.0167 0.18198,0.007 0.37465,0.0718 l 0.12817,0.0434 0.0558,-0.1664 -0.90434,-0.30282 c -0.0678,-0.0227 -0.11245,-0.0316 -0.13386,-0.0269 -0.0167,0.003 -0.0424,0.0254 -0.077,0.0692 l -2.18178,2.62052 -0.15708,-3.38635 c -0.006,-0.0655 -0.0156,-0.10682 -0.03,-0.12351 -0.0143,-0.0167 -0.0536,-0.0358 -0.11782,-0.0574 z m 20.92174,1.3162 v 0 c -0.18131,0.003 -0.37007,0.032 -0.56639,0.0915 l -1.66656,0.50488 c -0.10321,0.0198 -0.20145,0.0411 -0.31263,0.0584 -0.13758,0.0214 -0.35266,0.0487 -0.64442,0.0827 l 0.0269,0.17311 c 0.10782,-0.0167 0.19114,-0.009 0.24961,0.0238 0.0584,0.0328 0.0925,0.081 0.10232,0.14417 0.009,0.0558 2e-5,0.11464 -0.0295,0.17621 l -0.68781,1.63764 -1.26555,-1.48778 c -0.0318,-0.0331 -0.0498,-0.0628 -0.0537,-0.0889 -0.009,-0.0558 0.0153,-0.0977 0.0718,-0.12558 0.0603,-0.0284 0.15904,-0.053 0.29663,-0.0744 l -0.0269,-0.17312 c -0.13214,0.032 -0.40625,0.0804 -0.8227,0.14523 -0.2491,0.0388 -0.49162,0.0708 -0.7276,0.0961 l -3.32949,0.0801 -0.077,1.27175 0.14107,-0.003 c 0.0111,-0.16962 0.0209,-0.30345 0.03,-0.40153 0.0127,-0.0982 0.0331,-0.19272 0.061,-0.28371 0.0316,-0.0948 0.0658,-0.16531 0.10231,-0.21135 0.0403,-0.0461 0.0977,-0.0873 0.17208,-0.12298 0.0744,-0.0394 0.16024,-0.064 0.25787,-0.0739 0.0976,-0.0135 0.21968,-0.022 0.36639,-0.0254 0.16553,-0.004 0.2671,-0.003 0.30488,0.004 0.0378,0.007 0.0646,0.0193 0.0801,0.0377 0.0193,0.0182 0.0308,0.039 0.0351,0.0615 0.004,0.0225 0.007,0.06 0.008,0.11266 l 0.0713,2.97346 c 0.003,0.0752 -0.005,0.12819 -0.019,0.15865 -0.0143,0.0305 -0.0644,0.058 -0.15036,0.0827 -0.086,0.0246 -0.22519,0.0393 -0.41704,0.0439 l -0.22532,0.005 0.004,0.17518 c 0.15396,-0.0151 0.50932,-0.0291 1.06608,-0.0424 0.56052,-0.0135 0.91779,-0.0167 1.07228,-0.009 l -0.004,-0.17465 -0.22582,0.005 c -0.19185,0.005 -0.331,-0.003 -0.41807,-0.0238 -0.0871,-0.0206 -0.13875,-0.0456 -0.15452,-0.0754 -0.0156,-0.0297 -0.0243,-0.0824 -0.0265,-0.15761 l -0.0708,-2.97347 c -0.003,-0.0677 0.003,-0.11689 0.0135,-0.14726 0.0106,-0.0341 0.0383,-0.0574 0.0832,-0.0698 0.0412,-0.008 0.1484,-0.0154 0.32144,-0.019 0.14671,-0.003 0.26884,-2.4e-4 0.3669,0.008 0.098,0.005 0.18537,0.0257 0.26149,0.0615 0.0761,0.032 0.1334,0.0705 0.17208,0.11472 0.0425,0.0442 0.0798,0.1129 0.11213,0.20619 0.036,0.0895 0.0608,0.18307 0.0744,0.28062 0.0175,0.0974 0.0357,0.23053 0.0548,0.39947 l 0.14107,-0.004 -0.12041,-1.10897 c 0.1183,-0.018 0.21257,-0.0236 0.28062,-0.0156 0.0692,0.005 0.11874,0.0172 0.14883,0.0393 0.0295,0.0183 0.0654,0.0528 0.10747,0.10335 l 1.46812,1.72497 0.16952,1.08779 c 0.0169,0.10781 0.004,0.18227 -0.0393,0.22325 -0.0394,0.0404 -0.15992,0.0762 -0.36071,0.10747 l -0.13382,0.0206 0.0268,0.17312 c 0.13213,-0.032 0.40283,-0.08 0.81185,-0.14364 0.40896,-0.0637 0.68143,-0.10039 0.81701,-0.1101 l -0.0269,-0.17258 -0.12813,0.0196 c -0.20453,0.0318 -0.33351,0.035 -0.38706,0.009 -0.0498,-0.0265 -0.0838,-0.0971 -0.10181,-0.21241 l -0.16743,-1.07641 0.80356,-1.91875 c 0.1074,-0.26424 0.32642,-0.42239 0.65733,-0.47387 l -0.003,-0.018 c 0.12779,-0.0326 0.22521,-0.0487 0.26665,-0.0336 0.0566,0.0183 0.10067,0.08 0.13229,0.18449 l 0.86196,2.84684 c 0.0316,0.10446 0.0295,0.17973 -0.008,0.22635 -0.0334,0.0455 -0.14761,0.0977 -0.3421,0.15658 l -0.1297,0.0393 0.0506,0.16742 c 0.12639,-0.0501 0.38777,-0.1348 0.78393,-0.25474 0.39617,-0.11996 0.66083,-0.19428 0.79375,-0.22272 l -0.0506,-0.16746 -0.12972,0.0393 c -0.19447,0.0589 -0.32007,0.0792 -0.37672,0.061 -0.053,-0.0193 -0.0955,-0.0811 -0.12713,-0.1855 l -0.41341,-1.36683 0.62116,-0.18812 c 0.20889,-0.0632 0.39495,-0.0528 0.55811,0.0315 0.12087,0.0617 0.20635,0.13612 0.25631,0.22322 0.0489,0.0835 0.10472,0.22935 0.16795,0.43823 0.0447,0.14767 0.079,0.25512 0.10335,0.32245 0.0268,0.0627 0.0696,0.13266 0.12816,0.20929 0.0575,0.073 0.13211,0.13112 0.22376,0.17415 0.21868,0.0989 0.46839,0.1058 0.7493,0.0206 0.0972,-0.0294 0.17521,-0.0787 0.23307,-0.14729 0.0615,-0.0697 0.0978,-0.14343 0.10954,-0.22169 0.0154,-0.0793 0.0214,-0.15039 0.018,-0.21239 -0.004,-0.0656 -0.0132,-0.12165 -0.0274,-0.16846 -0.0185,-0.0612 -0.0509,-0.0845 -0.0977,-0.0703 -0.036,0.0109 -0.0494,0.0462 -0.0393,0.10594 0.0379,0.17727 0.0325,0.31443 -0.0164,0.41188 -0.0466,0.0927 -0.11094,0.15166 -0.19378,0.17672 -0.0432,0.013 -0.0827,0.019 -0.11835,0.018 -0.0368,-0.005 -0.0734,-0.0212 -0.10954,-0.0496 -0.0361,-0.0284 -0.0683,-0.0562 -0.0961,-0.0832 -0.0254,-0.0317 -0.0579,-0.0802 -0.0977,-0.14676 -0.0362,-0.0677 -0.0669,-0.126 -0.093,-0.17312 -0.0236,-0.0518 -0.0584,-0.12681 -0.1044,-0.22688 l -0.20154,-0.41132 c -0.17224,-0.27022 -0.45489,-0.41235 -0.84851,-0.42685 0.25299,-0.15132 0.44357,-0.33277 0.57205,-0.54467 0.13211,-0.21299 0.16751,-0.42101 0.10644,-0.6227 -0.0796,-0.26289 -0.28501,-0.44855 -0.61648,-0.55655 -0.16631,-0.0558 -0.34012,-0.0819 -0.52141,-0.0801 z m -0.11009,0.20515 v 0 c 0.0435,0 0.0833,0.005 0.11938,0.014 0.0721,0.0175 0.14766,0.0462 0.22633,0.0853 0.0776,0.0355 0.14536,0.0975 0.20362,0.18603 0.0571,0.0849 0.10496,0.19024 0.14314,0.31626 0.0327,0.10808 0.0492,0.20928 0.0501,0.30334 0.003,0.0894 -0.0119,0.18648 -0.047,0.29147 -0.0361,0.10136 -0.11189,0.19505 -0.22738,0.28112 -0.11546,0.0861 -0.26905,0.15769 -0.4599,0.21547 l -0.59946,0.1819 -0.42373,-1.39938 c -0.0154,-0.0504 -0.0244,-0.0869 -0.0274,-0.10956 -0.003,-0.0228 -2.1e-4,-0.0453 0.009,-0.0677 0.0114,-0.0271 0.0364,-0.0485 0.075,-0.0641 0.0338,-0.0183 0.13872,-0.0535 0.31523,-0.10697 0.10445,-0.0316 0.18986,-0.0558 0.2558,-0.0718 0.0659,-0.0161 0.14798,-0.031 0.24595,-0.0449 0.0508,-0.007 0.0976,-0.0109 0.14108,-0.0103 z m -14.74843,0.85577 0.25474,1.92545 -1.24383,-0.2558 z m 3.30004,0.15296 c 0.0382,-0.004 0.1492,0.003 0.3328,0.0196 0.10866,0.01 0.19645,0.0201 0.26355,0.03 0.0671,0.0101 0.14838,0.0268 0.24445,0.0507 0.0998,0.0243 0.18002,0.0584 0.24029,0.10181 0.0602,0.0433 0.11959,0.098 0.17775,0.1638 0.0585,0.0621 0.0977,0.14515 0.11835,0.24908 0.0209,0.1002 0.0257,0.21561 0.0135,0.34676 -0.0103,0.1124 -0.0326,0.2122 -0.0672,0.29972 -0.0304,0.0841 -0.082,0.16812 -0.15401,0.25218 -0.0717,0.0803 -0.17685,0.13893 -0.31626,0.17518 -0.13938,0.0363 -0.30834,0.0452 -0.50694,0.0269 l -0.62373,-0.0579 0.13436,-1.45571 c 0.005,-0.0525 0.01,-0.0895 0.0156,-0.11163 0.006,-0.0222 0.0175,-0.0421 0.0341,-0.0594 0.0209,-0.0206 0.052,-0.0311 0.0935,-0.031 z m -4.38525,1.67534 1.3658,0.28112 0.0956,0.73073 -1.82573,-0.40413 z m 4.09588,0.10647 0.64645,0.0594 c 0.21733,0.0201 0.386,0.0997 0.50541,0.23927 0.0888,0.10265 0.13946,0.20383 0.15296,0.30334 0.0138,0.0958 0.0111,0.25241 -0.009,0.46974 -0.0143,0.15359 -0.023,0.26591 -0.0259,0.33745 0,0.0681 0.0148,0.1488 0.0403,0.24183 0.0143,0.0494 0.0367,0.0963 0.0641,0.14108 l -1.50431,-0.3328 c 0,-0.0138 -0.003,-0.0227 0,-0.0377 z" />
    </clipPath>
    <radialGradient
       fy="196"
       fx="300"
       r="15"
       cy="196"
       cx="300"
       gradientUnits="userSpaceOnUse"
       id="radialGradient2717">
      <stop
         id="stop2705"
         style="stop-color:#FFFFFF"
         offset="0" />
      <stop
         id="stop2707"
         style="stop-color:#FFFFFF"
         offset="0.129412" />
      <stop
         id="stop2709"
         style="stop-color:#FFFFFF"
         offset="0.290196" />
      <stop
         id="stop2711"
         style="stop-color:#E5E5E5"
         offset="0.568627" />
      <stop
         id="stop2713"
         style="stop-color:#999999"
         offset="0.870588" />
      <stop
         id="stop2715"
         style="stop-color:#7F7F7F"
         offset="1" />
    </radialGradient>
    <clipPath
       clipPathUnits="userSpaceOnUse"
       id="clipPath2721">
      <path
         style="fill:none;stroke:#000000;stroke-width:0.264583px;stroke-linecap:butt;stroke-linejoin:miter;stroke-opacity:1"
         d="m 434.56577,556.62685 13.18744,2.42665 -2.38471,29.83647 -6.24957,-2.19668 z"
         id="path2719" />
    </clipPath>
    <clipPath
       clipPathUnits="userSpaceOnUse"
       id="clipPath2725">
      <path
         id="path2723"
         style="fill:#dbd9cc;fill-opacity:1;stroke:none;stroke-width:0.529167;stroke-linecap:butt;stroke-linejoin:miter;stroke-miterlimit:4;stroke-dasharray:none;stroke-opacity:1"
         d="m 436.13787,526.71097 c 1.57782,81.53629 4.84378,84.28044 0.2005,111.94614 5.85801,9.08926 6.14691,17.92034 6.14691,17.92034 0,0 0.28842,-8.83108 6.1464,-17.92034 -4.64325,-27.6657 -1.37731,-30.40985 0.2005,-111.94614 h -4.00907 c -0.44537,36.04055 0.55028,61.11916 -2.33783,96.83595 -2.88817,-35.71677 -1.89193,-60.79683 -2.33733,-96.83595 z" />
    </clipPath>
    <clipPath
       clipPathUnits="userSpaceOnUse"
       id="clipPath2733">
      <path
         inkscape:connector-curvature="0"
         style="color:#000000;font-style:normal;font-variant:normal;font-weight:normal;font-stretch:normal;font-size:medium;line-height:normal;font-family:sans-serif;font-variant-ligatures:normal;font-variant-position:normal;font-variant-caps:normal;font-variant-numeric:normal;font-variant-alternates:normal;font-feature-settings:normal;text-indent:0;text-align:start;text-decoration:none;text-decoration-line:none;text-decoration-style:solid;text-decoration-color:#000000;letter-spacing:normal;word-spacing:normal;text-transform:none;writing-mode:lr-tb;direction:ltr;text-orientation:mixed;dominant-baseline:auto;baseline-shift:baseline;text-anchor:start;white-space:normal;shape-padding:0;clip-rule:nonzero;display:inline;overflow:visible;visibility:visible;isolation:auto;mix-blend-mode:normal;color-interpolation:sRGB;color-interpolation-filters:linearRGB;solid-color:#000000;solid-opacity:1;vector-effect:none;fill:url(#linearGradient9050);fill-opacity:1;fill-rule:evenodd;stroke:none;stroke-width:0.177766;stroke-linecap:butt;stroke-linejoin:miter;stroke-miterlimit:4;stroke-dasharray:none;stroke-dashoffset:0;stroke-opacity:1;color-rendering:auto;image-rendering:auto;shape-rendering:auto;text-rendering:auto;enable-background:accumulate"
         d="m 442.3147,526.5265 c -0.72427,0 -1.44639,0.012 -2.16823,0.0294 0.45029,36.12381 -0.55375,61.22189 2.3386,96.99078 2.89218,-35.76701 1.88941,-60.86303 2.3395,-96.98515 -0.83815,-0.0212 -1.67503,-0.0357 -2.50987,-0.0347 z"
         id="path2731"
         sodipodi:nodetypes="cccccc" />
    </clipPath>
    <clipPath
       clipPathUnits="userSpaceOnUse"
       id="clipPath2776">
      <path
         id="path2774"
         style="fill:#dbd9cc;fill-opacity:1;stroke:none;stroke-width:0.529167;stroke-linecap:butt;stroke-linejoin:miter;stroke-miterlimit:4;stroke-dasharray:none;stroke-opacity:1"
         d="m 436.13787,526.71097 c 1.57782,81.53629 4.84378,84.28044 0.2005,111.94614 5.85801,9.08926 6.14691,17.92034 6.14691,17.92034 0,0 0.28842,-8.83108 6.1464,-17.92034 -4.64325,-27.6657 -1.37731,-30.40985 0.2005,-111.94614 h -4.00907 c -0.44537,36.04055 0.55028,61.11916 -2.33783,96.83595 -2.88817,-35.71677 -1.89193,-60.79683 -2.33733,-96.83595 z" />
    </clipPath>
    <clipPath
       clipPathUnits="userSpaceOnUse"
       id="clipPath2784">
      <path
         inkscape:connector-curvature="0"
         style="color:#000000;font-style:normal;font-variant:normal;font-weight:normal;font-stretch:normal;font-size:medium;line-height:normal;font-family:sans-serif;font-variant-ligatures:normal;font-variant-position:normal;font-variant-caps:normal;font-variant-numeric:normal;font-variant-alternates:normal;font-feature-settings:normal;text-indent:0;text-align:start;text-decoration:none;text-decoration-line:none;text-decoration-style:solid;text-decoration-color:#000000;letter-spacing:normal;word-spacing:normal;text-transform:none;writing-mode:lr-tb;direction:ltr;text-orientation:mixed;dominant-baseline:auto;baseline-shift:baseline;text-anchor:start;white-space:normal;shape-padding:0;clip-rule:nonzero;display:inline;overflow:visible;visibility:visible;isolation:auto;mix-blend-mode:normal;color-interpolation:sRGB;color-interpolation-filters:linearRGB;solid-color:#000000;solid-opacity:1;vector-effect:none;fill:url(#linearGradient9050);fill-opacity:1;fill-rule:evenodd;stroke:none;stroke-width:0.177766;stroke-linecap:butt;stroke-linejoin:miter;stroke-miterlimit:4;stroke-dasharray:none;stroke-dashoffset:0;stroke-opacity:1;color-rendering:auto;image-rendering:auto;shape-rendering:auto;text-rendering:auto;enable-background:accumulate"
         d="m 442.3147,526.5265 c -0.72427,0 -1.44639,0.012 -2.16823,0.0294 0.45029,36.12381 -0.55375,61.22189 2.3386,96.99078 2.89218,-35.76701 1.88941,-60.86303 2.3395,-96.98515 -0.83815,-0.0212 -1.67503,-0.0357 -2.50987,-0.0347 z"
         id="path2782"
         sodipodi:nodetypes="cccccc" />
    </clipPath>
    <clipPath
       clipPathUnits="userSpaceOnUse"
       id="clipPath2792">
      <path
         style="fill:none;stroke:#000000;stroke-width:0.264583px;stroke-linecap:butt;stroke-linejoin:miter;stroke-opacity:1"
         d="m 434.56577,556.62685 13.18744,2.42665 -2.38471,29.83647 -6.24957,-2.19668 z"
         id="path2790" />
    </clipPath>
    <linearGradient
       inkscape:collect="always"
       xlink:href="#linearGradient5173"
       id="linearGradient2072"
       gradientUnits="userSpaceOnUse"
       gradientTransform="translate(-906.81464,-1513.3779)"
       x1="451.46451"
       y1="756.68896"
       x2="455.35013"
       y2="756.68896" />
    <linearGradient
       inkscape:collect="always"
       xlink:href="#linearGradient8912"
       id="linearGradient2074"
       gradientUnits="userSpaceOnUse"
       x1="451.34644"
       y1="761.80096"
       x2="455.46817"
       y2="761.80096" />
  </defs>
  <sodipodi:namedview
     id="base"
     pagecolor="#ffffff"
     bordercolor="#666666"
     borderopacity="1.0"
     inkscape:pageopacity="0.0"
     inkscape:pageshadow="2"
     inkscape:zoom="1.8977567"
     inkscape:cx="167.30279"
     inkscape:cy="315.37235"
     inkscape:document-units="mm"
     inkscape:current-layer="layer1"
     inkscape:document-rotation="0"
     showgrid="false"
     inkscape:window-width="1920"
     inkscape:window-height="1080"
     inkscape:window-x="0"
     inkscape:window-y="0"
     inkscape:window-maximized="1"
     inkscape:showpageshadow="2"
     inkscape:pagecheckerboard="0"
     inkscape:deskcolor="#d1d1d1" />
  <metadata
     id="metadata5">
    <rdf:RDF>
      <cc:Work
         rdf:about="">
        <dc:format>image/svg+xml</dc:format>
        <dc:type
           rdf:resource="http://purl.org/dc/dcmitype/StillImage" />
        <dc:title />
      </cc:Work>
    </rdf:RDF>
  </metadata>
  <g
     inkscape:label="Calque 1"
     inkscape:groupmode="layer"
     id="layer1"
     transform="translate(353.27606,332.38027)">
    <g
       id="g1709"
       transform="translate(-752.37591,-834.51166)">
      <path
         style="fill:#a1a1a1;fill-opacity:1;stroke:none;stroke-width:0.264583px;stroke-linecap:butt;stroke-linejoin:miter;stroke-opacity:1"
         d="m 459.58806,609.46161 c 0,0 13.97903,-9.09609 16.11778,-5.94304 0.24191,0.35664 0.3047,0.72629 0.20779,1.09855 -3.87109,5.43367 -8.52647,13.11154 -16.32557,4.84449 z"
         id="path1076"
         sodipodi:nodetypes="cscc" />
      <path
         style="fill:#a1a1a1;fill-opacity:1;stroke:none;stroke-width:0.264583px;stroke-linecap:butt;stroke-linejoin:miter;stroke-opacity:1"
         d="m 411.67591,560.38578 c 5.92656,4.40692 14.47022,0.45077 19.08349,-2.52709 -9.06164,-4.215 -16.64619,-5.66376 -19.08349,2.52709 z"
         id="path1192"
         sodipodi:nodetypes="ccc" />
      <path
         style="fill:#a1a1a1;fill-opacity:1;stroke:none;stroke-width:0.264583px;stroke-linecap:butt;stroke-linejoin:miter;stroke-opacity:1"
         d="m 399.47631,585.1448 c 5.91641,4.95392 23.62331,2.11565 30.41553,-1.81341 -13.87187,-6.37576 -26.15697,-9.78475 -30.41553,1.81341 z"
         id="path1198"
         sodipodi:nodetypes="ccc" />
      <path
         style="fill:#a1a1a1;fill-opacity:1;stroke:none;stroke-width:0.264583px;stroke-linecap:butt;stroke-linejoin:miter;stroke-opacity:1"
         d="m 477.10075,595.31377 c -0.0959,0.37606 -20.92169,13.93856 -36.60486,13.30184 l -13.84245,-8.57824 c 0,0 14.90721,-2.35685 23.82864,-7.95665 z"
         id="path1202"
         sodipodi:nodetypes="ccccc" />
      <path
         style="fill:#a1a1a1;fill-opacity:1;stroke:none;stroke-width:0.264583px;stroke-linecap:butt;stroke-linejoin:miter;stroke-opacity:1"
         d="m 478.58596,566.05 c 0,0 -26.0814,13.79413 -35.22802,14.84532 l -13.42044,-9.2374 c 0,0 16.99443,-4.68047 21.1605,-7.70276 z"
         id="path1206"
         sodipodi:nodetypes="ccccc" />
      <path
         style="fill:#a1a1a1;fill-opacity:1;stroke:none;stroke-width:0.264583px;stroke-linecap:butt;stroke-linejoin:miter;stroke-opacity:1"
         d="m 465.23109,619.70292 c -6.46223,2.6166 -20.56958,16.57379 -20.56958,16.57379 l -0.22353,-8.22379 -9.99571,0.14181 v 0 c 0,0 5.19361,-6.84427 13.99741,-12.20714"
         id="path1210"
         sodipodi:nodetypes="cccccc" />
      <path
         style="fill:#a1a1a1;fill-opacity:1;stroke:none;stroke-width:0.264583px;stroke-linecap:butt;stroke-linejoin:miter;stroke-opacity:1"
         d="m 411.41328,610.69788 c 1.36441,1.54758 13.68109,7.06716 21.12942,2.2061 -7.11107,-5.22157 -14.21533,-9.99284 -21.12942,-2.2061 z"
         id="path1212"
         sodipodi:nodetypes="ccc" />
      <path
         style="fill:#a1a1a1;fill-opacity:1;stroke:none;stroke-width:0.264583px;stroke-linecap:butt;stroke-linejoin:miter;stroke-opacity:1"
         d="m 479.46861,554.3188 c -0.067,-1.76459 -8.42805,-3.1318 -15.16464,2.20006 5.50102,2.94833 10.77291,4.00578 15.16464,-2.20006 z"
         id="path1194"
         sodipodi:nodetypes="ccc" />
      <path
         style="fill:#a1a1a1;fill-opacity:1;stroke:none;stroke-width:0.264583px;stroke-linecap:butt;stroke-linejoin:miter;stroke-opacity:1"
         d="m 487.75571,578.3695 c 0.26318,-7.1869 -16.13057,1.17161 -21.21927,5.12898 7.33103,0.46354 15.23479,5.7526 21.21927,-5.12898 z"
         id="path1196"
         sodipodi:nodetypes="ccc" />
      <path
         style="fill:#a1a1a1;fill-opacity:1;stroke:none;stroke-width:0.264583px;stroke-linecap:butt;stroke-linejoin:miter;stroke-opacity:1"
         d="m 478.58596,566.05 c 0,0 -26.0814,13.79413 -35.22802,14.84532 l -13.42044,-9.2374 c 0,0 16.99443,-4.68047 21.1605,-7.70276 z"
         id="path9269"
         sodipodi:nodetypes="ccccc" />
      <path
         style="fill:#a1a1a1;fill-opacity:1;stroke:none;stroke-width:0.264583px;stroke-linecap:butt;stroke-linejoin:miter;stroke-opacity:1"
         d="m 465.23109,619.70292 c -6.46223,2.6166 -20.56958,16.57379 -20.56958,16.57379 l -0.22353,-8.22379 -9.99571,0.14181 v 0 c 0,0 5.19361,-6.84427 13.99741,-12.20714"
         id="path9271"
         sodipodi:nodetypes="cccccc" />
      <g
         id="g9267"
         clip-path="url(#clipPath9314)">
        <path
           style="opacity:0.741807;fill:#11100c;fill-opacity:1;stroke:none;stroke-width:0.529167;stroke-linecap:butt;stroke-linejoin:miter;stroke-miterlimit:4;stroke-dasharray:none;stroke-opacity:1;filter:url(#filter9306)"
           d="m 438.0765,527.88629 c 1.57783,81.53631 4.84366,84.28048 0.20039,111.94619 5.858,9.08926 6.1468,17.92057 6.1468,17.92057 0,0 0.2888,-8.83131 6.1468,-17.92057 -4.64327,-27.66571 -1.37744,-30.40988 0.20039,-111.94619"
           id="path9256"
           sodipodi:nodetypes="ccccc" />
      </g>
      <path
         style="fill:#dbd9cc;fill-opacity:1;stroke:none;stroke-width:0.529167;stroke-linecap:butt;stroke-linejoin:miter;stroke-miterlimit:4;stroke-dasharray:none;stroke-opacity:1"
         d="m 436.13789,526.71082 c 1.57783,81.53631 4.84366,84.28048 0.20039,111.94619 5.858,9.08926 6.1468,17.92057 6.1468,17.92057 0,0 0.2888,-8.83131 6.1468,-17.92057 -4.64327,-27.66571 -1.37744,-30.40988 0.20039,-111.94619"
         id="path1191"
         sodipodi:nodetypes="ccccc" />
      <path
         inkscape:connector-curvature="0"
         style="color:#000000;font-style:normal;font-variant:normal;font-weight:normal;font-stretch:normal;font-size:medium;line-height:normal;font-family:sans-serif;font-variant-ligatures:normal;font-variant-position:normal;font-variant-caps:normal;font-variant-numeric:normal;font-variant-alternates:normal;font-feature-settings:normal;text-indent:0;text-align:start;text-decoration:none;text-decoration-line:none;text-decoration-style:solid;text-decoration-color:#000000;letter-spacing:normal;word-spacing:normal;text-transform:none;writing-mode:lr-tb;direction:ltr;text-orientation:mixed;dominant-baseline:auto;baseline-shift:baseline;text-anchor:start;white-space:normal;shape-padding:0;clip-rule:nonzero;display:inline;overflow:visible;visibility:visible;isolation:auto;mix-blend-mode:normal;color-interpolation:sRGB;color-interpolation-filters:linearRGB;solid-color:#000000;solid-opacity:1;vector-effect:none;fill:url(#linearGradient1146);fill-opacity:1;fill-rule:evenodd;stroke:none;stroke-width:0.177766;stroke-linecap:butt;stroke-linejoin:miter;stroke-miterlimit:4;stroke-dasharray:none;stroke-dashoffset:0;stroke-opacity:1;color-rendering:auto;image-rendering:auto;shape-rendering:auto;text-rendering:auto;enable-background:accumulate"
         d="m 442.31471,526.5265 c -0.72429,0 -1.44641,0.012 -2.16823,0.0294 0.45027,36.1238 -0.55377,61.22188 2.3386,96.99077 2.89218,-35.76701 1.8894,-60.86302 2.33948,-96.98514 -0.83815,-0.0212 -1.67503,-0.0357 -2.50985,-0.0347 z"
         id="path1132"
         sodipodi:nodetypes="cccccc" />
      <g
         aria-label="♠"
         id="text1156"
         style="font-size:10.3054px;line-height:1.25;font-family:'Bebas Neue';-inkscape-font-specification:'Bebas Neue';letter-spacing:0px;word-spacing:0px;stroke-width:0.0536739">
        <path
           id="path1193"
           style="stroke-width:0.202862"
           d="m 1562.9352,1828.0629 0.057,0.059 c 0,2.5627 -0.2763,44.6048 -0.8184,69.7148 1.0925,6.6673 1.2461,10.7403 1.2461,10.7403 0,0 0.1553,-4.1094 1.2617,-10.8321 -0.5263,-25.1241 -0.7949,-66.9155 -0.7949,-69.4531 v -0.2285 z"
           transform="matrix(0.26458333,0,0,0.26458333,28.830047,151.60035)"
           sodipodi:nodetypes="cccccscc" />
      </g>
      <path
         id="path1660"
         style="fill:#000000;fill-opacity:1;stroke:none;stroke-width:0.999999px;stroke-linecap:butt;stroke-linejoin:miter;stroke-opacity:1"
         d="m 1567.3691,1872.0918 c -3.0777,-0.1288 -1.2467,3.0536 2.1524,5.4453 0.4129,-1.3153 0.8617,-2.6628 1.332,-4.0293 -0.2868,-0.1053 -0.5714,-0.2165 -0.8633,-0.3066 -2.3338,-0.7209 -1.7139,-1.0714 -2.6211,-1.1094 z m -6.2539,1.8398 c -0.2976,0.065 -0.6157,0.5365 -0.9707,1.586 -2.2717,6.7164 -3.2929,-0.9688 -3.2929,-0.9688 l -0.2246,0.8516 c 3.7976,11.513 5.4639,21.0801 6.205,26.9512 -0.7374,5.5361 0.334,26.7098 -0.4258,39.83 0.2081,8.9434 0.8335,14.6624 1.504,13.752 0.6704,-0.9103 1.2046,-8.2055 1.2851,-17.541 -0.6182,-14.0211 -0.1327,-24.4016 -1.1562,-36.2696 0.6299,-4.917 1.8878,-12.291 4.4765,-21.2421 l -1.9277,0.3027 c -2.8645,3.8747 -3.8654,-7.6047 -5.4727,-7.252 z"
         transform="matrix(0.26458333,0,0,0.26458333,28.830047,151.60035)"
         sodipodi:nodetypes="scccsssccccsccccs" />
      <g
         id="g1170"
         style="stroke:#000000;stroke-width:0.0976153;stroke-miterlimit:4;stroke-dasharray:none;stroke-opacity:1"
         transform="matrix(1.8210871,0,0,1.8210871,-383.32864,-872.17217)">
        <g
           id="g1189">
          <path
             style="opacity:1;vector-effect:none;fill:url(#linearGradient2072);fill-opacity:1;stroke:#000000;stroke-width:0.0976153;stroke-linecap:round;stroke-linejoin:miter;stroke-miterlimit:4;stroke-dasharray:none;stroke-dashoffset:0;stroke-opacity:1"
             id="path1158"
             sodipodi:type="arc"
             sodipodi:cx="-453.40732"
             sodipodi:cy="-756.68896"
             sodipodi:rx="1.9163533"
             sodipodi:ry="0.5423739"
             sodipodi:start="1.5666948"
             sodipodi:end="1.5203301"
             sodipodi:open="true"
             transform="scale(-1)"
             sodipodi:arc-type="arc"
             d="m -453.39946,-756.1466 a 1.9163533,0.5423739 0 0 1 -1.92398,-0.53385 1.9163533,0.5423739 0 0 1 1.86384,-0.55069 1.9163533,0.5423739 0 0 1 1.96719,0.5211 1.9163533,0.5423739 0 0 1 -1.81824,0.56276" />
          <path
             sodipodi:nodetypes="sssssssss"
             inkscape:connector-curvature="0"
             id="path1164"
             d="m 445.4749,768.03873 c 5.17311,-0.85814 10.51118,-0.82553 15.99608,0 0.19218,0.0289 0.35079,0.15645 0.35079,0.35079 v 1.1693 c 0,0.19434 -0.1586,0.37966 -0.35079,0.3508 -5.45813,-0.81967 -10.7874,-0.80173 -15.99608,0 -0.19208,0.0296 -0.35079,-0.15646 -0.35079,-0.3508 v -1.1693 c 0,-0.19434 0.15907,-0.31899 0.35079,-0.35079 z"
             style="opacity:1;vector-effect:none;fill:#000000;fill-opacity:1;stroke:#000000;stroke-width:0.0976153;stroke-linecap:round;stroke-linejoin:miter;stroke-miterlimit:4;stroke-dasharray:none;stroke-dashoffset:0;stroke-opacity:1" />
          <path
             id="path1166"
             d="m 453.35615,756.14668 c -0.36534,0.003 -0.70147,0.0357 -0.98753,0.0884 l -1.02217,11.21019 c 1.36356,-0.053 2.73746,-0.0489 4.12171,0.01 l -1.0232,-11.22153 c -0.31364,-0.0573 -0.68813,-0.0899 -1.08881,-0.0868 z"
             style="opacity:1;vector-effect:none;fill:url(#linearGradient2074);fill-opacity:1;stroke:none;stroke-width:0.0976153;stroke-linecap:round;stroke-linejoin:miter;stroke-miterlimit:4;stroke-dasharray:none;stroke-dashoffset:0;stroke-opacity:1"
             inkscape:connector-curvature="0" />
          <path
             sodipodi:nodetypes="ccccccc"
             inkscape:connector-curvature="0"
             id="path1168"
             d="m 453.35512,754.7106 c -1.04934,0.0286 -1.88037,0.89604 -1.86397,1.94562 0,0.0101 0,0.0204 0.003,0.0305 0.004,-0.29276 0.82841,-0.53179 1.86243,-0.54002 1.04105,-0.008 1.91402,0.22085 1.96577,0.51523 0.003,-0.0367 0.003,-0.0734 0.003,-0.11007 -0.0408,-1.049 -0.91792,-1.86994 -1.96731,-1.84124 z"
             style="opacity:1;vector-effect:none;fill:#000000;fill-opacity:1;stroke:#000000;stroke-width:0.0976153;stroke-linecap:round;stroke-linejoin:miter;stroke-miterlimit:4;stroke-dasharray:none;stroke-dashoffset:0;stroke-opacity:1" />
        </g>
      </g>
      <g
         id="g9032"
         clip-path="url(#clipPath9034)">
        <path
           id="path8916"
           style="opacity:0.576125;fill:#000000;fill-opacity:1;stroke:none;stroke-width:0.264583;stroke-linecap:butt;stroke-linejoin:miter;stroke-miterlimit:4;stroke-dasharray:none;stroke-opacity:1;filter:url(#filter9022)"
           d="m 423.23878,543.74354 c -5.28823,-0.0148 -9.62538,1.41437 -10.87271,5.72006 -0.17298,2.08593 0.0856,3.4805 0.48265,4.65398 -1.21073,3.05324 -0.49376,4.60948 0.43874,5.82909 0.80798,-3.86674 6.96957,-7.1258 28.11766,0.91572 28.17186,10.71229 34.06148,8.07096 38.79244,4.74856 1.14623,-3.4598 1.55041,-7.89388 0.88265,-11.7316 -6.08221,6.97476 -20.18363,-0.20439 -34.26457,-4.96558 -4.76253,-1.61082 -15.32723,-5.14722 -23.57686,-5.17023 z m -9.19014,23.51587 c 11.05841,0 -12.84261,5.62912 -12.84261,5.62912 -0.52044,2.0394 -0.10015,3.37309 -0.029,4.96869 -0.52343,3.16359 -0.43947,5.16749 -0.11525,6.7133 -0.19524,-2.62208 17.65485,-10.0874 44.52286,5.55934 17.60511,10.25242 39.78878,8.55091 43.67279,-0.13954 l 0.11007,-12.06024 c -4.62484,7.61971 -26.30189,6.32206 -43.78286,-1.63195 -14.92869,-6.79267 -38.1711,-9.03872 -31.53605,-9.03872 z m -12.98681,17.31111 c 0.003,0.0464 0.0115,0.0916 0.0264,0.13485 -0.01,-0.0433 -0.0172,-0.0909 -0.0264,-0.13485 z m 16.52561,10.93679 c -1.67325,0.0233 -3.10134,0.36438 -4.19301,1.11672 0,0 -2.74603,6.02467 -0.36949,13.63483 5.26335,-4.16192 10.51197,-2.86528 30.17025,6.81458 19.65827,9.67983 33.97326,0.0102 35.02162,-2.404 1.04836,-2.41425 -0.16277,-5.2953 -0.16277,-5.2953 0.34012,-5.09439 -0.52866,-5.19604 -0.52866,-5.19604 -0.97758,3.75491 -18.20513,7.77457 -31.76963,1.37406 -9.06061,-4.2753 -20.91754,-10.14574 -28.16831,-10.04485 z"
           clip-path="none"
           sodipodi:nodetypes="scccscccsscccsccssscccsccssccss" />
      </g>
      <g
         id="g9040"
         clip-path="url(#clipPath9046)">
        <path
           id="path9038"
           style="opacity:0.60474;fill:#000000;fill-opacity:1;stroke:none;stroke-width:0.264583;stroke-linecap:butt;stroke-linejoin:miter;stroke-miterlimit:4;stroke-dasharray:none;stroke-opacity:1;filter:url(#filter9064)"
           d="m 423.23878,543.74354 c -5.28823,-0.0148 -9.62538,1.41437 -10.87271,5.72006 -0.17298,2.08593 0.0856,3.4805 0.48265,4.65398 -1.21073,3.05324 -0.49376,4.60948 0.43874,5.82909 0.80798,-3.86674 6.96957,-7.1258 28.11766,0.91572 28.17186,10.71229 34.06148,8.07096 38.79244,4.74856 1.14623,-3.4598 1.55041,-7.89388 0.88265,-11.7316 -6.08221,6.97476 -20.18363,-0.20439 -34.26457,-4.96558 -4.76253,-1.61082 -15.32723,-5.14722 -23.57686,-5.17023 z m -9.19014,23.51587 c 11.05841,0 -12.84261,5.62912 -12.84261,5.62912 -0.52044,2.0394 -0.10015,3.37309 -0.029,4.96869 -0.52343,3.16359 -0.43947,5.16749 -0.11525,6.7133 -0.19524,-2.62208 17.65485,-10.0874 44.52286,5.55934 17.60511,10.25242 39.78878,8.55091 43.67279,-0.13954 l 0.11007,-12.06024 c -4.62484,7.61971 -26.30189,6.32206 -43.78286,-1.63195 -14.92869,-6.79267 -38.1711,-9.03872 -31.53605,-9.03872 z m -12.98681,17.31111 c 0.003,0.0464 0.0115,0.0916 0.0264,0.13485 -0.01,-0.0433 -0.0172,-0.0909 -0.0264,-0.13485 z m 16.52561,10.93679 c -1.67325,0.0233 -3.10134,0.36438 -4.19301,1.11672 0,0 -2.74603,6.02467 -0.36949,13.63483 5.26335,-4.16192 10.51197,-2.86528 30.17025,6.81458 19.65827,9.67983 33.97326,0.0102 35.02162,-2.404 1.04836,-2.41425 -0.16277,-5.2953 -0.16277,-5.2953 0.34012,-5.09439 -0.52866,-5.19604 -0.52866,-5.19604 -0.97758,3.75491 -18.20513,7.77457 -31.76963,1.37406 -9.06061,-4.2753 -20.91754,-10.14574 -28.16831,-10.04485 z"
           clip-path="none"
           sodipodi:nodetypes="scccscccsscccsccssscccsccssccss" />
      </g>
      <g
         id="g9128"
         clip-path="url(#clipPath9130)" />
      <path
         style="fill:url(#radialGradient9074);fill-opacity:1;stroke:none;stroke-width:0.264583;stroke-linecap:butt;stroke-linejoin:miter;stroke-miterlimit:4;stroke-dasharray:none;stroke-opacity:1"
         d="m 479.46863,554.3188 c -6.08221,6.97475 -20.18384,-0.20439 -34.26478,-4.96559 -7.81544,-2.64339 -31.25621,-10.47309 -34.44941,0.54948 -0.17297,2.08593 0.0858,3.48089 0.48286,4.65437 -1.21072,3.05324 -0.49388,4.6091 0.43862,5.82872 0.808,-3.86675 6.96929,-7.1259 28.11738,0.91562 28.17186,10.71229 34.06169,8.07101 38.79267,4.7486 1.14621,-3.45978 1.55042,-7.89348 0.88266,-11.7312 z"
         id="path1682"
         sodipodi:nodetypes="cccccscc" />
      <path
         style="fill:url(#radialGradient9082);fill-opacity:1;stroke:none;stroke-width:0.264583;stroke-linecap:butt;stroke-linejoin:miter;stroke-miterlimit:4;stroke-dasharray:none;stroke-opacity:1"
         d="m 487.7557,578.36951 c -4.62486,7.61972 -26.30163,6.32211 -43.7826,-1.63188 -39.80989,-18.11385 -44.37898,-3.41002 -44.37898,-3.41002 -0.52042,2.0394 -0.1,3.37299 -0.0288,4.96859 -0.53831,3.25366 -0.43635,5.28529 -0.089,6.84859 -0.85189,-2.48501 17.15306,-10.49935 44.49675,5.42441 17.6051,10.25243 39.78873,8.55061 43.67274,-0.13984 z"
         id="path1690"
         sodipodi:nodetypes="cscccscc" />
      <path
         style="fill:url(#radialGradient9090);fill-opacity:1;stroke:none;stroke-width:0.264583;stroke-linecap:butt;stroke-linejoin:miter;stroke-miterlimit:4;stroke-dasharray:none;stroke-opacity:1"
         d="m 411.41328,610.6979 c -2.37654,-7.61016 0.36955,-13.63463 0.36955,-13.63463 5.82222,-4.01242 21.20979,3.66646 32.3613,8.92837 13.56449,6.40049 30.7919,2.3804 31.7695,-1.37452 0,0 0.86868,0.10201 0.52855,5.19642 0,0 1.2113,2.88112 0.16295,5.29536 -1.04836,2.41423 -15.36323,12.08363 -35.02152,2.40379 -19.65828,-9.67984 -24.90697,-10.9767 -30.17033,-6.81479 z"
         id="path1080" />
      <g
         id="g1190"
         transform="translate(0,-1.0583333)">
        <path
           style="fill:none;stroke:none;stroke-width:0.529167;stroke-linecap:butt;stroke-linejoin:miter;stroke-miterlimit:4;stroke-dasharray:none;stroke-opacity:1"
           d="m 411.75322,556.22646 c 0.808,-3.86675 6.89199,-6.27028 28.04008,1.77124 18.39245,6.99369 27.28754,9.09343 32.5633,8.78392 2.80516,-0.16457 5.59942,0.17421 7.2417,-0.97911"
           id="path1082"
           sodipodi:nodetypes="cssc" />
        <text
           xml:space="preserve"
           style="font-style:normal;font-variant:normal;font-weight:normal;font-stretch:normal;font-size:5.64444px;line-height:1.25;font-family:'CMU Serif';-inkscape-font-specification:'CMU Serif';letter-spacing:0px;word-spacing:0px;stroke-width:0.0329137"
           id="text1090"><textPath
             xlink:href="#path1082"
             id="textPath1092"><tspan
               id="tspan1088"
               style="font-style:normal;font-variant:normal;font-weight:normal;font-stretch:normal;font-size:5.64444px;font-family:'CMU Serif';-inkscape-font-specification:'CMU Serif';stroke-width:0.0329137">  L’ENCRE DE L’ÉRUDIT</tspan></textPath></text>
      </g>
      <g
         id="g1184"
         transform="translate(0,-1.5875)">
        <path
           style="fill:none;stroke:none;stroke-width:0.67737;stroke-linecap:butt;stroke-linejoin:miter;stroke-miterlimit:4;stroke-dasharray:none;stroke-opacity:1"
           d="m 399.34016,581.13072 c -1.06295,-1.39536 16.1244,-9.29909 44.63294,6.29154 18.29376,10.00442 39.82625,8.57996 43.67274,-0.13984"
           id="path1084"
           sodipodi:nodetypes="csc" />
        <text
           xml:space="preserve"
           style="font-style:normal;font-variant:normal;font-weight:normal;font-stretch:normal;font-size:5.64444px;line-height:1.25;font-family:'CMU Serif';-inkscape-font-specification:'CMU Serif';letter-spacing:0px;word-spacing:0px;stroke-width:0.0329137"
           id="text1139-0"><textPath
             xlink:href="#path1084"
             id="textPath1137"><tspan
               id="tspan1135"
               style="font-style:normal;font-variant:normal;font-weight:normal;font-stretch:normal;font-size:5.64444px;font-family:'CMU Serif';-inkscape-font-specification:'CMU Serif';stroke-width:0.0329137">    EST PLUS SACRÉE QUE LE</tspan></textPath></text>
      </g>
      <g
         id="g1178"
         transform="translate(0,-1.0583333)">
        <text
           xml:space="preserve"
           style="font-style:normal;font-variant:normal;font-weight:normal;font-stretch:normal;font-size:5.64444px;line-height:1.25;font-family:'CMU Serif';-inkscape-font-specification:'CMU Serif';letter-spacing:0px;word-spacing:0px;stroke-width:0.0329137"
           id="text1090-3-7"><textPath
             xlink:href="#path1169"
             id="textPath1171"><tspan
               id="tspan1088-6-5"
               style="font-style:normal;font-variant:normal;font-weight:normal;font-stretch:normal;font-size:5.64444px;font-family:'CMU Serif';-inkscape-font-specification:'CMU Serif';stroke-width:0.0329137">    SANG DU MARTYR</tspan></textPath></text>
        <path
           style="fill:none;stroke:none;stroke-width:0.264583px;stroke-linecap:butt;stroke-linejoin:miter;stroke-opacity:1"
           d="m 411.41328,608.05208 c 5.26336,-4.16191 10.51205,-2.86505 30.17033,6.81479 19.65829,9.67984 33.97316,0.0104 35.02152,-2.40379"
           id="path1169"
           sodipodi:nodetypes="csc" />
        <text
           xml:space="preserve"
           style="font-style:normal;font-variant:normal;font-weight:normal;font-stretch:normal;font-size:5.64444px;line-height:1.25;font-family:'CMU Serif';-inkscape-font-specification:'CMU Serif';letter-spacing:0px;word-spacing:0px;stroke-width:0.0329137"
           id="text9277"><textPath
             xlink:href="#path1169"
             id="textPath9275"><tspan
               id="tspan9273"
               style="font-style:normal;font-variant:normal;font-weight:normal;font-stretch:normal;font-size:5.64444px;font-family:'CMU Serif';-inkscape-font-specification:'CMU Serif';stroke-width:0.0329137">    SANG DU MARTYR</tspan></textPath></text>
      </g>
      <circle
         style="opacity:1;fill:#000000;fill-opacity:1;stroke:none;stroke-width:0.445621;stroke-linejoin:bevel;stroke-miterlimit:4;stroke-dasharray:none;stroke-opacity:1;paint-order:markers stroke fill;stop-color:#000000"
         id="path9094"
         sodipodi:type="arc"
         sodipodi:cx="442.48508"
         sodipodi:cy="635.8808"
         sodipodi:rx="1.3127743"
         sodipodi:ry="1.8511585"
         sodipodi:start="1.5666948"
         sodipodi:end="1.5203301"
         sodipodi:open="true"
         sodipodi:arc-type="arc"
         d="m 442.49046,637.73194 a 1.3127743,1.8511585 0 0 1 -1.318,-1.82209 1.3127743,1.8511585 0 0 1 1.2768,-1.87952 1.3127743,1.8511585 0 0 1 1.3476,1.77852 1.3127743,1.8511585 0 0 1 -1.24556,1.92075" />
    </g>
  </g>
</svg>
