<?xml version="1.0" encoding="UTF-8" standalone="no"?>
<!-- Created with Inkscape (http://www.inkscape.org/) -->

<svg
   width="178.92863mm"
   height="180.10797mm"
   viewBox="0 0 178.92864 180.10797"
   version="1.1"
   id="svg1"
   inkscape:version="1.4 (e7c3feb100, 2024-10-09)"
   sodipodi:docname="logo-azerty-arab_big.svg"
   xml:space="preserve"
   xmlns:inkscape="http://www.inkscape.org/namespaces/inkscape"
   xmlns:sodipodi="http://sodipodi.sourceforge.net/DTD/sodipodi-0.dtd"
   xmlns:xlink="http://www.w3.org/1999/xlink"
   xmlns="http://www.w3.org/2000/svg"
   xmlns:svg="http://www.w3.org/2000/svg"><sodipodi:namedview
     id="namedview1"
     pagecolor="#ffffff"
     bordercolor="#666666"
     borderopacity="1.0"
     inkscape:showpageshadow="2"
     inkscape:pageopacity="0.0"
     inkscape:pagecheckerboard="0"
     inkscape:deskcolor="#d1d1d1"
     inkscape:document-units="mm"
     inkscape:zoom="0.65705898"
     inkscape:cx="370.59078"
     inkscape:cy="289.92831"
     inkscape:window-width="1916"
     inkscape:window-height="982"
     inkscape:window-x="0"
     inkscape:window-y="58"
     inkscape:window-maximized="1"
     inkscape:current-layer="layer1" /><defs
     id="defs1"><clipPath
       clipPathUnits="userSpaceOnUse"
       id="clipPath34"><path
         id="path34"
         style="fill:none;stroke:#28ba26;stroke-width:0.264583px;stroke-linecap:butt;stroke-linejoin:miter;stroke-opacity:1"
         d="m 71.925805,249.35522 0.7028,10.10016 6.938595,-0.52659 -1.054201,-5.26996 -3.600813,-1.14205 z m -25.29458,20.99096 -0.614949,7.1143 8.782926,0.43925 -1.756482,-6.4115 z m 66.047125,0.61495 -7.90442,0.5271 c 0,0 0.35145,4.9182 0.43925,5.533 0.0878,0.6148 7.37732,-0.79013 7.37732,-0.79013 z m 22.69216,5.40587 -5.46995,0.971 -0.61805,4.05816 c 0,0 4.58788,1.49965 4.94078,1.49965 0.3529,0 2.38229,-1.1467 2.38229,-1.1467 z m -102.177224,0.47853 -9.485726,0.61495 0.790649,5.35781 11.593091,-1.757 z m 43.598006,1.0542 -0.26355,3.07371 5.972245,1.84485 c 0,0 -0.175739,-3.68926 -0.351401,-4.04058 -0.175654,-0.35132 -5.357294,-0.87798 -5.357294,-0.87798 z"
         sodipodi:nodetypes="cccccccccccccscccccsccccccccccsc" /></clipPath><clipPath
       clipPathUnits="userSpaceOnUse"
       id="clipPath4"><path
         style="fill:none;stroke:#000000;stroke-width:0.264583px;stroke-linecap:butt;stroke-linejoin:miter;stroke-opacity:1"
         d="m 77.697172,253.17025 2.349077,4.34223 4.057491,-0.42711 -0.284734,-7.11841 z"
         id="path5" /></clipPath><filter
       inkscape:collect="always"
       style="color-interpolation-filters:sRGB"
       id="filter5"
       x="-0.19729554"
       y="-0.26281571"
       width="1.3945911"
       height="1.5256314"><feGaussianBlur
         inkscape:collect="always"
         stdDeviation="3.8279114"
         id="feGaussianBlur5" /></filter></defs><g
     inkscape:label="Calque 1"
     inkscape:groupmode="layer"
     id="layer1"
     transform="translate(17.689554,-190.08932)"><rect
       style="fill:#222222;fill-opacity:1;fill-rule:evenodd;stroke:none;stroke-width:6.131;paint-order:markers fill stroke"
       id="rect1"
       width="178.92863"
       height="180.10797"
       x="-17.689554"
       y="190.08932"
       ry="0"
       inkscape:export-filename="/tmp/azerty-arabe.png"
       inkscape:export-xdpi="269.71649"
       inkscape:export-ydpi="269.71649" /><text
       xml:space="preserve"
       style="font-style:normal;font-variant:normal;font-weight:normal;font-stretch:normal;font-size:38.1px;line-height:1.25;font-family:Scheherazade;-inkscape-font-specification:Scheherazade;letter-spacing:0px;word-spacing:0px;fill:#000000;fill-opacity:1;stroke-width:0.264583;filter:url(#filter5)"
       x="49.098431"
       y="304.11911"
       id="text5"><tspan
         sodipodi:role="line"
         id="tspan5"
         style="font-style:normal;font-variant:normal;font-weight:normal;font-stretch:normal;font-family:Scheherazade;-inkscape-font-specification:Scheherazade;fill:#000000;fill-opacity:1;stroke-width:0.264583"
         x="49.098431"
         y="304.11911">عَرَبِي</tspan></text><path
       id="path15"
       style="font-size:53.6234px;line-height:1.25;font-family:Scheherazade;-inkscape-font-specification:Scheherazade;text-align:center;letter-spacing:0px;word-spacing:0px;text-anchor:middle;fill:#870303;stroke-width:0.372384"
       d="m 78.337106,251.04555 c -0.523666,0 -1.003834,0.10473 -1.440223,0.3142 -0.436388,0.20946 -0.811312,0.49746 -1.125512,0.86403 -0.3142,0.3491 -0.558733,0.75911 -0.733289,1.23041 -0.174555,0.45385 -0.261999,0.93402 -0.261999,1.44022 0,1.27426 0.209452,2.2079 0.628385,2.80138 0.418933,0.57604 1.021109,0.86455 1.806608,0.86455 0.558578,0 1.073826,-0.10473 1.545125,-0.31419 0.4713,-0.22693 0.881306,-0.52383 1.230416,-0.89039 0.349111,-0.36656 0.619826,-0.79436 0.811837,-1.28312 0.209467,-0.48876 0.314193,-1.01239 0.314193,-1.57097 0,-0.34911 -0.07855,-0.72455 -0.235645,-1.12603 -0.139644,-0.40147 -0.340197,-0.7764 -0.60203,-1.12551 -0.244377,-0.34911 -0.541274,-0.6371 -0.890385,-0.86403 -0.331655,-0.22692 -0.680915,-0.34055 -1.047481,-0.34055 z m -1.256771,1.91151 c 0.296744,0 0.610923,0.0786 0.942578,0.23565 0.331655,0.13965 0.628552,0.32292 0.890385,0.54984 0.279288,0.22692 0.506022,0.47983 0.680578,0.75912 0.192011,0.26183 0.288355,0.51475 0.288355,0.75913 0,0.12219 -0.07016,0.24471 -0.209806,0.3669 -0.139644,0.10474 -0.314016,0.20946 -0.523483,0.31419 -0.209466,0.0872 -0.436718,0.15689 -0.681095,0.20929 -0.244378,0.0523 -0.462213,0.0786 -0.654224,0.0786 -0.576032,0 -1.091281,-0.1309 -1.545125,-0.39274 -0.436388,-0.27928 -0.654224,-0.67201 -0.654224,-1.17822 0,-0.43639 0.130909,-0.82912 0.392741,-1.17822 0.261834,-0.34912 0.619476,-0.52349 1.07332,-0.52349 z" /><text
       xml:space="preserve"
       style="font-style:normal;font-variant:normal;font-weight:500;font-stretch:normal;font-size:38.1px;line-height:1.25;font-family:'CMU Serif';-inkscape-font-specification:'CMU Serif Medium';text-align:center;letter-spacing:0px;word-spacing:0px;text-anchor:middle;stroke-width:0.264583"
       x="71.393761"
       y="280.0499"
       id="text2"><tspan
         sodipodi:role="line"
         id="tspan2"
         style="font-style:normal;font-variant:normal;font-weight:500;font-stretch:normal;font-family:'CMU Serif';-inkscape-font-specification:'CMU Serif Medium';stroke-width:0.264583"
         x="71.393761"
         y="280.0499">AZERTY</tspan></text><path
       style="font-size:53.6234px;line-height:1.25;font-family:Scheherazade;-inkscape-font-specification:Scheherazade;text-align:center;letter-spacing:0px;word-spacing:0px;text-anchor:middle;fill:#870303;stroke-width:0.372384"
       d="m 27.943193,294.30029 q 0,0.10474 -0.23565,0.52367 -0.23565,0.41893 -0.549849,0.86405 -0.288017,0.4713 -0.576033,0.83786 -0.261833,0.36657 -0.366566,0.36657 -0.05237,0 -0.418933,-0.26183 -0.340383,-0.23565 -0.759316,-0.54985 -0.471299,-0.34038 -1.073515,-0.81168 -0.104733,-0.10474 -0.183283,-0.10474 -0.07855,0 -0.183283,0.10474 -0.39275,0.57603 -0.706949,1.02114 -0.288017,0.39275 -0.54985,0.70695 -0.235649,0.3142 -0.314199,0.3142 -0.07855,0 -0.4713,-0.26183 -0.366566,-0.23565 -0.785499,-0.54985 -0.418933,-0.3142 -0.759316,-0.60221 -0.340382,-0.28802 -0.340382,-0.36657 0,-0.10473 0.235649,-0.52367 0.261833,-0.39275 0.576033,-0.86405 0.314199,-0.44511 0.576032,-0.81168 0.288017,-0.36656 0.340383,-0.36656 0.130917,0 0.4713,0.26183 0.340383,0.26183 0.706949,0.54985 0.445116,0.34038 0.968782,0.7855 0.1571,0.1571 0.23565,0.1571 0.07855,0 0.183283,-0.20947 0.392749,-0.54985 0.733132,-0.99497 0.288017,-0.36656 0.54985,-0.70694 0.261833,-0.3142 0.314199,-0.3142 0.07855,0 0.4713,0.26183 0.392749,0.26183 0.811682,0.57603 0.418933,0.34038 0.759316,0.6284 0.340383,0.28802 0.340383,0.34038 z"
       id="path25" /><path
       style="font-size:53.6234px;line-height:1.25;font-family:Scheherazade;-inkscape-font-specification:Scheherazade;text-align:center;letter-spacing:0px;word-spacing:0px;text-anchor:middle;fill:#870303;stroke-width:0.372384"
       d="m 29.778681,277.255 c -0.366566,0.36657 -0.549849,0.75059 -0.549849,1.15207 0,0.20947 0.06109,0.36657 0.183283,0.4713 0.122189,0.12219 0.288016,0.21819 0.497483,0.28802 0.209466,0.0698 0.453843,0.12219 0.733132,0.1571 0.296744,0.0524 0.610944,0.10477 0.942599,0.1571 0.401477,0.0698 0.855321,0.17455 1.361532,0.31419 0.50621,0.1571 0.977509,0.36657 1.413898,0.6284 0.453844,0.26183 0.829138,0.58476 1.125882,0.96879 0.296744,0.38402 0.445116,0.83786 0.445116,1.36153 0,0.75059 -0.226922,1.45754 -0.680766,2.12085 -0.436388,0.68076 -1.029876,1.30043 -1.780464,1.85901 -0.733133,0.57603 -1.588454,1.08224 -2.565964,1.51863 -0.960055,0.45385 -1.963748,0.83787 -3.01108,1.15207 -1.029876,0.3142 -2.06848,0.54985 -3.115813,0.70695 -1.029876,0.17455 -1.98993,0.26183 -2.880163,0.26183 -1.326621,0 -2.513597,-0.18328 -3.560929,-0.54985 -1.047332,-0.34911 -1.937564,-0.85532 -2.670696,-1.51863 -0.733133,-0.66331 -1.29171,-1.46627 -1.675732,-2.40887 -0.384021,-0.94259 -0.576032,-2.00738 -0.576032,-3.19436 0,-0.96005 0.130916,-1.92884 0.392749,-2.90635 0.261833,-0.96005 0.558577,-1.83283 0.890232,-2.61833 0.331655,-0.76804 0.645855,-1.39644 0.942599,-1.88519 0.3142,-0.48876 0.506211,-0.73314 0.576033,-0.73314 0.104733,0 0.200739,0.0262 0.288016,0.0786 0.08728,0.0523 0.130917,0.13088 0.130917,0.23565 0,0.0524 -0.09601,0.26187 -0.288017,0.6284 -0.174555,0.34911 -0.375294,0.80296 -0.602216,1.36154 -0.226921,0.57603 -0.436388,1.21315 -0.628399,1.91138 -0.174555,0.69822 -0.261833,1.4139 -0.261833,2.14703 0,1.29171 0.270561,2.31285 0.811683,3.06344 0.558577,0.76805 1.265526,1.35281 2.120847,1.75428 0.872777,0.40148 1.824103,0.66331 2.85398,0.7855 1.047332,0.12219 2.068481,0.18329 3.063446,0.18329 0.366566,0 0.89896,-0.0611 1.597182,-0.18329 0.698221,-0.12219 1.457537,-0.28801 2.277947,-0.49748 0.82041,-0.19201 1.649548,-0.41894 2.487413,-0.68077 0.855321,-0.26183 1.623365,-0.53239 2.304131,-0.81168 0.698221,-0.26183 1.265526,-0.53239 1.701915,-0.81168 0.453843,-0.26183 0.680765,-0.49748 0.680765,-0.70695 0,-0.38402 -0.279288,-0.67204 -0.837865,-0.86405 -0.541122,-0.19201 -1.387716,-0.31419 -2.539781,-0.36656 -0.50621,-0.0175 -1.021148,-0.0524 -1.544814,-0.10474 -0.523666,-0.0524 -1.012421,-0.1484 -1.466265,-0.28801 -0.436389,-0.12219 -0.794227,-0.32293 -1.073516,-0.60222 -0.279288,-0.26183 -0.418932,-0.6284 -0.418932,-1.0997 0,-0.43639 0.104733,-0.89023 0.314199,-1.36153 0.226922,-0.45385 0.453844,-0.85532 0.680766,-1.20443 6.068503,-9.60205 23.299808,-2.6165 31.236683,-4.42507 0.593488,-0.12219 1.090971,-0.27929 1.492448,-0.4713 0.366566,-0.19201 0.645854,-0.39275 0.837865,-0.60222 0.192011,-0.22692 0.288017,-0.40147 0.288017,-0.52366 0,-0.10473 -0.09601,-0.33166 -0.288017,-0.68077 -0.174555,-0.36657 -0.366566,-0.75059 -0.576032,-1.15206 -0.209467,-0.40148 -0.410205,-0.76805 -0.602216,-1.0997 -0.174555,-0.34911 -0.261833,-0.56731 -0.261833,-0.65458 0,-0.12219 0.07855,-0.34039 0.23565,-0.65459 0.174555,-0.33165 0.366566,-0.67203 0.576032,-1.02114 0.209467,-0.34911 0.410205,-0.67204 0.602216,-0.96879 0.192011,-0.3142 0.314199,-0.50621 0.366566,-0.57603 0.401477,0.87278 0.698222,1.71065 0.890233,2.5136 0.192011,0.7855 0.288016,1.59718 0.288016,2.43504 0,1.32663 -0.1571,2.43505 -0.471299,3.32528 -0.296745,0.89023 -0.70695,1.60591 -1.230616,2.14703 -0.523666,0.52367 -1.143337,0.89896 -1.859014,1.12589 -9.721288,4.56266 -24.607982,-3.353 -29.613318,1.41393 z"
       id="path24"
       sodipodi:nodetypes="cscsccccsscccccscssscccscscccscccssccccscccccscccccscscscscccscccc" /><path
       style="font-size:53.6234px;line-height:1.25;font-family:Scheherazade;-inkscape-font-specification:Scheherazade;text-align:center;letter-spacing:0px;word-spacing:0px;text-anchor:middle;fill:#870303;stroke-width:0.372384"
       d="m 68.43167,258.63864 q 0,0.10473 -0.235649,0.52366 -0.23565,0.41894 -0.54985,0.89024 -0.288016,0.44511 -0.576032,0.81168 -0.261833,0.36656 -0.366566,0.36656 -0.05237,0 -0.418933,-0.23565 -0.340383,-0.26183 -0.759316,-0.57603 -0.471299,-0.34038 -1.073515,-0.81168 -0.104734,-0.10473 -0.183283,-0.10473 -0.07855,0 -0.183284,0.10473 -0.392749,0.57603 -0.706949,1.02115 -0.288016,0.39275 -0.549849,0.70695 -0.23565,0.3142 -0.3142,0.3142 -0.07855,0 -0.471299,-0.23565 -0.366566,-0.26184 -0.785499,-0.57604 -0.418933,-0.3142 -0.759316,-0.60221 -0.340383,-0.28802 -0.340383,-0.36657 0,-0.10473 0.23565,-0.49748 0.261833,-0.41893 0.576033,-0.86405 0.314199,-0.4713 0.576032,-0.83786 0.288016,-0.36657 0.340383,-0.36657 0.130917,0 0.4713,0.26183 0.340382,0.26183 0.706949,0.54985 0.445116,0.34038 0.968782,0.7855 0.1571,0.1571 0.23565,0.1571 0.07855,0 0.183283,-0.20947 0.392749,-0.54985 0.733132,-0.99496 0.288016,-0.36657 0.549849,-0.68077 0.261833,-0.34038 0.3142,-0.34038 0.07855,0 0.471299,0.26183 0.39275,0.26184 0.811683,0.60222 0.418933,0.3142 0.759316,0.60221 0.340382,0.28802 0.340382,0.34039 z"
       id="path20" /><path
       style="font-size:53.6234px;line-height:1.25;font-family:Scheherazade;-inkscape-font-specification:Scheherazade;text-align:center;letter-spacing:0px;word-spacing:0px;text-anchor:middle;fill:#870303;stroke-width:0.372384"
       d="m 64.861647,282.67491 q 0,0.0786 -0.07855,0.3142 -0.07855,0.23565 -0.209466,0.49748 -0.130917,0.28802 -0.288017,0.54985 -0.130916,0.26183 -0.235649,0.36657 -0.183283,0.18328 -0.4713,0.34038 -0.288016,0.1571 -0.654582,0.36657 l -5.027194,2.61833 q -0.628399,0.34038 -0.890232,0.49748 -0.261833,0.1571 -0.4713,0.1571 -0.1571,0 -0.1571,-0.20947 0,-0.10473 0.05237,-0.34038 0.07855,-0.20947 0.183283,-0.4713 0.104733,-0.23565 0.209467,-0.4713 0.130916,-0.20947 0.235649,-0.3142 0.104733,-0.10473 0.288017,-0.23565 0.183283,-0.10473 0.549849,-0.3142 l 5.184294,-2.72306 q 0.445116,-0.23565 0.916415,-0.54985 0.497483,-0.28802 0.654583,-0.28802 0.209466,0 0.209466,0.20947 z"
       id="path18" /><path
       style="font-size:53.6234px;line-height:1.25;font-family:Scheherazade;-inkscape-font-specification:Scheherazade;text-align:center;letter-spacing:0px;word-spacing:0px;text-anchor:middle;fill:#870303;stroke-width:0.372384"
       d="m 112.48519,280.58024 q 0,0.10474 -0.23565,0.52367 -0.23565,0.41893 -0.54985,0.86405 -0.28802,0.4713 -0.57603,0.83786 -0.26184,0.36657 -0.36657,0.36657 -0.0524,0 -0.41893,-0.26183 -0.34039,-0.23565 -0.75932,-0.54985 -0.4713,-0.34038 -1.07351,-0.81168 -0.10474,-0.10474 -0.18329,-0.10474 -0.0785,0 -0.18328,0.10474 -0.39275,0.57603 -0.70695,1.02114 -0.28802,0.39275 -0.54985,0.70695 -0.23565,0.3142 -0.3142,0.3142 -0.0786,0 -0.4713,-0.26183 -0.36656,-0.23565 -0.7855,-0.54985 -0.41893,-0.3142 -0.75931,-0.60221 -0.34039,-0.28802 -0.34039,-0.36657 0,-0.10473 0.26184,-0.52367 0.23565,-0.39275 0.54985,-0.86405 0.3142,-0.44511 0.57603,-0.81168 0.28802,-0.36656 0.34038,-0.36656 0.13092,0 0.4713,0.26183 0.34038,0.26183 0.70695,0.54985 0.44512,0.34038 0.96878,0.7855 0.1571,0.1571 0.23565,0.1571 0.0786,0 0.18329,-0.20947 0.39275,-0.54985 0.73313,-0.99497 0.28801,-0.36656 0.54985,-0.70694 0.26183,-0.3142 0.3142,-0.3142 0.0785,0 0.4713,0.26183 0.39275,0.26183 0.81168,0.57603 0.41893,0.34038 0.75931,0.6284 0.34039,0.28802 0.34039,0.34038 z"
       id="path11" /><path
       style="font-size:53.6234px;line-height:1.25;font-family:Scheherazade;-inkscape-font-specification:Scheherazade;text-align:center;letter-spacing:0px;word-spacing:0px;text-anchor:middle;fill:#870303;stroke-width:0.372384"
       d="m 107.90311,272.69907 c 0.59349,-0.12219 1.09097,-0.27929 1.49245,-0.4713 0.36657,-0.19201 0.64585,-0.39275 0.83786,-0.60222 0.19201,-0.22692 0.28802,-0.40147 0.28802,-0.52366 0,-0.10473 -0.096,-0.33166 -0.28802,-0.68077 -0.17455,-0.36657 -0.36656,-0.75059 -0.57603,-1.15206 -0.20947,-0.40148 -0.4102,-0.76805 -0.60221,-1.0997 -0.17456,-0.34911 -0.26184,-0.56731 -0.26184,-0.65458 0,-0.12219 0.0785,-0.34039 0.23565,-0.65459 0.17455,-0.33165 0.36656,-0.67203 0.57603,-1.02114 0.20947,-0.34911 0.41021,-0.67204 0.60222,-0.96879 0.19201,-0.3142 0.3142,-0.50621 0.36657,-0.57603 0.40147,0.87278 0.69822,1.71065 0.89023,2.5136 0.19201,0.7855 0.28802,1.59718 0.28802,2.43504 0,1.32663 -0.1571,2.43505 -0.4713,3.32528 -0.29675,0.89023 -0.70695,1.60591 -1.23062,2.14703 -0.52367,0.52367 -1.14334,0.89896 -1.85901,1.12589 -7.39469,2.13347 -19.026714,2.36097 -27.118107,0.3142 -0.139645,0 -0.270561,-0.009 -0.39275,-0.0262 -0.122189,-0.0175 -0.261833,-0.0262 -0.418933,-0.0262 -0.08728,0.73313 -0.200738,1.45754 -0.340383,2.17321 -0.122189,0.73313 -0.314199,1.45754 -0.576032,2.17322 -0.244377,0.71567 -0.567305,1.42262 -0.968782,2.12084 -0.384022,0.71568 -0.872777,1.44009 -1.466265,2.17322 -0.663311,0.80295 -1.431354,1.45754 -2.304131,1.96375 -0.855321,0.50621 -1.885198,0.75931 -3.089629,0.75931 -0.488755,0 -1.038605,-0.0524 -1.649548,-0.1571 -0.593489,-0.0873 -1.152066,-0.20073 -1.675732,-0.34038 -0.523666,-0.13965 -0.960054,-0.27929 -1.309165,-0.41893 -0.366566,-0.12219 -0.549849,-0.22693 -0.549849,-0.3142 0,-0.10473 0.05237,-0.19201 0.1571,-0.26184 0.08728,-0.0698 0.174555,-0.10473 0.261833,-0.10473 0.01745,0 0.07855,0.009 0.183283,0.0262 0.104733,0.0175 0.226922,0.0349 0.366566,0.0524 0.139645,0.0175 0.288017,0.0349 0.445116,0.0524 0.139645,0.0175 0.270561,0.0262 0.39275,0.0262 0.506211,0 1.073515,-0.0698 1.701914,-0.20947 0.628399,-0.13964 1.29171,-0.36656 1.989931,-0.68076 0.698221,-0.29675 1.405171,-0.6895 2.120848,-1.17825 0.733132,-0.48875 1.448809,-1.08224 2.14703,-1.78046 0.576033,-0.57603 1.047332,-1.14334 1.413899,-1.70192 0.366566,-0.55857 0.654582,-1.07351 0.864049,-1.54481 0.226922,-0.45385 0.384022,-0.8466 0.471299,-1.17825 0.08728,-0.3142 0.130917,-0.52367 0.130917,-0.6284 0,-0.10473 -0.104733,-0.3142 -0.3142,-0.6284 -0.192011,-0.29675 -0.410205,-0.61095 -0.654583,-0.9426 -0.244377,-0.33165 -0.471299,-0.63713 -0.680765,-0.91642 -0.192011,-0.29674 -0.288017,-0.48875 -0.288017,-0.57603 0,-0.0349 0.05237,-0.1833 0.1571,-0.44511 0.122189,-0.27929 0.253105,-0.57604 0.39275,-0.89024 0.139644,-0.3142 0.279288,-0.61967 0.418932,-0.91641 0.139645,-0.29675 0.226922,-0.48876 0.261833,-0.57603 h 0.1571 c 1.847376,2.12444 15.961572,5.69877 29.474601,1.46619 z"
       id="path10"
       sodipodi:nodetypes="cccscscscscccsccccsccccccscscscssscssccssccscscscssccc" /><path
       style="font-size:53.6234px;line-height:1.25;font-family:Scheherazade;-inkscape-font-specification:Scheherazade;text-align:center;letter-spacing:0px;word-spacing:0px;text-anchor:middle;fill:#870303;stroke-width:0.372384"
       d="m 125.20074,261.96392 q 0,0.10473 -0.23565,0.52366 -0.23565,0.39275 -0.54985,0.86405 -0.28801,0.44512 -0.60221,0.81168 -0.28802,0.36657 -0.39275,0.36657 -0.0524,0 -0.44512,-0.23565 -0.36657,-0.23565 -0.81168,-0.52367 -0.41893,-0.3142 -0.75932,-0.60221 -0.34038,-0.28802 -0.34038,-0.39275 0,-0.10473 0.23565,-0.49748 0.26183,-0.41894 0.54985,-0.86405 0.3142,-0.4713 0.60221,-0.83787 0.28802,-0.36656 0.36657,-0.36656 0.10473,0 0.49748,0.26183 0.39275,0.23565 0.81169,0.54985 0.41893,0.3142 0.73313,0.60221 0.34038,0.28802 0.34038,0.34039 z"
       id="path9" /><path
       style="font-size:53.6234px;line-height:1.25;font-family:Scheherazade;-inkscape-font-specification:Scheherazade;text-align:center;letter-spacing:0px;word-spacing:0px;text-anchor:middle;fill:#870303;stroke-width:0.372384"
       d="m 125.17454,274.87228 q 0,1.38772 -0.41894,2.85398 -0.39274,1.49245 -1.09969,2.88017 -0.68077,1.38771 -1.59719,2.59214 -0.91641,1.20444 -1.96374,2.0423 -0.6284,0.52367 -1.33535,0.7855 -0.70695,0.28802 -1.38772,0.39275 -0.65458,0.13092 -1.25679,0.1571 -0.60222,0.0262 -1.02115,0.0262 -0.70695,0 -1.51863,-0.23565 -0.81169,-0.20946 -1.49245,-0.49748 -0.70695,-0.26183 -1.15207,-0.52367 -0.4713,-0.23564 -0.4713,-0.28801 0,-0.0786 0.0786,-0.20947 0.0785,-0.10473 0.1571,-0.10473 0.0262,0 0.39275,0.0524 0.34038,0.0524 0.7855,0.10473 0.44512,0.0524 0.91642,0.10473 0.44511,0.0524 0.73313,0.0524 1.49245,0 3.24673,-0.89023 1.78046,-0.89024 3.71803,-2.69688 1.72809,-1.62337 2.64451,-3.08963 0.91642,-1.46627 0.91642,-2.43505 0,-0.36657 -0.36657,-1.20443 -0.34038,-0.83787 -0.75932,-1.7281 -0.41893,-0.91642 -0.7855,-1.67573 -0.34038,-0.7855 -0.34038,-1.02115 0,-0.18328 0.18328,-0.68077 0.20947,-0.49748 0.4713,-1.02114 0.26184,-0.54985 0.49749,-0.96879 0.23565,-0.44511 0.28801,-0.49748 0.54985,0.91642 0.91642,1.91138 0.39275,0.99497 0.60221,1.98993 0.23565,0.99497 0.3142,1.98993 0.10474,0.96879 0.10474,1.83283 z"
       id="path8" /><path
       style="font-size:53.6234px;line-height:1.25;font-family:Scheherazade;-inkscape-font-specification:Scheherazade;text-align:center;letter-spacing:0px;word-spacing:0px;text-anchor:middle;fill:#870303;stroke-width:0.372384"
       d="m 121.92781,290.03242 q 0,0.0786 -0.0785,0.3142 -0.0786,0.23565 -0.20946,0.49748 -0.13092,0.28801 -0.28802,0.54985 -0.13092,0.26183 -0.23565,0.36656 -0.18328,0.18329 -0.4713,0.34039 -0.28802,0.1571 -0.65458,0.36656 l -5.0272,2.61833 q -0.6284,0.34039 -0.89023,0.49749 -0.26183,0.1571 -0.4713,0.1571 -0.1571,0 -0.1571,-0.20947 0,-0.10473 0.0524,-0.34038 0.0785,-0.20947 0.18328,-0.4713 0.10474,-0.23565 0.20947,-0.4713 0.13092,-0.20947 0.23565,-0.3142 0.10473,-0.10474 0.28801,-0.23565 0.18329,-0.10474 0.54985,-0.3142 l 5.1843,-2.72306 q 0.44511,-0.23565 0.91641,-0.54985 0.49749,-0.28802 0.65459,-0.28802 0.20946,0 0.20946,0.20947 z"
       id="path7" /><path
       style="font-size:53.6234px;line-height:1.25;font-family:Scheherazade;-inkscape-font-specification:Scheherazade;text-align:center;letter-spacing:0px;word-spacing:0px;text-anchor:middle;fill:#870303;stroke-width:0.372384"
       d="m 134.10702,274.68614 q 0,0.20947 -0.0786,0.7855 -0.0524,0.54985 -0.18328,1.2568 -0.10473,0.70695 -0.26183,1.49245 -0.13092,0.75931 -0.28802,1.38771 -0.1571,0.6284 -0.3142,1.04733 -0.1571,0.41894 -0.26183,0.41894 -0.44512,0 -0.44512,-0.41894 0,-0.13091 0.1571,-0.86405 0.18328,-0.75931 0.18328,-1.93756 0,-0.73313 -0.1571,-2.22558 -0.1571,-1.49245 -0.39275,-3.35146 -0.23564,-1.85902 -0.49748,-3.84895 -0.26183,-1.98993 -0.49748,-3.71803 -0.23565,-1.7281 -0.39275,-2.98489 -0.1571,-1.2568 -0.1571,-1.62337 0,-0.60221 0.18328,-1.44008 0.18329,-0.86405 0.41894,-1.64955 0.26183,-0.7855 0.52366,-1.36153 0.26184,-0.57603 0.41893,-0.6284 0.0524,0.0786 0.10474,0.34038 0.0524,0.26184 0.0786,0.57604 0.0524,0.3142 0.0786,0.65458 0.0262,0.3142 0.0262,0.52366 v 1.49245 l 1.75428,16.07655 z"
       id="path6" /><path
       style="font-size:53.6234px;line-height:1.25;font-family:Scheherazade;-inkscape-font-specification:Scheherazade;text-align:center;letter-spacing:0px;word-spacing:0px;text-anchor:middle;fill:#870303;stroke-width:0.372384"
       d="m 135.31145,248.50284 q 0,0.0786 -0.0786,0.3142 -0.0524,0.23565 -0.18328,0.49748 -0.13092,0.23565 -0.34038,0.4713 -0.18328,0.23565 -0.41893,0.3142 -0.1571,0.0524 -0.49749,0.18328 -0.3142,0.10474 -0.75931,0.28802 -0.44512,0.1571 -0.96879,0.36657 -0.52366,0.20946 -1.04733,0.39275 -1.28298,0.49748 -1.91138,0.78549 -0.60221,0.28802 -0.81168,0.28802 -0.20947,0 -0.20947,-0.20947 0,-0.10473 0.0786,-0.28801 0.0786,-0.20947 0.18329,-0.41893 0.10473,-0.20947 0.20946,-0.39275 0.10474,-0.20947 0.1571,-0.28802 0.0786,-0.0785 0.23565,-0.18328 0.18328,-0.13092 0.36657,-0.23565 0.20946,-0.13092 0.39275,-0.20947 0.18328,-0.0785 0.28801,-0.13092 -0.20946,-0.0524 -0.4713,-0.18328 -0.23565,-0.1571 -0.44511,-0.36657 -0.20947,-0.23565 -0.36657,-0.52366 -0.1571,-0.28802 -0.1571,-0.65458 0,-0.3142 0.1571,-0.68077 0.1571,-0.39275 0.39275,-0.75932 0.26183,-0.39275 0.54985,-0.75931 0.3142,-0.36657 0.6284,-0.68077 0.49748,-0.49748 0.86405,-0.75931 0.36657,-0.28802 0.6284,-0.39275 0.28801,-0.13092 0.52366,-0.1571 0.23565,-0.0262 0.49749,-0.0262 0.57603,0 0.83786,0.4713 0.28802,0.44512 0.28802,0.96879 0,0.13091 -0.0786,0.39275 -0.0786,0.26183 -0.20947,0.52366 -0.10473,0.26183 -0.23565,0.44512 -0.10473,0.18328 -0.18328,0.18328 -0.10473,0 -0.3142,-0.0785 -0.20947,-0.10473 -0.4713,-0.20947 -0.26183,-0.10473 -0.54985,-0.18328 -0.28801,-0.10473 -0.52366,-0.10473 -0.44512,0 -0.86405,0.3142 -0.39275,0.3142 -0.39275,0.60221 0,0.0786 0.28801,0.3142 0.28802,0.20947 0.70695,0.4713 0.44512,0.23565 0.91642,0.44512 0.49748,0.18328 0.89023,0.20946 0.3142,-0.0786 0.68077,-0.15709 0.36656,-0.0786 0.68076,-0.13092 0.34038,-0.0786 0.57603,-0.13092 0.23565,-0.0524 0.3142,-0.0786 0.0524,0 0.10474,0.0262 0.0524,0 0.0524,0.10473 z"
       id="text4" /><use
       x="0"
       y="0"
       xlink:href="#text2"
       id="use34"
       clip-path="url(#clipPath34)" /><text
       xml:space="preserve"
       style="font-style:normal;font-variant:normal;font-weight:normal;font-stretch:normal;font-size:38.1px;line-height:1.25;font-family:Scheherazade;-inkscape-font-specification:Scheherazade;letter-spacing:0px;word-spacing:0px;fill:#870303;fill-opacity:1;stroke-width:0.264583"
       x="49.098431"
       y="304.11911"
       id="text1"><tspan
         sodipodi:role="line"
         id="tspan1"
         style="font-style:normal;font-variant:normal;font-weight:normal;font-stretch:normal;font-family:Scheherazade;-inkscape-font-specification:Scheherazade;fill:#870303;fill-opacity:1;stroke-width:0.264583"
         x="49.098431"
         y="304.11911">عَرَبِي</tspan></text><path
       id="path4"
       style="font-size:53.6234px;line-height:1.25;font-family:Scheherazade;-inkscape-font-specification:Scheherazade;text-align:center;letter-spacing:0px;word-spacing:0px;text-anchor:middle;fill:#870303;stroke-width:0.372384"
       d="m 78.337106,251.04555 c -0.523666,0 -1.003834,0.10473 -1.440223,0.3142 -0.436388,0.20946 -0.811312,0.49746 -1.125512,0.86403 -0.3142,0.3491 -0.558733,0.75911 -0.733289,1.23041 -0.174555,0.45385 -0.261999,0.93402 -0.261999,1.44022 0,1.27426 0.209452,2.2079 0.628385,2.80138 0.418933,0.57604 1.021109,0.86455 1.806608,0.86455 0.558578,0 1.073826,-0.10473 1.545125,-0.31419 0.4713,-0.22693 0.881306,-0.52383 1.230416,-0.89039 0.349111,-0.36656 0.619826,-0.79436 0.811837,-1.28312 0.209467,-0.48876 0.314193,-1.01239 0.314193,-1.57097 0,-0.34911 -0.07855,-0.72455 -0.235645,-1.12603 -0.139644,-0.40147 -0.340197,-0.7764 -0.60203,-1.12551 -0.244377,-0.34911 -0.541274,-0.6371 -0.890385,-0.86403 -0.331655,-0.22692 -0.680915,-0.34055 -1.047481,-0.34055 z m -1.256771,1.91151 c 0.296744,0 0.610923,0.0786 0.942578,0.23565 0.331655,0.13965 0.628552,0.32292 0.890385,0.54984 0.279288,0.22692 0.506022,0.47983 0.680578,0.75912 0.192011,0.26183 0.288355,0.51475 0.288355,0.75913 0,0.12219 -0.07016,0.24471 -0.209806,0.3669 -0.139644,0.10474 -0.314016,0.20946 -0.523483,0.31419 -0.209466,0.0872 -0.436718,0.15689 -0.681095,0.20929 -0.244378,0.0523 -0.462213,0.0786 -0.654224,0.0786 -0.576032,0 -1.091281,-0.1309 -1.545125,-0.39274 -0.436388,-0.27928 -0.654224,-0.67201 -0.654224,-1.17822 0,-0.43639 0.130909,-0.82912 0.392741,-1.17822 0.261834,-0.34912 0.619476,-0.52349 1.07332,-0.52349 z"
       clip-path="url(#clipPath4)" /></g><style
     id="style1">stroke: #777; fill: #444;fill: #333;fill: #558;fill: #bbb;fill: #99f;fill: #6d6;fill: #f44;fill: hsl(  0, 20%, 30%);fill: hsl( 35, 25%, 30%);fill: hsl( 61, 30%, 30%);fill: hsl(136, 30%, 30%);fill: #449;fill: hsl(  0, 25%, 30%);fill: hsl( 31, 30%, 30%);fill: hsl( 61, 30%, 30%);fill: hsl(136, 30%, 30%);fill: hsl(200, 30%, 30%);fill: hsl(230, 30%, 30%);fill: #333;fill: #a33;fill: #335;fill: #fff;font-weight: bold;fill: white;rect, path { stroke: #666;    stroke-width: .5px;    fill: #f8f8f8; }
.specialKey,  .specialKey rect,  .specialKey path { fill: #e4e4e4; }
text { fill: #333;    font: normal 20px sans-serif;    text-align: center; }
#Backspace text { font-size: 12px; }
#Escape { display: none; }
#row_AE { transform: translate(4px, 4px); }
#row_AD { transform: translate(4px, 64px); }
#row_AC { transform: translate(4px, 124px); }
#row_AB { transform: translate(4px, 184px); }
#row_AA { transform: translate(4px, 244px); }
#Enter text.ansi,  .alt #Enter     .alt,  .iso #Enter     .iso,  .iso #Backslash .iso { display: block; }
.iso #Backslash { transform: translate(765px, 60px); }
.alt #Backslash { transform: translate(780px, -60px); }
.intlYen  #Backspace .alt,  .intlYen  #IntlYen { display: block; }
.intlBackslash  #ShiftLeft .iso,  .intlBackslash  #IntlBackslash { display: block; }
.intlRo  #ShiftRight .abnt,  .intlRo  #IntlRo { display: block; }
.specialKey   .ergo,  .specialKey   .ol60,  .specialKey   .ol50,  .specialKey   .ol40,  #Space        .ol60,  #Space        .ol50,  #Space        .ol40,  #Backquote    .ol60,  #BracketRight .ol60,  #Equal        .ol60,  .ergo #CapsLock,  .ergo #Space      rect,  .ergo #Backslash  rect,  .ergo .specialKey rect,  .ergo .specialKey text { display: none; }
.ol50 #Escape,  .ol40 #Escape,  .ol60 #Space        .ol60,  .ol50 #Space        .ol50,  .ol40 #Space        .ol40,  .ol60 #Backquote    .ol60,  .ol60 #BracketRight .ol60,  .ol60 #Backslash    .ol60,  .ol60 #Equal        .ol60,  .ol60 .specialKey   .ol60,  .ol50 .specialKey   .ol50,  .ol40 .specialKey   .ol40,  .ergo .specialKey   .ergo { display: block; }
.ol50 .pinkyKey, .ol50 #ContextMenu,  .ol40 .pinkyKey, .ol40 #ContextMenu,  .ol40 #row_AE .numberKey { display: none; }
.ergo #row_AE { transform: translate(94px, 4px); }
.ergo #row_AD { transform: translate(64px, 64px); }
.ergo #row_AC { transform: translate(49px, 124px); }
.ergo #row_AB { transform: translate(19px, 184px); }
.ergo #Tab { transform: translate(15px, 0px); }
.ergo #ShiftLeft { transform: translate(60px, 0px); }
.ergo #ControlLeft { transform: translate(75px, 0px); }
.ergo #MetaLeft { transform: translate(150px, 0px); }
.ergo #AltLeft { transform: translate(240px, 0px); }
.ergo #Space { transform: translate(315px, 0px); }
.ergo #AltRight { transform: translate(540px, 0px); }
.ergo #MetaRight { transform: translate(630px, 0px); }
.ergo #ControlRight { transform: translate(750px, 0px); }
.ergo .left { transform: translate(-15px, 0px); }
.ergo .right { transform: translate(15px, 0px); }
.ol60 .left { transform: translate(-75px, 0px); }
.ol60 #ControlRight { transform: translate(810px, 0px); }
.ol60 #Backquote { transform: translate(-15px, 0px); }
.ol60 #ShiftRight { transform: translate(795px, 0px); }
.ol60 #ContextMenu { transform: translate(750px, 0px); }
.ol60 #Backslash { transform: translate(690px, 120px); }
.ol60 #Backspace { transform: translate(277.5px, 60px); }
.ol60 #Enter { transform: translate(322.5px, 60px); }
.ol50 #Escape { transform: translate(-15px, 0px); }
.ol50 #Backspace { transform: translate(660px, 0px); }
.ol50 #Enter { transform: translate(705px, -60px); }
.ol40 #Escape { transform: translate(-15px, 120px); }
.ol40 #Backspace { transform: translate(660px, 60px); }
.ol40 #Enter { transform: translate(705px, 0px); }
#NonConvert, #Convert, #KanaMode,  #Lang1, #Lang2,  #Space .jis,  #Space .ks,  .ks  #Space .ansi,  .ks  #Space .jis,  .jis #Space .ansi,  .jis #Space .ks { display: none; }
.ks  #Space .ks,  .jis #NonConvert, .jis #Convert, .jis #KanaMode,  .ks #Lang1, .ks #Lang2,  .jis #Space .jis { display: block; }
#Backquote .jis,  #CapsLock  .jis,  .jis #Backquote .ansi,  .jis #CapsLock  .ansi { display: none; }
.jis #Backquote .jis,  .jis #CapsLock .jis { display: block; }
#Lang1 text,  #Lang2 text,  #Convert text,  #NonConvert text,  .jis #CapsLock text { font-size: 14px; }
#KanaMode text,  .jis #Backquote text { font-size: 10px; }
.specialKey .win,  .specialKey .gnu { display: none;    font-size: 14px; }
.level5, .level6 { fill: green; }
.deadKey { fill: red;    font-size: 14px; }
.diacritic { font-size: 20px;    font-weight: bolder; }
.hide { display: none; }
.altgr .level4 { display: block; }
.dk .level5, .altgr .level3,  .dk .level6, .altgr .level4 { opacity: 1; }
.dk .level3,  .dk .level4 { display: none; }
.dark { rect, path }
</style></svg>
