<?xml version="1.0" encoding="UTF-8" standalone="no"?>
<!-- Created with Inkscape (http://www.inkscape.org/) -->

<svg
   width="221.31587mm"
   height="30.281845mm"
   viewBox="0 0 221.31587 30.281845"
   version="1.1"
   id="svg1"
   sodipodi:docname="miscelarnous.svg"
   inkscape:version="1.4 (e7c3feb100, 2024-10-09)"
   xmlns:inkscape="http://www.inkscape.org/namespaces/inkscape"
   xmlns:sodipodi="http://sodipodi.sourceforge.net/DTD/sodipodi-0.dtd"
   xmlns="http://www.w3.org/2000/svg"
   xmlns:svg="http://www.w3.org/2000/svg">
  <sodipodi:namedview
     id="namedview1"
     pagecolor="#ffffff"
     bordercolor="#666666"
     borderopacity="1.0"
     inkscape:showpageshadow="2"
     inkscape:pageopacity="0.0"
     inkscape:pagecheckerboard="0"
     inkscape:deskcolor="#d1d1d1"
     inkscape:document-units="mm"
     inkscape:zoom="0.84058183"
     inkscape:cx="283.13722"
     inkscape:cy="57.698131"
     inkscape:window-width="1916"
     inkscape:window-height="964"
     inkscape:window-x="0"
     inkscape:window-y="76"
     inkscape:window-maximized="1"
     inkscape:current-layer="layer1"
     showguides="true">
    <sodipodi:guide
       position="168.99995,1.5123147"
       orientation="0,-1"
       id="guide1"
       inkscape:locked="false" />
    <sodipodi:guide
       position="171.51383,28.653235"
       orientation="0,-1"
       id="guide2"
       inkscape:locked="false" />
  </sodipodi:namedview>
  <defs
     id="defs1" />
  <g
     inkscape:label="Calque 1"
     inkscape:groupmode="layer"
     id="layer1"
     transform="translate(-14.552082,-91.810424)">
    <path
       style="font-size:38.1px;line-height:1.25;font-family:'CMU Serif';-inkscape-font-specification:'CMU Serif';text-align:justify;letter-spacing:0px;word-spacing:0px;fill:#9a9a9a;fill-opacity:1;stroke-width:0.211269"
       d="m 50.240068,119.71372 v -11.56067 l -4.685109,-4.32003 9.674447,-9.157272 9.735285,9.157272 -4.776378,4.32003 v 11.56067 z m -0.851838,0.76057 h 11.682344 v -11.8649 l 5.141459,-4.77637 -10.982627,-10.404607 -10.921782,10.465447 5.080606,4.71553 z m 2.677206,-2.70764 v -10.9522 l -3.407353,-3.04228 6.571323,-6.267095 6.63216,6.267095 -3.468198,3.04228 v 10.9522 z m -0.790993,0.69974 h 7.909918 v -11.16518 l 3.894117,-3.52904 -7.849072,-7.423161 -7.788234,7.484011 3.833271,3.46819 z m 4.989338,-2.82933 h -2.129595 v -13.38603 l 1.034374,-1.03437 1.095221,1.09522 z m 0.790984,0.79099 v -14.4204 l -1.886205,-1.88622 -1.794944,1.88622 -0.06085,14.4204 z"
       id="path70"
       sodipodi:nodetypes="cccccccccccccccccccccccccccccccccccccccccccc" />
    <path
       d="m 81.938219,106.05853 h -0.02803 q 0.05613,-0.30874 0.112269,-0.47714 0.05613,-0.1684 0.0842,-0.19647 0.533269,-0.47713 0.870075,-1.57176 0.168404,-0.53326 0.196471,-1.15074 0.02803,-0.61747 -0.05613,-1.31915 -0.112269,-0.95428 -0.196471,-1.627895 -0.0842,-0.673606 -0.140336,-1.094614 l -0.421,-3.031244 q -0.02811,-0.19647 0.392933,-1.992764 0.02811,-0.112269 0.168403,-0.112269 0.140336,0 0.140336,0.112269 0.982345,6.736097 1.768227,8.083317 0.813941,1.37529 2.273429,1.29109 0.05613,0 0.0842,0 -0.0842,-1.31916 -0.112268,-2.77864 0,-0.16841 0.140336,-0.449078 l 0.589411,-1.122681 q 0.05613,-0.05613 0.112269,-0.0842 0.05613,0 0.05613,0.168404 0.05613,1.178815 0.112268,2.189225 0.05613,1.01042 0.112269,1.8805 0.982345,-0.28068 1.74016,-1.01042 0.112261,-0.19647 0.308731,-0.19647 0.224538,0 0.364874,0.22454 0.50521,0.78587 1.684025,1.15075 0.336807,-0.39294 0.645539,-0.72975 0.336806,-0.3368 0.673613,-0.61747 1.992764,-1.684023 3.17158,-1.684023 0.392941,0 1.094613,0.477143 0.673613,0.44907 0.673613,0.92621 0,0.47714 -0.449075,1.29108 -0.449076,0.81395 -0.617479,0.98235 -1.459487,1.03848 -3.817118,1.03848 -0.898143,0 -1.740159,-0.22453 l -0.421009,1.29108 q -0.05613,0.14034 -0.196462,0.1684 -0.280672,0 -0.336807,-0.30874 v -0.0561 q 0.05614,-0.28067 0.140336,-0.5894 0.112269,-0.33681 0.252605,-0.70168 -0.757815,-0.30874 -1.122689,-0.72974 -0.336798,-0.39295 -0.421,-0.39295 -0.0842,0 -0.308739,0.22454 -0.561345,0.53327 -1.206883,0.81394 0.140336,2.07697 0.280664,3.05932 0.50521,3.84519 3.17158,4.09779 -0.505202,-0.72974 -0.505202,-1.76822 0,-1.06656 0.898143,-1.93663 1.992765,-1.9647 3.90132,0.14033 0.19647,0.19647 0.05613,0.36488 -0.112269,0.16839 -0.308731,0.0842 -1.515622,-0.5052 -3.003177,0 -0.757815,0.28067 -0.757815,0.67361 0,0.39294 0.533278,1.26302 0.533269,0.84202 1.375285,0.84202 1.403353,-0.0561 3.059311,-1.03849 0.926211,-0.53327 0.701673,-0.028 l -0.449068,1.06656 q -0.0842,0.25259 -0.729747,0.61747 -1.150748,0.61748 -2.385698,0.92622 -1.23495,0.28066 -2.526042,0.25259 -2.554101,-0.028 -3.368042,-2.32956 -0.05613,0.14034 -0.168404,0.36487 -0.112268,0.19647 -0.252604,0.421 -1.178816,1.7963 -2.217303,1.54369 -0.72974,-0.22453 -1.459487,-0.98234 -2.105026,1.34722 -6.090547,1.34722 -1.43142,0 -2.526042,-0.28068 0.30874,1.45949 0.898151,2.30151 1.43142,1.96469 5.894084,1.96469 4.434597,0 6.483488,-1.48756 0.196471,-0.16839 0.280672,-0.028 0.112269,0.1684 -0.308739,0.58941 0.449075,0.53327 1.291084,0.50521 0.729748,-0.0842 1.768227,-2.1331 0.05613,-0.11227 0.19647,-0.11227 0.168404,0 0.168404,0.22454 l -0.168404,0.67361 q 0.533278,0.56134 1.431421,0.61747 0.449075,-0.0281 0.140336,-1.06655 0,-0.44907 0.252605,-0.67361 0.280672,-0.2526 0.392941,-0.0842 0.112269,0.19647 0.112269,0.84201 0,0.67361 -0.112269,1.12269 -0.280672,1.23495 -0.81395,1.29108 h -0.112268 q -1.066547,0 -1.852429,-0.78587 -0.673605,1.59982 -1.880488,1.62789 -0.757815,0 -1.62789,-0.87009 -1.03848,0.58941 -2.526034,0.87009 -1.459488,0.28066 -3.311916,0.28066 -6.371227,0 -7.241303,-4.32233 -0.0842,1.29109 -0.645546,2.02083 0.757815,0.30874 1.038479,0.87008 0.280672,0.58941 -0.336798,1.8805 -0.168404,0.28067 -0.617479,0.28067 h -0.02803 q -0.926211,0 -1.684026,-0.53328 -0.280672,0.95429 -0.842008,1.26302 -1.206883,0.61748 -2.610236,0.50521 -0.224537,0 -0.224537,-0.16841 0,-0.0842 0.168403,-0.1684 3.115437,-1.26302 3.115437,-2.07696 v -0.2526 q 0,-1.09462 0.589412,-1.51562 0.308739,-0.22454 0.645546,-0.28068 1.122681,-0.78587 1.122681,-2.66637 v -0.22453 l -0.05613,-0.61747 q -1.740159,-0.78589 -2.329563,-2.49798 -0.392941,0.81395 -0.954285,1.03849 -0.50521,0.19646 -1.122681,0.0842 -1.122681,-0.19646 -1.178815,-0.81394 0,-0.2526 0.308731,-0.87008 0.308739,-0.61747 0.449075,-0.75781 0.645547,-0.75781 1.936631,-1.40335 l -0.05613,-0.98235 q 0,-0.30874 0.168404,-0.47714 l 0.308739,-0.33681 q 0.196462,-0.19647 0.252597,0.16841 0,0.0561 0.02803,0.50521 0.02811,0.44907 0.112269,1.29108 0.224538,2.35763 1.93663,3.42418 l -0.280672,-2.86284 v -0.0281 q 0,-0.11227 0.0842,-0.30874 l 0.336806,-0.67362 q 0.0842,-0.1684 0.196471,-0.1684 0.112269,0 0.280672,1.93663 0.0842,0.84201 0.140336,1.45949 0.08419,0.61748 0.140328,1.06655 1.150756,0.421 2.778647,0.421 4.546858,0 6.483488,-1.59982 1.291084,1.68402 2.217302,1.06655 0.954278,-0.61747 1.206883,-1.59982 -0.449076,-2.16117 -0.673614,-5.19241 -0.308731,0.028 -0.645538,0.028 -1.684025,-0.028 -2.778638,-2.16117 -0.0842,1.40336 -0.954286,2.91897 1.459487,0.25261 1.93663,0.58941 0.449076,0.33681 0.449076,0.44908 0.112269,1.37529 -0.81395,2.13309 -2.245361,1.7963 -4.518798,1.7963 -2.273429,0 -3.283849,-1.12268 -1.43142,-1.59983 0.02803,-4.77141 -0.196463,-0.0842 -0.364866,-0.2526 -0.196471,-0.22454 -0.421009,-0.5052 -0.224537,-0.30874 -0.449075,-0.70168 -0.589404,1.62789 -1.936622,1.59982 -1.347219,-0.0561 -1.599824,-1.59982 -0.50521,0.75781 -0.870084,0.84201 -1.206882,0.28067 -2.020823,-0.2526 -0.252605,-0.19647 -0.02803,-0.84202 0.22453,-0.64554 0.982345,-1.31915 0.813941,-0.67361 1.684025,-0.87008 l -0.02803,-0.75781 q 0,-0.449067 0.589403,-1.291084 0.168404,-0.224537 0.196471,0.02803 0,0.19647 0,0.673613 0,0.449067 0.02811,1.178811 0.0842,2.5541 1.178823,2.5541 1.150748,0 1.487555,-0.78587 -0.308739,-1.54369 -0.50521,-2.469906 -0.168403,-0.926211 -0.224538,-1.23495 -0.0842,-0.645538 0.05613,-0.842009 l 0.449075,-0.729747 q 0.168404,-0.252605 0.252597,0.112269 0,0 0.0842,0.561344 0.0842,0.533269 0.252605,1.655958 0.336807,2.301491 0.70168,2.806701 0.645538,1.01041 1.655958,0.72974 0,-0.19647 -0.140336,-0.78587 -0.112269,-0.58942 -0.336806,-1.59983 -0.477143,-2.048892 -0.50521,-2.301497 -0.02811,-0.252597 0.05613,-0.449068 l 0.392941,-0.673613 q 0.05613,-0.0842 0.0842,-0.0842 0.0842,0 0.168403,0.252605 l 0.785874,3.704863 q 0.140336,0.61747 0.196471,1.09461 0.05613,0.47714 0,0.81394 -0.196471,1.8805 -1.094614,1.8805 -0.224537,0 -0.392941,-0.0281 -0.19647,0.39294 -0.252605,0.64555 -0.252597,1.20688 0.30874,2.27343 0.785882,1.45948 3.227714,1.29108 2.441832,-0.1684 4.322328,-1.79629 -0.280672,-0.14034 -0.982345,-0.30873 -0.673613,-0.19648 -1.768227,-0.39295 z m 9.795404,13.6406 q 0,-0.11227 0.392941,-0.0561 0.196471,0.028 0.421008,0.028 0.224538,0 0.505202,0 0.280673,0 0.589412,-0.028 0.308739,-0.0281 0.645546,-0.11227 0.673605,-0.16841 1.936622,-1.26302 1.23495,-1.06655 1.487555,-1.85243 -0.0842,-0.64554 -0.196471,-0.72975 -0.364865,0.61748 -0.785874,0.61748 -1.291084,0 -1.291084,-1.17881 0,-0.56135 0.280672,-1.29109 0.561337,-1.51562 1.291084,-1.51562 0.421001,0 0.898143,0.72974 0.477143,0.72975 0.477143,1.59983 0,2.5541 -1.655958,4.46266 -1.010412,1.17881 -1.740159,1.23495 -0.364874,0.0281 -0.842009,0 -0.477143,-0.0281 -1.122689,-0.14034 -1.291084,-0.22453 -1.291084,-0.44906 z M 80.534866,104.29031 q -0.0842,0.11227 -0.168403,0.11227 -0.0842,0 -0.0842,-0.25261 0,-1.06655 -0.02811,-1.82436 -0.02803,-0.75781 -0.0842,-1.17882 -0.05613,-0.56133 -0.140336,-1.291079 -0.05613,-0.757807 -0.168404,-1.712093 L 79.496347,95.05624 q -0.02803,-0.112269 0,-0.224538 0.02811,-0.140328 0.05613,-0.252597 0.02811,-0.02811 0.02811,-0.05613 l 0.364866,-0.813949 q 0.112269,-0.280673 0.168403,-0.280673 0.0842,0 0.112269,0.252605 l 0.364874,3.98553 q 0.589404,5.360802 -0.05613,6.623822 z m 17.626118,-9.093734 q 0.561345,-0.224538 0.280673,0.252605 l -0.280673,0.449076 q -0.112268,0.19647 -3.031243,1.178815 -1.43142,0.477143 -2.413765,0.813941 -0.982353,0.336807 -1.487555,0.50521 -0.449075,0.168404 -0.112269,-0.308739 l 0.196471,-0.280672 q 0.22453,-0.308732 0.477135,-0.392933 z M 92.042363,93.62482 q 0.533277,-0.196471 0.280672,0.224538 L 92.042363,94.3265 q -0.112269,0.196471 -3.031244,1.178816 -1.43142,0.477142 -2.413765,0.813941 -0.954286,0.336807 -1.459488,0.50521 -0.449075,0.168403 -0.112268,-0.308739 l 0.19647,-0.280665 q 0.196471,-0.280672 0.477135,-0.392941 z m -9.121799,20.06796 q 0.02803,-0.028 0.392941,0.0842 0.30874,0.11227 0.842009,0.56134 0.02803,0.0561 0.02803,0.14033 l -0.757807,1.17882 q -0.02811,0.028 -0.140336,-0.0281 -0.0842,-0.11227 -0.898143,-0.56134 l -0.589412,0.95428 q 0,-0.0842 -0.168403,-0.028 -0.364874,0.028 -1.094613,-0.70167 -0.02811,-0.0281 -0.02811,-0.0842 l 0.757807,-1.12269 q 0.05613,-0.0561 0.364874,0.028 0.30874,0.0842 0.729748,0.42101 z m 14.566807,-11.39524 q -0.813941,-0.72974 -1.599823,-0.72974 -0.785875,0 -1.712085,0.58941 -0.954285,0.61748 -1.234957,0.92621 0.477142,0.0561 1.122688,0.0561 0.673606,0 1.543689,-0.11227 1.74016,-0.22454 1.936623,-0.64555 0,-0.028 -0.05613,-0.0842 z M 74.640782,93.877425 q 0.05613,-0.168403 0.224538,-0.168403 0.140336,0 0.140336,0.19647 0,0.561344 0.392933,0.561344 0.392941,0 0.421009,-0.449075 0.02803,-0.449076 0.252605,-0.449076 0.140336,0.05613 0.140336,0.449076 0,0.421008 -0.252605,1.010412 -0.252605,0.589411 -0.645546,0.589411 -0.421001,0 -0.701673,-0.280672 -0.336807,0.589412 -0.842017,0.589412 -0.729739,0 -0.729739,-0.757815 0,-0.645538 0.112269,-0.982345 0.140336,-0.392941 0.280672,-0.392941 0.140336,0 0.140336,0.196471 l -0.02803,0.280672 q 0,0.168403 0.140328,0.449075 0.140336,0.252597 0.449075,0.08419 0.252605,-0.140328 0.50521,-0.92621 z m -4.687201,15.493025 q 0.0842,0.2526 0.954277,0.2526 0.813949,0 1.094622,-0.22453 -0.112269,-0.42101 -0.252605,-1.17883 -1.543689,0.42101 -1.796294,1.15076 z m 1.796294,-8.27979 q -0.140336,0.028 -0.392941,0.11227 -0.224538,0.0842 -0.50521,0.22454 -0.505202,0.28067 -0.72974,0.58941 0.280672,0.19646 0.870076,0.16839 0.589411,-0.028 0.813949,-0.22453 -0.02811,-0.11226 -0.02811,-0.30874 0,-0.22453 -0.02803,-0.56134 z m 3.031243,16.89638 q -0.533277,-1.01042 -1.571756,-1.01042 -0.364874,0 -0.561344,0.28067 0.982352,0.67361 2.1331,0.72975 z m 22.341387,-3.56452 q -0.449075,-0.75781 -0.954285,-0.0842 0.364874,0.421 0.954285,0.0842 z"
       id="path71"
       style="font-size:38.1px;line-height:1.25;font-family:'Noto Emoji';-inkscape-font-specification:'Noto Emoji';text-align:justify;letter-spacing:0px;word-spacing:0px;fill:#9a9a9a;fill-opacity:1;stroke-width:0.19491" />
    <path
       style="font-size:38.1px;line-height:1.25;font-family:'CMU Serif';-inkscape-font-specification:'CMU Serif';text-align:justify;letter-spacing:0px;word-spacing:0px;fill:#9a9a9a;fill-opacity:1;stroke-width:0.333899"
       d="m 28.09849,120.47429 -3.991143,-3.99114 h -5.587599 v -5.58761 l -3.967666,-3.96766 3.967666,-3.96767 v -5.564114 h 5.564122 l 3.967665,-3.967667 3.967666,3.967667 h 5.658031 v 5.658034 l 3.92071,3.92071 -3.92071,3.9207 v 5.58761 h -5.587601 z m -3.615506,-4.93023 h 7.207533 l 5.047622,-5.04763 v -7.11362 l -5.118053,-5.094568 h -7.160579 l -5.047621,5.047608 v 7.11364 z m 3.592028,-6.08062 c -0.704319,0 -1.314729,-0.25044 -1.83123,-0.75128 -0.500849,-0.5165 -0.751274,-1.13473 -0.751274,-1.8547 0,-0.70434 0.250425,-1.30691 0.751274,-1.80776 0.516501,-0.51651 1.126911,-0.77476 1.83123,-0.77476 0.704319,0 1.306904,0.25825 1.807753,0.77476 0.5165,0.50085 0.774751,1.10342 0.774751,1.80776 0,0.71997 -0.258251,1.3382 -0.774751,1.8547 -0.500849,0.50084 -1.103434,0.75128 -1.807753,0.75128 z m 0,-0.82171 c 0.500849,0 0.915615,-0.17217 1.244297,-0.51651 0.344335,-0.35998 0.516501,-0.78257 0.516501,-1.26776 0,-0.4852 -0.172166,-0.89998 -0.516501,-1.24431 -0.328682,-0.34433 -0.743448,-0.5165 -1.244297,-0.5165 -0.485198,0 -0.899964,0.17217 -1.244297,0.5165 -0.344335,0.34433 -0.516501,0.75911 -0.516501,1.24431 0,0.48519 0.172166,0.90778 0.516501,1.26776 0.344333,0.34434 0.759099,0.51651 1.244297,0.51651 z m 4.836325,-10.353488 3.826802,3.826798 v -3.826798 z m -7.536215,-0.892146 h 5.352826 l -2.676413,-2.676415 z m -6.855374,12.161244 v -5.35282 l -2.676413,2.6764 z m 0.892138,-7.48926 3.779846,-3.779838 h -3.779846 z m 8.686604,17.09148 2.676412,-2.67641 h -5.352826 z m -8.686604,-3.6155 h 3.756368 l -3.756368,-3.75637 z m 17.326253,-3.70943 -3.709414,3.70943 h 3.709414 z m 0.939093,-7.51273 v 5.21196 l 2.605981,-2.60598 z"
       id="path73"
       sodipodi:nodetypes="ccccccccccccccccccccccccccscssscsssscscssscscccccccccccccccccccccccccccccccc" />
    <path
       style="font-size:38.1px;line-height:1.25;font-family:'CMU Serif';-inkscape-font-specification:'CMU Serif';text-align:justify;letter-spacing:0px;word-spacing:0px;fill:#9a9a9a;fill-opacity:1;stroke-width:0.25712"
       d="m 175.28384,93.428421 h 0.37965 c 2.66361,0 5.26094,0.879834 7.79196,2.639509 h -0.10847 l -4.32083,-0.976261 c -4.13402,0 -7.46051,1.868143 -9.97949,5.604431 -1.13294,1.9043 -1.69941,3.97131 -1.69941,6.20102 0,4.41122 2.06098,7.90646 6.18294,10.48569 1.63915,0.85574 3.39882,1.2836 5.27901,1.2836 l 4.64625,-0.90393 v 0.10847 c -1.9284,1.28962 -3.72422,2.0911 -5.38748,2.40447 -0.97626,0.13259 -1.78979,0.19887 -2.44063,0.19887 h -0.50621 c -4.42327,0 -8.06917,-1.91635 -10.93767,-5.74905 -1.59094,-2.31408 -2.38639,-4.87525 -2.38639,-7.68349 0,-5.13438 2.35024,-9.135821 7.05072,-12.004315 2.07303,-1.072678 4.21838,-1.609014 6.43605,-1.609014 z m 8.22585,8.334329 h 0.0542 c 0.0723,0 0.48209,1.21127 1.22935,3.63383 h 3.77846 v 0.0542 l -3.03723,2.27793 c 0.78342,2.25382 1.17513,3.48318 1.17513,3.68807 l -3.19995,-2.24177 -3.05531,2.24177 h -0.0542 v -0.0542 l 1.1932,-3.63383 -3.10956,-2.27794 v -0.0542 h 3.85079 z"
       id="path74"
       sodipodi:nodetypes="ssccccscccccsscscscscccccccccccccc" />
    <path
       style="font-size:38.1px;line-height:1.25;font-family:'CMU Serif';-inkscape-font-specification:'CMU Serif';text-align:justify;letter-spacing:0px;word-spacing:0px;fill:#9a9a9a;fill-opacity:1;stroke-width:0.27499"
       d="m 191.2814,108.9907 c 0,-0.10559 0.0132,-0.23759 0.0396,-0.39598 0.0528,-0.1584 0.1848,-0.36959 0.39599,-0.63358 0.21119,-0.26399 0.47518,-0.39598 0.79197,-0.39598 h 3.12829 v -1.22757 h -3.52428 c -0.55438,0 -0.83157,-0.15839 -0.83157,-0.47517 0,-0.1056 0.0132,-0.2376 0.0396,-0.39599 0.0528,-0.1584 0.18479,-0.36959 0.39599,-0.63357 0.21119,-0.264 0.48838,-0.396 0.83156,-0.396 h 3.32628 c 0.68639,-3.43187 2.30992,-6.124575 4.87063,-8.078101 2.56071,-1.953535 5.35901,-2.930298 8.3949,-2.930298 2.11193,0 4.07865,0.461987 5.90019,1.385954 1.84793,0.923966 2.95669,1.742331 3.32628,2.455111 v 0.118793 c 0,0.343186 -0.14519,0.818373 -0.43558,1.425551 -0.264,0.607178 -0.51479,0.910767 -0.75238,0.910767 -0.1056,0 -0.38279,-0.171597 -0.83157,-0.514784 -0.42239,-0.343186 -0.91076,-0.725971 -1.46514,-1.14836 -0.55439,-0.422382 -1.35956,-0.805166 -2.41552,-1.148353 -1.02957,-0.343194 -2.13832,-0.514784 -3.32628,-0.514784 -2.40231,0 -4.55384,0.73917 -6.45457,2.217518 -1.87433,1.478346 -3.12829,3.418676 -3.76187,5.820986 h 15.44345 c 0.52798,0.0264 0.79198,0.1716 0.79198,0.43559 0,0.13199 -0.066,0.36959 -0.198,0.71277 -0.13199,0.31679 -0.29039,0.52799 -0.47519,0.63358 -0.13199,0.0792 -0.44878,0.11879 -0.95036,0.11879 h -14.88908 v 1.22757 h 14.25549 c 0.58078,0 0.87117,0.14519 0.87117,0.43558 0,0.18479 -0.0528,0.38278 -0.15839,0.59398 -0.1584,0.36958 -0.31679,0.60718 -0.47519,0.71277 -0.15839,0.1056 -0.38278,0.1584 -0.67317,0.1584 h -13.54272 c 0.63358,2.45511 1.90074,4.40863 3.80147,5.86058 1.92712,1.42556 4.07865,2.13833 6.45456,2.13833 3.11509,0 5.83419,-0.97677 8.15731,-2.9303 0.36959,-0.31679 0.63358,-0.47518 0.79197,-0.47518 0.26399,0 0.39599,0.26399 0.39599,0.79197 v 1.10876 c 0,0.39598 -0.1056,0.72597 -0.31679,0.98996 -0.1848,0.26399 -0.68638,0.67318 -1.50475,1.22756 -2.32312,1.53114 -4.83102,2.29672 -7.52373,2.29672 -3.11508,0 -5.95299,-0.98996 -8.51369,-2.9699 -2.53431,-1.97992 -4.13145,-4.65943 -4.79143,-8.0385 h -3.72227 c -0.58078,0 -0.87117,-0.1584 -0.87117,-0.47519 z"
       id="path75"
       sodipodi:nodetypes="scssccsscsscssccscscscscccsccsccsscssccscsssccsccss" />
    <path
       style="font-size:38.1px;line-height:1.25;font-family:'CMU Serif';-inkscape-font-specification:'CMU Serif';text-align:justify;letter-spacing:0px;word-spacing:0px;fill:#9a9a9a;fill-opacity:1;stroke-width:0.26123"
       d="m 221.23489,113.36517 c 0,-0.67711 0.17555,-1.16614 0.52663,-1.46707 0.37618,-0.30093 0.77742,-0.4514 1.20375,-0.4514 0.45141,0 0.85266,0.163 1.20376,0.48901 0.35108,0.30095 0.52664,0.7022 0.52664,1.20376 0,0.47648 -0.16302,0.89027 -0.48903,1.24136 -0.30093,0.32602 -0.70219,0.48902 -1.20375,0.48902 -0.12539,0 -0.33855,-0.0251 -0.63949,-0.0753 0.70218,2.70844 2.5705,4.20058 5.60495,4.47644 v -11.24752 c -0.0251,0 -0.17554,-0.0251 -0.4514,-0.0753 -0.25078,-0.0753 -0.4514,-0.12539 -0.60188,-0.15047 -0.12539,-0.0501 -0.35109,-0.12538 -0.67711,-0.22569 -0.30093,-0.10032 -0.56425,-0.20063 -0.78995,-0.30095 -0.20064,-0.10031 -0.46395,-0.23824 -0.78997,-0.41379 -0.30093,-0.20062 -0.57679,-0.40124 -0.82757,-0.60187 -0.25078,-0.20062 -0.5141,-0.4514 -0.78996,-0.75234 -0.25078,-0.30093 -0.48903,-0.62695 -0.71472,-0.97804 -0.72727,-1.1536 -1.0909,-2.42004 -1.0909,-3.79933 0,-1.855782 0.61441,-3.460779 1.84324,-4.814993 1.2539,-1.379294 2.88397,-2.181801 4.89022,-2.407496 v -1.692777 h 1.16613 v 1.692777 c 1.07837,0.0753 2.03133,0.288393 2.8589,0.639485 0.82758,0.3511 1.47961,0.764882 1.95609,1.24137 0.47649,0.47648 0.85266,1.015666 1.12852,1.617534 0.30093,0.601876 0.50156,1.153591 0.60188,1.655151 0.10031,0.476488 0.15046,0.952968 0.15046,1.429449 0,0.70219 -0.17554,1.19121 -0.52664,1.46707 -0.35109,0.27586 -0.7398,0.41379 -1.16613,0.41379 -0.47649,0 -0.89027,-0.15047 -1.24136,-0.4514 -0.32602,-0.32602 -0.48903,-0.73981 -0.48903,-1.24137 0,-0.476484 0.15047,-0.87773 0.4514,-1.203749 0.32603,-0.351092 0.73981,-0.526641 1.24137,-0.526641 0.15047,0 0.3511,0.02515 0.60187,0.0753 -0.75234,-2.357343 -2.60812,-3.673939 -5.56733,-3.949804 v 10.194244 c 0.0251,0 0.16301,0.0376 0.41379,0.11284 0.25079,0.0501 0.43886,0.10033 0.56426,0.15048 0.12539,0.0252 0.32601,0.0878 0.60187,0.18808 0.30094,0.0753 0.53918,0.16301 0.71473,0.26332 0.20062,0.10031 0.43887,0.22571 0.71472,0.37618 0.30094,0.12539 0.56426,0.28839 0.78996,0.48902 0.22571,0.20062 0.46394,0.42633 0.71473,0.67711 0.25078,0.22569 0.48902,0.50156 0.71472,0.82757 0.22571,0.30094 0.42633,0.62696 0.60187,0.97805 0.60188,1.17866 0.90282,2.43257 0.90282,3.76171 0,1.98117 -0.6395,3.7241 -1.91848,5.22878 -1.2539,1.4796 -2.8589,2.30719 -4.81499,2.48273 v 1.69277 h -1.16613 v -1.69277 c -1.35422,-0.10031 -2.50781,-0.41379 -3.46077,-0.94043 -0.95297,-0.55171 -1.65516,-1.20375 -2.10656,-1.95609 -0.42633,-0.77742 -0.72726,-1.49214 -0.90282,-2.14417 -0.17554,-0.67711 -0.26331,-1.34168 -0.26331,-1.99371 z m 1.95609,-13.767869 c 0,1.078359 0.31347,2.018779 0.94042,2.821289 0.65203,0.77742 1.39184,1.34167 2.21941,1.69277 0.20062,0.10031 0.51411,0.20062 0.94043,0.30093 0.42634,0.10031 0.65203,0.15047 0.67711,0.15047 v -9.855679 c -1.37929,0.150461 -2.52034,0.689639 -3.42316,1.617534 -0.90281,0.927887 -1.35421,2.01878 -1.35421,3.272686 z m 5.9435,19.636139 c 1.47961,-0.20063 2.64574,-0.82757 3.4984,-1.88086 0.85265,-1.05328 1.27898,-2.23194 1.27898,-3.536 0,-1.12852 -0.30094,-2.14419 -0.90282,-3.04699 -0.60187,-0.90281 -1.36675,-1.55484 -2.29464,-1.95609 -0.15047,-0.0753 -0.67711,-0.23825 -1.57992,-0.48903 z"
       id="path76"
       sodipodi:nodetypes="scscscsccccccccsccscccccssccssscscsccccccccscccsccccccccssccsccsscsssccc" />
    <g
       style="fill:#9a9a9a;fill-opacity:1"
       transform="matrix(0.32664312,0,0,0.34342539,53.420631,64.56153)"
       id="g5">
      <path
         d="m 181.25,113.1875 -34.78125,0.0312 39.59375,28.75 5.9375,-4.3125 -24,-17.4375 10.96875,-0.0312 z"
         id="path1"
         style="fill:#9a9a9a;fill-opacity:1" />
      <path
         d="m 202.76559,113.19883 -10.77772,-33.069279 -15.10773,46.540129 5.93622,4.31427 9.16764,-28.21384 3.41925,10.42224 z"
         id="path2"
         style="fill:#9a9a9a;fill-opacity:1" />
      <path
         d="m 209.40356,133.66496 28.12026,-20.46919 -48.93084,0.0134 -2.26872,6.97886 29.66591,3.9e-4 -8.85553,6.47255 z"
         id="path3"
         style="fill:#9a9a9a;fill-opacity:1" />
      <path
         d="m 191.99045,146.30222 28.15699,20.41863 -15.13319,-46.53186 -7.33837,-0.001 9.1669,28.21408 -8.89227,-6.42199 z"
         id="path4"
         style="fill:#9a9a9a;fill-opacity:1" />
      <path
         d="m 174.59078,133.64658 -10.71828,33.08859 39.57802,-28.77166 -2.26665,-6.97954 -24.00046,17.43687 3.35982,-10.44155 z"
         id="path5"
         style="fill:#9a9a9a;fill-opacity:1" />
    </g>
    <text
       xml:space="preserve"
       style="font-style:normal;font-variant:normal;font-weight:500;font-stretch:normal;font-size:32.8647px;line-height:1.25;font-family:'IBM Plex Sans Arabic';-inkscape-font-specification:'IBM Plex Sans Arabic Medium';text-align:center;letter-spacing:0px;word-spacing:0px;text-anchor:middle;fill:#9a9a9a;fill-opacity:1;stroke-width:0.228226"
       x="146.36874"
       y="116.54675"
       id="text1"><tspan
         sodipodi:role="line"
         id="tspan1"
         style="font-style:normal;font-variant:normal;font-weight:500;font-stretch:normal;font-family:'IBM Plex Sans Arabic';-inkscape-font-specification:'IBM Plex Sans Arabic Medium';fill:#9a9a9a;fill-opacity:1;stroke-width:0.228226"
         x="146.36874"
         y="116.54675">@</tspan></text>
  </g>
</svg>
