<?xml version="1.0" encoding="UTF-8" standalone="no"?>
<!-- Created with Inkscape (http://www.inkscape.org/) -->

<svg
   width="358.86099mm"
   height="60.747318mm"
   viewBox="0 0 358.86099 60.747318"
   version="1.1"
   id="svg1"
   inkscape:version="1.4 (e7c3feb100, 2024-10-09)"
   sodipodi:docname="nobreak-space-phonenumber-solution.svg"
   xmlns:inkscape="http://www.inkscape.org/namespaces/inkscape"
   xmlns:sodipodi="http://sodipodi.sourceforge.net/DTD/sodipodi-0.dtd"
   xmlns="http://www.w3.org/2000/svg"
   xmlns:svg="http://www.w3.org/2000/svg">
  <sodipodi:namedview
     id="namedview1"
     pagecolor="#ffffff"
     bordercolor="#666666"
     borderopacity="1.0"
     inkscape:showpageshadow="2"
     inkscape:pageopacity="0.0"
     inkscape:pagecheckerboard="0"
     inkscape:deskcolor="#d1d1d1"
     inkscape:document-units="mm"
     inkscape:zoom="0.672594"
     inkscape:cx="1220.6472"
     inkscape:cy="-106.30484"
     inkscape:window-width="1916"
     inkscape:window-height="964"
     inkscape:window-x="0"
     inkscape:window-y="76"
     inkscape:window-maximized="1"
     inkscape:current-layer="layer1" />
  <defs
     id="defs1" />
  <g
     inkscape:label="Calque 1"
     inkscape:groupmode="layer"
     id="layer1"
     transform="translate(216.42917,-175.41873)">
    <path
       id="rect25"
       style="fill:#111111;fill-rule:evenodd;stroke-width:0.71603;paint-order:markers fill stroke"
       d="m -216.42917,175.41873 h 358.86099 v 60.74732 h -358.86099 z" />
    <g
       id="text26"
       style="font-size:8.31114px;line-height:1.75;font-family:'DejaVu Sans Mono';-inkscape-font-specification:'DejaVu Sans Mono';letter-spacing:0px;word-spacing:2.64583px;direction:rtl;white-space:pre;inline-size:353.08;fill:#ffffff;stroke-width:0.0577162"
       transform="translate(-92.0168,3.17501)"
       aria-label="لما تصل إلى المنزل يمكنك الاتصال بي بالهاتف على الرقم 06 12 34 56 78.">
      <path
         d="m 226.8007,190.12747 q 0,0.72236 -0.35306,1.13223 -0.32466,0.37336 -1.42848,0.37336 h -2.36186 v -0.74671 h 2.1346 q 0.88469,0 1.06325,-0.17856 0.19885,-0.19885 0.19885,-0.62901 v -4.76024 h 0.7467 z m -5.44606,1.29456 q -0.39365,0.41394 -0.95773,0.41394 -0.86845,0 -1.31485,-0.39771 -0.25972,0.1948 -0.68177,0.1948 h -0.74671 v -0.74671 h 0.56815 q 0.21102,0 0.38958,-0.14609 0.1745,-0.14204 0.19479,-0.34089 0.0812,-0.73453 0.62902,-1.05918 0.38147,-0.22726 0.75888,-0.22726 0.29219,0 0.56003,0.11769 0.78322,0.33683 0.85221,1.01454 0.0203,0.19885 0.22726,0.45046 0.15421,0.19073 0.58032,0.19073 h 0.40582 v 0.74671 h -0.62902 q -0.70612,0 -0.83598,-0.21103 z m -1.87488,-0.59655 q 0.25161,0.28001 0.89686,0.28001 0.19073,0 0.26784,-0.073 0.21102,-0.21509 0.21102,-0.4951 0,-0.0771 -0.0203,-0.15015 -0.0893,-0.35712 -0.32465,-0.42611 -0.15827,-0.0487 -0.31654,-0.0487 -0.21509,0 -0.38147,0.10957 -0.18668,0.12175 -0.26378,0.52756 -0.0284,0.15016 -0.069,0.27596 z m -4.36253,-0.69801 v -4.80893 h 0.7467 v 4.76024 q 0,0.43016 0.20291,0.62901 0.17856,0.17856 0.90903,0.17856 h 0.8441 v 0.74671 h -1.07136 q -0.94961,0 -1.27426,-0.37336 -0.35712,-0.40987 -0.35712,-1.13223 z m -12.38951,-2.55259 h 0.60873 v 0.60873 h -0.60873 z m -1.01454,0 h 0.60872 v 0.60873 h -0.60872 z m 0.83192,3.70917 q -0.29219,0.34901 -1.68414,0.34901 h -0.86439 v -0.74671 h 0.64119 q 1.15658,0 1.33514,-0.17856 0.19885,-0.19885 0.19885,-0.62901 v -0.88063 h 0.7467 v 0.88063 q 0,0.75887 -0.37335,1.20527 z m -5.40551,-0.3977 h 0.5235 q 0.56815,0 0.86439,-0.18667 0.43017,-0.27596 0.43017,-0.56003 0,-0.18262 -0.16233,-0.33277 -0.14609,-0.13392 -0.40176,-0.13392 -0.28813,0 -0.71018,0.44234 -0.30436,0.31654 -0.54379,0.77105 z m -0.0933,0.74671 q -0.3003,0 -0.61684,-0.17045 -0.26378,-0.14203 -0.42205,-0.38958 -0.41394,0.56003 -0.68989,0.56003 h -0.32466 v -0.74671 h 0.10552 q 0.1258,0 0.29624,-0.18667 0.18262,-0.20291 0.18262,-0.72236 v -0.46263 h 0.74671 v 0.31654 q 0,0.0974 0.0365,0.25972 0.0365,0.16233 0.21914,0.36524 0.30842,-0.51945 0.50727,-0.76294 0.5925,-0.7183 1.20122,-0.7183 0.69395,0 1.06324,0.33277 0.35306,0.31654 0.35306,0.80758 0,0.21102 -0.1258,0.49916 0.0649,0.0406 0.12175,0.0933 0.18667,0.17856 0.3003,0.17856 h 0.15827 v 0.74671 h -0.23943 q -0.21103,0 -0.62496,-0.38147 l -0.11363,-0.10551 q -0.69801,0.48698 -1.24992,0.48698 z m -2.74736,-6.31452 v 4.76024 q 0,0.43016 0.19885,0.62901 0.17856,0.17856 0.35306,0.17856 h 0.30436 v 0.74671 h -0.52756 q -0.22726,0 -0.5438,-0.20697 -0.0609,0.37741 -0.26784,0.63307 -0.42205,0.51133 -0.94555,0.70207 -0.38147,0.13798 -0.88874,0.13798 -0.40176,0 -0.88468,-0.17045 -0.98208,-0.349 -0.98614,-1.40007 -0.004,-0.56002 0.25567,-0.93338 h 0.7467 q -0.26378,0.46669 -0.26378,0.93338 0,0.51133 0.67366,0.77917 0.16232,0.0649 0.45857,0.0649 0.42611,0 0.76699,-0.13797 0.40176,-0.16639 0.68178,-0.69801 0.12174,-0.23132 0.12174,-1.43254 v -4.58573 z m -14.75543,0 h 0.74671 v 6.31452 h -0.74671 z m -0.32059,7.93779 0.31654,-0.073 q -0.17856,-0.0812 -0.2435,-0.22726 -0.069,-0.15015 -0.0649,-0.33277 0.008,-0.38553 0.22726,-0.56409 0.22726,-0.18667 0.60873,-0.18261 0.24755,0.004 0.46263,0.13392 v 0.40581 q -0.20697,-0.13392 -0.46263,-0.13392 -0.26784,0 -0.33683,0.073 -0.11769,0.12986 -0.11769,0.23538 0,0.31248 0.38147,0.42205 0.13392,0.0406 0.6209,-0.0771 v 0.41393 l -1.39195,0.31248 z m -2.7474,-3.12886 q 0,0.72236 -0.35306,1.13223 -0.32465,0.37336 -1.42847,0.37336 h -2.36186 v -0.74671 h 2.1346 q 0.88468,0 1.06324,-0.17856 0.19885,-0.19885 0.19885,-0.62901 v -4.76024 h 0.7467 z m -5.94522,1.29862 q -0.008,-0.17856 -0.0446,-0.22726 -0.0974,-0.14609 -0.19479,-0.24755 -0.17856,-0.18667 -0.17856,-0.43422 0,-0.31654 0.16639,-0.50727 0.31248,-0.3693 0.66554,-0.43829 0.11769,-0.0243 0.29624,-0.0243 0.52757,0 0.71424,0.56002 0.25973,0.77917 0.3977,0.77917 h 0.14204 v 0.74671 h -0.14204 q -0.51538,0 -0.78728,-0.69801 -0.25972,-0.6696 -0.38147,-0.6696 -0.13798,0.004 -0.20291,0.069 -0.0812,0.073 -0.0812,0.20291 0,0.0122 0.17044,0.29219 0.21508,0.35306 0.21508,0.59655 0,0.33683 -0.31653,0.67366 -0.42205,0.45045 -1.15658,0.55597 -0.56815,0.0812 -0.87657,0.0812 -0.49104,0 -1.08759,-0.14609 -0.92526,-0.22726 -0.97396,-1.03078 -0.0243,-0.37335 0.12175,-0.93338 h 0.72235 q -0.10551,0.32465 -0.10551,0.7954 0.004,0.43017 0.57626,0.53568 0.28001,0.0528 0.73859,0.0528 0.52756,0 0.76293,-0.069 0.51945,-0.15015 0.60061,-0.21103 0.24349,-0.18667 0.23943,-0.30436 z m -13.64754,-6.10755 h 0.74671 v 6.31452 h -0.74671 z m -3.06797,4.80893 q 0,0.72236 -0.35306,1.13223 -0.32466,0.37336 -1.42848,0.37336 h -2.36186 v -0.74671 h 2.1346 q 0.88468,0 1.06324,-0.17856 0.19885,-0.19885 0.19885,-0.62901 v -4.76024 h 0.74671 z m -5.44607,1.29456 q -0.39364,0.41394 -0.95773,0.41394 -0.86844,0 -1.31484,-0.39771 -0.25973,0.1948 -0.68178,0.1948 h -0.7467 v -0.74671 h 0.56814 q 0.21103,0 0.38959,-0.14609 0.1745,-0.14204 0.19479,-0.34089 0.0812,-0.73453 0.62902,-1.05918 0.38147,-0.22726 0.75888,-0.22726 0.29218,0 0.56002,0.11769 0.78323,0.33683 0.85222,1.01454 0.0203,0.19885 0.22726,0.45046 0.15421,0.19073 0.58032,0.19073 h 0.40581 v 0.74671 h -0.62901 q -0.70612,0 -0.83599,-0.21103 z m -1.87487,-0.59655 q 0.2516,0.28001 0.89685,0.28001 0.19074,0 0.26784,-0.073 0.21103,-0.21509 0.21103,-0.4951 0,-0.0771 -0.0203,-0.15015 -0.0893,-0.35712 -0.32466,-0.42611 -0.15827,-0.0487 -0.31653,-0.0487 -0.21509,0 -0.38147,0.10957 -0.18668,0.12175 -0.26378,0.52756 -0.0284,0.15016 -0.069,0.27596 z m -4.2895,0.45857 q -0.30842,0.34901 -1.18093,0.34901 h -1.35949 v -0.74671 h 1.13629 q 0.65742,0 0.83598,-0.17856 0.1948,-0.19885 0.1948,-0.62901 v -0.88063 h 0.7467 v 0.88063 q 0,0.43016 0.20291,0.62901 0.17856,0.17856 0.84004,0.17856 h 1.20934 v 0.74671 h -1.43254 q -0.86845,0 -1.1931,-0.34901 z m -0.29625,-3.70917 h 0.60873 v 0.60873 h -0.60873 z m -4.11904,0.20291 h 0.60873 v 0.60873 h -0.60873 z m -0.004,1.62327 h 0.74671 q 0.12174,0.45452 0.13392,0.57626 0.0406,0.41799 0.33682,0.73047 0.17045,0.17856 0.58032,0.17856 h 0.24349 v 0.74671 h -0.46669 q -0.52756,0 -0.73047,-0.25161 -0.23131,1.02672 -1.43659,1.66791 -1.15252,0.61278 -3.10045,0.61278 v -0.7467 q 1.80589,0 2.69463,-0.51945 1.03484,-0.60466 1.17281,-1.40412 0.0406,-0.23538 0.0406,-0.52757 0,-0.51133 -0.21508,-1.06324 z m -4.45587,1.93575 q 0.12175,-0.23132 0.12175,-1.43254 v -4.58573 h 0.7467 v 4.58573 q 0,1.58269 -0.20291,1.87082 -0.43828,0.63308 -0.84816,0.83193 -0.60872,0.29219 -1.26615,0.29219 -0.40176,0 -0.88468,-0.17045 -0.98208,-0.349 -0.98613,-1.40007 -0.004,-0.56002 0.25566,-0.93338 h 0.7467 q -0.26378,0.46669 -0.26378,0.93338 0,0.51133 0.67366,0.77917 0.16233,0.0649 0.45857,0.0649 0.42611,0 0.767,-0.13797 0.40176,-0.16639 0.68177,-0.69801 z m -13.66377,0.90497 h 0.60872 v 0.60873 h -0.60872 z m -1.01455,0 h 0.60873 v 0.60873 h -0.60873 z m 0.90092,-0.95773 q -0.29219,0.34901 -1.68414,0.34901 h -0.8644 v -0.74671 h 0.6412 q 1.15658,0 1.33514,-0.17856 0.19885,-0.19885 0.19885,-0.62901 v -0.88063 h 0.7467 v 0.88063 q 0,0.75887 -0.37335,1.20527 z m -3.85122,0.13798 q -0.39364,0.41394 -0.95773,0.41394 -0.86845,0 -1.31485,-0.39771 -0.25972,0.1948 -0.68177,0.1948 h -0.7467 v -0.74671 h 0.56814 q 0.21103,0 0.38959,-0.14609 0.1745,-0.14204 0.19479,-0.34089 0.0812,-0.73453 0.62901,-1.05918 0.38147,-0.22726 0.75888,-0.22726 0.29219,0 0.56003,0.11769 0.78323,0.33683 0.85222,1.01454 0.0203,0.19885 0.22726,0.45046 0.15421,0.19073 0.58031,0.19073 h 0.40582 v 0.74671 h -0.62902 q -0.70612,0 -0.83598,-0.21103 z m -1.87488,-0.59655 q 0.25161,0.28001 0.89686,0.28001 0.19074,0 0.26784,-0.073 0.21103,-0.21509 0.21103,-0.4951 0,-0.0771 -0.0203,-0.15015 -0.0893,-0.35712 -0.32465,-0.42611 -0.15827,-0.0487 -0.31654,-0.0487 -0.21508,0 -0.38147,0.10957 -0.18667,0.12175 -0.26378,0.52756 -0.0284,0.15016 -0.069,0.27596 z m -5.07677,0.80758 h -1.75313 v -0.74671 h 1.67197 q 0.59655,0 0.78729,-0.42205 0.0649,-0.14609 0.0649,-0.29219 0,-0.28001 -0.21914,-0.54785 l -1.25804,-1.54211 q -0.20291,-0.24754 -0.20291,-0.57626 0,-0.12174 0.0406,-0.27595 0.12174,-0.47887 0.54379,-0.65337 l 3.0274,-1.25803 v 0.75482 l -2.41867,1.01454 q -0.28408,0.12175 -0.37336,0.28407 -0.0243,0.0446 -0.0243,0.1461 0,0.12986 0.12986,0.28001 l 2.36185,2.86101 q 0.0893,0.10552 0.24349,0.16233 0.17856,0.0649 0.43829,0.0649 h 0.35712 v 0.74671 h -0.53568 q -0.26784,0 -0.50322,-0.0974 -0.41393,-0.1745 -0.55191,-0.34089 l -0.38958,-0.48698 q -0.0893,0.18668 -0.15421,0.29625 -0.38959,0.62902 -1.28239,0.62902 z m -4.21643,-0.34901 q -0.30842,0.34901 -1.18093,0.34901 h -1.35949 v -0.74671 h 1.13629 q 0.65742,0 0.83598,-0.17856 0.19479,-0.19885 0.19479,-0.62901 v -0.88063 h 0.74671 v 0.88063 q 0,0.43016 0.20291,0.62901 0.17856,0.17856 0.84004,0.17856 h 1.20934 v 0.74671 h -1.43254 q -0.86845,0 -1.1931,-0.34901 z m -0.29625,-3.70917 h 0.60873 v 0.60873 h -0.60873 z m -5.007796,-0.40581 v 0.33277 q -0.300305,0.0162 -0.454516,0.073 -0.324654,0.12175 -0.324654,0.25567 0,0.11363 0.05682,0.18667 0.0487,0.0649 0.324654,0.10552 0.413933,0.0609 0.413933,0.41799 0,0.4464 -0.357119,0.61684 -0.33277,0.15827 -0.649308,0.15827 -0.267839,0 -0.495097,-0.0446 v -0.35712 q 0.275956,0.0406 0.458574,0.0406 0.24349,0 0.474806,-0.10551 0.24349,-0.10551 0.24349,-0.22726 0,-0.15421 -0.316537,-0.2232 -0.300305,-0.0649 -0.373352,-0.17856 -0.129862,-0.19073 -0.125804,-0.37741 0.0081,-0.32871 0.31248,-0.48292 0.344945,-0.1745 0.811635,-0.19073 z m 2.138656,-1.85053 v 4.76024 q 0,0.43016 0.19885,0.62901 0.17856,0.17856 0.28407,0.17856 h 0.30437 v 0.74671 h -0.52757 q -0.32465,0 -0.78322,-0.49916 -0.3693,0.31654 -0.68989,0.49916 -0.417995,0.21508 -1.225571,0.2232 -0.702064,0.008 -1.363547,-0.2232 -0.880623,-0.30842 -0.880623,-1.05513 0,-0.30436 0.06493,-0.51944 h 0.746704 q -0.05681,0.23537 -0.05681,0.41393 0,0.37741 0.624959,0.56003 0.491039,0.14203 0.8441,0.14203 0.474806,0 0.872507,-0.15421 0.328715,-0.14203 0.629015,-0.52756 0.21103,-0.2719 0.21103,-1.3392 v -3.83497 z m -14.824396,0 h 0.746704 v 6.31452 h -0.746704 z m -2.852907,2.93 q 0,1.21745 -0.564086,2.10213 -0.223199,0.34495 -0.535679,0.63308 -0.831925,0.73047 -1.473117,0.73047 -0.430166,0 -0.734529,-0.12986 v -0.74671 q 0.389584,0.12987 0.734529,0.12987 0.458574,0 1.010485,-0.61685 l -1.988505,-4.43964 h 0.726413 l 1.728782,3.89179 q 0.117687,-0.1745 0.198851,-0.3977 0.150152,-0.55597 0.150152,-1.30267 v -2.78391 h 0.746704 z m -6.63105,-0.67366 h 0.608726 v 0.60873 h -0.608726 z m -1.014544,0 h 0.608726 v 0.60873 h -0.608726 z m 0.831926,3.70917 q -0.292189,0.34901 -1.684142,0.34901 h -0.864391 v -0.74671 h 0.641191 q 1.15658,0 1.335139,-0.17856 0.198851,-0.19885 0.198851,-0.62901 v -0.88063 h 0.746704 v 0.88063 q 0,0.75887 -0.373352,1.20527 z m -5.40549,-0.3977 h 0.523504 q 0.568144,0 0.864391,-0.18667 0.430167,-0.27596 0.430167,-0.56003 0,-0.18262 -0.162327,-0.33277 -0.146095,-0.13392 -0.40176,-0.13392 -0.28813,0 -0.71018,0.44234 -0.304363,0.31654 -0.543795,0.77105 z m -0.09334,0.74671 q -0.300305,0 -0.616843,-0.17045 -0.263781,-0.14203 -0.42205,-0.38958 -0.413934,0.56003 -0.689889,0.56003 h -0.324654 v -0.74671 h 0.105512 q 0.125804,0 0.296247,-0.18667 0.182618,-0.20291 0.182618,-0.72236 v -0.46263 h 0.746704 v 0.31654 q 0,0.0974 0.03652,0.25972 0.03652,0.16233 0.219142,0.36524 0.308421,-0.51945 0.507271,-0.76294 0.592494,-0.7183 1.20122,-0.7183 0.693948,0 1.063241,0.33277 0.353062,0.31654 0.353062,0.80758 0,0.21102 -0.125804,0.49916 0.06493,0.0406 0.121745,0.0933 0.186676,0.17856 0.300305,0.17856 h 0.158269 v 0.74671 h -0.239432 q -0.211025,0 -0.624959,-0.38147 l -0.113629,-0.10551 q -0.698006,0.48698 -1.249917,0.48698 z m -4.589797,-1.50559 v -4.80893 h 0.746704 v 4.76024 q 0,0.43016 0.202908,0.62901 0.17856,0.17856 0.909031,0.17856 h 0.8441 v 0.74671 H 68.41878 q -0.949613,0 -1.274267,-0.37336 -0.357119,-0.40987 -0.357119,-1.13223 z m -3.798453,1.20934 q 0.121745,-0.23132 0.121745,-1.43254 v -4.58573 h 0.746704 v 4.58573 q 0,1.58269 -0.202909,1.87082 -0.438283,0.63308 -0.848158,0.83193 -0.608726,0.29219 -1.266151,0.29219 -0.401759,0 -0.884681,-0.17045 -0.982079,-0.349 -0.986137,-1.40007 -0.0041,-0.56002 0.255665,-0.93338 h 0.746704 q -0.263781,0.46669 -0.263781,0.93338 0,0.51133 0.673657,0.77917 0.162327,0.0649 0.458573,0.0649 0.426109,0 0.766995,-0.13797 0.40176,-0.16639 0.681774,-0.69801 z m -13.777404,-0.0528 q -0.292189,0.34901 -1.684143,0.34901 h -0.864391 v -0.74671 h 0.641192 q 1.156579,0 1.335139,-0.17856 0.198851,-0.19885 0.198851,-0.62901 v -0.88063 h 0.746704 v 0.88063 q 0,0.75887 -0.373352,1.20527 z m -0.422051,0.95773 h 0.608727 v 0.60873 h -0.608727 z m -3.928307,-0.81569 q -0.0081,-0.17856 -0.04464,-0.22726 -0.0974,-0.14609 -0.194793,-0.24755 -0.178559,-0.18667 -0.178559,-0.43422 0,-0.31654 0.166385,-0.50727 0.312479,-0.3693 0.66554,-0.43829 0.117687,-0.0243 0.296247,-0.0243 0.527562,0 0.714238,0.56002 0.259724,0.77917 0.397701,0.77917 h 0.142037 v 0.74671 h -0.142037 q -0.515388,0 -0.787285,-0.69801 -0.259723,-0.6696 -0.381469,-0.6696 -0.137977,0.004 -0.202908,0.069 -0.08116,0.073 -0.08116,0.20291 0,0.0122 0.170444,0.29219 0.215083,0.35306 0.215083,0.59655 0,0.33683 -0.316538,0.67366 -0.42205,0.45045 -1.156579,0.55597 -0.568145,0.0812 -0.876566,0.0812 -0.491039,0 -1.08759,-0.14609 -0.925264,-0.22726 -0.973962,-1.03078 -0.02435,-0.37335 0.121745,-0.93338 h 0.722355 q -0.105513,0.32465 -0.105513,0.7954 0.0041,0.43017 0.576261,0.53568 0.280014,0.0528 0.738588,0.0528 0.527562,0 0.762936,-0.069 0.519447,-0.15015 0.60061,-0.21103 0.243491,-0.18667 0.239432,-0.30436 z m -1.327022,1.62733 h 0.608726 v 0.60872 h -0.608726 z m -1.014544,0 h 0.608726 v 0.60872 h -0.608726 z m -10.965089,-1.76937 q -0.292189,0.34901 -1.684143,0.34901 H 29.00599 v -0.74671 h 0.641192 q 1.156579,0 1.335139,-0.17856 0.198851,-0.19885 0.198851,-0.62901 v -0.88063 h 0.746704 v 0.88063 q 0,0.75887 -0.373352,1.20527 z m -0.42205,0.95773 H 31.7412 v 0.60873 h -0.608726 z m -4.662845,-2.11431 v -4.80893 h 0.746704 v 4.76024 q 0,0.43016 0.202909,0.62901 0.17856,0.17856 0.909031,0.17856 h 0.8441 v 0.74671 h -1.071358 q -0.949612,0 -1.274266,-0.37336 -0.35712,-0.40987 -0.35712,-1.13223 z m -3.327697,0 q 0,0.72236 -0.353061,1.13223 -0.324654,0.37336 -1.428477,0.37336 h -2.361857 v -0.74671 h 2.134599 q 0.884682,0 1.063242,-0.17856 0.19885,-0.19885 0.19885,-0.62901 v -4.76024 h 0.746704 z m -7.101807,0.75888 h 0.07711 q 0.170443,0 0.560028,-0.30842 0.462632,-0.36523 0.462632,-0.57626 0,-0.45451 -0.340887,-0.45451 -0.304363,0 -0.604668,0.5722 -0.154211,0.29219 -0.154211,0.76699 z m -0.746704,0 q 0.03652,-1.07947 0.560028,-1.5908 0.438283,-0.43423 0.961788,-0.43423 0.560028,0 0.840042,0.40176 0.186676,0.2719 0.186676,0.73453 0,0.45046 -0.661483,0.88874 h 1.980389 v 0.74671 h -1.980389 q 0.661483,0.43828 0.661483,0.88874 0,0.46263 -0.186676,0.73453 -0.280014,0.40176 -0.840042,0.40176 -0.523505,0 -0.961788,-0.43423 -0.523504,-0.51945 -0.560028,-1.5908 h -1.298615 v -0.74671 z m 0.746704,0.74671 q 0,0.4748 0.154211,0.76699 0.300305,0.5722 0.604668,0.5722 0.340887,0 0.340887,-0.45451 0,-0.21103 -0.462632,-0.57626 -0.389585,-0.30842 -0.560028,-0.30842 z m -4.58168,-1.50559 v -4.80893 h 0.746704 v 4.76024 q 0,0.43016 0.202908,0.62901 0.17856,0.17856 0.909031,0.17856 h 0.8441 v 0.74671 h -1.071357 q -0.949613,0 -1.274267,-0.37336 -0.357119,-0.40987 -0.357119,-1.13223 z m -4.7399383,-2.55259 h 0.608726 v 0.60873 h -0.608726 z m -1.0145435,0 h 0.6087261 v 0.60873 H 5.7039632 Z m 0.8319256,3.70917 q -0.2921885,0.34901 -1.6841421,0.34901 h -0.864391 v -0.74671 h 0.6411914 q 1.1565796,0 1.3351392,-0.17856 0.1988505,-0.19885 0.1988505,-0.62901 v -0.88063 h 0.746704 v 0.88063 q 0,0.75887 -0.373352,1.20527 z m -4.3950047,-4.11498 h 0.6087261 v 0.60872 H 2.1408841 Z m 0.5072718,4.31789 q -0.2475486,0.13392 -0.7264131,0.28002 -0.7385877,0.22725 -1.24180124,0.23537 -0.56408617,0.008 -1.02265982,-0.15421 -1.19310314,-0.41799 -1.20121944,-1.48935 0,-0.56003 0.2597231,-0.93338 h 0.746704 q -0.26783948,0.38147 -0.26783948,0.93338 0,0.50727 0.68988956,0.78729 0.28813034,0.11768 0.81975112,0.11768 0.4545155,0 1.0672997,-0.23537 -0.1379779,-0.10957 -0.2556649,-0.28813 -0.3327703,-0.50322 -0.3327703,-0.9415 0,-0.15827 0.016233,-0.2719 0.08928,-0.62901 0.8522165,-0.93338 0.2353741,-0.0933 0.4463991,-0.0933 0.3327703,0 0.6614824,0.20291 0.5640861,0.34088 0.6290169,0.94555 0.016233,0.15015 0.016233,0.2719 0,0.53162 -0.3246539,0.96178 0.036524,0.004 0.064931,0.004 h 0.6046679 v 0.74671 H 3.5247214 q -0.4261082,0 -0.8765655,-0.1461 z m 0,-0.75888 q 0.4220501,-0.26378 0.4220501,-0.70612 0,-0.0812 -0.020291,-0.19073 -0.056814,-0.28813 -0.2678395,-0.4464 -0.1379779,-0.10146 -0.3003049,-0.10146 -0.097396,0 -0.1866759,0.0406 -0.2475487,0.10145 -0.324654,0.34494 -0.024349,0.0771 -0.024349,0.15015 0,0.1745 0.1663851,0.44234 0.1988505,0.31654 0.535679,0.46669 z m -15.9891089,0.15827 q 0.653366,0 1.473117,-0.37741 -0.304363,-0.0974 -0.515388,-0.33683 -0.357119,-0.40581 -0.357119,-0.97396 0,-1.07136 0.827867,-1.57863 0.507272,-0.31248 1.525874,-0.31248 v 0.68583 q -0.884682,0 -1.262092,0.28002 -0.37741,0.27595 -0.37741,0.7954 0,0.51539 0.251606,0.72641 0.336829,0.28408 0.620901,0.28408 0.227258,0 0.523504,-0.13392 l 1.1687544,-0.52351 v 0.74671 l -1.7044334,0.79946 q -1.42036,0.66554 -2.142715,0.66554 h -0.361178 v -0.74671 z m -2.75144,0.3977 q -0.308422,0.34901 -1.412245,0.34901 h -1.168754 v -0.74671 h 0.949613 q 0.884682,0 1.063241,-0.17856 0.194793,-0.19885 0.194793,-0.62901 v -4.76024 h 0.746704 v 4.76024 q 0,0.43016 0.202908,0.62901 0.17856,0.17856 1.063242,0.17856 h 0.945554 v 0.74671 h -1.172812 q -1.08759,0 -1.412244,-0.34901 z m -4.382827,0.14204 q -0.0081,-0.17856 -0.04464,-0.22726 -0.0974,-0.14609 -0.194792,-0.24755 -0.17856,-0.18667 -0.17856,-0.43422 0,-0.31654 0.166386,-0.50727 0.312479,-0.3693 0.66554,-0.43829 0.117687,-0.0243 0.296247,-0.0243 0.527562,0 0.714238,0.56002 0.259723,0.77917 0.397701,0.77917 h 0.142036 v 0.74671 H -18.6531 q -0.515388,0 -0.787285,-0.69801 -0.259723,-0.6696 -0.381469,-0.6696 -0.137978,0.004 -0.202908,0.069 -0.08116,0.073 -0.08116,0.20291 0,0.0122 0.170443,0.29219 0.215084,0.35306 0.215084,0.59655 0,0.33683 -0.316538,0.67366 -0.42205,0.45045 -1.156579,0.55597 -0.568145,0.0812 -0.876566,0.0812 -0.491039,0 -1.087591,-0.14609 -0.925263,-0.22726 -0.973961,-1.03078 -0.02435,-0.37335 0.121745,-0.93338 h 0.722355 q -0.105513,0.32465 -0.105513,0.7954 0.0041,0.43017 0.576261,0.53568 0.280014,0.0528 0.738588,0.0528 0.527562,0 0.762936,-0.069 0.519447,-0.15015 0.60061,-0.21103 0.243491,-0.18667 0.239432,-0.30436 z m -13.647542,-6.10755 h 0.746704 v 6.31452 h -0.746704 z m -3.067979,4.80893 q 0,0.72236 -0.353061,1.13223 -0.324654,0.37336 -1.428477,0.37336 h -2.361858 v -0.74671 h 2.1346 q 0.884682,0 1.063241,-0.17856 0.198851,-0.19885 0.198851,-0.62901 v -4.76024 h 0.746704 z m -6.02233,-0.72641 h 0.746704 q 0.121746,0.45452 0.13392,0.57626 0.04058,0.41799 0.336829,0.73047 0.170443,0.17856 0.580318,0.17856 h 0.243491 v 0.74671 h -0.46669 q -0.527563,0 -0.730471,-0.25161 -0.231316,1.02672 -1.436594,1.66791 -1.152521,0.61278 -3.100445,0.61278 v -0.7467 q 1.805888,0 2.694628,-0.51945 1.034834,-0.60466 1.172812,-1.40412 0.04058,-0.23538 0.04058,-0.52757 0,-0.51133 -0.215084,-1.06324 z m -5.62057,0.0528 q 0.166385,-0.1745 0.166385,-0.48698 0,-0.23944 -0.26784,-0.4464 -0.125803,-0.10146 -0.304363,-0.0974 -0.211025,0.004 -0.373352,0.1745 -0.162327,0.16639 -0.166385,0.37335 0,0.32466 0.2232,0.47887 0.162327,0.10145 0.33277,0.10145 0.292188,0 0.389585,-0.0974 z m -2.507952,1.43253 h 0.97802 q 0.340887,0 0.953671,-0.0933 0.320596,-0.0487 0.564086,-0.4261 0.125803,-0.1948 0.186676,-0.3977 -0.255665,0.22319 -0.649308,0.23131 -0.527562,0.008 -0.8441,-0.2719 -0.397701,-0.35306 -0.397701,-0.87656 0,-0.21103 0.03247,-0.38959 0.09334,-0.60061 0.702065,-0.88062 0.316537,-0.14609 0.624958,-0.14609 0.365236,0 0.633075,0.2029 0.389585,0.29219 0.576261,0.70613 0.09334,0.20696 0.09334,0.77511 0,0.8441 -0.316537,1.42442 -0.300305,0.55191 -0.803519,0.73047 -0.442341,0.15827 -1.030776,0.15827 h -1.302674 z m 2.313159,-4.52892 h 0.608726 v 0.60873 h -0.608726 z m -1.014543,0 h 0.608726 v 0.60873 h -0.608726 z m -4.094698,4.59385 q 0.495097,0.17045 0.803518,0.17045 0.17856,0 0.263782,-0.0893 0.215083,-0.23132 0.215083,-0.46669 0,-0.0974 -0.02435,-0.17856 -0.08522,-0.35712 -0.324654,-0.42611 -0.162327,-0.0487 -0.349003,-0.0487 -0.239432,0 -0.349003,0.10957 -0.275956,0.27596 -0.275956,0.55191 0,0.16233 0.04058,0.37741 z m 1.77748,0.47075 q -0.06087,0.0568 -0.113629,0.0893 -0.539737,0.32466 -0.8441,0.32466 -0.852216,0 -1.306732,-0.31654 -0.142036,-0.10146 -0.438283,0.20291 -0.101454,0.10551 -0.101454,0.4261 v 1.48124 h -0.811635 v -1.48124 q 0,-0.70206 0.486981,-1.11599 0.263781,-0.2232 0.560028,-0.2232 -0.0081,-0.17045 -0.0081,-0.33277 0,-0.60061 0.657424,-1.13629 0.312479,-0.25567 0.685831,-0.25567 0.292189,0 0.633075,0.1461 0.68989,0.28813 0.852217,1.01454 0.05681,0.25972 0.223199,0.45046 0.166386,0.19073 0.580319,0.19073 h 0.125804 v 0.74671 h -0.349003 q -0.702064,0 -0.831926,-0.21103 z"
         id="path1" />
      <path
         style="fill:#84f801"
         d="m 149.06677,203.13392 q 0,-0.2232 0.15421,-0.38553 0.15827,-0.16232 0.37741,-0.16232 0.22726,0 0.38958,0.16232 0.16233,0.16233 0.16233,0.38553 0,0.22726 -0.16233,0.38553 -0.15826,0.15826 -0.38958,0.15826 -0.22726,0 -0.38147,-0.15421 -0.15015,-0.15421 -0.15015,-0.38958 z m 0.53974,-2.47549 q -0.57221,0 -0.85628,0.61685 -0.28001,0.61684 -0.28001,1.87893 0,1.25803 0.28001,1.87488 0.28407,0.61684 0.85628,0.61684 0.57626,0 0.85627,-0.61684 0.28407,-0.61685 0.28407,-1.87488 0,-1.26209 -0.28407,-1.87893 -0.28001,-0.61685 -0.85627,-0.61685 z m 0,-0.64931 q 0.9699,0 1.465,0.79541 0.49915,0.7954 0.49915,2.34968 0,1.55022 -0.49915,2.34562 -0.4951,0.79541 -1.465,0.79541 -0.96991,0 -1.465,-0.79541 -0.4951,-0.7954 -0.4951,-2.34562 0,-1.55428 0.4951,-2.34968 0.49509,-0.79541 1.465,-0.79541 z m 6.52554,0.2435 v 0.75482 q -0.25567,-0.15016 -0.5438,-0.22726 -0.28813,-0.0812 -0.60061,-0.0812 -0.77916,0 -1.18092,0.58844 -0.40176,0.58438 -0.40176,1.72472 0.19479,-0.40581 0.53973,-0.6209 0.34495,-0.21914 0.79135,-0.21914 0.87656,0 1.35543,0.53974 0.48292,0.53568 0.48292,1.52181 0,0.98208 -0.4951,1.52182 -0.49509,0.53974 -1.39195,0.53974 -1.05513,0 -1.54616,-0.75482 -0.49104,-0.75888 -0.49104,-2.38621 0,-1.53399 0.58843,-2.33751 0.59249,-0.80758 1.71255,-0.80758 0.30031,0 0.60061,0.0649 0.30031,0.0609 0.58032,0.17856 z m -1.46094,2.5607 q -0.52351,0 -0.82381,0.37741 -0.30031,0.37741 -0.30031,1.04295 0,0.66554 0.30031,1.04295 0.3003,0.37741 0.82381,0.37741 0.54379,0 0.81975,-0.35711 0.27595,-0.36118 0.27595,-1.06325 0,-0.70612 -0.27595,-1.06324 -0.27596,-0.35712 -0.81975,-0.35712 z m 11.18828,2.67434 h 1.27427 v -4.63038 l -1.37166,0.30842 v -0.7467 l 1.36354,-0.3003 h 0.81975 v 5.36896 h 1.25804 v 0.68989 h -3.34394 z m 5.42172,0 h 2.78391 v 0.68989 h -3.68076 v -0.68989 q 0.75888,-0.79946 1.32702,-1.41224 0.56814,-0.61279 0.78323,-0.8644 0.40582,-0.49509 0.54785,-0.79946 0.14204,-0.30842 0.14204,-0.62901 0,-0.50727 -0.30031,-0.79541 -0.29624,-0.28813 -0.81569,-0.28813 -0.36929,0 -0.77511,0.13392 -0.40582,0.13392 -0.86033,0.40582 v -0.82787 q 0.41799,-0.19885 0.81975,-0.3003 0.40581,-0.10146 0.79946,-0.10146 0.88874,0 1.42847,0.47481 0.5438,0.47075 0.5438,1.23774 0,0.38959 -0.18262,0.77917 -0.17856,0.38959 -0.58438,0.86034 -0.22725,0.26378 -0.66148,0.73047 -0.43016,0.46669 -1.31485,1.39601 z m 14.28873,-2.55259 q 0.59655,0.15827 0.91309,0.56408 0.31654,0.40176 0.31654,1.00643 0,0.83599 -0.56409,1.31485 -0.56003,0.47481 -1.55428,0.47481 -0.41799,0 -0.85221,-0.0771 -0.43423,-0.0771 -0.85222,-0.2232 v -0.81569 q 0.41393,0.21508 0.81569,0.32059 0.40176,0.10552 0.79946,0.10552 0.67366,0 1.03484,-0.30437 0.36117,-0.30436 0.36117,-0.87656 0,-0.52756 -0.36117,-0.83599 -0.36118,-0.31248 -0.97802,-0.31248 h -0.62496 v -0.67365 h 0.62496 q 0.56408,0 0.88062,-0.24755 0.31654,-0.24755 0.31654,-0.68989 0,-0.46669 -0.29625,-0.71424 -0.29219,-0.25161 -0.83598,-0.25161 -0.36118,0 -0.74671,0.0812 -0.38552,0.0812 -0.80757,0.24349 v -0.75482 q 0.49104,-0.12986 0.8725,-0.19479 0.38553,-0.0649 0.68178,-0.0649 0.88468,0 1.41224,0.4464 0.53162,0.44235 0.53162,1.17687 0,0.49916 -0.28001,0.83193 -0.27596,0.33277 -0.80758,0.47075 z m 4.83735,-2.06967 -1.9114,3.2019 h 1.9114 z m -0.13392,-0.7467 h 0.94961 v 3.9486 h 0.80758 v 0.66554 h -0.80758 v 1.44471 h -0.81569 v -1.44471 h -2.56883 v -0.77511 z m 10.64449,0 h 3.06798 v 0.68989 h -2.32128 v 1.48934 q 0.1745,-0.0649 0.349,-0.0933 0.17856,-0.0325 0.35712,-0.0325 0.9415,0 1.49341,0.55597 0.55191,0.55597 0.55191,1.50558 0,0.95773 -0.58032,1.50964 -0.57626,0.55192 -1.57862,0.55192 -0.48293,0 -0.88469,-0.0649 -0.3977,-0.0649 -0.71424,-0.1948 v -0.83192 q 0.37336,0.20291 0.75077,0.30436 0.37741,0.0974 0.77105,0.0974 0.67771,0 1.04295,-0.35712 0.36929,-0.35712 0.36929,-1.01455 0,-0.6493 -0.38146,-1.01048 -0.37741,-0.36118 -1.05513,-0.36118 -0.32871,0 -0.64119,0.0771 -0.31248,0.073 -0.59655,0.2232 z m 8.18533,0.13392 v 0.75482 q -0.25566,-0.15016 -0.54379,-0.22726 -0.28813,-0.0812 -0.60061,-0.0812 -0.77917,0 -1.18093,0.58844 -0.40176,0.58438 -0.40176,1.72472 0.19479,-0.40581 0.53974,-0.6209 0.34494,-0.21914 0.79134,-0.21914 0.87657,0 1.35543,0.53974 0.48292,0.53568 0.48292,1.52181 0,0.98208 -0.49509,1.52182 -0.4951,0.53974 -1.39196,0.53974 -1.05512,0 -1.54616,-0.75482 -0.49104,-0.75888 -0.49104,-2.38621 0,-1.53399 0.58844,-2.33751 0.59249,-0.80758 1.71254,-0.80758 0.30031,0 0.60061,0.0649 0.30031,0.0609 0.58032,0.17856 z m -1.46094,2.5607 q -0.5235,0 -0.82381,0.37741 -0.3003,0.37741 -0.3003,1.04295 0,0.66554 0.3003,1.04295 0.30031,0.37741 0.82381,0.37741 0.5438,0 0.81975,-0.35711 0.27596,-0.36118 0.27596,-1.06325 0,-0.70612 -0.27596,-1.06324 -0.27595,-0.35712 -0.81975,-0.35712 z m 10.65667,-2.69462 h 3.81468 v 0.349 l -2.16706,5.70985 h -0.85628 l 2.11025,-5.36896 h -2.90159 z m 6.93947,3.1816 q -0.54785,0 -0.84816,0.30843 -0.29624,0.30436 -0.29624,0.86439 0,0.56002 0.3003,0.8725 0.30436,0.30842 0.8441,0.30842 0.55191,0 0.84816,-0.30436 0.3003,-0.30842 0.3003,-0.87656 0,-0.55597 -0.30436,-0.86439 -0.3003,-0.30843 -0.8441,-0.30843 z m -0.71424,-0.34088 q -0.5235,-0.13392 -0.81975,-0.49916 -0.29219,-0.36523 -0.29219,-0.88062 0,-0.72236 0.49104,-1.14441 0.49104,-0.42611 1.33514,-0.42611 0.84816,0 1.3392,0.42611 0.49104,0.42205 0.49104,1.14441 0,0.51539 -0.29625,0.88062 -0.29219,0.36524 -0.81569,0.49916 0.60872,0.13392 0.92932,0.53973 0.32465,0.40582 0.32465,1.05107 0,0.81975 -0.5235,1.28238 -0.52351,0.46264 -1.44877,0.46264 -0.92526,0 -1.44877,-0.45858 -0.51944,-0.46263 -0.51944,-1.27832 0,-0.64931 0.32059,-1.05513 0.32466,-0.40987 0.93338,-0.54379 z m -0.29624,-1.30268 q 0,0.48698 0.25972,0.74265 0.25972,0.25566 0.75076,0.25566 0.4951,0 0.75482,-0.25566 0.25972,-0.25567 0.25972,-0.74265 0,-0.49509 -0.25972,-0.75482 -0.25566,-0.25972 -0.75482,-0.25972 -0.49104,0 -0.75076,0.26378 -0.25972,0.25972 -0.25972,0.75076 z"
         id="path2" />
      <path
         d="m 144.08739,204.93981 h 1.02266 v 1.23774 h -1.02266 z"
         id="path3" />
    </g>
  </g>
</svg>
