<?xml version="1.0" encoding="UTF-8" standalone="no"?>
<!-- Created with Inkscape (http://www.inkscape.org/) -->

<svg
   width="358.86099mm"
   height="60.747318mm"
   viewBox="0 0 358.86099 60.747318"
   version="1.1"
   id="svg1"
   inkscape:version="1.4 (e7c3feb100, 2024-10-09)"
   sodipodi:docname="nobreak-space-phonenumber-problem.svg"
   xmlns:inkscape="http://www.inkscape.org/namespaces/inkscape"
   xmlns:sodipodi="http://sodipodi.sourceforge.net/DTD/sodipodi-0.dtd"
   xmlns="http://www.w3.org/2000/svg"
   xmlns:svg="http://www.w3.org/2000/svg">
  <sodipodi:namedview
     id="namedview1"
     pagecolor="#ffffff"
     bordercolor="#666666"
     borderopacity="1.0"
     inkscape:showpageshadow="2"
     inkscape:pageopacity="0.0"
     inkscape:pagecheckerboard="0"
     inkscape:deskcolor="#d1d1d1"
     inkscape:document-units="mm"
     inkscape:zoom="0.672594"
     inkscape:cx="138.27064"
     inkscape:cy="57.24107"
     inkscape:window-width="1916"
     inkscape:window-height="964"
     inkscape:window-x="0"
     inkscape:window-y="76"
     inkscape:window-maximized="1"
     inkscape:current-layer="layer1" />
  <defs
     id="defs1" />
  <g
     inkscape:label="Calque 1"
     inkscape:groupmode="layer"
     id="layer1"
     transform="translate(193.93959,-133.34999)">
    <path
       id="rect24"
       style="fill:#111111;fill-rule:evenodd;stroke-width:0.71603;paint-order:markers fill stroke"
       d="M -193.93959,133.34999 H 164.9214 v 60.74732 h -358.86099 z" />
    <g
       id="text25"
       style="font-size:8.31114px;line-height:1.75;font-family:'DejaVu Sans Mono';-inkscape-font-specification:'DejaVu Sans Mono';letter-spacing:0px;word-spacing:2.64583px;direction:rtl;white-space:pre;inline-size:353.08;fill:#ffffff;stroke-width:0.0577162"
       transform="translate(-69.52721,-38.89374)"
       aria-label="لما تصل إلى المنزل يمكنك الاتصال بي بالهاتف على الرقم 06 12 34 56 78.">
      <path
         d="m 226.80069,190.12747 q 0,0.72236 -0.35306,1.13223 -0.32465,0.37336 -1.42847,0.37336 h -2.36186 v -0.74671 h 2.1346 q 0.88468,0 1.06324,-0.17856 0.19885,-0.19885 0.19885,-0.62901 v -4.76024 h 0.7467 z m -5.44606,1.29456 q -0.39364,0.41394 -0.95773,0.41394 -0.86845,0 -1.31485,-0.39771 -0.25972,0.1948 -0.68177,0.1948 h -0.74671 v -0.74671 h 0.56815 q 0.21102,0 0.38958,-0.14609 0.17451,-0.14204 0.1948,-0.34089 0.0812,-0.73453 0.62901,-1.05918 0.38147,-0.22726 0.75888,-0.22726 0.29219,0 0.56003,0.11769 0.78323,0.33683 0.85222,1.01454 0.0203,0.19885 0.22725,0.45046 0.15421,0.19073 0.58032,0.19073 h 0.40582 v 0.74671 h -0.62902 q -0.70612,0 -0.83598,-0.21103 z m -1.87488,-0.59655 q 0.25161,0.28001 0.89686,0.28001 0.19073,0 0.26784,-0.073 0.21102,-0.21509 0.21102,-0.4951 0,-0.0771 -0.0203,-0.15015 -0.0893,-0.35712 -0.32465,-0.42611 -0.15827,-0.0487 -0.31654,-0.0487 -0.21508,0 -0.38147,0.10957 -0.18667,0.12175 -0.26378,0.52756 -0.0284,0.15016 -0.069,0.27596 z m -4.36253,-0.69801 v -4.80893 h 0.74671 v 4.76024 q 0,0.43016 0.2029,0.62901 0.17856,0.17856 0.90904,0.17856 h 0.8441 v 0.74671 h -1.07136 q -0.94962,0 -1.27427,-0.37336 -0.35712,-0.40987 -0.35712,-1.13223 z m -12.38951,-2.55259 h 0.60873 v 0.60873 h -0.60873 z m -1.01454,0 h 0.60873 v 0.60873 h -0.60873 z m 0.83193,3.70917 q -0.29219,0.34901 -1.68415,0.34901 h -0.86439 v -0.74671 h 0.64119 q 1.15658,0 1.33514,-0.17856 0.19885,-0.19885 0.19885,-0.62901 v -0.88063 h 0.74671 v 0.88063 q 0,0.75887 -0.37335,1.20527 z m -5.40549,-0.3977 h 0.52351 q 0.56814,0 0.86439,-0.18667 0.43016,-0.27596 0.43016,-0.56003 0,-0.18262 -0.16232,-0.33277 -0.1461,-0.13392 -0.40176,-0.13392 -0.28813,0 -0.71018,0.44234 -0.30436,0.31654 -0.5438,0.77105 z m -0.0933,0.74671 q -0.3003,0 -0.61684,-0.17045 -0.26378,-0.14203 -0.42205,-0.38958 -0.41393,0.56003 -0.68989,0.56003 h -0.32465 v -0.74671 h 0.10551 q 0.1258,0 0.29625,-0.18667 0.18262,-0.20291 0.18262,-0.72236 v -0.46263 h 0.7467 v 0.31654 q 0,0.0974 0.0365,0.25972 0.0365,0.16233 0.21914,0.36524 0.30843,-0.51945 0.50728,-0.76294 0.59249,-0.7183 1.20122,-0.7183 0.69394,0 1.06324,0.33277 0.35306,0.31654 0.35306,0.80758 0,0.21102 -0.1258,0.49916 0.0649,0.0406 0.12174,0.0933 0.18668,0.17856 0.30031,0.17856 h 0.15826 v 0.74671 h -0.23943 q -0.21102,0 -0.62496,-0.38147 l -0.11363,-0.10551 q -0.698,0.48698 -1.24991,0.48698 z m -2.74737,-6.31452 v 4.76024 q 0,0.43016 0.19885,0.62901 0.17856,0.17856 0.35306,0.17856 h 0.30436 v 0.74671 h -0.52756 q -0.22726,0 -0.5438,-0.20697 -0.0609,0.37741 -0.26784,0.63307 -0.42205,0.51133 -0.94555,0.70207 -0.38147,0.13798 -0.88874,0.13798 -0.40176,0 -0.88468,-0.17045 -0.98208,-0.349 -0.98614,-1.40007 -0.004,-0.56002 0.25567,-0.93338 h 0.7467 q -0.26378,0.46669 -0.26378,0.93338 0,0.51133 0.67366,0.77917 0.16232,0.0649 0.45857,0.0649 0.42611,0 0.76699,-0.13797 0.40176,-0.16639 0.68178,-0.69801 0.12174,-0.23132 0.12174,-1.43254 v -4.58573 z m -14.75543,0 h 0.74671 v 6.31452 h -0.74671 z m -0.32059,7.93779 0.31653,-0.073 q -0.17856,-0.0812 -0.24349,-0.22726 -0.069,-0.15015 -0.0649,-0.33277 0.008,-0.38553 0.22726,-0.56409 0.22726,-0.18667 0.60873,-0.18261 0.24755,0.004 0.46263,0.13392 v 0.40581 q -0.20697,-0.13392 -0.46263,-0.13392 -0.26784,0 -0.33683,0.073 -0.11769,0.12986 -0.11769,0.23538 0,0.31248 0.38147,0.42205 0.13392,0.0406 0.6209,-0.0771 v 0.41393 l -1.39195,0.31248 z m -2.74741,-3.12886 q 0,0.72236 -0.35306,1.13223 -0.32466,0.37336 -1.42848,0.37336 h -2.36186 v -0.74671 h 2.1346 q 0.88468,0 1.06324,-0.17856 0.19885,-0.19885 0.19885,-0.62901 v -4.76024 h 0.74671 z m -5.94522,1.29862 q -0.008,-0.17856 -0.0446,-0.22726 -0.0974,-0.14609 -0.19479,-0.24755 -0.17856,-0.18667 -0.17856,-0.43422 0,-0.31654 0.16638,-0.50727 0.31248,-0.3693 0.66554,-0.43829 0.11769,-0.0243 0.29625,-0.0243 0.52756,0 0.71424,0.56002 0.25972,0.77917 0.3977,0.77917 h 0.14203 v 0.74671 h -0.14203 q -0.51539,0 -0.78729,-0.69801 -0.25972,-0.6696 -0.38147,-0.6696 -0.13797,0.004 -0.2029,0.069 -0.0812,0.073 -0.0812,0.20291 0,0.0122 0.17045,0.29219 0.21508,0.35306 0.21508,0.59655 0,0.33683 -0.31654,0.67366 -0.42205,0.45045 -1.15658,0.55597 -0.56814,0.0812 -0.87656,0.0812 -0.49104,0 -1.08759,-0.14609 -0.92527,-0.22726 -0.97397,-1.03078 -0.0243,-0.37335 0.12175,-0.93338 h 0.72235 q -0.10551,0.32465 -0.10551,0.7954 0.004,0.43017 0.57626,0.53568 0.28002,0.0528 0.73859,0.0528 0.52756,0 0.76294,-0.069 0.51944,-0.15015 0.60061,-0.21103 0.24349,-0.18667 0.23943,-0.30436 z m -13.64754,-6.10755 h 0.7467 v 6.31452 h -0.7467 z m -3.06798,4.80893 q 0,0.72236 -0.35306,1.13223 -0.32465,0.37336 -1.42848,0.37336 h -2.36185 v -0.74671 h 2.1346 q 0.88468,0 1.06324,-0.17856 0.19885,-0.19885 0.19885,-0.62901 v -4.76024 h 0.7467 z m -5.44606,1.29456 q -0.39365,0.41394 -0.95773,0.41394 -0.86845,0 -1.31485,-0.39771 -0.25972,0.1948 -0.68177,0.1948 h -0.74671 v -0.74671 h 0.56815 q 0.21102,0 0.38958,-0.14609 0.1745,-0.14204 0.19479,-0.34089 0.0812,-0.73453 0.62902,-1.05918 0.38147,-0.22726 0.75888,-0.22726 0.29219,0 0.56003,0.11769 0.78323,0.33683 0.85221,1.01454 0.0203,0.19885 0.22726,0.45046 0.15421,0.19073 0.58032,0.19073 h 0.40582 v 0.74671 h -0.62902 q -0.70612,0 -0.83598,-0.21103 z m -1.87488,-0.59655 q 0.25161,0.28001 0.89686,0.28001 0.19073,0 0.26784,-0.073 0.21102,-0.21509 0.21102,-0.4951 0,-0.0771 -0.0203,-0.15015 -0.0893,-0.35712 -0.32465,-0.42611 -0.15827,-0.0487 -0.31654,-0.0487 -0.21508,0 -0.38147,0.10957 -0.18667,0.12175 -0.26378,0.52756 -0.0284,0.15016 -0.069,0.27596 z m -4.28948,0.45857 q -0.30842,0.34901 -1.18093,0.34901 h -1.35949 v -0.74671 h 1.13629 q 0.65742,0 0.83598,-0.17856 0.19479,-0.19885 0.19479,-0.62901 v -0.88063 h 0.74671 v 0.88063 q 0,0.43016 0.20291,0.62901 0.17856,0.17856 0.84004,0.17856 h 1.20934 v 0.74671 h -1.43254 q -0.86845,0 -1.1931,-0.34901 z m -0.29625,-3.70917 h 0.60873 v 0.60873 h -0.60873 z m -4.11906,0.20291 h 0.60873 v 0.60873 H 137.789 Z m -0.004,1.62327 h 0.7467 q 0.12174,0.45452 0.13392,0.57626 0.0406,0.41799 0.33683,0.73047 0.17044,0.17856 0.58032,0.17856 h 0.24349 v 0.74671 h -0.46669 q -0.52757,0 -0.73047,-0.25161 -0.23132,1.02672 -1.4366,1.66791 -1.15252,0.61278 -3.10044,0.61278 v -0.7467 q 1.80588,0 2.69462,-0.51945 1.03484,-0.60466 1.17282,-1.40412 0.0406,-0.23538 0.0406,-0.52757 0,-0.51133 -0.21508,-1.06324 z m -4.45587,1.93575 q 0.12174,-0.23132 0.12174,-1.43254 v -4.58573 h 0.7467 v 4.58573 q 0,1.58269 -0.2029,1.87082 -0.43829,0.63308 -0.84816,0.83193 -0.60873,0.29219 -1.26615,0.29219 -0.40176,0 -0.88468,-0.17045 -0.98208,-0.349 -0.98614,-1.40007 -0.004,-0.56002 0.25566,-0.93338 h 0.74671 q -0.26378,0.46669 -0.26378,0.93338 0,0.51133 0.67365,0.77917 0.16233,0.0649 0.45858,0.0649 0.42611,0 0.76699,-0.13797 0.40176,-0.16639 0.68178,-0.69801 z m -13.66378,0.90497 h 0.60873 v 0.60873 h -0.60873 z m -1.01454,0 h 0.60872 v 0.60873 h -0.60872 z m 0.90091,-0.95773 q -0.29219,0.34901 -1.68414,0.34901 h -0.86439 v -0.74671 h 0.64119 q 1.15658,0 1.33514,-0.17856 0.19885,-0.19885 0.19885,-0.62901 v -0.88063 h 0.7467 v 0.88063 q 0,0.75887 -0.37335,1.20527 z m -3.8512,0.13798 q -0.39364,0.41394 -0.95773,0.41394 -0.86845,0 -1.31485,-0.39771 -0.25972,0.1948 -0.68177,0.1948 h -0.7467 v -0.74671 h 0.56814 q 0.21102,0 0.38958,-0.14609 0.17451,-0.14204 0.1948,-0.34089 0.0812,-0.73453 0.62901,-1.05918 0.38147,-0.22726 0.75888,-0.22726 0.29219,0 0.56003,0.11769 0.78323,0.33683 0.85222,1.01454 0.0203,0.19885 0.22725,0.45046 0.15421,0.19073 0.58032,0.19073 h 0.40582 v 0.74671 h -0.62902 q -0.70612,0 -0.83598,-0.21103 z m -1.87488,-0.59655 q 0.25161,0.28001 0.89686,0.28001 0.19073,0 0.26784,-0.073 0.21102,-0.21509 0.21102,-0.4951 0,-0.0771 -0.0203,-0.15015 -0.0893,-0.35712 -0.32465,-0.42611 -0.15827,-0.0487 -0.31654,-0.0487 -0.21508,0 -0.38147,0.10957 -0.18667,0.12175 -0.26378,0.52756 -0.0284,0.15016 -0.069,0.27596 z m -5.07677,0.80758 h -1.75313 v -0.74671 h 1.67197 q 0.59655,0 0.78729,-0.42205 0.0649,-0.14609 0.0649,-0.29219 0,-0.28001 -0.21915,-0.54785 l -1.25803,-1.54211 q -0.20291,-0.24754 -0.20291,-0.57626 0,-0.12174 0.0406,-0.27595 0.12175,-0.47887 0.5438,-0.65337 l 3.0274,-1.25803 v 0.75482 l -2.41867,1.01454 q -0.28408,0.12175 -0.37336,0.28407 -0.0244,0.0446 -0.0244,0.1461 0,0.12986 0.12987,0.28001 l 2.36185,2.86101 q 0.0893,0.10552 0.24349,0.16233 0.17856,0.0649 0.43829,0.0649 h 0.35712 v 0.74671 h -0.53568 q -0.26784,0 -0.50322,-0.0974 -0.41393,-0.1745 -0.55191,-0.34089 l -0.38958,-0.48698 q -0.0893,0.18668 -0.15421,0.29625 -0.38959,0.62902 -1.28239,0.62902 z m -4.21645,-0.34901 q -0.30842,0.34901 -1.18093,0.34901 h -1.35949 v -0.74671 h 1.13629 q 0.65743,0 0.83599,-0.17856 0.19479,-0.19885 0.19479,-0.62901 v -0.88063 h 0.7467 v 0.88063 q 0,0.43016 0.20291,0.62901 0.17856,0.17856 0.84004,0.17856 h 1.20934 v 0.74671 h -1.43254 q -0.86845,0 -1.1931,-0.34901 z m -0.29625,-3.70917 h 0.60873 v 0.60873 h -0.60873 z m -5.007777,-0.40581 v 0.33277 q -0.300305,0.0162 -0.454516,0.073 -0.324654,0.12175 -0.324654,0.25567 0,0.11363 0.05682,0.18667 0.0487,0.0649 0.324654,0.10552 0.413933,0.0609 0.413933,0.41799 0,0.4464 -0.357119,0.61684 -0.33277,0.15827 -0.649308,0.15827 -0.267839,0 -0.495097,-0.0446 v -0.35712 q 0.275956,0.0406 0.458574,0.0406 0.24349,0 0.474806,-0.10551 0.24349,-0.10551 0.24349,-0.22726 0,-0.15421 -0.316537,-0.2232 -0.300305,-0.0649 -0.373352,-0.17856 -0.129862,-0.19073 -0.125804,-0.37741 0.0081,-0.32871 0.31248,-0.48292 0.344945,-0.1745 0.811635,-0.19073 z m 2.138657,-1.85053 v 4.76024 q 0,0.43016 0.19885,0.62901 0.17856,0.17856 0.28407,0.17856 h 0.30437 v 0.74671 h -0.52757 q -0.32465,0 -0.78322,-0.49916 -0.3693,0.31654 -0.68989,0.49916 -0.417996,0.21508 -1.225572,0.2232 -0.702064,0.008 -1.363547,-0.2232 -0.880623,-0.30842 -0.880623,-1.05513 0,-0.30436 0.06493,-0.51944 h 0.746704 q -0.05681,0.23537 -0.05681,0.41393 0,0.37741 0.624959,0.56003 0.491039,0.14203 0.8441,0.14203 0.474806,0 0.872507,-0.15421 0.328716,-0.14203 0.629016,-0.52756 0.21103,-0.2719 0.21103,-1.3392 v -3.83497 z m -14.824413,0 h 0.746704 v 6.31452 h -0.746704 z m -2.852891,2.93 q 0,1.21745 -0.564086,2.10213 -0.223199,0.34495 -0.535679,0.63308 -0.831925,0.73047 -1.473117,0.73047 -0.430166,0 -0.734529,-0.12986 v -0.74671 q 0.389584,0.12987 0.734529,0.12987 0.458574,0 1.010485,-0.61685 l -1.988505,-4.43964 h 0.726413 l 1.728782,3.89179 q 0.117688,-0.1745 0.198851,-0.3977 0.150152,-0.55597 0.150152,-1.30267 v -2.78391 h 0.746704 z m -6.631066,-0.67366 h 0.608726 v 0.60873 H 77.05863 Z m -1.014543,0 h 0.608726 v 0.60873 h -0.608726 z m 0.831925,3.70917 q -0.292188,0.34901 -1.684142,0.34901 h -0.864391 v -0.74671 h 0.641192 q 1.156579,0 1.335139,-0.17856 0.19885,-0.19885 0.19885,-0.62901 v -0.88063 h 0.746704 v 0.88063 q 0,0.75887 -0.373352,1.20527 z m -5.405482,-0.3977 h 0.523505 q 0.568144,0 0.864391,-0.18667 0.430166,-0.27596 0.430166,-0.56003 0,-0.18262 -0.162327,-0.33277 -0.146094,-0.13392 -0.401759,-0.13392 -0.288131,0 -0.710181,0.44234 -0.304363,0.31654 -0.543795,0.77105 z m -0.09334,0.74671 q -0.300305,0 -0.616842,-0.17045 -0.263782,-0.14203 -0.42205,-0.38958 -0.413934,0.56003 -0.68989,0.56003 h -0.324654 v -0.74671 h 0.105513 q 0.125803,0 0.296246,-0.18667 0.182618,-0.20291 0.182618,-0.72236 v -0.46263 h 0.746704 v 0.31654 q 0,0.0974 0.03652,0.25972 0.03652,0.16233 0.219141,0.36524 0.308421,-0.51945 0.507272,-0.76294 0.592493,-0.7183 1.201219,-0.7183 0.693948,0 1.063242,0.33277 0.353061,0.31654 0.353061,0.80758 0,0.21102 -0.125803,0.49916 0.06493,0.0406 0.121745,0.0933 0.186676,0.17856 0.300305,0.17856 h 0.158268 v 0.74671 h -0.239432 q -0.211025,0 -0.624959,-0.38147 l -0.113628,-0.10551 q -0.698006,0.48698 -1.249918,0.48698 z m -4.589789,-1.50559 v -4.80893 h 0.746704 v 4.76024 q 0,0.43016 0.202908,0.62901 0.17856,0.17856 0.909031,0.17856 h 0.8441 v 0.74671 h -1.071357 q -0.949613,0 -1.274267,-0.37336 -0.357119,-0.40987 -0.357119,-1.13223 z m -3.798461,1.20934 q 0.121745,-0.23132 0.121745,-1.43254 v -4.58573 h 0.746704 v 4.58573 q 0,1.58269 -0.202909,1.87082 -0.438282,0.63308 -0.848158,0.83193 -0.608726,0.29219 -1.26615,0.29219 -0.401759,0 -0.884682,-0.17045 -0.982078,-0.349 -0.986136,-1.40007 -0.0041,-0.56002 0.255665,-0.93338 h 0.746704 q -0.263782,0.46669 -0.263782,0.93338 0,0.51133 0.673657,0.77917 0.162327,0.0649 0.458574,0.0649 0.426108,0 0.766995,-0.13797 0.401759,-0.16639 0.681773,-0.69801 z m -13.777389,-0.0528 q -0.292188,0.34901 -1.684142,0.34901 H 46.66302 v -0.74671 h 0.641192 q 1.156579,0 1.335139,-0.17856 0.19885,-0.19885 0.19885,-0.62901 v -0.88063 h 0.746704 v 0.88063 q 0,0.75887 -0.373352,1.20527 z m -0.42205,0.95773 h 0.608726 v 0.60873 h -0.608726 z m -3.928322,-0.81569 q -0.0081,-0.17856 -0.04464,-0.22726 -0.0974,-0.14609 -0.194792,-0.24755 -0.17856,-0.18667 -0.17856,-0.43422 0,-0.31654 0.166385,-0.50727 0.312479,-0.3693 0.665541,-0.43829 0.117687,-0.0243 0.296246,-0.0243 0.527563,0 0.714239,0.56002 0.259723,0.77917 0.397701,0.77917 h 0.142036 v 0.74671 h -0.142036 q -0.515388,0 -0.787286,-0.69801 -0.259723,-0.6696 -0.381468,-0.6696 -0.137978,0.004 -0.202909,0.069 -0.08116,0.073 -0.08116,0.20291 0,0.0122 0.170443,0.29219 0.215083,0.35306 0.215083,0.59655 0,0.33683 -0.316537,0.67366 -0.42205,0.45045 -1.15658,0.55597 -0.568144,0.0812 -0.876566,0.0812 -0.491039,0 -1.08759,-0.14609 -0.925264,-0.22726 -0.973962,-1.03078 -0.02435,-0.37335 0.121745,-0.93338 h 0.722355 q -0.105512,0.32465 -0.105512,0.7954 0.0041,0.43017 0.576261,0.53568 0.280014,0.0528 0.738587,0.0528 0.527563,0 0.762937,-0.069 0.519446,-0.15015 0.60061,-0.21103 0.24349,-0.18667 0.239432,-0.30436 z m -1.327023,1.62733 h 0.608726 v 0.60872 h -0.608726 z m -1.014543,0 h 0.608726 v 0.60872 h -0.608726 z m -10.96509,-1.76937 q -0.292188,0.34901 -1.684142,0.34901 h -0.864391 v -0.74671 h 0.641191 q 1.15658,0 1.33514,-0.17856 0.19885,-0.19885 0.19885,-0.62901 v -0.88063 h 0.746704 v 0.88063 q 0,0.75887 -0.373352,1.20527 z m -0.42205,0.95773 h 0.608726 v 0.60873 h -0.608726 z m -4.662837,-2.11431 v -4.80893 h 0.746704 v 4.76024 q 0,0.43016 0.202909,0.62901 0.17856,0.17856 0.909031,0.17856 h 0.8441 v 0.74671 h -1.071358 q -0.949612,0 -1.274266,-0.37336 -0.35712,-0.40987 -0.35712,-1.13223 z m -3.327697,0 q 0,0.72236 -0.353061,1.13223 -0.324654,0.37336 -1.428477,0.37336 h -2.361857 v -0.74671 h 2.134599 q 0.884682,0 1.063242,-0.17856 0.19885,-0.19885 0.19885,-0.62901 v -4.76024 h 0.746704 z m -7.101822,0.75888 h 0.0771 q 0.170444,0 0.560028,-0.30842 0.462632,-0.36523 0.462632,-0.57626 0,-0.45451 -0.340886,-0.45451 -0.304363,0 -0.604668,0.5722 -0.154211,0.29219 -0.154211,0.76699 z m -0.746704,0 q 0.03652,-1.07947 0.560028,-1.5908 0.438283,-0.43423 0.961787,-0.43423 0.560028,0 0.840042,0.40176 0.186676,0.2719 0.186676,0.73453 0,0.45046 -0.661482,0.88874 h 1.980389 v 0.74671 h -1.980389 q 0.661482,0.43828 0.661482,0.88874 0,0.46263 -0.186676,0.73453 -0.280014,0.40176 -0.840042,0.40176 -0.523504,0 -0.961787,-0.43423 -0.523504,-0.51945 -0.560028,-1.5908 H 13.9948 v -0.74671 z m 0.746704,0.74671 q 0,0.4748 0.154211,0.76699 0.300305,0.5722 0.604668,0.5722 0.340886,0 0.340886,-0.45451 0,-0.21103 -0.462632,-0.57626 -0.389584,-0.30842 -0.560028,-0.30842 z m -4.581673,-1.50559 v -4.80893 h 0.746704 v 4.76024 q 0,0.43016 0.202909,0.62901 0.178559,0.17856 0.909031,0.17856 h 0.8441 v 0.74671 h -1.071358 q -0.949613,0 -1.274267,-0.37336 -0.357119,-0.40987 -0.357119,-1.13223 z m -4.7399494,-2.55259 h 0.6087261 v 0.60873 H 6.7184966 Z m -1.0145434,0 h 0.608726 v 0.60873 h -0.608726 z m 0.8319256,3.70917 q -0.2921885,0.34901 -1.6841422,0.34901 h -0.864391 v -0.74671 h 0.6411915 q 1.1565795,0 1.3351392,-0.17856 0.1988505,-0.19885 0.1988505,-0.62901 v -0.88063 h 0.746704 v 0.88063 q 0,0.75887 -0.373352,1.20527 z m -4.3949971,-4.11498 h 0.6087261 v 0.60872 H 2.1408817 Z m 0.5072718,4.31789 q -0.2475486,0.13392 -0.7264132,0.28002 -0.7385876,0.22725 -1.24180116,0.23537 -0.56408616,0.008 -1.02265981,-0.15421 -1.19310313,-0.41799 -1.20121943,-1.48935 0,-0.56003 0.2597231,-0.93338 h 0.74670399 q -0.26783948,0.38147 -0.26783948,0.93338 0,0.50727 0.68988956,0.78729 0.28813034,0.11768 0.81975112,0.11768 0.45451551,0 1.06729971,-0.23537 -0.1379779,-0.10957 -0.2556649,-0.28813 -0.3327703,-0.50322 -0.3327703,-0.9415 0,-0.15827 0.016233,-0.2719 0.08928,-0.62901 0.8522165,-0.93338 0.2353741,-0.0933 0.4463991,-0.0933 0.3327703,0 0.6614824,0.20291 0.5640861,0.34088 0.6290169,0.94555 0.016233,0.15015 0.016233,0.2719 0,0.53162 -0.3246539,0.96178 0.036524,0.004 0.064931,0.004 h 0.6046679 v 0.74671 H 3.524719 q -0.4261082,0 -0.8765655,-0.1461 z m 0,-0.75888 q 0.42205,-0.26378 0.42205,-0.70612 0,-0.0812 -0.020291,-0.19073 -0.056815,-0.28813 -0.2678395,-0.4464 -0.1379779,-0.10146 -0.3003049,-0.10146 -0.097396,0 -0.186676,0.0406 -0.2475486,0.10145 -0.3246539,0.34494 -0.024349,0.0771 -0.024349,0.15015 0,0.1745 0.1663851,0.44234 0.1988505,0.31654 0.535679,0.46669 z m -15.9891085,0.15827 q 0.653366,0 1.473117,-0.37741 -0.304363,-0.0974 -0.515388,-0.33683 -0.35712,-0.40581 -0.35712,-0.97396 0,-1.07136 0.827868,-1.57863 0.507272,-0.31248 1.525873,-0.31248 v 0.68583 q -0.884682,0 -1.262092,0.28002 -0.37741,0.27595 -0.37741,0.7954 0,0.51539 0.251607,0.72641 0.336828,0.28408 0.6209,0.28408 0.227258,0 0.523505,-0.13392 l 1.168754,-0.52351 v 0.74671 l -1.704433,0.79946 q -1.420361,0.66554 -2.142716,0.66554 h -0.361177 v -0.74671 z m -2.751445,0.3977 q -0.308421,0.34901 -1.412244,0.34901 h -1.168754 v -0.74671 h 0.949613 q 0.884681,0 1.063241,-0.17856 0.194792,-0.19885 0.194792,-0.62901 v -4.76024 h 0.746704 v 4.76024 q 0,0.43016 0.202909,0.62901 0.17856,0.17856 1.063242,0.17856 h 0.945554 v 0.74671 h -1.172812 q -1.087591,0 -1.412245,-0.34901 z m -4.382822,0.14204 q -0.0081,-0.17856 -0.04464,-0.22726 -0.0974,-0.14609 -0.194792,-0.24755 -0.17856,-0.18667 -0.17856,-0.43422 0,-0.31654 0.166385,-0.50727 0.31248,-0.3693 0.665541,-0.43829 0.117687,-0.0243 0.296246,-0.0243 0.527563,0 0.714239,0.56002 0.259723,0.77917 0.397701,0.77917 h 0.142036 v 0.74671 h -0.142036 q -0.515388,0 -0.787286,-0.69801 -0.259723,-0.6696 -0.381468,-0.6696 -0.137978,0.004 -0.202909,0.069 -0.08116,0.073 -0.08116,0.20291 0,0.0122 0.170443,0.29219 0.215083,0.35306 0.215083,0.59655 0,0.33683 -0.316537,0.67366 -0.42205,0.45045 -1.15658,0.55597 -0.568144,0.0812 -0.876565,0.0812 -0.491039,0 -1.087591,-0.14609 -0.925264,-0.22726 -0.973962,-1.03078 -0.02435,-0.37335 0.121746,-0.93338 h 0.722354 q -0.105512,0.32465 -0.105512,0.7954 0.0041,0.43017 0.576261,0.53568 0.280014,0.0528 0.738587,0.0528 0.527563,0 0.762937,-0.069 0.519446,-0.15015 0.60061,-0.21103 0.24349,-0.18667 0.239432,-0.30436 z m -13.647542,-6.10755 h 0.746704 v 6.31452 h -0.746704 z m -3.067982,4.80893 q 0,0.72236 -0.353061,1.13223 -0.324654,0.37336 -1.428478,0.37336 h -2.361857 v -0.74671 h 2.1346 q 0.884682,0 1.063241,-0.17856 0.198851,-0.19885 0.198851,-0.62901 v -4.76024 h 0.746704 z m -6.022321,-0.72641 h 0.746704 q 0.121745,0.45452 0.133919,0.57626 0.04058,0.41799 0.336829,0.73047 0.170443,0.17856 0.580319,0.17856 h 0.24349 v 0.74671 h -0.46669 q -0.527562,0 -0.730471,-0.25161 -0.231316,1.02672 -1.436594,1.66791 -1.152521,0.61278 -3.100444,0.61278 v -0.7467 q 1.805887,0 2.694627,-0.51945 1.034834,-0.60466 1.172812,-1.40412 0.04058,-0.23538 0.04058,-0.52757 0,-0.51133 -0.215083,-1.06324 z m -5.620573,0.0528 q 0.166385,-0.1745 0.166385,-0.48698 0,-0.23944 -0.26784,-0.4464 -0.125803,-0.10146 -0.304363,-0.0974 -0.211025,0.004 -0.373352,0.1745 -0.162327,0.16639 -0.166385,0.37335 0,0.32466 0.2232,0.47887 0.162327,0.10145 0.33277,0.10145 0.292188,0 0.389585,-0.0974 z m -2.507952,1.43253 h 0.97802 q 0.340887,0 0.953671,-0.0933 0.320596,-0.0487 0.564086,-0.4261 0.125803,-0.1948 0.186676,-0.3977 -0.255665,0.22319 -0.649308,0.23131 -0.527562,0.008 -0.8441,-0.2719 -0.397701,-0.35306 -0.397701,-0.87656 0,-0.21103 0.03247,-0.38959 0.09334,-0.60061 0.702064,-0.88062 0.316538,-0.14609 0.624959,-0.14609 0.365236,0 0.633075,0.2029 0.389585,0.29219 0.576261,0.70613 0.09334,0.20696 0.09334,0.77511 0,0.8441 -0.316538,1.42442 -0.300304,0.55191 -0.803518,0.73047 -0.442341,0.15827 -1.030776,0.15827 h -1.302674 z m 2.313159,-4.52892 h 0.608726 v 0.60873 h -0.608726 z m -1.014543,0 h 0.608726 v 0.60873 h -0.608726 z m -4.094696,4.59385 q 0.495097,0.17045 0.803518,0.17045 0.17856,0 0.263781,-0.0893 0.215084,-0.23132 0.215084,-0.46669 0,-0.0974 -0.02435,-0.17856 -0.08522,-0.35712 -0.324654,-0.42611 -0.162327,-0.0487 -0.349003,-0.0487 -0.239433,0 -0.349003,0.10957 -0.275956,0.27596 -0.275956,0.55191 0,0.16233 0.04058,0.37741 z m 1.77748,0.47075 q -0.06087,0.0568 -0.113629,0.0893 -0.539737,0.32466 -0.8441,0.32466 -0.852217,0 -1.306732,-0.31654 -0.142036,-0.10146 -0.438283,0.20291 -0.101454,0.10551 -0.101454,0.4261 v 1.48124 h -0.811635 v -1.48124 q 0,-0.70206 0.486981,-1.11599 0.263781,-0.2232 0.560028,-0.2232 -0.0081,-0.17045 -0.0081,-0.33277 0,-0.60061 0.657425,-1.13629 0.312479,-0.25567 0.685831,-0.25567 0.292189,0 0.633075,0.1461 0.68989,0.28813 0.852217,1.01454 0.05681,0.25972 0.223199,0.45046 0.166385,0.19073 0.580319,0.19073 h 0.125803 v 0.74671 h -0.349003 q -0.702064,0 -0.831925,-0.21103 z"
         id="path1" />
      <path
         style="fill:#ff0d38"
         d="m -71.961074,188.58943 q 0,-0.2232 0.15421,-0.38553 0.158269,-0.16233 0.377411,-0.16233 0.227257,0 0.389584,0.16233 0.162327,0.16233 0.162327,0.38553 0,0.22725 -0.162327,0.38552 -0.158268,0.15827 -0.389584,0.15827 -0.227258,0 -0.381469,-0.15421 -0.150152,-0.15421 -0.150152,-0.38958 z m 0.539737,-2.47549 q -0.572203,0 -0.856275,0.61684 -0.280014,0.61685 -0.280014,1.87894 0,1.25803 0.280014,1.87487 0.284072,0.61685 0.856275,0.61685 0.576261,0 0.856275,-0.61685 0.284072,-0.61684 0.284072,-1.87487 0,-1.26209 -0.284072,-1.87894 -0.280014,-0.61684 -0.856275,-0.61684 z m 0,-0.64931 q 0.969903,0 1.465001,0.7954 0.499155,0.79541 0.499155,2.34969 0,1.55022 -0.499155,2.34562 -0.495098,0.7954 -1.465001,0.7954 -0.969904,0 -1.465001,-0.7954 -0.495097,-0.7954 -0.495097,-2.34562 0,-1.55428 0.495097,-2.34969 0.495097,-0.7954 1.465001,-0.7954 z m 6.525542,0.24349 v 0.75482 q -0.255665,-0.15015 -0.543795,-0.22725 -0.288131,-0.0812 -0.60061,-0.0812 -0.779169,0 -1.180929,0.58844 -0.401759,0.58437 -0.401759,1.72472 0.194793,-0.40582 0.539737,-0.6209 0.344945,-0.21914 0.791344,-0.21914 0.876566,0 1.35543,0.53974 0.482923,0.53568 0.482923,1.52181 0,0.98208 -0.495097,1.52182 -0.495097,0.53973 -1.391954,0.53973 -1.055125,0 -1.546164,-0.75482 -0.491039,-0.75888 -0.491039,-2.3862 0,-1.53399 0.588435,-2.33751 0.592494,-0.80758 1.71255,-0.80758 0.300304,0 0.600609,0.0649 0.300305,0.0609 0.580319,0.17856 z m -1.460942,2.56071 q -0.523505,0 -0.82381,0.37741 -0.300305,0.37741 -0.300305,1.04295 0,0.66554 0.300305,1.04295 0.300305,0.37741 0.82381,0.37741 0.543795,0 0.819751,-0.35712 0.275955,-0.36117 0.275955,-1.06324 0,-0.70612 -0.275955,-1.06324 -0.275956,-0.35712 -0.819751,-0.35712 z"
         id="path2" />
      <path
         style="fill:#ff0d38"
         d="m -90.482482,190.94317 h 1.274267 v -4.63038 l -1.371663,0.30842 v -0.7467 l 1.363546,-0.30031 h 0.819751 v 5.36897 h 1.258034 v 0.68989 h -3.343935 z m 5.421721,0 h 2.783907 v 0.68989 h -3.680764 v -0.68989 q 0.758879,-0.79946 1.327023,-1.41225 0.568145,-0.61278 0.783228,-0.86439 0.405817,-0.4951 0.547853,-0.79946 0.142036,-0.30842 0.142036,-0.62902 0,-0.50727 -0.300305,-0.7954 -0.296246,-0.28813 -0.815692,-0.28813 -0.369294,0 -0.775112,0.13392 -0.405817,0.13392 -0.860333,0.40582 v -0.82787 q 0.417992,-0.19885 0.819752,-0.3003 0.405817,-0.10146 0.79946,-0.10146 0.88874,0 1.428477,0.47481 0.543795,0.47075 0.543795,1.23774 0,0.38959 -0.182617,0.77917 -0.17856,0.38959 -0.584378,0.86033 -0.227257,0.26379 -0.661482,0.73048 -0.430166,0.46669 -1.314848,1.39601 z"
         id="path3" />
      <path
         style="fill:#ff0d38"
         d="m -106.08606,188.39058 q 0.59655,0.15826 0.91309,0.56408 0.31654,0.40176 0.31654,1.00643 0,0.83598 -0.56409,1.31485 -0.56003,0.4748 -1.55428,0.4748 -0.41799,0 -0.85222,-0.0771 -0.43422,-0.0771 -0.85221,-0.2232 v -0.81569 q 0.41393,0.21508 0.81569,0.32059 0.40176,0.10551 0.79946,0.10551 0.67366,0 1.03483,-0.30436 0.36118,-0.30436 0.36118,-0.87656 0,-0.52757 -0.36118,-0.83599 -0.36117,-0.31248 -0.97802,-0.31248 h -0.62495 v -0.67365 h 0.62495 q 0.56409,0 0.88063,-0.24755 0.31654,-0.24755 0.31654,-0.68989 0,-0.46669 -0.29625,-0.71424 -0.29219,-0.25161 -0.83598,-0.25161 -0.36118,0 -0.74671,0.0812 -0.38553,0.0812 -0.80758,0.24349 v -0.75482 q 0.49104,-0.12987 0.87251,-0.1948 0.38553,-0.0649 0.68178,-0.0649 0.88468,0 1.41224,0.4464 0.53162,0.44234 0.53162,1.17687 0,0.49916 -0.28001,0.83193 -0.27596,0.33277 -0.80758,0.47075 z m 4.83734,-2.06967 -1.9114,3.2019 h 1.9114 z m -0.13392,-0.74671 h 0.94962 v 3.94861 h 0.807572 v 0.66554 h -0.807572 v 1.44471 h -0.8157 v -1.44471 h -2.56882 v -0.77511 z"
         id="path4" />
      <path
         style="fill:#ff0d38"
         d="m 218.57477,200.1187 h 3.06798 v 0.68989 h -2.32127 v 1.48934 q 0.1745,-0.0649 0.349,-0.0933 0.17856,-0.0325 0.35712,-0.0325 0.9415,0 1.49341,0.55597 0.55191,0.55597 0.55191,1.50558 0,0.95773 -0.58032,1.50964 -0.57626,0.55192 -1.57863,0.55192 -0.48292,0 -0.88468,-0.0649 -0.3977,-0.0649 -0.71424,-0.1948 v -0.83192 q 0.37335,0.20291 0.75076,0.30436 0.37741,0.0974 0.77106,0.0974 0.67771,0 1.04295,-0.35712 0.36929,-0.35712 0.36929,-1.01455 0,-0.6493 -0.38147,-1.01048 -0.37741,-0.36118 -1.05512,-0.36118 -0.32872,0 -0.6412,0.0771 -0.31247,0.073 -0.59655,0.2232 z m 8.18534,0.13392 v 0.75482 q -0.25566,-0.15016 -0.5438,-0.22726 -0.28813,-0.0812 -0.6006,-0.0812 -0.77917,0 -1.18093,0.58844 -0.40176,0.58438 -0.40176,1.72472 0.19479,-0.40581 0.53973,-0.6209 0.34495,-0.21914 0.79135,-0.21914 0.87656,0 1.35543,0.53974 0.48292,0.53568 0.48292,1.52181 0,0.98208 -0.4951,1.52182 -0.49509,0.53974 -1.39195,0.53974 -1.05512,0 -1.54616,-0.75482 -0.49104,-0.75888 -0.49104,-2.38621 0,-1.53399 0.58843,-2.33751 0.5925,-0.80758 1.71255,-0.80758 0.30031,0 0.60061,0.0649 0.30031,0.0609 0.58032,0.17856 z m -1.46094,2.5607 q -0.52351,0 -0.82381,0.37741 -0.30031,0.37741 -0.30031,1.04295 0,0.66554 0.30031,1.04295 0.3003,0.37741 0.82381,0.37741 0.54379,0 0.81975,-0.35711 0.27595,-0.36118 0.27595,-1.06325 0,-0.70612 -0.27595,-1.06324 -0.27596,-0.35712 -0.81975,-0.35712 z"
         id="path5" />
      <path
         style="fill:#ff0d38"
         d="m 200.6418,200.1187 h 3.81469 v 0.349 l -2.16707,5.70985 h -0.85627 l 2.11025,-5.36896 h -2.9016 z m 6.93948,3.1816 q -0.54785,0 -0.84816,0.30843 -0.29625,0.30436 -0.29625,0.86439 0,0.56002 0.30031,0.8725 0.30436,0.30842 0.8441,0.30842 0.55191,0 0.84816,-0.30436 0.3003,-0.30842 0.3003,-0.87656 0,-0.55597 -0.30436,-0.86439 -0.30031,-0.30843 -0.8441,-0.30843 z m -0.71424,-0.34088 q -0.5235,-0.13392 -0.81975,-0.49916 -0.29219,-0.36523 -0.29219,-0.88062 0,-0.72236 0.49104,-1.14441 0.49104,-0.42611 1.33514,-0.42611 0.84816,0 1.3392,0.42611 0.49104,0.42205 0.49104,1.14441 0,0.51539 -0.29625,0.88062 -0.29219,0.36524 -0.81569,0.49916 0.60872,0.13392 0.92932,0.53973 0.32465,0.40582 0.32465,1.05107 0,0.81975 -0.5235,1.28238 -0.52351,0.46264 -1.44877,0.46264 -0.92526,0 -1.44877,-0.45858 -0.51945,-0.46263 -0.51945,-1.27832 0,-0.64931 0.3206,-1.05513 0.32465,-0.40987 0.93338,-0.54379 z m -0.29625,-1.30268 q 0,0.48698 0.25973,0.74265 0.25972,0.25566 0.75076,0.25566 0.4951,0 0.75482,-0.25566 0.25972,-0.25567 0.25972,-0.74265 0,-0.49509 -0.25972,-0.75482 -0.25567,-0.25972 -0.75482,-0.25972 -0.49104,0 -0.75076,0.26378 -0.25973,0.25972 -0.25973,0.75076 z"
         id="path6" />
      <path
         d="m 197.05843,204.93981 h 1.02266 v 1.23774 h -1.02266 z"
         id="path7" />
    </g>
  </g>
</svg>
