<?xml version="1.0" encoding="UTF-8" standalone="no"?>
<!-- Uploaded to: SVG Repo, www.svgrepo.com, Generator: SVG Repo Mixer Tools -->

<svg
   width="800px"
   height="800px"
   viewBox="-1.65 0 259.3 259.3"
   version="1.1"
   preserveAspectRatio="xMidYMid"
   id="svg20"
   sodipodi:docname="octocat.svg"
   inkscape:version="1.4 (e7c3feb100, 2024-10-09)"
   xmlns:inkscape="http://www.inkscape.org/namespaces/inkscape"
   xmlns:sodipodi="http://sodipodi.sourceforge.net/DTD/sodipodi-0.dtd"
   xmlns:xlink="http://www.w3.org/1999/xlink"
   xmlns="http://www.w3.org/2000/svg"
   xmlns:svg="http://www.w3.org/2000/svg">
  <defs
     id="defs20" />
  <sodipodi:namedview
     id="namedview20"
     pagecolor="#ffffff"
     bordercolor="#666666"
     borderopacity="1.0"
     inkscape:showpageshadow="2"
     inkscape:pageopacity="0.0"
     inkscape:pagecheckerboard="0"
     inkscape:deskcolor="#d1d1d1"
     inkscape:zoom="0.22342761"
     inkscape:cx="400.57717"
     inkscape:cy="615.41185"
     inkscape:window-width="1916"
     inkscape:window-height="964"
     inkscape:window-x="0"
     inkscape:window-y="76"
     inkscape:window-maximized="1"
     inkscape:current-layer="svg20" />
  <g
     id="g20">
    <path
       fill="#9EDCF2"
       d="M200.9,199.8c0,13.9-32.2,25.1-71.9,25.1c-39.7,0-71.9-11.3-71.9-25.1c0-13.9,32.2-25.1,71.9-25.1C168.7,174.7,200.9,185.9,200.9,199.8L200.9,199.8z M200.9,199.8"
       id="path1"
       style="fill:#147496;fill-opacity:1" />
    <g
       id="g2">
      <defs
         id="defs1">
        <path
           id="SVGID_1_"
           d="M98.1,244.8c1.6,7.5,5.5,11.9,9.4,14.5l41.1,0c5-3.4,10.1-9.8,10.1-21.8v-31c0,0,0.6-7.7,7.7-10.2c0,0,4.1-2.9-0.3-4.5c0,0-19.5-1.6-19.5,14.4v23.6c0,0,0.8,8.7-3.8,12.3v-29.2c0,0,0.3-9.3,5.1-12.8c0,0,3.2-5.7-3.8-4.2c0,0-13.4,1.9-14,17.6l-0.3,30h-3.2l-0.3-30c-0.6-15.6-14-17.6-14-17.6c-7-1.6-3.8,4.2-3.8,4.2c4.8,3.5,5.1,12.8,5.1,12.8v29.5c-4.6-3.3-3.8-12.6-3.8-12.6v-23.6c0-16-19.5-14.4-19.5-14.4c-4.5,1.6-0.3,4.5-0.3,4.5c7,2.6,7.7,10.2,7.7,10.2v21.7L98.1,244.8z" />
      </defs>
      <clipPath
         id="SVGID_2_">
        <use
           xlink:href="#SVGID_1_"
           overflow="visible"
           id="use1" />
      </clipPath>
      <path
         clip-path="url(#SVGID_2_)"
         fill="#7DBCE7"
         d="M200.9,199.8c0,13.9-32.2,25.1-71.9,25.1c-39.7,0-71.9-11.3-71.9-25.1c0-13.9,32.2-25.1,71.9-25.1C168.7,174.7,200.9,185.9,200.9,199.8L200.9,199.8z M200.9,199.8"
         id="path2"
         style="fill:#2380c0;fill-opacity:1" />
    </g>
    <path
       fill="#9EDCF2"
       d="M46.9,125.9l-2.1,7.2c0,0-0.5,2.6,1.9,3.1c2.6-0.1,2.4-2.5,2.2-3.2L46.9,125.9L46.9,125.9z M46.9,125.9"
       id="path3"
       style="fill:#147496;fill-opacity:1" />
    <path
       fill="#010101"
       d="M255.8,95.6l0.2-0.9c-21.1-4.2-42.7-4.3-55.8-3.7c2.1-7.7,2.8-16.7,2.8-26.6c0-14.3-5.4-25.7-14-34.3c1.5-4.9,3.5-15.8-2-29.7c0,0-9.8-3.1-32.1,11.8c-8.7-2.2-18-3.3-27.3-3.3c-10.2,0-20.5,1.3-30.2,3.9C74.4-2.9,64.3,0.3,64.3,0.3c-6.6,16.5-2.5,28.8-1.3,31.8c-7.8,8.4-12.5,19.1-12.5,32.2c0,9.9,1.1,18.8,3.9,26.5c-13.2-0.5-34-0.3-54.4,3.8l0.2,0.9c20.4-4.1,41.4-4.2,54.5-3.7c0.6,1.6,1.3,3.2,2,4.7c-13,0.4-35.1,2.1-56.3,8.1l0.3,0.9c21.4-6,43.7-7.6,56.6-8c7.8,14.4,23,23.8,50.2,26.7c-3.9,2.6-7.8,7-9.4,14.5c-5.3,2.5-21.9,8.7-31.9-8.5c0,0-5.6-10.2-16.3-11c0,0-10.4-0.2-0.7,6.5c0,0,6.9,3.3,11.7,15.6c0,0,6.3,21,36.4,14.2V177c0,0-0.6,7.7-7.7,10.2c0,0-4.2,2.9,0.3,4.5c0,0,19.5,1.6,19.5-14.4v-23.6c0,0-0.8-9.4,3.8-12.6v38.8c0,0-0.3,9.3-5.1,12.8c0,0-3.2,5.7,3.8,4.2c0,0,13.4-1.9,14-17.6l0.3-39.3h3.2l0.3,39.3c0.6,15.6,14,17.6,14,17.6c7,1.6,3.8-4.2,3.8-4.2c-4.8-3.5-5.1-12.8-5.1-12.8v-38.5c4.6,3.6,3.8,12.3,3.8,12.3v23.6c0,16,19.5,14.4,19.5,14.4c4.5-1.6,0.3-4.5,0.3-4.5c-7-2.6-7.7-10.2-7.7-10.2v-31c0-12.1-5.1-18.5-10.1-21.8c29-2.9,42.9-12.2,49.3-26.8c12.7,0.3,35.6,1.9,57.4,8.1l0.3-0.9c-21.7-6.1-44.4-7.7-57.3-8.1c0.6-1.5,1.1-3,1.6-4.6C212.9,91.4,234.6,91.4,255.8,95.6L255.8,95.6z M255.8,95.6"
       id="path4" />
    <path
       fill="#F5CCB3"
       d="M174.6,63.7c6.2,5.7,9.9,12.5,9.9,19.8c0,34.4-25.6,35.3-57.2,35.3c-31.6,0-57.2-4.8-57.2-35.3c0-7.3,3.6-14.1,9.8-19.7c10.3-9.4,27.7-4.4,47.4-4.4C147,59.4,164.3,54.3,174.6,63.7L174.6,63.7z M174.6,63.7"
       id="path5" />
    <path
       fill="#af5c51"
       d="m 120.6,111.26406 c -0.2,-0.5 0.1,-1 0.6,-1.2 0.5,-0.2 1,0.1 1.2,0.6 0.8,2.2 2.8,3.6 5.1,3.6 2.3,0 4.3,-1.5 5.1,-3.6 0.2,-0.5 0.7,-0.8 1.2,-0.6 0.5,0.2 0.8,0.7 0.6,1.2 -1,2.9 -3.8,4.9 -6.9,4.9 -3.1,0 -5.9,-2 -6.9,-4.9 z m 0,0"
       id="path11" />
    <path
       fill="#FFFFFF"
       d="M108.3,85.3c0,9.5-5.3,17.1-11.9,17.1c-6.6,0-11.9-7.7-11.9-17.1c0-9.5,5.3-17.1,11.9-17.1C103,68.1,108.3,75.8,108.3,85.3L108.3,85.3z M108.3,85.3"
       id="path6" />
    <path
       fill="#AF5C51"
       d="M104.5,85.5c0,6.3-3.6,11.4-7.9,11.4c-4.4,0-7.9-5.1-7.9-11.4c0-6.3,3.6-11.4,7.9-11.4C100.9,74.1,104.5,79.2,104.5,85.5L104.5,85.5z M104.5,85.5"
       id="path7" />
    <path
       fill="#FFFFFF"
       d="M172.2,85.3c0,9.5-5.3,17.1-11.9,17.1c-6.6,0-11.9-7.7-11.9-17.1c0-9.5,5.3-17.1,11.9-17.1C166.8,68.1,172.2,75.8,172.2,85.3L172.2,85.3z M172.2,85.3"
       id="path8" />
    <path
       fill="#AF5C51"
       d="M168.3,85.5c0,6.3-3.6,11.4-7.9,11.4c-4.4,0-7.9-5.1-7.9-11.4c0-6.3,3.6-11.4,7.9-11.4C164.8,74.1,168.3,79.2,168.3,85.5L168.3,85.5z M168.3,85.5"
       id="path9" />
    <path
       fill="#af5c51"
       d="m 130.5,98.686633 c 0,1.599997 -1.3,2.999997 -3,2.999997 -1.6,0 -3,-1.3 -3,-2.999997 0,-1.7 1.3,-3 3,-3 1.6,0 3,1.3 3,3 z m 0,0"
       id="path10" />
    <path
       style="fill:#000000;fill-opacity:1;stroke:none;stroke-width:0.222795"
       d="m 127.48541,101.72537 c 0.16687,-0.13621 0.49628,-1.08428 1.11836,-1.52854 0.62206,-0.444267 1.74232,-0.719257 2.57222,-0.792577 0.8299,-0.0733 1.46266,-0.0478 2.29263,0.28306 0.82997,0.330827 1.72493,0.956497 2.46039,1.811607 0.73546,0.85512 1.21687,2.36079 1.73346,3.28355 0.51658,0.92276 0.74101,1.78081 1.34203,2.26451 0.60101,0.48371 1.30877,0.63903 1.90121,0.62275 0.59243,-0.0163 1.0912,-0.16109 1.45386,-0.56613 0.36266,-0.40504 0.29166,-1.39543 0.44734,-1.64178 0.3514,-0.18973 0.45156,0.0199 0.67102,0.22645 0.21946,0.20653 0.33247,0.48767 0.41938,1.01904 0.0869,0.53137 0.0819,1.41133 -0.13979,2.12298 -0.22173,0.71165 -0.60499,1.44668 -1.20224,2.00976 -0.59724,0.56308 -1.58173,0.90886 -2.29263,1.18887 -0.7109,0.28001 -0.81294,0.41895 -1.92917,0.53783 -1.11622,0.11886 -3.48512,-0.005 -4.72506,-0.28307 -1.23994,-0.27809 -1.83736,-0.63865 -2.68406,-1.07565 -0.8467,-0.43699 -1.71954,-0.9185 -2.37651,-1.52854 -0.65698,-0.61005 -1.21937,-1.81545 -1.53775,-2.03807 -0.31837,0.20198 -0.80171,1.20169 -1.5657,1.83992 -0.76398,0.63823 -1.9558,1.29962 -3.07548,1.78331 -1.11969,0.48369 -2.47981,0.86896 -3.60671,1.07564 -1.12689,0.20668 -2.28923,0.24887 -3.10344,0.22646 -0.81421,-0.0224 -1.08043,-0.0208 -1.76141,-0.22646 -0.68099,-0.20571 -1.66477,-0.57546 -2.23672,-1.10395 -0.57196,-0.52849 -0.90081,-1.2613 -1.11836,-1.86822 -0.21755,-0.60693 -0.23332,-1.15221 -0.25163,-1.67009 -0.0183,-0.51787 -0.0981,-0.96254 0.11183,-1.41532 0.20997,-0.45278 0.61182,-1.26467 1.11836,-1.10395 0.33879,0.27395 0.10657,1.20357 0.30755,1.61347 0.20098,0.40989 0.35946,0.65949 0.72693,0.82088 0.36747,0.1614 0.78313,0.13164 1.31408,-0.0283 0.53094,-0.15994 0.78017,-0.20077 1.70549,-1.07564 0.92532,-0.87488 2.38594,-3.54975 3.2712,-4.58565 0.88526,-1.0359 1.27078,-1.42018 1.81733,-1.7833 0.54656,-0.363117 0.78138,-0.393197 1.28611,-0.537827 0.50474,-0.14462 1.12825,-0.28917 1.73346,-0.28306 0.6052,0.006 1.32668,0.0979 1.84529,0.33967 0.51861,0.24177 0.87713,0.639307 1.20224,0.990727 0.3251,0.35142 0.3923,0.75896 0.75489,1.07565 z"
       id="path4750"
       inkscape:connector-curvature="0"
       sodipodi:nodetypes="ccccccccccccccccccccccccccccccccccccccccc" />
    <path
       fill="#C4E5D9"
       d="M54.5,121.6c0,0.8-0.9,1.4-2.1,1.4c-1.1,0-2.1-0.6-2.1-1.4c0-0.8,0.9-1.4,2.1-1.4C53.6,120.2,54.5,120.8,54.5,121.6L54.5,121.6z M54.5,121.6"
       id="path12"
       style="fill:#147496;fill-opacity:1" />
    <path
       fill="#C4E5D9"
       d="M60.3,124.8c0,0.8-0.9,1.4-2.1,1.4c-1.1,0-2.1-0.6-2.1-1.4c0-0.8,0.9-1.4,2.1-1.4C59.4,123.4,60.3,124,60.3,124.8L60.3,124.8z M60.3,124.8"
       id="path13"
       style="fill:#147496;fill-opacity:1" />
    <path
       fill="#C4E5D9"
       d="M63.8,129c0,0.8-0.9,1.4-2.1,1.4c-1.1,0-2.1-0.6-2.1-1.4c0-0.8,0.9-1.4,2.1-1.4C62.9,127.5,63.8,128.2,63.8,129L63.8,129z M63.8,129"
       id="path14"
       style="fill:#147496;fill-opacity:1" />
    <path
       fill="#C4E5D9"
       d="M67,133.8c0,0.8-0.9,1.4-2.1,1.4c-1.1,0-2.1-0.6-2.1-1.4c0-0.8,0.9-1.4,2.1-1.4C66.1,132.3,67,133,67,133.8L67,133.8z M67,133.8"
       id="path15"
       style="fill:#147496;fill-opacity:1" />
    <path
       fill="#C4E5D9"
       d="M70.5,138.2c0,0.8-0.9,1.4-2.1,1.4c-1.1,0-2.1-0.6-2.1-1.4c0-0.8,0.9-1.4,2.1-1.4C69.6,136.8,70.5,137.4,70.5,138.2L70.5,138.2z M70.5,138.2"
       id="path16"
       style="fill:#147496;fill-opacity:1" />
    <path
       fill="#C4E5D9"
       d="M75.3,142.1c0,0.8-0.9,1.4-2.1,1.4c-1.1,0-2.1-0.6-2.1-1.4c0-0.8,0.9-1.4,2.1-1.4C74.4,140.6,75.3,141.3,75.3,142.1L75.3,142.1z M75.3,142.1"
       id="path17"
       style="fill:#147496;fill-opacity:1" />
    <path
       fill="#C4E5D9"
       d="M82,144.6c0,0.8-0.9,1.4-2.1,1.4c-1.1,0-2.1-0.6-2.1-1.4c0-0.8,0.9-1.4,2.1-1.4C81.1,143.2,82,143.8,82,144.6L82,144.6z M82,144.6"
       id="path18"
       style="fill:#147496;fill-opacity:1" />
    <path
       fill="#C4E5D9"
       d="M88.7,144.6c0,0.8-0.9,1.4-2.1,1.4c-1.1,0-2.1-0.6-2.1-1.4c0-0.8,0.9-1.4,2.1-1.4C87.8,143.2,88.7,143.8,88.7,144.6L88.7,144.6z M88.7,144.6"
       id="path19"
       style="fill:#147496;fill-opacity:1" />
    <path
       fill="#C4E5D9"
       d="M95.5,143.5c0,0.8-0.9,1.4-2.1,1.4c-1.1,0-2.1-0.6-2.1-1.4c0-0.8,0.9-1.4,2.1-1.4C94.5,142.1,95.5,142.7,95.5,143.5L95.5,143.5z M95.5,143.5"
       id="path20"
       style="fill:#147496;fill-opacity:1" />
  </g>
</svg>
