<?xml version="1.0" encoding="UTF-8" standalone="no"?>
<!-- Created with Inkscape (http://www.inkscape.org/) -->

<svg
   width="184.38539mm"
   height="44.186031mm"
   viewBox="0 0 184.38539 44.186031"
   version="1.1"
   id="svg1"
   sodipodi:docname="tatwil.svg"
   inkscape:version="1.4 (e7c3feb100, 2024-10-09)"
   xmlns:inkscape="http://www.inkscape.org/namespaces/inkscape"
   xmlns:sodipodi="http://sodipodi.sourceforge.net/DTD/sodipodi-0.dtd"
   xmlns="http://www.w3.org/2000/svg"
   xmlns:svg="http://www.w3.org/2000/svg">
  <sodipodi:namedview
     id="namedview1"
     pagecolor="#ffffff"
     bordercolor="#666666"
     borderopacity="1.0"
     inkscape:showpageshadow="2"
     inkscape:pageopacity="0.0"
     inkscape:pagecheckerboard="0"
     inkscape:deskcolor="#d1d1d1"
     inkscape:document-units="mm"
     inkscape:zoom="0.49034272"
     inkscape:cx="425.2128"
     inkscape:cy="141.7376"
     inkscape:window-width="1916"
     inkscape:window-height="964"
     inkscape:window-x="0"
     inkscape:window-y="76"
     inkscape:window-maximized="1"
     inkscape:current-layer="layer1" />
  <defs
     id="defs1" />
  <g
     inkscape:label="Calque 1"
     inkscape:groupmode="layer"
     id="layer1"
     transform="translate(51.593745,138.11249)">
    <g
       id="text591816"
       style="font-size:18.6969px;line-height:1.25;font-family:'A Thuluth';-inkscape-font-specification:'A Thuluth';letter-spacing:0px;word-spacing:0px;direction:rtl;stroke-width:0.12984"
       aria-label="ضاق عن وجدي بكم رحب الفضا&#10;لا أبـــــــــــالي شـــــــــــــــــــــــــــــــــرقه من غربـه&#10;&#10;">
      <path
         style="fill:#737373"
         d="m 130.23543,-127.99717 q 0.0274,0.22823 0.0274,0.42908 0,0.6847 -0.49298,1.5246 -0.87642,0.87641 -2.37363,1.54286 -1.45157,0.64818 -2.41015,0.64818 -0.9951,0 -1.54286,-0.32866 -0.20997,0.4656 -0.29214,0.76687 -0.0548,0.20084 -0.13694,0.20084 -0.0913,0 -0.0548,-0.30127 0.0456,-0.32865 0.19171,-0.88554 -0.30126,-0.30127 -0.63905,-0.94945 -0.62993,0.92206 -0.95858,1.23246 -0.64819,0.62079 -1.42418,0.62079 v -1.2781 q 0.86729,0 1.3055,-0.26476 0.50211,-0.30126 1.2142,-1.5246 0.10955,-0.19171 0.2191,-0.19171 0.0822,0 0.0822,0.14607 0,0.0548 -0.009,0.12781 0,0.073 -0.0274,0.31952 0.24649,0.43821 0.63906,0.69383 0.51124,-1.16855 1.28723,-2.24581 0.75774,-1.03162 1.32376,-1.38766 0.69383,-0.42908 1.55199,-0.42908 1.79848,0 2.5197,1.53373 z m -0.50212,0.99509 q -0.53863,-0.70295 -1.41505,-1.10465 -0.66644,-0.31039 -1.12291,-0.31039 -0.7486,0 -1.69805,0.99509 -0.81252,0.85816 -1.53373,2.15453 0.51124,0.18259 1.38766,0.18259 0.79425,0 2.21843,-0.59341 1.49721,-0.62992 2.16365,-1.32376 z m -4.81116,-3.53305 q 0,0.61166 -0.36518,1.06813 -0.5295,-0.27388 -1.06813,-0.53863 -0.26475,-0.14607 -0.26475,-0.31953 0,0.0274 0.33778,-1.13204 0.2465,0.20998 0.89468,0.52038 0.4656,0.2191 0.4656,0.40169 z m -4.69249,7.03872 q -0.83077,0 -1.54286,-0.79425 -0.53863,-0.60254 -0.73947,-1.26898 -0.26475,-0.86729 -0.51125,-3.30482 -0.27388,-2.72055 -0.62992,-5.08505 -0.10042,-0.69383 -0.4656,-1.86238 -0.32865,-1.07727 -0.32865,-1.13204 0.12781,-0.42908 0.29213,-1.10465 0.0274,-0.0457 0.073,-0.0457 0.22823,0 0.63905,1.37853 0.38344,1.28724 0.57515,2.47405 0.32866,2.09975 0.52037,4.29993 0.0913,1.19594 0.19172,2.39188 0.17346,1.38766 0.85816,2.16366 0.53863,0.61167 1.06813,0.61167 z m -5.58715,-9.20238 q 0,0.14607 -0.12781,0.50212 -0.14607,0.42908 -0.31953,0.62079 -0.35604,-0.20084 -0.71209,-0.39256 -0.49298,-0.29214 -0.49298,-0.43821 0,-0.0639 0.18259,-0.5295 0.18258,-0.47473 0.26475,-0.47473 1.20507,0.50212 1.20507,0.71209 z m -1.835,0.52951 q 0,0.2191 -0.11868,0.53863 -0.13694,0.38343 -0.3104,0.38343 -0.073,0 -0.65731,-0.33779 -0.63906,-0.3743 -0.63906,-0.5295 0,-0.10955 0.44734,-1.13204 0.27388,0.27388 0.87642,0.6208 0.40169,0.23736 0.40169,0.45647 z m 3.25005,5.11243 q 0.0548,1.15943 -0.29214,1.87151 -0.20085,0.41083 -1.3055,1.37854 -1.31462,1.16855 -2.69315,1.91716 -1.76197,0.95858 -3.17702,0.95858 -1.92629,0 -2.77532,-1.42418 -0.5934,-1.02249 -0.51124,-2.34624 0.10042,-1.55199 0.43821,-2.41928 0.1552,-0.40169 0.26475,-0.40169 0.0456,0 0.0456,0.10955 0,0.16433 -0.0913,0.4656 -0.32865,1.07726 -0.32865,1.80761 0,1.2142 0.75773,2.01759 0.85816,0.89467 2.35537,0.89467 1.1503,0 2.90313,-0.88554 1.52461,-0.76687 2.78445,-1.79849 1.25985,-1.03161 1.25073,-1.48808 0,-0.32865 -0.5569,-0.56602 -0.52037,-0.2191 -1.17768,-0.20997 -0.94945,0.009 -1.22333,-0.10955 -0.44734,-0.19172 -0.47473,-0.94946 -0.0365,-0.87641 0.47473,-1.47895 0.44734,-0.5295 0.98597,-0.5295 0.57515,0 1.35114,0.84903 0.94032,1.01335 0.9951,2.33711 z m -1.68893,-1.32376 q -0.5295,-0.57515 -0.96771,-0.57515 -0.23736,0 -0.48386,0.35605 0.10956,0.1552 0.4656,0.17346 0.26475,0 0.5295,-0.009 0.22824,0.009 0.45647,0.0548 z m -10.59918,0.91294 q -0.17345,0.41082 -0.54776,0.92206 -1.57024,0.85816 -4.464246,2.28234 -1.780223,0.76686 -2.638381,0.76686 v -1.2781 q 1.542859,0 2.51057,-0.41083 -2.127138,-1.22333 -2.127138,-2.64751 0,-1.10465 0.766865,-1.87151 0.721219,-0.73035 1.670671,-0.74861 1.013357,-0.0274 1.935419,0.41995 0.78513,0.37431 0.78513,0.6208 0,0.0639 -0.10043,0.0639 -0.073,0 -0.18258,-0.0274 -0.80339,-0.2191 -1.1503,-0.2191 -0.830772,0 -2.008458,0.39256 -1.232461,0.41082 -1.232461,0.74861 0,0.60254 0.958581,1.44244 1.095521,0.94945 2.318858,0.94945 0.12781,0 0.25562,-0.009 0.97684,-0.5295 3.0492,-1.57025 0.28301,-0.12781 0.28301,-0.0183 0,0.0639 -0.0822,0.19172 z m -14.241773,2.75706 q -0.05478,0.30127 -0.100423,0.60254 -0.100423,0.46559 -0.237363,0.46559 -0.164328,0 -0.620795,-0.23736 -0.41995,-0.2191 -0.456468,-0.27388 -0.02739,-0.0639 -0.04565,-0.2191 0.100422,-0.3104 0.246492,-0.89468 0.02739,-0.17346 0.100423,-0.16433 0,0 0.155199,0.10043 0.27388,0.10955 0.821641,0.38343 0.06391,0.0183 0.118681,0.0456 0.05478,0.0274 0.01826,0.19172 z m 6.719198,1.2142 q -0.849029,0 -1.38766,-0.40169 0.08216,0.43821 0.08216,0.91294 0,1.25985 -0.456468,1.93542 -0.566019,0.83077 -2.793579,2.16365 -2.638381,1.58851 -4.455121,1.58851 -1.917162,0 -2.903132,-1.23246 -0.903805,-1.12291 -0.903805,-3.08572 0,-1.18682 0.337786,-2.53796 0.06391,-0.27388 0.13694,-0.42908 0.13694,-0.32866 0.191716,-0.073 0.04565,0.25562 -0.07303,0.76686 -0.209975,0.88555 -0.209975,1.70719 0,3.52393 3.606091,3.52393 1.278108,0 3.094848,-0.82164 1.451566,-0.65732 2.79358,-1.60677 1.214203,-0.85816 1.205073,-1.07726 -0.08216,-1.43331 -0.903805,-2.66577 -0.05478,-0.0822 0.01826,-0.62993 0.09129,-0.69383 0.09129,-0.76686 0.05478,-0.10042 0.136941,-0.0183 0.246492,0.30127 0.730347,0.9951 0.684701,0.47473 1.661541,0.47473 z m -14.90822,-1.76196 q 0.04565,1.03162 -0.374304,1.85326 -0.620795,0.9038 -2.200172,2.09975 -2.108879,1.59763 -3.688255,1.5885 -1.168557,-0.009 -1.752835,-1.07726 -0.456467,-0.84903 -0.456467,-2.09062 0,-0.16433 0.0091,-0.32866 0.05478,-0.92206 0.511244,-2.10888 0.228233,-0.5934 0.365174,-0.5934 0.04565,0 0.04565,0.10042 0,0.18259 -0.146069,0.57515 -0.164328,0.43821 -0.237363,0.71209 -0.127811,0.51124 -0.14607,0.9951 -0.08216,2.5197 2.191043,2.5197 1.360273,0 3.505669,-1.57938 1.780222,-1.3055 2.044973,-1.835 -0.05478,-0.20997 -0.447338,-0.41082 -0.465596,-0.23736 -1.031616,-0.20998 -0.447338,0.0183 -0.55689,0.0183 -1.040745,0 -1.059004,-0.9951 -0.01826,-0.8399 0.474726,-1.45156 0.456467,-0.56602 0.97684,-0.56602 0.483855,0 1.104651,0.64818 0.812512,0.8399 0.867288,2.13627 z m -1.250721,-0.96771 q -0.566019,-0.62993 -0.949452,-0.62993 -0.465596,0 -0.483855,0.41082 0.100423,0.16433 0.474726,0.18259 0.28301,-0.009 0.55689,-0.009 0.200846,0.009 0.401691,0.0457 z m -7.239574,-1.24159 q 0.05478,0.009 -0.118682,0.59341 -0.173457,0.58427 -0.27388,0.57514 -0.657313,-0.0365 -2.78445,1.02249 -2.474053,1.23246 -4.19037,1.57938 0.02739,0.33778 -0.13694,0.6847 -0.0639,0.13694 -0.127811,0.13694 -0.146069,0 -0.109552,-0.30127 0,-0.20085 -0.0639,-0.44734 -0.766865,0.12781 -1.579377,0.12781 v -1.2781 q 0.474726,0 1.132039,-0.0639 -0.547761,-1.26898 -0.547761,-1.64328 0.0091,-0.94033 0.602537,-1.64328 0.602536,-0.70296 1.515471,-0.74861 0.529502,-0.0274 2.802709,0.58428 2.547087,0.6847 3.879972,0.82164 z m -3.231788,6.0984 q -0.05478,0.30127 -0.100423,0.60254 -0.100423,0.46559 -0.237363,0.46559 -0.164328,0 -0.620796,-0.23736 -0.41995,-0.2191 -0.456467,-0.27388 -0.02739,-0.0548 -0.04565,-0.2191 0.100423,-0.3104 0.246493,-0.89468 0.02739,-0.17346 0.100422,-0.16433 0,0 0.155199,0.10043 0.273881,0.10955 0.821641,0.38343 0.06391,0.0183 0.118682,0.0456 0.05478,0.0274 0.01826,0.19172 z m 0.611666,-5.27676 q -0.492985,-0.0548 -2.008456,-0.5295 -1.323755,-0.41995 -2.273207,-0.41995 -0.273881,0 -0.547761,0.0274 -0.264751,0.0274 -0.584278,0.35604 -0.319527,0.31953 -0.319527,0.56602 0,0.0548 0.01826,0.0913 0.27388,0.48386 0.748606,1.60677 2.419276,-0.41082 4.966364,-1.69806 z m -6.700938,3.14962 q -0.849029,0 -1.561118,-0.79425 -0.55689,-0.6208 -1.077263,-2.84836 -0.14607,0.6208 -0.401691,1.01336 -0.666442,1.00423 -2.282337,2.18192 -1.889774,1.3694 -3.2044,1.3694 -1.38766,0 -1.38766,-2.06323 0,-1.6159 1.232461,-3.67913 0.246493,-0.40169 0.365174,-0.40169 0.05478,0 0.05478,0.0822 0,0.16433 -0.155199,0.4656 -1.168556,2.25495 -1.104651,3.29569 0.05478,0.9951 1.168557,0.9951 0.264751,0 1.104651,-0.31953 1.077262,-0.41995 1.908033,-1.02248 0.702959,-0.51125 1.022486,-0.79426 1.040746,-0.93119 1.524601,-1.88977 -0.05478,-0.28301 -0.164328,-0.84903 -0.03652,-0.20085 -0.575149,-1.80761 -0.41995,-1.15943 -0.849029,-2.55622 0,0 0.164328,-1.07726 0.03652,-0.0548 0.08216,-0.0548 0.301269,0 1.378531,3.30483 0.392562,1.20507 0.812512,3.46915 0.246493,1.34201 0.830771,2.06323 0.502114,0.63906 1.11378,0.63906 z m -10.681333,-0.0365 q -0.127811,0.41995 -1.296367,1.31462 -1.305496,0.9951 -2.79358,1.66154 -1.834998,0.82164 -3.332211,0.81251 -1.405919,-0.009 -2.254948,-1.08639 -0.785124,-1.00423 -0.730348,-2.41014 0.07303,-1.78023 0.775995,-3.18615 0.374303,-0.73947 0.520372,-0.73947 0.03652,0.009 0.03652,0.073 0,0.20998 -0.273881,0.78513 -0.648183,1.34201 -0.611666,2.64751 0.02739,1.08639 0.775995,1.83499 0.748606,0.74861 1.816739,0.74861 1.579377,0 3.414376,-0.74861 1.415048,-0.56602 2.629251,-1.42417 1.077263,-0.74861 0.97684,-0.88555 -0.164328,-0.23736 -1.205074,-0.42908 -1.332884,-0.25562 -1.771093,-0.43821 -0.912934,-0.3743 -0.912934,-1.06813 0,-1.82587 1.551989,-3.65174 1.122909,-1.32376 1.981068,-1.32376 0.702959,0 0.702959,1.02249 0,0.78513 -0.438208,0.78513 -0.03652,0 -0.118682,-0.27389 -0.08216,-0.283 -0.456467,-0.283 -0.721219,0 -1.716317,1.22333 -1.031616,1.26898 -1.031616,1.73457 0,0.0274 0.0091,0.0456 0.365174,0.52037 1.506342,0.76686 1.6798,0.36518 1.962809,0.48386 0.456468,0.19172 0.456468,0.94032 0,0.48386 -0.173458,1.06814 z m -12.379395,-2.93965 q 0.127811,0.95858 -0.639054,1.85325 -0.310398,0.36518 -0.922064,0.71209 -0.730348,0.41082 -1.287238,0.41082 0,-0.63905 0,-1.2781 0.821641,0 1.707188,-0.48386 0.794253,-0.43821 0.721218,-0.6208 -0.127811,-0.31952 -0.995099,-1.32375 -0.83077,-0.95858 -1.150297,-1.91716 -0.191716,0 -0.182587,-0.10043 0.03652,-0.33778 0.109552,-0.93119 0.05478,-0.28301 0.191716,-0.1552 0.456468,0.31953 1.11378,0.81251 0.228234,0.19172 0.228234,0.30127 0,0.0913 -0.155199,0.0913 -0.255621,0 -0.447338,-0.0365 0.08216,0.24649 0.885547,1.16855 0.730347,0.84903 0.821641,1.49722 z m -0.684701,5.44109 q 0,0.60253 -0.374303,1.08639 -0.529502,-0.27388 -1.068134,-0.55689 -0.264751,-0.14607 -0.264751,-0.3104 0,0.0639 0.328657,-1.14117 0.237363,0.20085 0.903805,0.52038 0.474726,0.2191 0.474726,0.40169 z m -2.044977,-2.46493 q -0.328656,0 -0.657312,-0.20084 -0.447338,-0.28301 -0.492985,-0.79426 -0.04565,-0.51124 0.05478,-0.86728 -0.328656,0.14607 -0.684701,0.1552 -0.13694,0 -5.760617,0.86728 -5.486736,0.8399 -8.572455,0.8399 h -2.757062 v -1.2781 h 2.766191 q 2.948779,0 8.472033,-0.72122 5.669323,-0.74861 5.705841,-0.74861 0.511243,-0.009 0.821641,-0.0639 -0.858159,-1.73458 -3.916489,-1.73458 -0.922064,0 -4.756389,0.39256 -3.834326,0.39256 -5.212857,0.39256 -3.323081,0 -3.323081,-1.16855 0,-0.11868 0.03652,-0.23737 0.337786,-1.2142 1.059004,-2.06323 0.575149,-0.67557 1.825869,-1.56112 2.912261,-2.06323 4.299922,-2.07236 0.766865,-0.009 0.766865,0.50212 0,0.26475 -0.319527,0.91293 -0.14607,0.29214 -0.191717,0.29214 -0.100422,0 -0.200845,-0.31953 -0.109552,-0.35604 -0.584278,-0.33778 -0.264751,0.0365 -1.278109,0.52037 -1.141168,0.54776 -1.917162,1.08639 -2.720545,1.88065 -2.738804,2.56535 -0.0091,0.29214 0.794253,0.52037 0.97684,0.26475 2.729675,0.25562 0.785123,-0.009 4.409473,-0.3743 3.587833,-0.36517 4.601191,-0.36517 2.127137,0 3.049201,0.34691 1.095521,0.41082 1.698058,1.64328 0.04565,0.10043 0.04565,0.24649 0,0.63906 -0.584278,1.27811 0.01826,0.0456 0.01826,0.26475 0,0.20998 0.246493,0.41082 0.173457,0.13695 0.54776,0.13695 z m -18.605599,0 q -0.6847,0 -1.031616,-0.0183 0.173458,0.3104 0.173458,0.64819 0,0.63905 -0.593407,1.32375 -0.209975,0.2465 -0.547761,0.2465 -0.712089,0 -1.268979,-0.69383 -0.739477,-0.9312 -0.821641,-1.94456 -0.365174,0.71209 -0.721219,1.43331 -0.54776,0.95858 -1.268979,1.54286 -0.766865,0.62993 -2.22756,1.47896 -1.7893516,1.04987 -3.2591762,1.5885 -1.1411682,0.20998 -3.5969621,0.91294 -0.3103977,0.11868 -0.3103977,-0.073 0,-0.10042 0.264751,-0.22823 2.2093016,-1.09552 3.7704196,-1.78935 1.8167398,-0.81252 3.7978074,-2.02672 1.597636,-0.97684 2.072362,-1.41505 0.483855,-0.43821 1.39679,-2.19104 0.146069,-0.27388 0.593407,-0.43821 0.09129,-0.62079 0.228234,-0.62079 0.02739,0.009 0.05478,0.0274 0.337786,0.23737 0.684701,0.4656 0.492984,0.31953 0.876417,0.39256 0.502114,0.10043 1.734575,0.10043 z m -1.771093,0.87642 q -0.07303,-0.47473 -0.529502,-0.83077 -0.191716,-0.1552 -0.894675,-0.53863 0.27388,1.16856 1.424177,1.3694 z m -8.3442243,-3.27743 q 0,0.22823 -0.082164,0.5934 -0.1004228,0.42908 -0.209975,0.42908 -0.073035,0 -0.1369402,-0.1552 -0.3651738,-0.65731 -1.3785311,-0.65731 -1.0407454,0 -2.4010179,1.10465 -0.6664422,0.53863 -3.040072,2.91226 -1.28723768,1.27811 -2.06323204,1.28724 -0.74860636,0.009 -1.27810836,-0.54776 -0.529502,-0.55689 -0.529502,-1.33288 0,-1.63416 1.10465076,-3.61523 0.13694018,-0.24649 0.29213905,-0.24649 0.0456467,0 0.0456467,0.0639 0,0.10042 -0.12781084,0.34691 -1.004228,1.9902 -0.9311932,3.33221 0.054776,0.9951 0.78512368,0.9951 1.05900406,-0.009 2.59273412,-1.46069 1.3785311,-1.35115 2.7479329,-2.70229 1.6980583,-1.45157 3.1678829,-1.45157 0.6390542,0 1.0407454,0.31953 0.4016912,0.3104 0.4016912,0.78513 z m -10.7908859,-1.57025 q 0.054776,0.009 -0.1186815,0.59341 -0.1734576,0.58427 -0.2738804,0.57514 -0.6573129,-0.0365 -2.7844503,1.02249 -2.4740527,1.23246 -4.1903696,1.57938 0.027388,0.33778 -0.1369402,0.6847 -0.063905,0.13694 -0.1278108,0.13694 -0.1460695,0 -0.1095522,-0.30127 0,-0.20085 -0.063905,-0.44734 -0.7668654,0.12781 -1.5793764,0.12781 v -1.2781 q 0.474726,0 1.132038,-0.0639 -0.54776,-1.26898 -0.54776,-1.64328 0.0091,-0.94033 0.6025366,-1.64328 0.6025368,-0.70296 1.5154713,-0.74861 0.529502,-0.0274 2.8027091,0.58428 2.5470873,0.6847 3.8799718,0.82164 z m -2.6201222,0.82164 q -0.4929846,-0.0548 -2.008456,-0.5295 -1.3237551,-0.41995 -2.273207,-0.41995 -0.2738803,0 -0.5477607,0.0274 -0.264751,0.0274 -0.5842781,0.35604 -0.3195268,0.31953 -0.3195268,0.56602 0,0.0548 0.01826,0.0913 0.2738808,0.48386 0.7486067,1.60677 2.4192765,-0.41082 4.9663639,-1.69806 z m -6.7648456,3.15875 q -0.246493,-0.009 -0.456467,-0.0365 -0.511244,-0.073 -0.766866,-0.2465 -0.69383,-0.45646 -0.69383,-1.53373 0,-0.22823 0.03652,-0.47472 -1.81674,0.96771 -3.834325,1.62502 -2.474053,0.80338 -4.354698,0.80338 -2.063232,0 -3.21353,-0.73034 -1.241591,-0.79426 -1.241591,-2.31886 0,-0.47472 0.200846,-1.1503 0.200845,-0.67557 0.456467,-1.04987 0.06391,-0.0913 0.13694,-0.0365 0.07304,0.0548 0.01826,0.1552 -0.365174,0.66644 -0.356045,1.32376 0.01826,1.2142 1.159427,1.86238 1.095522,0.6208 3.07659,0.6208 2.209301,0 5.15808,-1.03162 1.524601,-0.59341 3.049201,-1.18681 0.191717,-0.0274 0.191717,0.1552 0,0.25562 -0.06391,0.79425 -0.05478,0.42908 0.511243,0.82164 0.520373,0.34692 0.98597,0.34692 z m -6.947432,2.41015 q 0,0.61167 -0.383433,1.06813 -0.538631,-0.27388 -1.077262,-0.53863 -0.264751,-0.14607 -0.264751,-0.31953 0,0.13695 0.328656,-1.13203 0.246492,0.20084 0.912935,0.51124 0.483855,0.22823 0.483855,0.41082 z m -9.923596,-5.2585 q 0.03652,0.45646 0.03652,0.88554 0,1.51547 -0.356045,2.18192 -0.13694,0.25562 -0.200845,0.25562 -0.100423,0 -0.02739,-0.58428 0.09129,-0.73948 0.0091,-1.54286 -0.328656,-2.61099 -0.912934,-7.85124 -0.07304,-0.95858 -0.246493,-2.76619 -0.02739,-0.10042 -0.246492,-0.53863 -0.05478,-0.10042 0.292139,-1.15943 0.01826,-0.0639 0.05478,-0.0639 0.09129,0 0.255622,0.39256 0.283009,0.60254 0.55689,1.20507 0.438208,0.9312 0.438208,1.15943 0,0.073 -0.05478,0.073 -0.03652,0 -0.118681,-0.0548 -0.228234,-0.17346 -0.483855,-0.43821 -0.01826,0.25562 0.374303,3.3596 0.474726,3.69739 0.629925,5.48674 z m -2.200174,-0.66645 q 0.03652,1.75284 -0.538631,2.54709 -0.69383,0.95858 -1.643282,0.95858 v -1.2781 q 0.757735,0 1.122909,-0.21911 0.292139,-0.16433 0.492985,-0.59341 0.01826,-0.0274 0.01826,-0.14607 0,-0.8399 -0.922064,-7.94253 -0.155199,-1.22333 -0.237363,-2.75706 -0.01826,-0.0548 -0.164328,-0.25562 -0.05478,-0.073 -0.05478,-0.20085 0,-0.24649 0.292139,-1.15942 0.01826,-0.0639 0.05478,-0.0639 0.09129,0 0.255621,0.41995 0.940323,1.78022 0.940323,2.30973 0,0.0913 -0.05478,0.0913 -0.04565,0 -0.118682,-0.0548 -0.01826,-0.0183 -0.483855,-0.5295 0.465597,3.39612 1.040745,8.87372 z m -2.921388,-3.69738 q 0,0.61167 -0.374304,1.07726 -0.465596,-0.23736 -0.931193,-0.48385 -0.118681,-0.073 -0.118681,-0.25562 0.100422,-0.31953 0.328656,-1.12291 0.237363,0.19171 0.766865,0.44733 0.328657,0.1552 0.328657,0.33779 z m 0.775994,7.20305 q -1.351143,0 -2.245819,-0.8399 -1.305496,0.8399 -2.044973,0.8399 v -1.2781 q 0.757735,0 1.506342,-0.3104 -0.191717,-0.42908 -0.191717,-0.98597 -0.0091,-0.81251 0.456468,-1.63415 0.502114,-0.89468 1.132038,-0.89468 0.328657,0 0.547761,0.66644 0.191716,0.59341 0.191716,1.26898 0,0.84903 -0.666442,1.57938 0.648184,0.3104 1.314626,0.3104 z m -1.040745,-2.894 q -0.05478,-0.42908 -0.264751,-0.72122 -0.191717,-0.25562 -0.365174,-0.25562 -0.255622,0 -0.56602,0.3104 -0.301268,0.3104 -0.383432,0.71209 0.173457,0.40169 0.648183,0.83077 0.538632,-0.36518 0.931194,-0.87642 z m -3.23179,2.894 q -1.643282,0.0913 -3.843454,0.20998 -0.13694,0.009 -0.383433,-0.41995 -0.620795,0.22823 -0.867287,0.28301 -0.492985,0.11868 -1.195945,0.13694 -0.593407,0.009 -1.241591,-0.31953 -0.13694,0.17346 -0.374303,0.63906 -0.127811,0.25562 -0.173457,0 -0.03652,-0.18259 0.155199,-0.74861 -0.328657,-0.28301 -0.912935,-1.3694 -0.447338,0.92206 -0.858158,1.25985 -0.410821,0.32865 -1.132039,0.32865 v -1.2781 q 0.657313,0 1.287237,-0.58428 0.255622,-0.23737 0.958582,-1.12291 0.07303,-0.0913 0.118681,-0.0913 0.09129,0 0.09129,0.22824 v 0.3104 q 0.155198,0.80338 0.912934,1.25985 0.328657,-0.58428 0.666442,-1.16856 0.374304,-0.60254 1.068134,-1.43331 1.186815,-1.42418 2.428406,-1.42418 0.922064,0 1.725446,0.53864 0.812512,0.53863 0.812512,1.20507 0,1.73457 -1.597636,2.41928 -0.02739,0 0.849029,-0.0639 0.885547,-0.0639 1.506342,-0.073 z m -1.314625,-2.84835 q -0.28301,-0.52038 -1.004228,-0.90381 -0.629925,-0.31952 -1.077263,-0.31952 -1.25985,0 -2.337113,1.2142 -0.41082,0.45647 -1.195944,1.77109 0.456467,0.0639 1.342014,0.0639 1.022487,0 2.3645,-0.60254 1.250721,-0.55689 1.908034,-1.22333 z m -4.126465,-4.11734 q 0,0.65732 -0.383432,1.08639 -0.529502,-0.27388 -1.068133,-0.54776 -0.264751,-0.15519 -0.264751,-0.31952 0,0.11868 0.328656,-1.12291 0.237363,0.18258 0.912935,0.50211 0.474725,0.21911 0.474725,0.40169 z m -5.28589,6.96569 q -0.83077,0 -1.542859,-0.79425 -0.538632,-0.60254 -0.739477,-1.26898 -0.264751,-0.86729 -0.511244,-3.30482 -0.27388,-2.72055 -0.629925,-5.08505 -0.100422,-0.69383 -0.465596,-1.86238 -0.328657,-1.07727 -0.328657,-1.13204 0.127811,-0.42908 0.292139,-1.10465 0.02739,-0.0457 0.07303,-0.0457 0.228234,0 0.639054,1.37853 0.383433,1.28724 0.575149,2.47405 0.328657,2.09975 0.520373,4.29993 0.09129,1.19594 0.191716,2.39188 0.173458,1.38766 0.858159,2.16366 0.538631,0.61167 1.068133,0.61167 z"
         id="path1" />
      <path
         style="fill:#737373"
         d="m 132.51777,-114.06579 q 0.16433,-0.32866 0.23736,-0.32866 0.0365,0 0.0365,0.10955 0,0.52038 -0.32866,1.25072 -0.42908,0.94033 -2.21843,3.32309 -0.76686,1.01335 -4.15385,5.3224 0.53863,0.61167 0.62079,1.01336 0.12782,0.6208 0.12782,1.059 0,0.59341 -0.22824,1.04988 -0.12781,0.26475 -0.76686,0.69383 -0.66645,0.44734 -1.00423,0.44734 -0.74861,0 -0.74861,-1.03162 0,-0.76686 0.31953,-1.66154 0.10955,-0.29214 0.72122,-1.15943 -0.12781,-0.11868 -2.21843,-1.84412 -1.4607,-1.21421 -2.24582,-2.04498 -1.32376,-1.39679 -1.78935,-2.10888 -0.0548,0 -0.16433,-0.0639 -0.13694,-0.0639 -0.12781,-0.13694 0.0183,-0.28301 0.0548,-1.05901 -0.009,-0.0548 0.0456,-0.0548 0.0822,0 1.02249,0.57515 1.15942,0.70296 1.15942,0.75773 0,0.0548 -0.14607,0.0639 -0.18258,0.009 -0.70296,0.0183 0.67558,0.70296 2.70229,2.52883 1.11378,0.9038 2.99443,2.56534 1.33288,-1.7437 3.98952,-5.24024 2.33711,-3.09485 2.81184,-4.0443 z m -6.02537,11.86815 q -0.0365,-0.50212 -0.97684,-1.42418 -0.33779,0.47472 -0.66644,0.94945 -0.37431,0.57515 -0.37431,0.87642 0,0.38343 0.41995,0.38343 0.39257,0 1.03162,-0.3743 0.58428,-0.34692 0.56602,-0.41082 z m -10.27965,-0.88555 q 0.0365,0.45647 0.0365,0.88555 0,1.51547 -0.35605,2.18191 -0.13694,0.255622 -0.20084,0.255622 -0.10042,0 -0.0274,-0.584282 0.0913,-0.73947 0.009,-1.54286 -0.32866,-2.61099 -0.91294,-7.85123 -0.073,-0.95858 -0.24649,-2.76619 -0.0274,-0.10043 -0.24649,-0.53864 -0.0548,-0.10042 0.29214,-1.15942 0.0183,-0.0639 0.0548,-0.0639 0.0913,0 0.25562,0.39256 0.28301,0.60254 0.55689,1.20508 0.43821,0.93119 0.43821,1.15942 0,0.073 -0.0548,0.073 -0.0365,0 -0.11868,-0.0548 -0.22824,-0.17345 -0.48386,-0.43821 -0.0183,0.25563 0.37431,3.3596 0.47472,3.69739 0.62992,5.48674 z m -0.20997,-15.09081 q 0.0548,-0.009 0.0548,0.073 0,0.36517 -0.25562,0.61166 -0.20085,0.19172 -0.97684,0.59341 -0.83077,0.43821 -1.40592,0.91293 -0.34691,0.28301 -0.34691,0.0183 0,-0.0913 0.10042,-0.24649 0.17346,-0.27388 0.22823,-0.33778 0.16433,-0.18259 0.53863,-0.36518 -0.24649,-0.0183 -0.49298,-0.23736 -0.24649,-0.22824 -0.24649,-0.44734 0,-0.40169 0.56602,-1.03162 0.57514,-0.63905 0.98597,-0.63905 0.38343,0 0.38343,0.49299 0,0.0913 -0.0913,0.33778 -0.10955,0.3104 -0.22823,0.30127 -0.0822,-0.0639 -0.20997,-0.28301 -0.073,-0.13694 -0.23737,-0.13694 -0.10955,0.0183 -0.20997,0.073 -0.24649,0.13694 -0.4656,0.44734 0.5295,0.5295 0.94032,0.5295 0.27388,0 1.36941,-0.66644 z m -3.32309,15.07255 q 0.12781,0.95858 -0.63906,1.85326 -0.31039,0.36517 -0.92206,0.71209 -0.73035,0.41082 -1.28724,0.41082 0,-0.63906 0,-1.27811 0.82164,0 1.70719,-0.48386 0.79425,-0.4382 0.72122,-0.62079 -0.12781,-0.31953 -0.9951,-1.32376 -0.83077,-0.95858 -1.1503,-1.91716 -0.19171,0 -0.18258,-0.10042 0.0365,-0.33779 0.10955,-0.9312 0.0548,-0.283 0.19171,-0.15519 0.45647,0.31952 1.11378,0.81251 0.22824,0.19171 0.22824,0.30127 0,0.0913 -0.1552,0.0913 -0.25562,0 -0.44734,-0.0365 0.0822,0.24649 0.88555,1.16856 0.73035,0.84903 0.82164,1.49721 z m -0.6847,5.441091 q 0,0.602537 -0.37431,1.086392 -0.5295,-0.27388 -1.06813,-0.55689 -0.26475,-0.14607 -0.26475,-0.310398 0,0.06391 0.32866,-1.141168 0.23736,0.200846 0.9038,0.520373 0.47473,0.219104 0.47473,0.401691 z"
         id="path2" />
      <path
         style="fill:#fb660a"
         d="m 109.83134,-100.12528 h -1.56112 v -1.27811 h 1.56112 z m -1.56111,0 h -1.56112 v -1.27811 h 1.56112 z m -1.56111,0 H 105.148 v -1.27811 h 1.56112 z m -1.56113,0 h -1.56112 v -1.27811 h 1.56112 z m -1.56111,0 h -1.56112 v -1.27811 h 1.56112 z m -1.56113,0 h -1.56112 v -1.27811 h 1.56112 z m -1.56111,0 h -1.561118 v -1.27811 h 1.561118 z m -1.561127,0 h -1.561118 v -1.27811 h 1.561118 z m -1.561111,0 h -1.561118 v -1.27811 h 1.561118 z m -1.561127,0 h -1.561118 v -1.27811 h 1.561118 z m -1.561111,0 h -1.561118 v -1.27811 h 1.561118 z"
         id="path3" />
      <path
         style="fill:#737373"
         d="m 92.759468,-100.12528 q -0.83077,0 -1.542859,-0.79426 -0.538631,-0.60253 -0.739477,-1.26897 -0.264751,-0.86729 -0.511243,-3.30483 -0.273881,-2.72054 -0.629925,-5.08504 -0.100423,-0.69383 -0.465597,-1.86239 -0.328656,-1.07726 -0.328656,-1.13204 0.127811,-0.42908 0.292139,-1.10465 0.02739,-0.0457 0.07303,-0.0457 0.228234,0 0.639055,1.37854 0.383432,1.28723 0.575148,2.47405 0.328657,2.09975 0.520373,4.29992 0.09129,1.19594 0.191716,2.39189 0.173458,1.38766 0.858159,2.16365 0.538631,0.61167 1.068133,0.61167 z m -4.838549,0.721216 q -0.392562,0.712089 -2.583605,2.017585 -2.629252,1.579377 -4.592061,1.579377 -1.551989,0 -2.483182,-1.141168 -0.83077,-1.031616 -0.83077,-2.492311 0,-1.168559 0.200845,-1.953679 0.03652,-0.13694 0.374304,-1.08639 0.237363,-0.66645 0.401691,-0.66645 0.05478,0 0.05478,0.12782 0,0.20997 -0.13694,0.62992 -0.438209,1.36027 -0.410821,2.537958 0.02739,1.086392 0.885547,1.880645 0.858158,0.803383 1.94455,0.803383 1.561118,0 3.35047,-0.739477 1.351143,-0.547761 2.556217,-1.387661 1.022486,-0.712088 0.995098,-0.858158 -0.03652,-0.20998 -1.478954,-0.54776 -1.853257,-0.41995 -2.309724,-0.60254 0.0091,-0.0274 0.02739,-0.073 -0.01826,-0.0274 -0.01826,-0.0548 0.03652,-0.97684 0.28301,-0.9951 0.757736,-0.0456 1.451566,-0.43821 0.648183,-0.35604 0.8399,-0.76686 0.01826,-0.0274 0.01826,-0.14607 0,-0.60254 -0.383432,-3.50567 -0.219104,-1.60676 -0.438209,-3.21353 -0.237363,-1.9902 -0.27388,-2.91226 -0.01826,-0.0457 -0.164328,-0.24649 -0.05478,-0.0639 -0.05478,-0.17346 0,-0.13694 0.337785,-1.10465 0.01826,-0.0639 0.04565,-0.073 0.03652,0 0.255622,0.41995 0.940322,1.80761 0.940322,2.30973 0,0.0913 -0.05478,0.0913 -0.04565,0 -0.118681,-0.0548 -0.13694,-0.10043 -0.483855,-0.52951 0.392561,2.93965 0.922063,7.95166 -0.0091,0.4656 -0.07303,0.86729 -0.14607,0.96771 -0.520373,1.47896 -0.09129,0.12781 -0.328656,0.34691 0.502114,0.10955 1.013357,0.21911 0.346915,0.0822 0.69383,0.28301 0.502114,0.283 0.502114,0.91293 0,0.50211 -0.356044,1.305496 z m -12.488954,-3.295696 q 0,1.94455 -1.369402,1.94455 -0.429079,0 -0.766865,-0.31039 -0.228234,-0.28301 -0.465597,-0.55689 -0.164328,0.33778 -0.483855,0.78512 -0.41082,0.57515 -1.223332,0.57515 -0.593408,0 -0.97684,-0.37431 -0.429079,-0.42907 -0.374303,-1.2142 -1.031616,0.78513 -1.579377,1.07726 -1.186815,0.64819 -2.337113,0.64819 0,-0.63906 0,-1.27811 1.332885,0 2.200173,-0.3743 0.538631,-0.22824 1.908033,-1.15943 0.146069,-0.10042 0.200846,-0.10042 0.08216,0 0.08216,0.14607 0,0.0548 -0.0091,0.14607 -0.0091,0.0913 -0.07303,0.48385 0.401691,0.80338 1.132038,0.80338 0.995099,0 1.515472,-1.15942 0.191716,-0.41995 0.54776,-0.75774 0.03652,-0.0183 0.07303,-0.0274 0.05478,0 0.05478,0.10043 0,0.0913 -0.209975,0.79425 0.410821,0.54776 0.995099,0.54776 0.182587,0 0.438209,-0.0913 0.301268,-0.10956 0.301268,-0.22824 0,-0.10042 -0.155199,-0.30127 -0.155199,-0.20997 -0.155199,-0.32865 -0.04565,-0.62993 0.191716,-1.02249 0.02739,-0.0456 0.06391,-0.0456 0.13694,0 0.301268,0.44734 0.173458,0.43821 0.173458,0.83077 z m -1.040746,-3.37786 q 0,0.13694 -0.118681,0.50212 -0.14607,0.42908 -0.310398,0.61166 -0.365174,-0.20084 -0.730347,-0.39256 -0.492985,-0.29214 -0.492985,-0.43821 0,-0.0639 0.173457,-0.51124 0.191717,-0.48385 0.28301,-0.48385 1.195944,0.51124 1.195944,0.71208 z m -1.506342,-1.35114 q 0,0.60254 -0.374303,1.08639 -0.529502,-0.27388 -1.068133,-0.54776 -0.264751,-0.1552 -0.264751,-0.31952 0,0.0365 0.328656,-1.12291 0.237363,0.18258 0.903805,0.50211 0.474726,0.2191 0.474726,0.40169 z m -0.328656,1.87152 q 0,0.22823 -0.109552,0.54776 -0.13694,0.38343 -0.301269,0.38343 -0.08216,0 -0.675571,-0.34691 -0.639054,-0.37431 -0.639054,-0.52951 0,-0.10042 0.447338,-1.12291 0.27388,0.27388 0.876417,0.6208 0.401691,0.23736 0.401691,0.44734 z"
         id="path4" />
      <path
         style="fill:#fb660a"
         d="m 65.85528,-100.12528 h -1.561118 v -1.27811 h 1.561118 z m -1.561119,0 h -1.561118 v -1.27811 h 1.561118 z m -1.561119,0 h -1.561118 v -1.27811 h 1.561118 z m -1.561119,0 h -1.561118 v -1.27811 h 1.561118 z m -1.561119,0 h -1.561118 v -1.27811 h 1.561118 z m -1.561111,0 h -1.561118 v -1.27811 h 1.561118 z m -1.561119,0 h -1.561118 v -1.27811 h 1.561118 z m -1.561119,0 h -1.561119 v -1.27811 h 1.561119 z m -1.56112,0 h -1.561118 v -1.27811 h 1.561118 z m -1.561119,0 h -1.561118 v -1.27811 h 1.561118 z m -1.561119,0 h -1.561118 v -1.27811 h 1.561118 z m -1.561119,0 H 47.12186 v -1.27811 h 1.561118 z m -1.561119,0 h -1.561118 v -1.27811 h 1.561118 z m -1.561111,0 H 43.99963 v -1.27811 h 1.561118 z m -1.561119,0 h -1.561118 v -1.27811 h 1.561118 z m -1.561119,0 h -1.561119 v -1.27811 h 1.561119 z m -1.56112,0 h -1.561118 v -1.27811 h 1.561118 z m -1.561119,0 h -1.561118 v -1.27811 h 1.561118 z m -1.561119,0 h -1.561118 v -1.27811 h 1.561118 z m -1.561119,0 h -1.561118 v -1.27811 h 1.561118 z m -1.561119,0 h -1.561118 v -1.27811 h 1.561118 z m -1.561111,0 h -1.561118 v -1.27811 h 1.561118 z m -1.561119,0 h -1.561118 v -1.27811 h 1.561118 z m -1.561119,0 h -1.561119 v -1.27811 h 1.561119 z m -1.56112,0 h -1.561118 v -1.27811 h 1.561118 z m -1.561119,0 h -1.561118 v -1.27811 h 1.561118 z m -1.561119,0 h -1.561118 v -1.27811 h 1.561118 z m -1.561119,0 H 22.14397 v -1.27811 h 1.561118 z m -1.561119,0 h -1.561118 v -1.27811 h 1.561118 z m -1.561111,0 H 19.02174 v -1.27811 h 1.561118 z m -1.561119,0 h -1.561118 v -1.27811 h 1.561118 z m -1.561119,0 h -1.561119 v -1.27811 h 1.561119 z m -1.56112,0 h -1.561118 v -1.27811 H 15.8995 Z"
         id="path5" />
      <path
         style="fill:#737373"
         d="m 14.447933,-100.12528 q -0.292139,0.009 -0.492985,-0.0822 0.08216,0.401695 0.08216,0.766869 0,0.648183 -0.328656,1.561118 -0.08216,0.228233 -0.867288,0.922064 -0.96771,0.867287 -2.026715,1.424177 -1.4150481,0.739477 -2.6840271,0.739477 -2.063232,0 -2.063232,-2.665768 0,-1.935422 0.7120889,-3.341337 0.1917163,-0.38344 0.3195271,-0.38344 0.054776,0 0.054776,0.10956 0,0.13694 -0.1095522,0.39256 -0.529502,1.22333 -0.529502,2.401015 0,2.209302 1.6980582,2.200173 1.7619637,-0.0091 3.660868,-1.250721 1.570247,-1.031616 1.734575,-1.597635 0.01826,-0.07304 0.01826,-0.155199 0,-0.511243 -0.931193,-1.908033 -0.02739,-0.0365 -0.02739,-0.12781 0,-0.14607 0.08216,-0.56602 0.08216,-0.42908 0.08216,-0.55689 0.04565,-0.0822 0.127811,-0.0183 0.209975,0.30127 0.602536,0.78512 0.06391,0.073 0.885547,0.073 z m -6.317505,-8.88286 q 0,0.14607 -0.1186815,0.49299 -0.1460695,0.42908 -0.3195271,0.61167 -1.2050736,-0.69383 -1.2050736,-0.83078 0.3195271,-0.99509 0.4564673,-0.99509 1.1868149,0.5295 1.1868149,0.72121 z m -1.8258691,0.52038 q 0,0.22823 -0.1095521,0.54776 -0.1369402,0.38343 -0.3103978,0.38343 -0.082164,0 -0.6755715,-0.34691 -0.6299249,-0.37431 -0.6299249,-0.52951 0,-0.11868 0.4564673,-1.12291 0.2738804,0.27388 0.8672878,0.6208 0.4016912,0.23736 0.4016912,0.44734 z m 2.1910429,4.93897 q 0,0.90381 -0.4382085,1.69806 -0.712089,0.76687 -1.7802224,1.26898 -0.97684,0.45647 -1.6980583,0.45647 0,-0.63906 0,-1.27811 1.0863922,0 1.8897746,-0.34692 0.766865,-0.32865 1.6158941,-1.13203 -0.1460695,-0.52038 -1.241591,-0.49299 -0.8855465,0.0183 -0.7029596,0.0183 -0.5386314,0 -0.766865,-0.18259 -0.2830097,-0.23736 -0.3012684,-0.89467 -0.018259,-0.83077 0.4838553,-1.43331 0.4564673,-0.53863 0.9859693,-0.53863 0.502114,0 1.1868149,0.85816 0.766865,0.95858 0.766865,1.99932 z m -1.2781083,-0.95858 q -0.3743032,-0.41082 -0.4108206,-0.43821 -0.2282336,-0.19171 -0.529502,-0.19171 -0.4655966,0 -0.4929847,0.41995 0.1004228,0.1552 0.474726,0.16433 0.264751,0 0.5386314,-0.009 0.2099749,0.0182 0.4199499,0.0548 z m -2.6748963,4.38209 q -1.4606953,0.0548 -2.3645005,-0.9312 -0.2738804,-0.30126 -0.6481835,-1.03161 -0.2556217,-0.51124 -0.529502,-0.5295 -0.36517386,-0.0274 -0.97684001,0.51124 -0.60253679,0.5295 -0.83077043,1.03162 -0.39256186,0.97684 -0.79425306,1.953676 -0.4290792,0.912934 -1.0224867,0.912934 -0.7303476,0 -1.3054964,-0.96771 -0.6025368,-1.03162 -0.6025368,-2.5197 0,-0.59341 0.1734576,-1.59764 0.063905,-0.3743 0.1734576,-0.3743 0.1186814,0 0.1004228,0.42908 -0.00913,0.34692 -0.045647,0.776 -0.018259,0.32865 -0.018259,0.53863 0,0.84903 0.3012684,1.66154 0.3743032,1.040743 1.004228,1.040743 0.5477608,0 0.8946759,-0.639054 0.3195271,-0.766869 0.6299248,-1.524599 0.46559663,-1.09552 1.1229095,-1.78935 0.73034764,-0.776 1.3967899,-0.776 0.3377857,0 0.7120889,0.60254 0.5842781,0.95858 0.6573129,1.04074 0.7851237,0.90381 1.9719386,0.90381 z m -9.3028034,-1.97194 q 0,0.4656 -0.209975,0.88555 -0.2373629,0.44733 -0.5477607,0.44733 -0.3469151,0 -1.0407454,-0.33778 -0.794253,-0.40169 -1.1594268,-0.88555 -0.5295021,0.89468 -0.712089,1.09552 -0.6664422,0.76687 -1.5702469,0.76687 v -1.27811 q 0.620795,0 1.1776851,-0.22823 0.3469151,-0.14607 0.8581584,-0.89468 0.4838553,-0.70296 0.5842781,-0.70296 0.045647,0 0.082164,0.0639 0.6207954,-1.17769 1.3511431,-1.17769 0.5934074,0 0.9129345,0.72122 0.2738804,0.61166 0.2738804,1.5246 z m -0.9311933,-0.11868 q -0.00913,-0.32866 -0.1917162,-0.59341 -0.1734576,-0.27388 -0.3743032,-0.27388 -0.3834325,0 -0.6025368,0.20085 0.4108206,0.3743 0.4655966,0.41082 0.3012684,0.20997 0.7029596,0.25562 z m -10.9004385,0.87641 q -0.05478,0.30127 -0.100423,0.60254 -0.100423,0.4656 -0.237363,0.4656 -0.164328,0 -0.620796,-0.23736 -0.41995,-0.21911 -0.456467,-0.27389 -0.02739,-0.0639 -0.04565,-0.2191 0.100423,-0.3104 0.246493,-0.89468 0.02739,-0.17345 0.100422,-0.16432 0,0 0.155199,0.10042 0.273881,0.10955 0.821641,0.38343 0.06391,0.0183 0.118682,0.0456 0.05478,0.0274 0.01826,0.19171 z m 6.7191977,1.21421 q -0.8490287,0 -1.3876607,-0.40169 0.08216,0.43821 0.08216,0.912931 0,1.25985 -0.456467,1.935421 -0.566019,0.830771 -2.79358,2.163655 -2.63838,1.588506 -4.45512,1.588506 -1.917163,0 -2.903132,-1.232461 -0.903805,-1.12291 -0.903805,-3.085719 0,-1.186815 0.337786,-2.537963 0.0639,-0.27388 0.13694,-0.42907 0.13694,-0.32866 0.191716,-0.073 0.04565,0.25562 -0.07304,0.76687 -0.209975,0.885542 -0.209975,1.707183 0,3.523928 3.606092,3.523928 1.278108,0 3.094848,-0.821641 1.451566,-0.657313 2.79358,-1.606765 1.214202,-0.858159 1.205073,-1.077263 -0.08216,-1.433312 -0.903805,-2.665772 -0.05478,-0.0822 0.01826,-0.62992 0.09129,-0.69383 0.09129,-0.76687 0.05478,-0.10042 0.13694,-0.0183 0.246493,0.30127 0.730348,0.9951 0.684701,0.47473 1.6615407,0.47473 z m -14.3239437,-3.97127 q -0.173458,0.41082 -0.547761,0.92207 -1.570247,0.85815 -4.46425,2.28233 -1.780222,0.76687 -2.638381,0.76687 v -1.27811 q 1.54286,0 2.51057,-0.41082 -2.127137,-1.22333 -2.127137,-2.64751 0,-1.10465 0.766865,-1.87152 0.721218,-0.73034 1.67067,-0.7486 1.013357,-0.0274 1.935421,0.41995 0.785124,0.3743 0.785124,0.62079 0,0.0639 -0.100423,0.0639 -0.07304,0 -0.182587,-0.0274 -0.803382,-0.21911 -1.150297,-0.21911 -0.830771,0 -2.008456,0.39257 -1.232462,0.41082 -1.232462,0.7486 0,0.60254 0.958581,1.44244 1.095522,0.94945 2.318854,0.94945 0.127811,0 0.255622,-0.009 0.97684,-0.5295 3.049201,-1.57025 0.28301,-0.12781 0.28301,-0.0182 0,0.0639 -0.08216,0.19171 z m -5.203727,-5.11243 q 0,0.63905 -0.374303,1.07726 -0.538632,-0.27388 -1.077263,-0.54776 -0.264751,-0.14607 -0.264751,-0.31953 0.109552,-0.31952 0.337786,-1.12291 0.237363,0.19172 0.903805,0.50212 0.474726,0.22823 0.474726,0.41082 z m -2.337112,9.0837 q -0.292139,0.009 -0.492985,-0.0822 0.08216,0.401695 0.08216,0.766869 0,0.648183 -0.328656,1.561118 -0.08216,0.228233 -0.867288,0.922064 -0.967711,0.867287 -2.026715,1.424177 -1.415048,0.739477 -2.684027,0.739477 -2.063232,0 -2.063232,-2.665768 0,-1.935422 0.712089,-3.341337 0.191716,-0.38344 0.319527,-0.38344 0.05478,0 0.05478,0.10956 0,0.13694 -0.109552,0.39256 -0.529502,1.22333 -0.529502,2.401015 0,2.209302 1.698058,2.200173 1.761964,-0.0091 3.660867,-1.250721 1.570248,-1.031616 1.734576,-1.597635 0.01826,-0.07304 0.01826,-0.155199 0,-0.511243 -0.931194,-1.908033 -0.02739,-0.0365 -0.02739,-0.12781 0,-0.14607 0.08216,-0.56602 0.08216,-0.42908 0.08216,-0.55689 0.04565,-0.0822 0.127811,-0.0183 0.209974,0.30127 0.602536,0.78512 0.06391,0.073 0.885547,0.073 z m -5.897557,-2.97617 q 0.127811,0.95858 -0.639054,1.85326 -0.310398,0.36517 -0.922064,0.71209 -0.730348,0.41082 -1.287238,0.41082 0,-0.63906 0,-1.27811 0.821641,0 1.707188,-0.48386 0.794253,-0.4382 0.721218,-0.62079 -0.127811,-0.31953 -0.995099,-1.32376 -0.83077,-0.95858 -1.150297,-1.91716 -0.191716,0 -0.182587,-0.10042 0.03652,-0.33779 0.109552,-0.9312 0.05478,-0.283 0.191716,-0.15519 0.456468,0.31952 1.11378,0.81251 0.228234,0.19171 0.228234,0.30127 0,0.0913 -0.155199,0.0913 -0.255621,0 -0.447338,-0.0365 0.08216,0.24649 0.885547,1.16856 0.730347,0.84903 0.821641,1.49721 z m -0.684701,5.441091 q 0,0.602537 -0.374303,1.086392 -0.529502,-0.27388 -1.068134,-0.55689 -0.264751,-0.14607 -0.264751,-0.310398 0,0.06391 0.328657,-1.141168 0.237363,0.200846 0.903805,0.520373 0.474726,0.219104 0.474726,0.401691 z m -2.163655,-2.464921 h -1.561118 v -1.27811 h 1.561118 z m -1.597636,0 q -1.460695,0.0548 -2.3645,-0.9312 -0.273881,-0.30126 -0.648184,-1.03161 -0.255621,-0.51124 -0.529502,-0.5295 -0.365174,-0.0274 -0.97684,0.51124 -0.602537,0.5295 -0.83077,1.03162 -0.392562,0.97684 -0.794253,1.953676 -0.42908,0.912934 -1.022487,0.912934 -0.730348,0 -1.305496,-0.96771 -0.602537,-1.03162 -0.602537,-2.5197 0,-0.59341 0.173457,-1.59764 0.06391,-0.3743 0.173458,-0.3743 0.118681,0 0.100423,0.42908 -0.0091,0.34692 -0.04565,0.776 -0.01826,0.32865 -0.01826,0.53863 0,0.84903 0.301269,1.66154 0.374303,1.040743 1.004228,1.040743 0.54776,0 0.894676,-0.639054 0.319527,-0.766869 0.629924,-1.524599 0.465597,-1.09552 1.12291,-1.78935 0.730348,-0.776 1.39679,-0.776 0.337786,0 0.712089,0.60254 0.584278,0.95858 0.657313,1.04074 0.785123,0.90381 1.971938,0.90381 z"
         id="path6" />
    </g>
  </g>
</svg>
